<?xml version="1.0" encoding="utf-8"?>
<!-- Generator: Adobe Illustrator 22.1.0, SVG Export Plug-In . SVG Version: 6.00 Build 0)  -->
<svg version="1.1" xmlns="http://www.w3.org/2000/svg" xmlns:xlink="http://www.w3.org/1999/xlink" x="0px" y="0px"
	 viewBox="0 0 800 500" style="enable-background:new 0 0 800 500;" xml:space="preserve">
<style type="text/css">
	.st0{fill:#668DA0;}
	.st1{fill:#D0E2E0;}
	.st2{fill:#E1EEED;}
	.st3{fill:#44758E;}
	.st4{fill:#A9C8DB;}
	.st5{fill:#C4D9E8;}
	.st6{fill:#98B4C9;}
	.st7{fill:#7EA1B7;}
	.st8{fill-rule:evenodd;clip-rule:evenodd;fill:#A9C8DB;}
	.st9{display:none;}
	.st10{display:inline;}
	.st11{fill:#EBF2F1;}
	.st12{fill:#B7CDDE;}
	.st13{fill:#202F51;}
	.st14{fill:none;}
	.st15{fill:#E5E5E5;}
</style>
<g id="Layer_1">
</g>
<g id="Layer_2">
	<polygon class="st0" points="839,313.1 798.2,230 428.2,230 359.8,298.4 410.2,299.9 410.2,368 0,368 0,500 800,500 800,400 
		800,396 800,311.9 	"/>
	<g>
		<rect class="st1" width="455.2" height="236.2"/>
		<rect x="455.2" class="st2" width="344.8" height="236.2"/>
	</g>
	<path class="st3" d="M216.1,368c-1.3,0.2-2.5,0.4-3.8,0.5c-2-0.2-4-0.4-6-0.5H-11.1c-30.4,26-137.2,92.4-114.1,126.1
		c30.3,44.2,168,34.3,232.5-15c18.6-14.3,88.5-39.5,151.8-39.5c46,0,57.8-6.1,97.3-28.4c2-20.1,1.4-29.7,1.7-43.2H216.1z"/>
	<ellipse class="st4" cx="633.6" cy="269.9" rx="205.5" ry="37.9"/>
	<ellipse class="st5" cx="633.6" cy="255.8" rx="205.5" ry="37.9"/>
	<rect x="-22.4" y="63.8" class="st6" width="477.7" height="6"/>
	<rect x="-22.4" y="132.2" class="st6" width="477.7" height="6"/>
	<rect x="-22.4" y="200.5" class="st7" width="477.7" height="6"/>
	<rect x="-22.7" y="362" class="st7" width="477.7" height="6"/>
	<rect x="-22.4" y="206.5" class="st6" width="477.7" height="155.5"/>
	<path class="st8" d="M89.2,27.4v-4.7h0c0.1,0,0.2-0.1,0.2-0.2v-5.1c0-0.1-0.1-0.2-0.2-0.2h-4c-0.1,0-0.2,0.1-0.2,0.2v5.1
		c0,0.1,0.1,0.2,0.2,0.2h0v4.7c0,1-0.8,2.9-1.8,2.9h0c-1.6,0-2.9,2.4-2.9,4v27.1c0,1.4,1.1,2.5,2.5,2.5h8.5c1.4,0,2.5-1.1,2.5-2.5
		V34.2c0-1.6-1.3-4-2.9-4h0C90,30.3,89.2,28.4,89.2,27.4z"/>
	<path class="st4" d="M290.3,47c0-5.4,0.2-9.5-2.1-17c-2.3-7.4-2.7-14.4-2.7-15.5c0-1.2,0-1.4,0.3-1.9c0.3-0.5,0-1.3,0-1.3l-0.4-1
		h0.2v-1c0,0,0.2-1-0.9-1h-4.6c-1,0-0.9,1-0.9,1v1h0.2l-0.4,1c0,0-0.3,0.8,0,1.3c0.3,0.5,0.3,0.7,0.3,1.9c0,1.2-0.3,8.1-2.7,15.5
		c-2.3,7.4-2.1,11.6-2.1,17c0,5.4,0,13.9,0,13.9s-0.1,2.9,2.7,2.9h10.2c2.8,0,2.8-2.9,2.8-2.9S290.3,52.4,290.3,47z"/>
	<path class="st4" d="M41.9,47c0-5.4,0.2-9.5-2.1-17c-2.3-7.4-2.7-14.4-2.7-15.5c0-1.2,0-1.4,0.3-1.9c0.3-0.5,0-1.3,0-1.3l-0.4-1
		h0.2v-1c0,0,0.2-1-0.9-1h-4.6c-1,0-0.9,1-0.9,1v1h0.2l-0.4,1c0,0-0.3,0.8,0,1.3c0.3,0.5,0.3,0.7,0.3,1.9c0,1.2-0.3,8.1-2.7,15.5
		c-2.3,7.4-2.1,11.6-2.1,17c0,5.4,0,13.9,0,13.9s-0.1,2.9,2.7,2.9h10.2c2.8,0,2.8-2.9,2.8-2.9S41.9,52.4,41.9,47z"/>
	<path class="st4" d="M72.2,32.9c0,0-5.9-2.8-6.8-2.9c-0.6-0.1-1.1-0.7-1.1-1.3v-5.5c0.2,0,0.3-0.2,0.3-0.4v0c0-0.2-0.2-0.4-0.3-0.4
		v-0.5h0c0.2,0,0.4-0.2,0.4-0.4v-3.1c0-0.2-0.2-0.4-0.4-0.4h-6.1c-0.2,0-0.4,0.2-0.4,0.4v3.1c0,0.2,0.2,0.4,0.4,0.4h0v0.5
		c-0.2,0-0.3,0.2-0.3,0.4v0c0,0.2,0.2,0.4,0.3,0.4v5.5c0,0.6-0.4,1.2-1.1,1.3c-0.9,0.2-6.8,2.9-6.8,2.9c-0.8,0.4-1.3,1.2-1.3,2.1
		v11.7v14.9c0,1.3,1,2.3,2.3,2.3l9.2-0.5c0.5,0,0.9,0,1.4,0l9.2,0.5c1.3,0,2.3-1,2.3-2.3V46.7V35C73.6,34.1,73,33.3,72.2,32.9z"/>
	<path class="st4" d="M-48.4,61.2c0-0.6,0.1-23.3,0-26.8c-0.1-3.5-3.2-5.2-3.2-5.2c0.1-3.2-0.3-8.3-0.9-10.4
		c-0.5-1.8-0.6-2.9-0.4-3.4c0.3,0,0.5-0.3,0.5-0.6v0c0-0.3-0.2-0.5-0.5-0.6c-0.2-0.2-0.3-0.6,0.1-0.7c0.4-0.1,0.3-1.6-0.2-1.8
		c-0.2-0.1-1.8-0.1-3.1-0.1c-1.4,0-2.9,0-3.1,0.1c-0.5,0.2-0.7,1.7-0.2,1.8c0.4,0.1,0.3,0.5,0.1,0.7c-0.3,0.1-0.5,0.3-0.5,0.6v0
		c0,0.3,0.2,0.6,0.5,0.6c0.2,0.5,0.1,1.6-0.4,3.4c-0.6,2.2-1,7.2-0.9,10.4c0,0-3,1.6-3.2,5.2c-0.1,3.5,0,26.2,0,26.8
		c0,0.6-0.5,2.6,3.5,2.6h3.9h0.3h3.9C-47.9,63.8-48.5,61.8-48.4,61.2z"/>
	<path class="st4" d="M-26.5,55.3c-0.4-1.9,0-13.8,0-19.3c0-5.5-3.4-9-3.7-10.3c-0.3-1.2-0.7-6.7-0.9-9.1c-0.1-1.1-0.1-2.2-0.2-3.1
		c0.2-0.1,0.4-0.3,0.4-0.6v0c0-0.3-0.2-0.6-0.5-0.6c0-0.5-0.1-0.8-0.1-0.8c0.2-0.2,0.3-0.4,0.3-0.6c0.1-0.6-0.4-1.2-1-1.2h-3.9
		c-0.6,0-1.2,0.6-1,1.2c0,0.2,0.1,0.4,0.3,0.6c0,0,0,0.3-0.1,0.8c-0.3,0-0.5,0.3-0.5,0.6v0c0,0.3,0.2,0.6,0.4,0.6
		c-0.1,0.9-0.1,2.1-0.2,3.1c-0.2,2.4-0.6,7.8-0.9,9.1c-0.3,1.2-3.7,4.7-3.7,10.3c0,5.5,0.4,17.4,0,19.3c-0.2,1.1-0.6,3.3-0.4,5.2
		c0.2,1.9,1.8,3.4,3.8,3.3c1,0,2.4-0.1,4.1-0.1c0.1,0,0.2,0,0.2,0c1.7,0.1,3.1,0.1,4.1,0.1c1.9,0,3.6-1.4,3.8-3.3
		C-26,58.6-26.3,56.4-26.5,55.3z"/>
	<path class="st8" d="M408.7,27.4v-4.7h0c0.1,0,0.2-0.1,0.2-0.2v-5.1c0-0.1-0.1-0.2-0.2-0.2h-4c-0.1,0-0.2,0.1-0.2,0.2v5.1
		c0,0.1,0.1,0.2,0.2,0.2h0v4.7c0,1-0.8,2.9-1.8,2.9h0c-1.6,0-2.9,2.4-2.9,4v27.1c0,1.4,1.1,2.5,2.5,2.5h8.5c1.4,0,2.5-1.1,2.5-2.5
		V34.2c0-1.6-1.3-4-2.9-4h0C409.5,30.3,408.7,28.4,408.7,27.4z"/>
	<path class="st8" d="M109.8,27.4v-4.7h0c0.1,0,0.2-0.1,0.2-0.2v-5.1c0-0.1-0.1-0.2-0.2-0.2h-4c-0.1,0-0.2,0.1-0.2,0.2v5.1
		c0,0.1,0.1,0.2,0.2,0.2h0v4.7c0,1-0.8,2.9-1.8,2.9h0c-1.6,0-2.9,2.4-2.9,4v27.1c0,1.4,1.1,2.5,2.5,2.5h8.5c1.4,0,2.5-1.1,2.5-2.5
		V34.2c0-1.6-1.3-4-2.9-4h0C110.6,30.3,109.8,28.4,109.8,27.4z"/>
	<path class="st4" d="M265.5,47c0-5.4,0.2-9.5-2.1-17c-2.3-7.4-2.7-14.4-2.7-15.5c0-1.2,0-1.4,0.3-1.9c0.3-0.5,0-1.3,0-1.3l-0.4-1
		h0.2v-1c0,0,0.2-1-0.9-1h-4.6c-1,0-0.9,1-0.9,1v1h0.2l-0.4,1c0,0-0.3,0.8,0,1.3c0.3,0.5,0.3,0.7,0.3,1.9c0,1.2-0.3,8.1-2.7,15.5
		c-2.3,7.4-2.1,11.6-2.1,17c0,5.4,0,13.9,0,13.9s-0.1,2.9,2.7,2.9h10.2c2.8,0,2.8-2.9,2.8-2.9S265.5,52.4,265.5,47z"/>
	<path class="st4" d="M178.2,47c0-5.4,0.2-9.5-2.1-17c-2.3-7.4-2.7-14.4-2.7-15.5c0-1.2,0-1.4,0.3-1.9c0.3-0.5,0-1.3,0-1.3l-0.4-1
		h0.2v-1c0,0,0.2-1-0.9-1h-4.6c-1,0-0.9,1-0.9,1v1h0.2l-0.4,1c0,0-0.3,0.8,0,1.3c0.3,0.5,0.3,0.7,0.3,1.9c0,1.2-0.3,8.1-2.7,15.5
		c-2.3,7.4-2.1,11.6-2.1,17c0,5.4,0,13.9,0,13.9s-0.1,2.9,2.7,2.9h10.2c2.8,0,2.8-2.9,2.8-2.9S178.2,52.4,178.2,47z"/>
	<path class="st4" d="M153.3,47c0-5.4,0.2-9.5-2.1-17c-2.3-7.4-2.7-14.4-2.7-15.5c0-1.2,0-1.4,0.3-1.9c0.3-0.5,0-1.3,0-1.3l-0.4-1
		h0.2v-1c0,0,0.2-1-0.9-1h-4.6c-1,0-0.9,1-0.9,1v1h0.2l-0.4,1c0,0-0.3,0.8,0,1.3c0.3,0.5,0.3,0.7,0.3,1.9c0,1.2-0.3,8.1-2.7,15.5
		c-2.3,7.4-2.1,11.6-2.1,17c0,5.4,0,13.9,0,13.9s-0.1,2.9,2.7,2.9h10.2c2.8,0,2.8-2.9,2.8-2.9S153.3,52.4,153.3,47z"/>
	<path class="st4" d="M361.4,47c0-5.4,0.2-9.5-2.1-17c-2.3-7.4-2.7-14.4-2.7-15.5c0-1.2,0-1.4,0.3-1.9c0.3-0.5,0-1.3,0-1.3l-0.4-1
		h0.2v-1c0,0,0.2-1-0.9-1h-4.6c-1,0-0.9,1-0.9,1v1h0.2l-0.4,1c0,0-0.3,0.8,0,1.3c0.3,0.5,0.3,0.7,0.3,1.9c0,1.2-0.3,8.1-2.7,15.5
		c-2.3,7.4-2.1,11.6-2.1,17c0,5.4,0,13.9,0,13.9s-0.1,2.9,2.7,2.9h10.2c2.8,0,2.8-2.9,2.8-2.9S361.4,52.4,361.4,47z"/>
	<path class="st4" d="M219.5,32.9c0,0-5.9-2.8-6.8-2.9c-0.6-0.1-1.1-0.7-1.1-1.3v-5.5c0.2,0,0.3-0.2,0.3-0.4v0
		c0-0.2-0.2-0.4-0.3-0.4v-0.5h0c0.2,0,0.4-0.2,0.4-0.4v-3.1c0-0.2-0.2-0.4-0.4-0.4h-6.1c-0.2,0-0.4,0.2-0.4,0.4v3.1
		c0,0.2,0.2,0.4,0.4,0.4h0v0.5c-0.2,0-0.3,0.2-0.3,0.4v0c0,0.2,0.2,0.4,0.3,0.4v5.5c0,0.6-0.4,1.2-1.1,1.3c-0.9,0.2-6.8,2.9-6.8,2.9
		c-0.8,0.4-1.3,1.2-1.3,2.1v11.7v14.9c0,1.3,1,2.3,2.3,2.3l9.2-0.5c0.5,0,0.9,0,1.4,0l9.2,0.5c1.3,0,2.3-1,2.3-2.3V46.7V35
		C220.9,34.1,220.3,33.3,219.5,32.9z"/>
	<path class="st4" d="M244.6,183.3c0-5.4,0.2-9.5-2.1-17c-2.3-7.4-2.7-14.4-2.7-15.5c0-1.2,0-1.4,0.3-1.9c0.3-0.5,0-1.3,0-1.3
		l-0.4-1h0.2v-1c0,0,0.2-1-0.9-1h-4.6c-1,0-0.9,1-0.9,1v1h0.2l-0.4,1c0,0-0.3,0.8,0,1.3c0.3,0.5,0.3,0.7,0.3,1.9
		c0,1.2-0.3,8.1-2.7,15.5c-2.3,7.4-2.1,11.6-2.1,17c0,5.4,0,13.9,0,13.9s-0.1,2.9,2.7,2.9h10.2c2.8,0,2.8-2.9,2.8-2.9
		S244.6,188.7,244.6,183.3z"/>
	<path class="st4" d="M173.8,169.1c0,0-5.9-2.8-6.8-2.9c-0.6-0.1-1.1-0.7-1.1-1.3v-5.5c0.2,0,0.3-0.2,0.3-0.4v0
		c0-0.2-0.2-0.4-0.3-0.4V158h0c0.2,0,0.4-0.2,0.4-0.4v-3.1c0-0.2-0.2-0.4-0.4-0.4h-6.1c-0.2,0-0.4,0.2-0.4,0.4v3.1
		c0,0.2,0.2,0.4,0.4,0.4h0v0.5c-0.2,0-0.3,0.2-0.3,0.4v0c0,0.2,0.2,0.4,0.3,0.4v5.5c0,0.6-0.4,1.2-1.1,1.3c-0.9,0.2-6.8,2.9-6.8,2.9
		c-0.8,0.4-1.3,1.2-1.3,2.1v11.7v14.9c0,1.3,1,2.3,2.3,2.3l9.2-0.5c0.5,0,0.9,0,1.4,0l9.2,0.5c1.3,0,2.3-1,2.3-2.3v-14.9v-11.7
		C175.1,170.3,174.6,169.5,173.8,169.1z"/>
	<path class="st4" d="M316.1,61.2c0-0.6,0.1-23.3,0-26.8c-0.1-3.5-3.2-5.2-3.2-5.2c0.1-3.2-0.3-8.3-0.9-10.4
		c-0.5-1.8-0.6-2.9-0.4-3.4c0.3,0,0.5-0.3,0.5-0.6v0c0-0.3-0.2-0.5-0.5-0.6c-0.2-0.2-0.3-0.6,0.1-0.7c0.4-0.1,0.3-1.6-0.2-1.8
		c-0.2-0.1-1.8-0.1-3.1-0.1c-1.4,0-2.9,0-3.1,0.1c-0.5,0.2-0.7,1.7-0.2,1.8c0.4,0.1,0.3,0.5,0.1,0.7c-0.3,0.1-0.5,0.3-0.5,0.6v0
		c0,0.3,0.2,0.6,0.5,0.6c0.2,0.5,0.1,1.6-0.4,3.4c-0.6,2.2-1,7.2-0.9,10.4c0,0-3,1.6-3.2,5.2c-0.1,3.5,0,26.2,0,26.8
		c0,0.6-0.5,2.6,3.5,2.6h3.9h0.3h3.9C316.6,63.8,316.1,61.8,316.1,61.2z"/>
	<path class="st4" d="M338,55.3c-0.4-1.9,0-13.8,0-19.3c0-5.5-3.4-9-3.7-10.3c-0.3-1.2-0.7-6.7-0.9-9.1c-0.1-1.1-0.1-2.2-0.2-3.1
		c0.2-0.1,0.4-0.3,0.4-0.6v0c0-0.3-0.2-0.6-0.5-0.6c0-0.5-0.1-0.8-0.1-0.8c0.2-0.2,0.3-0.4,0.3-0.6c0.1-0.6-0.4-1.2-1-1.2h-3.9
		c-0.6,0-1.2,0.6-1,1.2c0,0.2,0.1,0.4,0.3,0.6c0,0,0,0.3-0.1,0.8c-0.3,0-0.5,0.3-0.5,0.6v0c0,0.3,0.2,0.6,0.4,0.6
		c-0.1,0.9-0.1,2.1-0.2,3.1c-0.2,2.4-0.6,7.8-0.9,9.1c-0.3,1.2-3.7,4.7-3.7,10.3c0,5.5,0.4,17.4,0,19.3c-0.2,1.1-0.6,3.3-0.4,5.2
		c0.2,1.9,1.8,3.4,3.8,3.3c1,0,2.4-0.1,4.1-0.1c0.1,0,0.2,0,0.2,0c1.7,0.1,3.1,0.1,4.1,0.1c1.9,0,3.6-1.4,3.8-3.3
		C338.6,58.6,338.2,56.4,338,55.3z"/>
	<path class="st8" d="M335.7,162.9v-4.7h0c0.1,0,0.2-0.1,0.2-0.2V153c0-0.1-0.1-0.2-0.2-0.2h-4c-0.1,0-0.2,0.1-0.2,0.2v5.1
		c0,0.1,0.1,0.2,0.2,0.2h0v4.7c0,1-0.8,2.9-1.8,2.9h0c-1.6,0-2.9,2.4-2.9,4v27.1c0,1.4,1.1,2.5,2.5,2.5h8.5c1.4,0,2.5-1.1,2.5-2.5
		v-27.1c0-1.6-1.3-4-2.9-4h0C336.5,165.8,335.7,163.9,335.7,162.9z"/>
	<path class="st4" d="M265.1,190.9c-0.4-1.9,0-13.8,0-19.3c0-5.5-3.4-9-3.7-10.3c-0.3-1.2-0.7-6.7-0.9-9.1c-0.1-1.1-0.1-2.2-0.2-3.1
		c0.2-0.1,0.4-0.3,0.4-0.6v0c0-0.3-0.2-0.6-0.5-0.6c0-0.5-0.1-0.8-0.1-0.8c0.2-0.2,0.3-0.4,0.3-0.6c0.1-0.6-0.4-1.2-1-1.2h-3.9
		c-0.6,0-1.2,0.6-1,1.2c0,0.2,0.1,0.4,0.3,0.6c0,0,0,0.3-0.1,0.8c-0.3,0-0.5,0.3-0.5,0.6v0c0,0.3,0.2,0.6,0.4,0.6
		c-0.1,0.9-0.1,2.1-0.2,3.1c-0.2,2.4-0.6,7.8-0.9,9.1c-0.3,1.2-3.7,4.7-3.7,10.3c0,5.5,0.4,17.4,0,19.3c-0.2,1.1-0.6,3.3-0.4,5.2
		c0.2,1.9,1.8,3.4,3.8,3.3c1,0,2.4-0.1,4.1-0.1c0.1,0,0.2,0,0.2,0c1.7,0.1,3.1,0.1,4.1,0.1c1.9,0,3.6-1.4,3.8-3.3
		C265.6,194.1,265.3,191.9,265.1,190.9z"/>
	<path class="st8" d="M119,95.7V91h0c0.1,0,0.2-0.1,0.2-0.2v-5.1c0-0.1-0.1-0.2-0.2-0.2h-4c-0.1,0-0.2,0.1-0.2,0.2v5.1
		c0,0.1,0.1,0.2,0.2,0.2h0v4.7c0,1-0.8,2.9-1.8,2.9h0c-1.6,0-2.9,2.4-2.9,4v27.1c0,1.4,1.1,2.5,2.5,2.5h8.5c1.4,0,2.5-1.1,2.5-2.5
		v-27.1c0-1.6-1.3-4-2.9-4h0C119.8,98.6,119,96.7,119,95.7z"/>
	<path class="st8" d="M-54.9,95.7V91h0c0.1,0,0.2-0.1,0.2-0.2v-5.1c0-0.1-0.1-0.2-0.2-0.2h-4c-0.1,0-0.2,0.1-0.2,0.2v5.1
		c0,0.1,0.1,0.2,0.2,0.2h0v4.7c0,1-0.8,2.9-1.8,2.9h0c-1.6,0-2.9,2.4-2.9,4v27.1c0,1.4,1.1,2.5,2.5,2.5h8.5c1.4,0,2.5-1.1,2.5-2.5
		v-27.1c0-1.6-1.3-4-2.9-4h0C-54.1,98.6-54.9,96.7-54.9,95.7z"/>
	<path class="st4" d="M157.9,115.4c0-5.4,0.2-9.5-2.1-17c-2.3-7.4-2.7-14.4-2.7-15.5c0-1.2,0-1.4,0.3-1.9c0.3-0.5,0-1.3,0-1.3
		l-0.4-1h0.2v-1c0,0,0.2-1-0.9-1h-4.6c-1,0-0.9,1-0.9,1v1h0.2l-0.4,1c0,0-0.3,0.8,0,1.3c0.3,0.5,0.3,0.7,0.3,1.9
		c0,1.2-0.3,8.1-2.7,15.5c-2.3,7.4-2.1,11.6-2.1,17c0,5.4,0,13.9,0,13.9s-0.1,2.9,2.7,2.9h10.2c2.8,0,2.8-2.9,2.8-2.9
		S157.9,120.8,157.9,115.4z"/>
	<path class="st4" d="M441.9,115.4c0-5.4,0.2-9.5-2.1-17c-2.3-7.4-2.7-14.4-2.7-15.5c0-1.2,0-1.4,0.3-1.9s0-1.3,0-1.3l-0.4-1h0.2v-1
		c0,0,0.2-1-0.9-1h-4.6c-1,0-0.9,1-0.9,1v1h0.2l-0.4,1c0,0-0.3,0.8,0,1.3c0.3,0.5,0.3,0.7,0.3,1.9c0,1.2-0.3,8.1-2.7,15.5
		c-2.3,7.4-2.1,11.6-2.1,17c0,5.4,0,13.9,0,13.9s-0.1,2.9,2.7,2.9h10.2c2.8,0,2.8-2.9,2.8-2.9S441.9,120.8,441.9,115.4z"/>
	<path class="st4" d="M421.3,115.4c0-5.4,0.2-9.5-2.1-17c-2.3-7.4-2.7-14.4-2.7-15.5c0-1.2,0-1.4,0.3-1.9c0.3-0.5,0-1.3,0-1.3
		l-0.4-1h0.2v-1c0,0,0.2-1-0.9-1h-4.6c-1,0-0.9,1-0.9,1v1h0.2l-0.4,1c0,0-0.3,0.8,0,1.3c0.3,0.5,0.3,0.7,0.3,1.9
		c0,1.2-0.3,8.1-2.7,15.5c-2.3,7.4-2.1,11.6-2.1,17c0,5.4,0,13.9,0,13.9s-0.1,2.9,2.7,2.9h10.2c2.8,0,2.8-2.9,2.8-2.9
		S421.3,120.8,421.3,115.4z"/>
	<path class="st4" d="M60.1,115.4c0-5.4,0.2-9.5-2.1-17C55.6,91,55.3,84,55.3,82.9c0-1.2,0-1.4,0.3-1.9c0.3-0.5,0-1.3,0-1.3l-0.4-1
		h0.2v-1c0,0,0.2-1-0.9-1H50c-1,0-0.9,1-0.9,1v1h0.2l-0.4,1c0,0-0.3,0.8,0,1.3c0.3,0.5,0.3,0.7,0.3,1.9c0,1.2-0.3,8.1-2.7,15.5
		c-2.3,7.4-2.1,11.6-2.1,17c0,5.4,0,13.9,0,13.9s-0.1,2.9,2.7,2.9h10.2c2.8,0,2.8-2.9,2.8-2.9S60.1,120.8,60.1,115.4z"/>
	<path class="st4" d="M90.4,101.2c0,0-5.9-2.8-6.8-2.9c-0.6-0.1-1.1-0.7-1.1-1.3v-5.5c0.2,0,0.3-0.2,0.3-0.4v0
		c0-0.2-0.2-0.4-0.3-0.4v-0.5h0c0.2,0,0.4-0.2,0.4-0.4v-3.1c0-0.2-0.2-0.4-0.4-0.4h-6.1c-0.2,0-0.4,0.2-0.4,0.4v3.1
		c0,0.2,0.2,0.4,0.4,0.4h0v0.5c-0.2,0-0.3,0.2-0.3,0.4v0c0,0.2,0.2,0.4,0.3,0.4V97c0,0.6-0.4,1.2-1.1,1.3c-0.9,0.2-6.8,2.9-6.8,2.9
		c-0.8,0.4-1.3,1.2-1.3,2.1V115v14.9c0,1.3,1,2.3,2.3,2.3l9.2-0.5c0.5,0,0.9,0,1.4,0l9.2,0.5c1.3,0,2.3-1,2.3-2.3V115v-11.7
		C91.7,102.4,91.2,101.6,90.4,101.2z"/>
	<path class="st4" d="M-32.1,183.3c0-5.4,0.2-9.5-2.1-17c-2.3-7.4-2.7-14.4-2.7-15.5c0-1.2,0-1.4,0.3-1.9c0.3-0.5,0-1.3,0-1.3
		l-0.4-1h0.2v-1c0,0,0.2-1-0.9-1h-4.6c-1,0-0.9,1-0.9,1v1h0.2l-0.4,1c0,0-0.3,0.8,0,1.3c0.3,0.5,0.3,0.7,0.3,1.9
		c0,1.2-0.3,8.1-2.7,15.5c-2.3,7.4-2.1,11.6-2.1,17c0,5.4,0,13.9,0,13.9s-0.1,2.9,2.7,2.9h10.2c2.8,0,2.8-2.9,2.8-2.9
		S-32.1,188.7-32.1,183.3z"/>
	<path class="st4" d="M43.3,169.1c0,0-5.9-2.8-6.8-2.9c-0.6-0.1-1.1-0.7-1.1-1.3v-5.5c0.2,0,0.3-0.2,0.3-0.4v0
		c0-0.2-0.2-0.4-0.3-0.4V158h0c0.2,0,0.4-0.2,0.4-0.4v-3.1c0-0.2-0.2-0.4-0.4-0.4h-6.1c-0.2,0-0.4,0.2-0.4,0.4v3.1
		c0,0.2,0.2,0.4,0.4,0.4h0v0.5c-0.2,0-0.3,0.2-0.3,0.4v0c0,0.2,0.2,0.4,0.3,0.4v5.5c0,0.6-0.4,1.2-1.1,1.3c-0.9,0.2-6.8,2.9-6.8,2.9
		c-0.8,0.4-1.3,1.2-1.3,2.1v11.7v14.9c0,1.3,1,2.3,2.3,2.3l9.2-0.5c0.5,0,0.9,0,1.4,0l9.2,0.5c1.3,0,2.3-1,2.3-2.3v-14.9v-11.7
		C44.6,170.3,44.1,169.5,43.3,169.1z"/>
	<path class="st4" d="M313.1,101.2c0,0-5.9-2.8-6.8-2.9c-0.6-0.1-1.1-0.7-1.1-1.3v-5.5c0.2,0,0.3-0.2,0.3-0.4v0
		c0-0.2-0.2-0.4-0.3-0.4v-0.5h0c0.2,0,0.4-0.2,0.4-0.4v-3.1c0-0.2-0.2-0.4-0.4-0.4h-6.1c-0.2,0-0.4,0.2-0.4,0.4v3.1
		c0,0.2,0.2,0.4,0.4,0.4h0v0.5c-0.2,0-0.3,0.2-0.3,0.4v0c0,0.2,0.2,0.4,0.3,0.4V97c0,0.6-0.4,1.2-1.1,1.3c-0.9,0.2-6.8,2.9-6.8,2.9
		c-0.8,0.4-1.3,1.2-1.3,2.1V115v14.9c0,1.3,1,2.3,2.3,2.3l9.2-0.5c0.5,0,0.9,0,1.4,0l9.2,0.5c1.3,0,2.3-1,2.3-2.3V115v-11.7
		C314.4,102.4,313.9,101.6,313.1,101.2z"/>
	<path class="st4" d="M-30.3,129.5c0-0.6,0.1-23.3,0-26.8c-0.1-3.5-3.2-5.2-3.2-5.2c0.1-3.2-0.3-8.3-0.9-10.4
		c-0.5-1.8-0.6-2.9-0.4-3.4c0.3,0,0.5-0.3,0.5-0.6v0c0-0.3-0.2-0.5-0.5-0.6c-0.2-0.2-0.3-0.6,0.1-0.7c0.4-0.1,0.3-1.6-0.2-1.8
		c-0.2-0.1-1.8-0.1-3.1-0.1c-1.4,0-2.9,0-3.1,0.1c-0.5,0.2-0.7,1.7-0.2,1.8c0.4,0.1,0.3,0.5,0.1,0.7c-0.3,0.1-0.5,0.3-0.5,0.6v0
		c0,0.3,0.2,0.6,0.5,0.6c0.2,0.5,0.1,1.6-0.4,3.4c-0.6,2.2-1,7.2-0.9,10.4c0,0-3,1.6-3.2,5.2c-0.1,3.5,0,26.2,0,26.8
		c0,0.6-0.5,2.6,3.5,2.6h3.9h0.3h3.9C-29.8,132.2-30.3,130.1-30.3,129.5z"/>
	<path class="st4" d="M36.7,123.7c-0.4-1.9,0-13.8,0-19.3c0-5.5-3.4-9-3.7-10.3c-0.3-1.2-0.7-6.7-0.9-9.1c-0.1-1.1-0.1-2.2-0.2-3.1
		c0.2-0.1,0.4-0.3,0.4-0.6v0c0-0.3-0.2-0.6-0.5-0.6c0-0.5-0.1-0.8-0.1-0.8c0.2-0.2,0.3-0.4,0.3-0.6c0.1-0.6-0.4-1.2-1-1.2h-3.9
		c-0.6,0-1.2,0.6-1,1.2c0,0.2,0.1,0.4,0.3,0.6c0,0,0,0.3-0.1,0.8c-0.3,0-0.5,0.3-0.5,0.6v0c0,0.3,0.2,0.6,0.4,0.6
		c-0.1,0.9-0.1,2.1-0.2,3.1c-0.2,2.4-0.6,7.8-0.9,9.1c-0.3,1.2-3.7,4.7-3.7,10.3c0,5.5,0.4,17.4,0,19.3c-0.2,1.1-0.6,3.3-0.4,5.2
		c0.2,1.9,1.8,3.4,3.8,3.3c1,0,2.4-0.1,4.1-0.1c0.1,0,0.2,0,0.2,0c1.7,0.1,3.1,0.1,4.1,0.1c1.9,0,3.6-1.4,3.8-3.3
		C37.3,126.9,36.9,124.7,36.7,123.7z"/>
	<path class="st8" d="M339.3,95.7V91h0c0.1,0,0.2-0.1,0.2-0.2v-5.1c0-0.1-0.1-0.2-0.2-0.2h-4c-0.1,0-0.2,0.1-0.2,0.2v5.1
		c0,0.1,0.1,0.2,0.2,0.2h0v4.7c0,1-0.8,2.9-1.8,2.9h0c-1.6,0-2.9,2.4-2.9,4v27.1c0,1.4,1.1,2.5,2.5,2.5h8.5c1.4,0,2.5-1.1,2.5-2.5
		v-27.1c0-1.6-1.3-4-2.9-4h0C340.1,98.6,339.3,96.7,339.3,95.7z"/>
	<path class="st8" d="M174.7,95.7V91h0c0.1,0,0.2-0.1,0.2-0.2v-5.1c0-0.1-0.1-0.2-0.2-0.2h-4c-0.1,0-0.2,0.1-0.2,0.2v5.1
		c0,0.1,0.1,0.2,0.2,0.2h0v4.7c0,1-0.8,2.9-1.8,2.9h0c-1.6,0-2.9,2.4-2.9,4v27.1c0,1.4,1.1,2.5,2.5,2.5h8.5c1.4,0,2.5-1.1,2.5-2.5
		v-27.1c0-1.6-1.3-4-2.9-4h0C175.5,98.6,174.7,96.7,174.7,95.7z"/>
	<path class="st8" d="M192.9,95.7V91h0c0.1,0,0.2-0.1,0.2-0.2v-5.1c0-0.1-0.1-0.2-0.2-0.2h-4c-0.1,0-0.2,0.1-0.2,0.2v5.1
		c0,0.1,0.1,0.2,0.2,0.2h0v4.7c0,1-0.8,2.9-1.8,2.9h0c-1.6,0-2.9,2.4-2.9,4v27.1c0,1.4,1.1,2.5,2.5,2.5h8.5c1.4,0,2.5-1.1,2.5-2.5
		v-27.1c0-1.6-1.3-4-2.9-4h0C193.7,98.6,192.9,96.7,192.9,95.7z"/>
	<path class="st8" d="M298.5,162.9v-4.7h0c0.1,0,0.2-0.1,0.2-0.2V153c0-0.1-0.1-0.2-0.2-0.2h-4c-0.1,0-0.2,0.1-0.2,0.2v5.1
		c0,0.1,0.1,0.2,0.2,0.2h0v4.7c0,1-0.8,2.9-1.8,2.9h0c-1.6,0-2.9,2.4-2.9,4v27.1c0,1.4,1.1,2.5,2.5,2.5h8.5c1.4,0,2.5-1.1,2.5-2.5
		v-27.1c0-1.6-1.3-4-2.9-4h0C299.3,165.8,298.5,163.9,298.5,162.9z"/>
	<path class="st8" d="M316.7,162.9v-4.7h0c0.1,0,0.2-0.1,0.2-0.2V153c0-0.1-0.1-0.2-0.2-0.2h-4c-0.1,0-0.2,0.1-0.2,0.2v5.1
		c0,0.1,0.1,0.2,0.2,0.2h0v4.7c0,1-0.8,2.9-1.8,2.9h0c-1.6,0-2.9,2.4-2.9,4v27.1c0,1.4,1.1,2.5,2.5,2.5h8.5c1.4,0,2.5-1.1,2.5-2.5
		v-27.1c0-1.6-1.3-4-2.9-4h0C317.5,165.8,316.7,163.9,316.7,162.9z"/>
	<path class="st4" d="M81.9,183.2c0-5.4,0.2-9.5-2.1-17c-2.3-7.4-2.7-14.4-2.7-15.5c0-1.2,0-1.4,0.3-1.9c0.3-0.5,0-1.3,0-1.3l-0.4-1
		h0.2v-1c0,0,0.2-1-0.9-1h-4.6c-1,0-0.9,1-0.9,1v1h0.2l-0.4,1c0,0-0.3,0.8,0,1.3c0.3,0.5,0.3,0.7,0.3,1.9c0,1.2-0.3,8.1-2.7,15.5
		c-2.3,7.4-2.1,11.6-2.1,17c0,5.4,0,13.9,0,13.9s-0.1,2.9,2.7,2.9h10.2c2.8,0,2.8-2.9,2.8-2.9S81.9,188.5,81.9,183.2z"/>
	<path class="st8" d="M98.6,163.5v-4.7h0c0.1,0,0.2-0.1,0.2-0.2v-5.1c0-0.1-0.1-0.2-0.2-0.2h-4c-0.1,0-0.2,0.1-0.2,0.2v5.1
		c0,0.1,0.1,0.2,0.2,0.2h0v4.7c0,1-0.8,2.9-1.8,2.9h0c-1.6,0-2.9,2.4-2.9,4v27.1c0,1.4,1.1,2.5,2.5,2.5h8.5c1.4,0,2.5-1.1,2.5-2.5
		v-27.1c0-1.6-1.3-4-2.9-4h0C99.5,166.4,98.6,164.5,98.6,163.5z"/>
	<path class="st8" d="M116.9,163.5v-4.7h0c0.1,0,0.2-0.1,0.2-0.2v-5.1c0-0.1-0.1-0.2-0.2-0.2h-4c-0.1,0-0.2,0.1-0.2,0.2v5.1
		c0,0.1,0.1,0.2,0.2,0.2h0v4.7c0,1-0.8,2.9-1.8,2.9h0c-1.6,0-2.9,2.4-2.9,4v27.1c0,1.4,1.1,2.5,2.5,2.5h8.5c1.4,0,2.5-1.1,2.5-2.5
		v-27.1c0-1.6-1.3-4-2.9-4h0C117.7,166.4,116.9,164.5,116.9,163.5z"/>
	<path class="st4" d="M280.4,115.4c0-5.4,0.2-9.5-2.1-17c-2.3-7.4-2.7-14.4-2.7-15.5c0-1.2,0-1.4,0.3-1.9c0.3-0.5,0-1.3,0-1.3
		l-0.4-1h0.2v-1c0,0,0.2-1-0.9-1h-4.6c-1,0-0.9,1-0.9,1v1h0.2l-0.4,1c0,0-0.3,0.8,0,1.3c0.3,0.5,0.3,0.7,0.3,1.9
		c0,1.2-0.3,8.1-2.7,15.5c-2.3,7.4-2.1,11.6-2.1,17c0,5.4,0,13.9,0,13.9s-0.1,2.9,2.7,2.9h10.2c2.8,0,2.8-2.9,2.8-2.9
		S280.4,120.8,280.4,115.4z"/>
	<path class="st4" d="M257,123.7c-0.4-1.9,0-13.8,0-19.3c0-5.5-3.4-9-3.7-10.3c-0.3-1.2-0.7-6.7-0.9-9.1c-0.1-1.1-0.1-2.2-0.2-3.1
		c0.2-0.1,0.4-0.3,0.4-0.6v0c0-0.3-0.2-0.6-0.5-0.6c0-0.5-0.1-0.8-0.1-0.8c0.2-0.2,0.3-0.4,0.3-0.6c0.1-0.6-0.4-1.2-1-1.2h-3.9
		c-0.6,0-1.2,0.6-1,1.2c0,0.2,0.1,0.4,0.3,0.6c0,0,0,0.3-0.1,0.8c-0.3,0-0.5,0.3-0.5,0.6v0c0,0.3,0.2,0.6,0.4,0.6
		c-0.1,0.9-0.1,2.1-0.2,3.1c-0.2,2.4-0.6,7.8-0.9,9.1c-0.3,1.2-3.7,4.7-3.7,10.3c0,5.5,0.4,17.4,0,19.3c-0.2,1.1-0.6,3.3-0.4,5.2
		c0.2,1.9,1.8,3.4,3.8,3.3c1,0,2.4-0.1,4.1-0.1c0.1,0,0.2,0,0.2,0c1.7,0.1,3.1,0.1,4.1,0.1c1.9,0,3.6-1.4,3.8-3.3
		C257.5,126.9,257.2,124.7,257,123.7z"/>
	<path class="st6" d="M772.4,270.1c0.3-0.5,0.4-1.1,0.4-1.7c0-6.8-18.7-12.4-41.9-12.4c-23.1,0-41.9,5.5-41.9,12.4
		c0,6.8,18.7,12.4,41.9,12.4c7.4,0,14.3-0.6,20.3-1.6c3,1.9,8.5,3.1,14.8,3.1c9.5,0,17.3-2.8,17.3-6.3
		C783.4,273.3,778.9,271,772.4,270.1z"/>
	<g class="st9">
		<g class="st10">
			<path class="st6" d="M706.3,233.3l-5.6-29.4c-0.1-2.4-0.4-4.8-0.9-7.2c0.6-2.7,0.9-5.5,0.9-8.3c0-0.8,0-1.6-0.1-2.4
				c2.8-10.5,5.9-26.4,6-37.5c13.7-0.7,24.2-4.9,25.5-10.4h0.1v-33c0.4-0.2,0.8-0.5,1-0.9c0.8-1.2,0.4-2.7-0.9-3.4
				c-12.1-6.9-27.6-9-41.8-6.4c0-0.5,0-1,0-1.5c0-0.7,0-1.3,0-1.9c0-0.2,0-0.4,0-0.6c0-0.4,0-0.8-0.1-1.2c0-0.6-0.1-1.2-0.1-1.7
				c0-0.4-0.1-0.7-0.1-1c0-0.2,0-0.3-0.1-0.5c-0.1-0.3-0.1-0.6-0.2-0.8c-0.1-0.5-0.3-1-0.6-1.5c-0.6-1.2-1.6-2.3-2.8-3.2
				c-0.2-0.2-0.4-0.4-0.7-0.5c-0.5-0.3-0.9-0.7-1.4-1c-0.5-0.3-0.9-0.6-1.4-0.8c-0.9-0.5-1.7-0.9-2.2-1.2c0,0,0,0,0,0
				c-0.3-0.2-0.7-0.3-1-0.5c-0.1,0-0.1-0.1-0.2-0.1c-0.3-0.2-0.6-0.3-0.9-0.5c-0.1,0-0.1-0.1-0.2-0.1c-0.7-0.4-1.4-0.9-2-1.4v0
				c-0.7-0.6-1.3-1.2-1.8-2c-1.5-2.1,0.7-4.2,0.7-4.2c6.7-2.4,5.3-6.5,5.3-8.8c-0.1-2.3-2.6-15.6-4.2-16.6c-1.7-1-4.5-2.4-6.8-3.9
				c-2.3-1.5-6.6-1-8.5,0c-1.9,1-2.5,1.2-6.4,4.5c-3.9,3.3-0.6,10.6-1,12.3c-0.4,1.7,0.6,2.5,1,3.9c0.4,1.4-0.8,2.6-0.5,4
				c0.3,1.4,3.3,4.1,2.8,5.3c-0.1,0.2-0.2,0.3-0.5,0.4c0,0,0,0,0,0c-1.3,0.6-5,0.8-8.5,1.1c-0.2,0-0.3,0-0.5,0c-0.1,0-0.1,0-0.2,0
				c-0.2,0-0.5,0-0.7,0.1c-0.1,0-0.1,0-0.2,0c-0.2,0-0.5,0-0.7,0.1c0,0-0.1,0-0.1,0c-0.2,0-0.5,0-0.7,0.1c-1.2,0.1-3.2-1.2-4.5-0.1
				c-0.3,0.3-0.7,0.6-1,0.9c-0.5,0.5-0.8,2.3-1.3,2.8c-1.4,1.6-2.3,4.1-3.3,5.5c-0.1,0.2-0.2,0.3-0.3,0.5c-1,1.4-1.7,2.4-1.9,2.6
				c-0.7,0.7-0.9,2.9-1.8,3.5c-2,1.4-1.9,2.8-2.4,3.8l0,0c0,0,0,0,0,0c-1.1,0.1-3.6-3.2-4-4.1c-0.5-0.9-3-0.8-3-0.8
				c-1.1-1-1.1-5.3-1.5-6.5c-0.4-1.1-5.8-3.5-6.1-3.7c-0.1-0.2-0.4-0.4-0.6-0.4c-0.5,0-1,1.2-1,1.2c-1.9,0.3-1.6,7.1-1.2,8.2
				c0.8,2.4,5.2,4.6,5.2,4.6s0,0,0,0c-0.1,0.1-0.2,0.3-0.2,0.6c0,0.2,0.1,0.5,0.3,0.8c0.5,0.5,1,1.1,1.6,1.9
				c0.2,0.2,0.4,0.5,0.6,0.8c0.1,0.2,0.3,0.3,0.4,0.5c-11.8-0.7-23.8,1.8-33.6,7.4c-0.5,0.3-0.8,0.6-1,1V82.9
				c12.4,3,22.4,3.6,23.3,1.1c0.9-2.7-9.7-8.1-23.9-12.1V61.7c0-0.4-0.4-0.8-0.8-0.8c-0.5,0-0.8,0.3-0.8,0.8v9.8
				c-14.1-3.8-26-4.8-26.9-2.1c-0.9,2.7,10.1,8.2,24.6,12.3c0.6,0.2,1.2,0.3,1.7,0.5v105.6l-16.2,13.7l-22.2,22.4l-8.4,8.9l-2.5-0.9
				l-3.7,8.1l4.8,1.8l5.2-6.7l6.2-8l37.4-35l19.4,34.4l-2.5,8.7c-13.3,2.8-21.5,6.5-21.5,10.6c0,8.6,36,15.6,80.4,15.6
				c44.4,0,80.4-7,80.4-15.6C738.5,240.7,725.9,236.2,706.3,233.3z M655.7,146.7l0.1-3.3c0.8-0.5,3.4-1.1,6.4-1.4l0.2,5.3
				C660.2,146.9,658,146.7,655.7,146.7z M699.5,215l3.4,17.9c-3.9-0.5-8.1-1-12.5-1.3C694.7,226.8,697.8,221.1,699.5,215z
				 M666.2,147.9l-0.3-6.3c4.1-0.2,7.8,0,8.2,1.1c0.8,2.3,10.8,9.2,13,10.6c1.2,0.8,1.7,3.4,1.5,6.9
				C682.8,154.3,675,150,666.2,147.9z M639.5,96.3c0.2-0.4,0.1-0.9,0.2-1.5c0-0.4,0.1-1,0.5-1.7c0.1-0.2,0.3-0.5,0.4-0.7
				c0.4-0.6,0.7-1.1,1.1-1.5c0.1-0.1,0.1-0.1,0.2-0.2c0.1-0.1,0.2-0.2,0.3-0.3c0,0,0,0,0.1-0.1l-0.1,0.3l0.6,1.3l0.5,7.5
				c-1.5-0.7-3-1.4-4.5-2c0.3-0.3,0.5-0.5,0.7-0.7C639.3,96.5,639.4,96.4,639.5,96.3z M584.3,188.4h0.4v-84.7c0,0.1,0.1,0.2,0.1,0.2
				c0.3,0.4,0.6,0.7,1,0.9v32.2l0,0c0.5,6.3,13.4,11.2,29.7,11.2c6.3,0,12.1-0.7,16.8-2c-0.2,1.2-0.3,2.3-0.4,3.2
				c-0.1,0.8,0,1.7,0.1,2.7c-13.7,7.2-23,20.7-23,36.2c0,2.8,0.3,5.6,0.9,8.3c-0.2,0.9-0.4,1.8-0.5,2.8l-0.2-0.1l-5.6,20.1
				L584.3,188.4z M603.7,231.4l1.7,0.3l0.3,1.8l5.1-0.7l-1.5-8.7l-2.7,0.4l-0.7-1.1l3.5-12.5c1.2,8,5,15.3,10.5,21.2
				c-6.2,0.7-12,1.5-17.1,2.4L603.7,231.4z"/>
			<path class="st6" d="M614,78c0.5,0,0.9-0.3,0.9-0.7l4.4-37.6c0-0.2-0.1-0.4-0.4-0.4c-0.2,0-0.4,0.1-0.5,0.3l-5.2,37.5
				c0,0,0,0,0,0C613.2,77.6,613.5,78,614,78z"/>
		</g>
	</g>
	<path class="st6" d="M557.1,103.4c-0.2-0.2-5.3-3.1-5.5-3.2c-1.7-1.2-0.3-7-0.3-7h0c0,0-0.4-5.3,2.3-8c2.7-2.7,9.3-8.4,5.7-15.7
		c-3.5-7.3-7.4-8.5-10.2-8.7c-2.9-0.2-7.2-1-11,3.5c0,0-2,4.7-1.9,7.9c0,0-1.5,0.7-1.9,4.1c0,0.2-0.1,0.4-0.1,0.6l-8.9-4.5
		c0.1-0.2,0.1-0.3,0.2-0.5c0-0.1,0.1-0.2,0.1-0.3c0.5-1.5,1.2-3,2-4.4c0,0,0.2-0.7,0.1-2.1c0-0.2-0.1-0.4-0.1-0.6
		c-0.3-1.8-0.3-4.2-1.8-6.5c0,0-1.3-1.9-2.7-1.2c-0.1,0-0.1,0-0.2,0.1c-1.5,1-0.3,3.4,0,5.3c0.1,1,0,2.1-0.2,2.9
		c-0.1,0.4-0.2,0.8-0.3,1c0,0.1,0,0.1-0.1,0.2c0,0.2-0.1,0.2-0.1,0.2c0,0,0,0,0,0c0,0-0.5-2.5-1.1-3.3c-0.6-0.8-5.7-4.7-5.8-2.8
		c-0.4,0.6,0.3,1.3,1.3,1.9c0.8,0.6,1.7,1.1,2.1,1.6c0.2,0.7,0.6,2.8-0.1,3.9c-0.2,0.2-0.4,0.4-0.5,0.5c0,0,0,0,0,0
		c-0.8,0.4-2.3-1.6-3.7-1.9c-0.6-0.2-1.2-0.2-1.6-0.3l-24.3-12.1c1.2-5-0.1-9.5-3.2-10.9c-3.9-1.7-9.3,1.9-12,8
		c-2.7,6.2-1.8,12.5,2.1,14.3c3.2,1.4,7.3-0.7,10.2-4.9l9.9,3.8c-1.4,0.6-2.6,1.7-3.3,3.2c-0.7,1.5-0.7,3.2-0.1,4.7
		c0.6,1.5,1.7,2.7,3.2,3.4l7.8,3.5c-0.1,0.4-0.2,0.7-0.3,1c-0.6,1.3-2.4,5.3-4.2,8.1c-1.8,2.8-10.4,18.4-8.2,22.1
		c1.2,2.1,3.7,2.8,5.9,2.9c0.1,0.2,8.1-0.3,8-0.1c-0.1,0.2-0.5,1.7-0.6,2c-0.6,2.1-1.4,4.8-1.7,5.5v0c0.5,0-0.7,2.6-1.2,3.2
		c-0.5,0.5-14.3,15.9-14.3,15.9c-0.3,0.3-0.9,1-0.9,1c-0.4,0.5-3.8,5.8-3.8,5.8c-0.1,0.2-3,5.4-3,5.4c-0.1,0.3-2.3,4.7-2.3,4.8
		c-0.1,0.2-0.1,0.4-0.2,0.5c0,0-0.7,3.9-0.7,4.1c0,0.3-2.1,29.2-1.9,30.3c0,0.1,7.4,17.9,7.5,18.2c0.6,1.4,2.5,5.9,2.9,6.7
		c0.2,0.5,6.3,15,7,15c0.6,0,8.8-2.9,9.4-3.3c0,0-1.1,5.3-2.5,8.4c-18.3,1.5-31.9,6.8-31.9,13.2c0,7.5,18.8,13.6,42.1,13.6
		c23.2,0,42.1-6.1,42.1-13.6c0-4-5.4-7.6-14-10.1c0.1-1.6-0.1-3.5-0.8-5.6c-1.7-5.1-3.7-29-5.1-32.4c-1.3-3.4-3.9-19.5-5.4-24.3
		c-0.1-2.7-0.1-5.6,0-7.6c0,0,0,0,0,0c0-0.2,0-0.4,0-0.6c0.3-4.8,2-17.7,2.4-20.8c0,0,0,0,0,0c0.1-0.8,0.2-1.5,0.4-2.2
		c-0.1,0.2-0.2,0.4-0.3,0.6c-0.1-3.8-1.4-10.1-1.2-11.1c0,0,0,0,0,0c0.1,0,12.5-5.1,12.5-5.1c0.8-0.3,9.8-4.2,10.2-4.4
		c0.8-0.5,1.6-1,2.4-1.6c1.9-1.4,3.4-2.9,4.1-4.6c0.7-1.8,2.7-6,2.9-6.3C559.6,111.2,557.4,103.7,557.1,103.4z M536,88.1
		c1,0.7,1.4,2.8,1.4,2.8s-0.3,0-0.8-0.1c0,0,0,0,0,0c-0.1,0-0.3,0-0.4,0c0,0,0,0,0,0c-0.1,0-0.3,0-0.4,0c0,0-0.1,0-0.1,0
		c-0.1,0-0.3,0-0.4,0c0,0,0,0,0,0c-0.1,0-0.3,0-0.4,0c0,0-0.1,0-0.1,0c-0.1,0-0.3,0-0.4,0.1c0,0,0,0,0,0c-0.1,0-0.2,0-0.3,0.1
		c0,0-0.1,0-0.1,0c-0.1,0-0.2,0.1-0.3,0.1c-0.1,0-0.1,0.1-0.2,0.1c-1.1,0.7-3.6,3.1-3.6,3.1s-1.2-2.6-2.5-5.7c0,0,0,0,0,0
		c-0.3-0.6-0.6-1.3-0.8-2c0,0,0,0,0,0c-0.1-0.2-0.2-0.4-0.2-0.6c0,0,0-0.1-0.1-0.1c-0.1-0.2-0.1-0.3-0.2-0.5c0-0.1,0-0.1-0.1-0.2
		c-0.1-0.2-0.1-0.3-0.2-0.5c0-0.1-0.1-0.1-0.1-0.2c-0.1-0.1-0.1-0.3-0.2-0.4c0-0.1-0.1-0.2-0.1-0.2c-0.1-0.1-0.1-0.3-0.1-0.4
		c0-0.1-0.1-0.2-0.1-0.2c0-0.1-0.1-0.2-0.1-0.4c0-0.1-0.1-0.2-0.1-0.2c0-0.1-0.1-0.2-0.1-0.3c0-0.1-0.1-0.2-0.1-0.2
		c0-0.1-0.1-0.2-0.1-0.3c0-0.1-0.1-0.2-0.1-0.2c0-0.1-0.1-0.2-0.1-0.3c0-0.1,0-0.1-0.1-0.2c0-0.1-0.1-0.2-0.1-0.3
		c0-0.1,0-0.1-0.1-0.2c0-0.1,0-0.2-0.1-0.3c0-0.1,0-0.1,0-0.2c0-0.1,0-0.2-0.1-0.3c0,0,0-0.1,0-0.1c0-0.1,0-0.2-0.1-0.3
		c0,0,0-0.6,0.2-1.5c0-0.1,0-0.2,0.1-0.4c0.1-0.4,0.1-0.9,0.2-1.4c0-0.1,0-0.1,0-0.2c0-0.1,0.1-0.3,0.1-0.4l9.1,3.6
		c-0.5,1.3-1.1,2.2-1.5,3.9C531.4,85.9,535,87.4,536,88.1z M508.8,83.3c0.4-0.4,0.8-0.8,1.1-1.2l1.2,0.5c1.5,0.7,3.2,0.7,4.7,0.1
		c1-0.4,1.9-1,2.5-1.8c0,0.1,0,0.1,0,0.2c0,0.2,0,0.4,0.1,0.7c0,0.1,0,0.3,0,0.4c0,0,0,0.1,0,0.1c0,0.2,0,0.4,0.1,0.6
		c0.1,0.6,0.1,1.2,0.2,1.9c0,0.2,0,0.5,0.1,0.7c0,0.2,0,0.3,0.1,0.5c0,0,0,0.1,0,0.1c0,0.2,0,0.4,0.1,0.7c0,0.3,0.1,0.7,0.1,1
		c0,0.1,0,0.1,0,0.2c0,0,0,0.1,0,0.1c0,0.1,0,0.2,0,0.2c0,0,0,0.1,0,0.1c0,0,0,0,0,0.1c0.1,0.8,0.2,1.5,0.2,2
		c-0.2,0-0.4,0.1-0.6,0.2c-0.3,0.1-0.6,0.2-1,0.4c-4.3,1.8-14.5,7.2-14.7,7.3c0,0,0,0,0,0S504.7,87.3,508.8,83.3z M494.5,179
		c0.4-1.5,2.2-5.1,3.4-7.6c0.6-1.3,1.2-2.4,1.3-2.7c0.4-1,0.8-1.2,0.8-1.2s3.7,23.8,5.8,27c2.1,3.2,5,7.8,5.7,10.3
		c0,0.1,0.1,0.3,0.2,0.5c0,0.2,0.1,0.3,0.2,0.6c0,0.1,0.1,0.2,0.1,0.3c0.1,0.2,0.2,0.5,0.2,0.8c0.1,0.4,0.3,0.9,0.4,1.4
		c0.2,0.5,0.3,1.1,0.5,1.7c0.1,0.2,0.1,0.4,0.2,0.6c0.3,0.8,0.5,1.7,0.8,2.7c0.1,0.2,0.1,0.5,0.2,0.7c1.5,5,3.4,11.2,5,16.4
		c0.1,0.2,0.1,0.5,0.2,0.7c0.1,0.5,0.3,0.9,0.4,1.4c0.1,0.2,0.1,0.5,0.2,0.7c0.1,0.4,0.3,0.9,0.4,1.3c0.1,0.2,0.1,0.4,0.2,0.6
		c0.2,0.7,0.4,1.3,0.6,1.9c-0.2,0-0.5,0-0.7-0.1l0.1-0.1c0,0,0.1-7.8-8.9-14.8c0,0-1.1-1.9-2.4-4.3c-0.2-0.3-0.4-0.6-0.5-1
		c-0.2-0.3-0.4-0.7-0.5-1c-0.4-0.7-0.7-1.3-1-1.9c-0.2-0.3-0.3-0.6-0.5-0.9c-0.5-1-0.9-1.9-1.2-2.5c-1-2.8-11.3-29.5-11.3-30.9
		C494.3,179.4,494.4,179.2,494.5,179z"/>
	<path class="st3" d="M455,371.7c-6.6,5.9-15,12.3-25.3,18c-24.4,13.5-43.9,14.5-73.2,21.5c-3.2,0.8-16.2-9.7-18.8-39.2v-4H455
		L455,371.7z"/>
	<g>
		<g>
			<path class="st6" d="M678.8,239.5l-5.6-29.4c-0.1-2.4-0.4-4.8-0.9-7.2c0.6-2.7,0.9-5.5,0.9-8.3c0-0.8,0-1.6-0.1-2.4
				c2.8-10.5,5.9-26.4,6-37.5c13.7-0.7,24.2-4.9,25.5-10.4h0.1v-33c0.4-0.2,0.8-0.5,1-0.9c0.8-1.2,0.4-2.7-0.9-3.4
				c-12.1-6.9-27.6-9-41.8-6.4c0-0.5,0-1,0-1.5c0-0.7,0-1.3,0-1.9c0-0.2,0-0.4,0-0.6c0-0.4,0-0.8-0.1-1.2c0-0.6-0.1-1.2-0.1-1.7
				c0-0.4-0.1-0.7-0.1-1c0-0.2,0-0.3-0.1-0.5c-0.1-0.3-0.1-0.6-0.2-0.8c-0.1-0.5-0.3-1-0.6-1.5c-0.6-1.2-1.6-2.3-2.8-3.2
				c-0.2-0.2-0.4-0.4-0.7-0.5c-0.5-0.3-0.9-0.7-1.4-1c-0.5-0.3-0.9-0.6-1.4-0.8c-0.9-0.5-1.7-0.9-2.2-1.2c0,0,0,0,0,0
				c-0.3-0.2-0.7-0.3-1-0.5c-0.1,0-0.1-0.1-0.2-0.1c-0.3-0.2-0.6-0.3-0.9-0.5c-0.1,0-0.1-0.1-0.2-0.1c-0.7-0.4-1.4-0.9-2-1.4v0
				c-0.7-0.6-1.3-1.2-1.8-2c-1.5-2.1,0.7-4.2,0.7-4.2c6.7-2.4,5.3-6.5,5.3-8.8c-0.1-2.3-2.6-15.6-4.2-16.6c-1.7-1-4.5-2.4-6.8-3.9
				c-2.3-1.5-6.6-1-8.5,0c-1.9,1-2.5,1.2-6.4,4.5c-3.9,3.3-0.6,10.6-1,12.3c-0.4,1.7,0.6,2.5,1,3.9c0.4,1.4-0.8,2.6-0.5,4
				c0.3,1.4,3.3,4.1,2.8,5.3c-0.1,0.2-0.2,0.3-0.5,0.4c0,0,0,0,0,0c-1.3,0.6-5,0.8-8.5,1.1c-0.2,0-0.3,0-0.5,0c-0.1,0-0.1,0-0.2,0
				c-0.2,0-0.5,0-0.7,0.1c-0.1,0-0.1,0-0.2,0c-0.2,0-0.5,0-0.7,0.1c0,0-0.1,0-0.1,0c-0.2,0-0.5,0-0.7,0.1c-1.2,0.1-3.2-1.2-4.5-0.1
				c-0.3,0.3-0.7,0.6-1,0.9c-0.5,0.5-0.8,2.3-1.3,2.8c-1.4,1.6-2.3,4.1-3.3,5.5c-0.1,0.2-0.2,0.3-0.3,0.5c-1,1.4-1.7,2.4-1.9,2.6
				c-0.7,0.7-0.9,2.9-1.8,3.5c-2,1.4-1.9,2.8-2.4,3.8l0,0c0,0,0,0,0,0c-1.1,0.1-3.6-3.2-4-4.1c-0.5-0.9-3-0.8-3-0.8
				c-1.1-1-1.1-5.3-1.5-6.5c-0.4-1.1-5.8-3.5-6.1-3.7c-0.1-0.2-0.4-0.4-0.6-0.4c-0.5,0-1,1.2-1,1.2c-1.9,0.3-1.6,7.1-1.2,8.2
				c0.8,2.4,5.2,4.6,5.2,4.6s0,0,0,0c-0.1,0.1-0.2,0.3-0.2,0.6c0,0.2,0.1,0.5,0.3,0.8c0.5,0.5,1,1.1,1.6,1.9
				c0.2,0.2,0.4,0.5,0.6,0.8c0.1,0.2,0.3,0.3,0.4,0.5c-11.8-0.7-23.8,1.8-33.6,7.4c-0.5,0.3-0.8,0.6-1,1V89.1
				c12.4,3,22.4,3.6,23.3,1.1c0.9-2.7-9.7-8.1-23.9-12.1V67.9c0-0.4-0.4-0.8-0.8-0.8s-0.8,0.3-0.8,0.8v9.8
				c-14.1-3.8-26-4.8-26.9-2.1c-0.9,2.7,10.1,8.2,24.6,12.3c0.6,0.2,1.2,0.3,1.7,0.5v105.6l-16.2,13.7l-22.2,22.4l-8.4,8.9L505,238
				l-3.7,8.1l4.8,1.8l5.2-6.7l6.2-8l37.4-35l19.4,34.4l-2.5,8.7c-13.3,2.8-21.5,6.5-21.5,10.6c0,8.6,36,15.6,80.4,15.6
				s80.4-7,80.4-15.6C711,246.9,698.4,242.4,678.8,239.5z M628.2,152.9l0.1-3.3c0.8-0.5,3.4-1.1,6.4-1.4l0.2,5.3
				C632.8,153.1,630.5,152.9,628.2,152.9z M672,221.2l3.4,17.9c-3.9-0.5-8.1-1-12.5-1.3C667.2,233,670.3,227.3,672,221.2z
				 M638.7,154.1l-0.3-6.3c4.1-0.2,7.8,0,8.2,1.1c0.8,2.3,10.8,9.2,13,10.6c1.2,0.8,1.7,3.4,1.5,6.9
				C655.3,160.5,647.5,156.2,638.7,154.1z M612,102.5c0.2-0.4,0.1-0.9,0.2-1.5c0-0.4,0.1-1,0.5-1.7c0.1-0.2,0.3-0.5,0.4-0.7
				c0.4-0.6,0.7-1.1,1.1-1.5c0.1-0.1,0.1-0.1,0.2-0.2c0.1-0.1,0.2-0.2,0.3-0.3c0,0,0,0,0.1-0.1l-0.1,0.3l0.6,1.3l0.5,7.5
				c-1.5-0.7-3-1.4-4.5-2c0.3-0.3,0.5-0.5,0.7-0.7C611.8,102.7,611.9,102.6,612,102.5z M556.8,194.6h0.4V110c0,0.1,0.1,0.2,0.1,0.2
				c0.3,0.4,0.6,0.7,1,0.9v32.2l0,0c0.5,6.3,13.4,11.2,29.7,11.2c6.3,0,12.1-0.7,16.8-2c-0.2,1.2-0.3,2.3-0.4,3.2
				c-0.1,0.8,0,1.7,0.1,2.7c-13.7,7.2-23,20.7-23,36.2c0,2.8,0.3,5.6,0.9,8.3c-0.2,0.9-0.4,1.8-0.5,2.8l-0.2-0.1l-5.6,20.1
				L556.8,194.6z M576.2,237.6l1.7,0.3l0.3,1.8l5.1-0.7l-1.5-8.7l-2.7,0.4l-0.7-1.1L582,217c1.2,8,5,15.3,10.5,21.2
				c-6.2,0.7-12,1.5-17.1,2.4L576.2,237.6z"/>
			<path class="st6" d="M586.5,84.2c0.5,0,0.9-0.3,0.9-0.7l4.4-37.6c0-0.2-0.1-0.4-0.4-0.4c-0.2,0-0.4,0.1-0.5,0.3l-5.2,37.5
				c0,0,0,0,0,0C585.7,83.8,586,84.2,586.5,84.2z"/>
		</g>
	</g>
	<g>
		<g>
			<path class="st6" d="M507.2,416.9c-0.1,1.5,0,3,0.3,4.4c3.5,0.3,8.6,0.7,10.7-0.4c2.9-1.5,3.1-5.1,0-6.8c-3.1-1.7-7.7-1-10.4-0.7
				C507.5,414.5,507.3,415.7,507.2,416.9z"/>
			<path class="st6" d="M475.3,413.9c0,3.8,12.4,8.4,19,7.8c2.4-0.2,7.3-0.9,10.1-0.7c0.3,0,0.9,0.1,1.5,0.1
				c-0.2-1.4-0.4-2.9-0.3-4.4c0.1-1.1,0.3-2.2,0.5-3.3c-1.5,0-3.9-0.1-6.3-0.6c-3.2-0.7-6.6-2-8.3-2.5
				C488.2,409.2,475.3,410.1,475.3,413.9z"/>
			<path class="st6" d="M475.4,398.9c-0.1,1.2,0,2.4,0.2,3.6c2.7,0.6,6.9,1.6,9.9,0.5c3.3-1.3,3.5-4.9,0.8-6.8
				c-1.8-1.2-6.6-1.6-10.1-1.7C475.9,396,475.5,397.4,475.4,398.9z"/>
			<path class="st6" d="M442.9,397.8c-0.4,3.8,12.2,6.3,15.8,5.7c1.8-0.3,5.2-1.2,8.5-1.5c2.7-0.2,5.4,0,6.8,0.2
				c-0.1-1.1-0.2-2.3-0.1-3.4c0.1-1.5,0.4-2.9,0.8-4.3c-0.9,0-1.6,0-2-0.1c-2.8-0.2-7.6-1.5-9.9-2C456.3,391,443.3,394,442.9,397.8z
				"/>
		</g>
	</g>
	<g>
		<g>
			<path class="st6" d="M640.3,416.9c-0.1,1.5,0,3,0.3,4.4c3.5,0.3,8.6,0.7,10.7-0.4c2.9-1.5,3.1-5.1,0-6.8c-3.1-1.7-7.7-1-10.4-0.7
				C640.7,414.5,640.4,415.7,640.3,416.9z"/>
			<path class="st6" d="M608.4,413.9c0,3.8,12.4,8.4,19,7.8c2.4-0.2,7.3-0.9,10.1-0.7c0.3,0,0.9,0.1,1.5,0.1
				c-0.2-1.4-0.4-2.9-0.3-4.4c0.1-1.1,0.3-2.2,0.5-3.3c-1.5,0-3.9-0.1-6.3-0.6c-3.2-0.7-6.6-2-8.3-2.5
				C621.3,409.2,608.5,410.1,608.4,413.9z"/>
			<path class="st6" d="M608.6,398.9c-0.1,1.2,0,2.4,0.2,3.6c2.7,0.6,6.9,1.6,9.9,0.5c3.3-1.3,3.5-4.9,0.8-6.8
				c-1.8-1.2-6.6-1.6-10.1-1.7C609,396,608.7,397.4,608.6,398.9z"/>
			<path class="st6" d="M576,397.8c-0.4,3.8,12.2,6.3,15.8,5.7c1.8-0.3,5.2-1.2,8.5-1.5c2.7-0.2,5.4,0,6.8,0.2
				c-0.1-1.1-0.2-2.3-0.1-3.4c0.1-1.5,0.4-2.9,0.8-4.3c-0.9,0-1.6,0-2-0.1c-2.8-0.2-7.6-1.5-9.9-2C589.5,391,576.5,394,576,397.8z"
				/>
		</g>
	</g>
	<g>
		<g>
			<path class="st6" d="M773.5,416.9c-0.1,1.5,0,3,0.3,4.4c3.5,0.3,8.6,0.7,10.7-0.4c2.9-1.5,3.1-5.1,0-6.8c-3.1-1.7-7.7-1-10.4-0.7
				C773.8,414.5,773.6,415.7,773.5,416.9z"/>
			<path class="st6" d="M741.6,413.9c0,3.8,12.4,8.4,19,7.8c2.4-0.2,7.3-0.9,10.1-0.7c0.3,0,0.9,0.1,1.5,0.1
				c-0.2-1.4-0.4-2.9-0.3-4.4c0.1-1.1,0.3-2.2,0.5-3.3c-1.5,0-3.9-0.1-6.3-0.6c-3.2-0.7-6.6-2-8.3-2.5
				C754.5,409.2,741.6,410.1,741.6,413.9z"/>
			<path class="st6" d="M741.7,398.9c-0.1,1.2,0,2.4,0.2,3.6c2.7,0.6,6.9,1.6,9.9,0.5c3.3-1.3,3.5-4.9,0.8-6.8
				c-1.8-1.2-6.6-1.6-10.1-1.7C742.2,396,741.8,397.4,741.7,398.9z"/>
			<path class="st6" d="M709.2,397.8c-0.4,3.8,12.2,6.3,15.8,5.7c1.8-0.3,5.2-1.2,8.5-1.5c2.7-0.2,5.4,0,6.8,0.2
				c-0.1-1.1-0.2-2.3-0.1-3.4c0.1-1.5,0.4-2.9,0.8-4.3c-0.9,0-1.6,0-2-0.1c-2.8-0.2-7.6-1.5-9.9-2C722.6,391,709.6,394,709.2,397.8z
				"/>
		</g>
	</g>
</g>
<g id="Layer_8">
</g>
<g id="Layer_6">
</g>
<g id="Layer_7">
</g>
<g id="Layer_3">
	<g>
		<g>
			<path class="st3" d="M2.1,316.8c-2.7,1.3-4.6,3.4-6.4,5.7c-6.4,7.8-11.9,16.3-17.1,24.9c-5,8.1-9.8,16.3-14.4,24.7
				c-2.5,4.7-4.2,9.7-6.4,14.6c-0.6,1.4-0.5,2.7,0.2,4c0.7,1.4,1.2,3,1.5,4.5c0.3,1.4-0.4,2.1-1.8,1.9c-0.8-0.1-1.7-0.5-2.4-0.9
				c-2.5-1.4-4.5-3.5-6.2-5.8c-1.6-2.2-1.3-4.6-1-7c0.3-2.2,0.8-4.3,1.3-6.5c0.5-2.2,0.3-4.2-0.2-6.4c-0.4-1.5-0.5-3.2-0.4-4.8
				c0.1-1.8,1.3-3,3.1-3.5c1.3-0.3,2.6-0.5,3.9-0.6c3.2-0.3,5.6-1.8,6.7-4.7c1.5-4.1,2.8-8.3,4.1-12.5c1.9-6.1,3.5-12.3,5.5-18.3
				c1.6-4.6,3.8-8.9,7.1-12.5c2.2-2.4,5-3.8,7.8-5.3c2.4-1.3,4.8-2.6,7.1-4.1c2.2-1.4,3.3-3.8,4-6.2c1.7-6,3.2-12.1,4.7-18.2
				c0.4-1.6,0.7-3.2,1.1-4.8c0.2-0.9,0-1.3-0.9-1.6c-2.2-0.6-2.2-0.7-2.3-3c0-1.6,0-3.1,0-4.7c0-1.4,0.7-2.4,2.1-2.7
				c0.8-0.2,1-0.6,1-1.3c0.2-5.2,0.3-10.4,0.8-15.5c0.6-6.7,4.5-11.2,10.2-14.4c0.8-0.4,1.6-0.7,1.2-1.9c-0.1-0.2,0.2-0.5,0.4-0.6
				c1.8-1,2.5-2.6,2.2-4.7c0.8-0.3,1.6-0.6,2.6-1c-0.4-0.8-0.8-1.5-1.3-2.4c0.3-0.2,0.7-0.4,1.1-0.6c-3.9-7-7.9-14-11.9-21.2
				c-0.7,1.3-1.2,2.3-1.9,3.5c-0.4-0.8-0.6-1.4-0.9-1.9c-0.1,0-0.2,0-0.2,0c0.1,1,0.2,2,0.1,3c0,1-0.3,1.9-0.5,3.3
				c-1.8-2.2-3.4-4-5-5.9c-0.1,0-0.2,0.1-0.2,0.1c0.4,0.9,0.7,1.8,1.3,3.1c-5.7-1.8-8.8-5.3-9.9-10.7c-0.1,0-0.2,0-0.4,0
				c0,0.9-0.1,1.8-0.1,3.1c-0.7-1.5-1.4-2.7-1.8-3.9c-1.5-4.3-1.9-8.8-1.7-13.3c0.2-7.7-0.7-15.3-3.3-22.6c-1.1-3.1-2-6.2-2.9-9.3
				c-1.1-3.8-1.8-7.7-1.7-11.7c0.2-6.6,3.6-11.4,8.7-15.1c3.4-2.5,7.2-4.2,11.2-5.3c3-0.8,4.7-0.1,6.3,2.5c0.1,0.2,0.5,0.4,0.7,0.5
				c3.6,1.2,6.2,3.4,8.1,6.6c0.5,0.9,1.2,1.8,2,2.6c0.3,0.3,1,0.3,1.5,0.4c0.1-0.4,0.3-0.8,0.2-1.2c-0.1-1.2-0.3-2.4-0.5-3.5
				c-0.1-0.8-0.5-1.2-1.4-1.1c-1.3,0.2-2.2-0.5-2.7-1.6c-0.9-1.9-1.8-3.8-2.6-5.7c-0.2-0.4-0.3-0.8-0.6-1.4
				c-0.5,0.6-0.9,1.1-1.5,1.9c-0.2-1-0.4-1.8-0.6-2.9c-0.7,0.4-1.3,0.8-1.9,1.2c-1-1.5-0.8-2.7,0.9-5.1c-1,0.2-1.8,0.4-2.6,0.6
				c0.1-2.7,2.1-4.4,3.8-6.4c-0.8,0.1-1.5,0.2-2.3,0.3c0.1-1.4,0.1-1.4,3-3.5c-0.5-0.3-1.1-0.5-1.4-0.8c-0.4-0.4-0.5-1-0.8-1.7
				c3.2,0.1,4.9-2.5,7.7-3.3c-0.5-0.4-0.9-0.7-1-0.7c1.7-1.7,3.3-3.3,5-5c1.5-1.4,3.4-1.9,5.2-1.5c3.2,0.7,6.3-0.1,9.4-0.7
				c1.2-0.2,2.4-0.3,3.5-0.3c1.7,0,2.4,0.9,2.7,2.6c1.2,0.9,2.2,1.6,3.2,2.3c0.9,0.6,1.9,1.2,2.9,1.6c1.4,0.6,2.6,1.5,3.2,2.9
				c0.9,2.3,1.8,4.6,2.6,6.9c0.1,0.4-0.3,0.9-0.3,1.3c-0.1,0.6-0.2,1.3-0.1,1.9c0.6,2,1.2,3.9,1.9,5.9c0.2,0.6,0.6,1.2,0.8,1.9
				c-0.8,0.6-1.1,3-0.3,3.7c2.6,2.3,5.3,4.5,8,6.7c0.2,0.2,0.9,0.1,1.2,0c6.5-2.6,13-2,19.5,0.4c0.3,0.1,0.6,0.3,0.9,0.4
				c1.2,0.8,1.2,1.6-0.1,2.3c-0.4,0.2-0.8,0.4-1.3,0.7c1.8,1.6,4.3,2.2,5.1,4.7c-0.9,0.5-1.7,0.9-2.5,1.3c1.8,5.7,1.8,5.7-0.9,7.3
				c1.2,1.6,2.4,3.2,3.5,4.9c0.8,1.1,1.6,2.2,2,3.4c1.8,4.9,5.4,8.5,8.5,12.6c3.4,4.4,6.6,9,9.5,13.8c1.7,2.8,2.8,6,3,9.5
				c0.1,2.5-0.7,4.6-2.3,6.4c-2.5,3-5.5,5.3-8.9,7.2c-1.1,0.6-1.5,1.3-1.6,2.5c-0.2,5.5-0.5,11.1-1,16.6c-0.1,1.4-0.1,2.8,0.3,4.2
				c1.8,7.7,2.8,15.4,1.4,23.3c-0.6,3.7-2.1,6.9-4.4,9.9c-1.5,2-2.6,4.5-1.2,7.2c0.8,1.5,0.6,3-0.5,4.2c-1.9,2.1-2.2,4.6-1.9,7.3
				c0.2,2.2,0.1,4.5-0.2,6.7c-0.5,3.1-0.7,6.2-0.4,9.3c0.4,4,0.3,8-0.9,11.9c-0.8,2.6-0.7,5.1,0.8,7.4c0.9,1.4,1,2.9,0.6,4.5
				c-0.6,2.1-0.4,4.2,0.4,6.2c1,2.4,0.9,4.8,0.4,7.3c-0.4,2.2-0.6,4.5-0.4,6.7c0.5,4.7,0.3,9.3-0.5,14c-1.2,7-2.3,14-3.1,21.1
				c-0.5,3.9,0.1,8-0.4,11.9c-0.8,5.7,0.4,11.1,0.8,16.7c0.1,1.3-0.2,2.7-0.3,4.2c-1.8-0.6-3.3-1.2-4.8-1.7
				c-0.2,0.3-0.3,0.5-0.4,0.7c-1.4,3.2-0.7,3-4.4,2.5c-2.3-0.3-4.5-1-6.8-1.5c-0.2,0-0.3-0.2-0.5-0.2c-3,0-6-0.1-8.6,1.6
				c-2.2,1.4-4.6,1.8-7.1,1.5c-5.2-0.7-10.2-2.1-14.5-5.1c-3.3-2.3-5-5.5-5.2-9.5c0-0.8,0.2-1.2,1-1.6c2.2-1,4.4-1.3,6.8-0.5
				c3,1,7.7-1.6,8.5-4.7c0.6-2.7,0.9-5.5,1.5-8.2c0.1-0.6,1-1,1.7-1.4c0-0.1,0.1-0.2,0-0.2c-1.5-2.1-2.1-4.6-2.5-7.2
				c-1.4-9.1-4.1-17.9-8.1-26.2c-0.8-1.6-1.6-3.2-2.1-4.9c-0.5-1.9-0.8-3.8-1.1-5.8c-0.1-0.4,0-0.7,0-1.1c-0.1-2.7-0.5-5.2-3.5-6.2
				c0.2-0.7,0.6-1.3,0.6-1.8c0-0.8-0.1-2-0.6-2.4c-4.4-3.5-4.2-8.1-3.2-12.7c1.2-5.1,3-10,4.6-15c3.5-10.9,7-21.8,11.5-32.4
				c1.1-2.6,1.5-5.4,1.6-8.3c0.2-3.5,1-7,1.5-10.4c0.3-2.4,0.4-4.8,0.5-7.2c0.2-2.3,0.3-4.5,0.5-7c-2.7,0.9-5.3,1.7-7.9,2.7
				c-0.3,0.1-0.5,0.6-0.5,1c-0.1,4.6-0.1,9.2,0,13.7c0,2.1,0,2.5-2.2,2.5c-1.3,0-1.6,0.5-1.7,1.7c-0.5,6-1.1,12-1.7,17.9
				c-0.1,1-0.2,1.9-0.5,2.8c-0.2,0.9,0,1.4,0.9,1.6c1.2,0.3,1.4,1,0.9,2.1c-1,2.5-1.9,5-3,7.4c-0.2,0.4-1.2,0.7-1.9,0.7
				c-1,0-1.3,0.4-1.5,1.3c-2.2,10.2-5.8,19.9-9.6,29.5c-0.6,1.4-1.6,2.8-2.6,3.9c-2.1,2.2-2.9,4.9-3.2,7.7
				c-1.2,9.1-2.3,18.2-3.3,27.3c-0.7,6.2-1.3,12.4-1.7,18.6c-0.2,3.1-0.1,6.3,0.1,9.5c0.2,4.7,2.2,8.6,5.6,11.7
				c1.4,1.3,2.9,2.5,4.4,3.7c1.7,1.3,3.6,2.1,5.8,2.3c1.3,0.1,2.6,0.4,3.9,0.9c1.9,0.8,2.1,2.9,0.5,4.2c-0.2,0.2-0.4,0.3-0.7,0.4
				c-4.7,1.9-9.5,2.9-14.5,1.2c-1.7-0.6-3.3-1.6-4.9-2.5c-3.3-2-6.6-3.7-10.6-4c-2.6-0.2-4-1.5-4.3-3.7c-0.1-0.8,0-1.7,0.3-2.4
				c0.5-1.3,1.1-2.6,1.8-3.7c2.4-3.6,2.9-7.5,2.6-11.7c-0.4-7.3-2.1-14.4-3.6-21.5c-1.5-7.3-2.6-14.6-2.1-22.1
				c0.2-3.9,1.6-7.5,3.2-11c0.1-0.3,0.3-0.7,0.4-1C2.2,317.1,2.1,317,2.1,316.8z M43.4,178c-0.1-0.8-0.2-1.2-0.2-1.6
				c-0.7-4.9-0.7-9.7,0.5-14.5c1.1-4.3,2.5-8.5,3.9-12.7c0.7-2.3-0.2-6.3-1.9-7.6c-1.8-1.4-3.5-2.8-5.3-4.3
				c-0.3,0.4-0.8,0.9-1.2,1.6c-1,1.4-2.5,2-4.1,2.1c-2.2,0.2-2.7-0.2-3.3-2.3c-0.3-1.1-1-1.7-2.2-1.4c-1,0.2-1.6-0.2-1.8-1.2
				c0-0.3-0.1-0.6-0.3-1.3c-0.7,0.9-1.2,1.5-1.4,1.8c0.7,0.8,1.7,1.4,1.6,1.9c-0.1,1,0.1,1.6,0.8,2.2c2.1,1.9,1.8,4.6-0.7,5.9
				c-1.6,0.9-3.4,1.6-5.1,2.3c-1.5,0.5-2.2,1.6-2.2,3c0.1,3.4-0.4,6.7-1.2,9.9c-0.4,1.8,0.1,3.2,1.6,4.4c4.4,3.6,9.5,5.7,14.6,7.8
				C38,175,41,175.4,43.4,178z M61.3,301.5c-2.7,4.2-2.5,11.6,0.7,15.5c1-2.4,0.9-4.8,0.5-7.2C62.1,307,61.7,304.2,61.3,301.5z"/>
		</g>
	</g>
	<path class="st3" d="M172.2,261.5c-2.2-7.9-3.7-15.9-5.4-23.9c-1.3-6.3-1.1-13.3-3.9-18.7c-4.8-9.5-1.5-19.4-3.3-28.8
		c-0.2-1,1.2-2.5,2-3.6c3.6-4.3,4.1-8.9,3.1-14.5c-0.8-4.9,0.4-10,0.4-15.1c0-3.6,0.7-8.3-1.2-10.6c-6-7.2-7.2-15.7-8.9-24.2
		c-1.9-9.5-4.8-18.7-11.2-26.3c-3.2-3.8-7.3-7.4-12.4-5.5c-9,3.3-18.2,6.9-21.5,17.4c-2,6.3-3.6,12.6-5.6,18.9
		c-1.3,3.8-2.2,8.4-5,10.8c-7.4,6.6-8.4,13.9-5.4,22.7c0.6,1.9,0,5-1.3,6.6c-6,7.5-6,10.9,0.7,17.9c1.4,1.5,3.5,3.2,3.7,5
		c0.5,6.9,0.6,13.9,0.3,20.8c-0.3,7.4-1.3,14.8-2,22.2c-0.5,5.3-1.4,10.6-1.5,15.9c-0.2,8.4-2.7,16.9,1.5,25.2
		c1.9,3.7,3.1,7.9,3.8,12c1,5.8,1.6,11.7,1.8,17.5c0.1,3.2,0.2,7.4-1.6,9.6c-11.1,13.5-13,29.3-12.9,45.9c0,12.1,1.6,24.4-6.6,34.9
		c-0.1,0.1-0.1,0.3-0.2,0.5c-1.6,3.7-1.2,6.8,3,8.2c3.7,1.3,6.7-0.7,7.4-5.3c0.8-4.9,0.8-9.9,1.5-14.9c2.1-15,7.7-28.8,13.5-42.7
		c2-4.7,3.7-10.5,2.8-15.3c-1.4-7.4,0.9-13.7,4.3-19.1c8.4-13.5,13.3-27.9,15.6-43.5c0.5-3.1,2.4-6.1,3.9-9.8
		c1.3,1.6,1.6,1.8,1.7,2.1c0.2,1.2,0.3,2.5,0.3,3.7c0.7,16.2,1.5,32.4,7.7,47.8c1.5,3.7,0.7,8.8-0.5,12.8c-1.7,6-3.5,11.7-2.2,18.2
		c3.7,19.5,9.7,38.8,3.5,59c-1.2,3.9,1.5,6.7,5.7,6.4c4.3-0.3,5.9-3.4,4.9-7.2c-3.7-13.7-1.9-27.1,1.5-40.6
		c3.5-14.2,4.6-28.4-2.3-42.3c-1.3-2.6-0.7-6.7,0-9.8c1.8-7.4,4.5-14.7,6.2-22.1c1-4.8,2.8-8.4,8.7-11.3c-0.3,4.8-0.5,8.8-0.8,13.3
		c1.1-0.9,1.8-1.4,2.4-1.9c0.6,1.1,1.2,2.1,2.5,4.4C172.4,275.8,174.4,268.9,172.2,261.5z M103.5,255.7c-0.5,0-1,0.1-1.4,0.1
		c-0.4-3-1.6-6-1.1-8.9c1.1-6.5,2.9-12.8,4.4-19.2c1.3-5.5,3.1-10.6,1.8-16.6c-0.8-3.7,0.6-8,2.1-12.2c2.3,4.3,4.3,8.6,6.8,12.7
		c1,1.7,2,3,2.9,4.1C114.7,226.8,107.7,245.2,103.5,255.7z M161.2,265c-0.7-6.3-1.1-12.6-2.3-18.7c-2-10.8-9.3-17.7-17.8-23.7
		c-0.6-0.4-3.9-6.5-5.8-9.3c3.9-5.8,7.5-11.8,12.1-19.1c1.2,7.7,2.1,14.2,3.2,20.6c0.9,5.2,1.4,10.5,3.2,15.4c2.2,6.2,5,12.2,8.2,18
		C165.5,254.2,164.5,259.6,161.2,265z"/>
</g>
<g id="Layer_4">
</g>
<g id="Layer_5">
</g>
<g id="Layer_9">
	<g>
		<g>
			<path class="st11" d="M868.7,212.4c-0.7,1.8-1.1,3.7-1.5,5.7c0.4-0.3,0.7-0.6,1.1-1c1.7-1.5,3-3.2,4.3-5.1
				c0.6-0.8,1.3-1.9,2.1-2.7c-1.1-0.6-2.7-0.6-3.8-0.1C869.6,209.9,869.1,211.2,868.7,212.4z"/>
			<path class="st11" d="M891.7,198.5c-1.7,1.6-4.7,2.1-7.1,2.2c-0.8,4.2-3,8.2-7.5,9.3c-0.1,0-0.2,0-0.3-0.1
				c-1.3,2.6-2.3,9.3,1.8,9.6c2,0.2,4.2-1.1,5.8-2.1c5.2-3.4,8.1-8.4,10.1-14.1c0.1-0.2,0.2-0.5,0.5-0.8c-0.2,0-0.5-0.2-0.6-0.5
				c-0.2-2.5-0.1-5,0.4-7.5C893.8,196,892.8,197.4,891.7,198.5z"/>
			<path class="st11" d="M866.6,238.7c0-2.1-0.4-4.3-0.3-6.4c0-1,0.5-3,0.2-3.5c-0.2-0.3-0.5-0.6-0.7-0.8c-0.4,3.7-1,7.3-1.7,10.9
				c-0.1,0.3,0,0.3-0.1,0.8c-0.3,1.5-0.6,3-0.9,4.5C864.8,242.6,866.6,240.9,866.6,238.7z"/>
			<path class="st12" d="M864.9,227.1c-0.3-0.3-0.6-0.6-0.7-1c-0.5-1-0.6-2.2-0.4-3.3c0.3-1.6,1.2-2.7,2.2-3.8
				c0.6-3.1,1-7.8,3.4-10.2c1.4-1.4,4.3-1.4,5.9-0.2c0.1,0,0.1-0.1,0.2-0.1c0.1-0.1,0.3,0,0.5,0.1c0.2,0.1,0.4,0.2,0.6,0.3
				c0.1,0,0.1,0.1,0.1,0.1c0,0,0.1,0,0.1-0.1c4-0.9,6-4.6,6.8-8.3c-0.2,0-0.3,0-0.5,0c-8-0.1-11.9-8-14-14.5c-0.4-1.2-0.6-2.5-1-3.8
				c-0.5-0.1-1.1-0.3-1.6-0.4c0.5-0.1,0.9-0.2,1.4-0.2c-0.1-0.3-0.2-0.6-0.4-0.9c-0.7-1.4-1.8-2.5-1.7-4.1c0.1-1.9,1.6-3.5,2.6-5
				c1.3-2,2.6-4.1,3.9-6.2c0,0,0,0,0,0c0,0,0,0,0,0c0,0,0.1-0.1,0.1-0.1c0,0,0,0,0,0c0,0,0.1,0,0.1,0c0,0,0,0,0,0
				c4.7,0.3,9.4,0.2,14.1-0.2c0.2,0,0.4,0.1,0.5,0.3c1.5,2.4,3.3,4.6,5.6,6.4c0.9,0.8,2.6,2.4,3.9,1.5c0.4-0.3,0.8-1.4,1.3-1.8
				c2.6-2.3,4.5,1.7,4.7,3.9c0.3,3-1.2,4.8-3.3,6.5c-1.1,0.9-0.7,1-0.7,2.5c0,1.2-0.1,2.4-0.4,3.6c-0.2,0.8-0.5,1.5-1,2.2
				c-0.3,0.5-0.7,1.1-1,1.7c0,0.1,0.1,0.2,0,0.3c-1,3.2-1.3,6.4-1,9.8c0.6-0.6,1.4-0.9,2.1-0.6c0,0,0.1,0.1,0.1,0.1
				c3.2-1.5,8.6-4.2,11.9-2.3c3.1,1.8,3.5,6.8,4.2,9.8c1,4.2,2.3,8.3,3.5,12.4c0.7,2.3,1.4,4.7,1.5,7.1c0.2,5.7-6.2,7.3-10.5,9.2
				c-3.3,1.5-6.9,2.8-10,4.7c-0.1,0.1-0.2,0.1-0.3,0.2c10.8-1.4,21.8-7.1,25.8-17.8c0.4-1,1.1-2.7,0.8-3.7c-0.6-2.7-2.4-0.2-3.5-1.7
				c-1-1.2,0.6-3.6,1.1-4.6c0.8-1.8,1.7-3.7,2.5-5.6c1.5-3.6,3.4-8.8-0.2-11.7c-1.6-1.3-3.6-2-5.3-3.1c-1.6-1.1-3-2.3-4.4-3.7
				c-6.8-7-7-15.8-7.1-25c-0.1-3.8-1.9-7.9-4.6-10.5c-4.4-4.3-11.3-4.7-16.7-2.5c-0.3,0.1-0.7-0.2-0.7-0.5c-0.1,0.2-0.3,0.3-0.6,0.1
				c-3.5-2.7-8-3.9-12.3-2.4c-3.7,1.3-7.1,4.1-9.9,6.8c-4.5,4.3-7.5,9.7-9.8,15.4c-1.1,2.7-2.3,5.7-2.3,8.7c0,2.5,1.5,4,3,5.7
				c2.7,3,5.4,8.7,3.4,12.7c-1.7,3.3-5.7,4.2-6.9,0.8c-5.2,5.5-5.4,13.6-3.3,20.6c2.6,8.5,8.7,14,16.4,17.7
				C863.9,234.6,864.5,230.9,864.9,227.1z"/>
			<path class="st13" d="M925.4,412.4c0.1,1,0.6,4.7,0.6,1.7c0-1.5,0.1-3,0.1-4.5c-0.6-1.5-1.2-3-1.7-4.5
				C924.7,407.5,925.1,410,925.4,412.4z"/>
			<path class="st13" d="M912.8,287.9c0.7-0.5,0.9-0.5,0.8-1.4c0-0.3-0.9-1.4-1-1.6c-0.7-1-1.3-2.1-2-3.1c-1.4-2.2-2.8-4.3-4.2-6.5
				c-3.3-5-6.6-10.1-10.2-14.9c0,0-0.1-0.1-0.1-0.1c-0.9-1.2-1.8-2.4-2.7-3.6c-1.7-2.3-3.7-5.3-6.2-7.1c-0.1,0-0.2-0.1-0.2-0.2
				c-0.1-0.1-0.3-0.2-0.4-0.3c-1-0.6-2.4-0.5-3.2-1.5c-0.8-1.1-0.3-2.4,0.1-3.5c0.3-0.5,0.2-0.4,0.3-0.8c0.7-1.8,1.6-3.7,2.5-5.4
				c2.2-3.9,5.8-6.8,8.7-10.2c1.3-1.6,2.6-3.3,3.7-5c-4.7,0.8-3.4-10.4-3-13c0.1-1,1.9-6.5,1-7c-0.8-0.5-1.9,3.5-2.2,4
				c-0.8,1.8-1.7,3.4-2.8,5c-2.7,3.8-7.3,8.6-12.3,8.9c-5.3,0.4-5.3-6.7-3.8-10.5c-1.4,0.6-3.1,3.9-3.9,4.9
				c-1.1,1.4-2.3,2.6-3.6,3.7c-3.1,2.6-5.4,7-0.8,9.7c0.2,0.1,0.3,0.4,0.2,0.5c-0.5,3.1-0.2,5.9-0.1,9c0.1,1.4,0.1,2.9-0.8,4.1
				c-1.1,1.4-2.8,2.5-4.1,3.7c0,0,0,0,0,0c-0.1,0.1-0.1,0.1-0.2,0.2c-1.6,1.5-3.2,3-4.6,4.7c-8.2,9.1-13.7,20.5-15.8,32.6
				c-0.7,4.1-1,8.3-1,12.5c0,1-0.2,3,0.4,3.6c0.7,0.6,2.4,0.8,3.2,1.1c8,2.5,16.4,3.8,24.7,3.6c11.1-0.2,22.1-3,31.9-8.2
				C905.4,293.3,909.2,290.8,912.8,287.9z"/>
			<path d="M937,420.6c1.5,0.4,3.4,1,4.2-0.1h-4.8C936.6,420.5,936.8,420.6,937,420.6z"/>
			<path d="M937.6,408.6c-1.3-1.7-2.9-3.3-4.3-4.9c-1.2-1.3-2.3-2.6-3.4-4c-1.6-2.1-2-4.7-2.6-7.2c-2.5-10.1-4.1-20.5-6.3-30.7
				c-2-9.2-4.5-18.1-8.6-26.5c-1.5-3.1-3.3-6.2-5.1-9.2c-1-1.6-1.5-2.8-1.5-4.7c0-1.5-0.1-2.9-0.2-4.4c-0.6-6.9-2.2-13.7-4.6-20.2
				c0-0.1-0.1-0.1-0.1-0.2c5-2.5,9.6-5.6,13.9-9.2c0.2-0.1,0.2-0.4,0.1-0.5c-5.5-8.7-11-17.6-17.1-26c1.1,0.2,1.6-0.6,1-2.4
				c-0.9-2.8-2.7-4.9-4.5-7.1c-1.3-1.7-1.9-2.4-0.7-4.3c0.4-0.7,0.9-1.4,1.4-2c0.4-0.5,0.9-1,1.4-1.4c0,0,0.1,0,0.1,0
				c10.9-1,21.8-6.1,27.1-16.2c1-1.9,2.6-5.2,1.8-7.5c-0.6-1.6-1.4-1-2.7-1.2c-0.2,0-0.4,0.1-0.5,0.1c-0.4-0.7-0.4-1.3,0-1.9
				c0.2-0.8,0.7-1.7,1.1-2.4c0.6-1.3,1.2-2.7,1.8-4c1.3-2.9,2.7-6.2,2.2-9.5c-0.7-4.8-5.7-5.8-9.1-8.4c-4.5-3.5-7.9-8.3-8.9-13.9
				c-0.6-3.1-0.8-6.4-0.9-9.5c0-1.7,0.2-3.4-0.1-5.1c-0.6-4.3-3-8.6-6.6-11.1c-4.6-3.2-10.9-3.3-16-1.2c-0.1,0-0.1,0.1-0.2,0.1
				c0-0.1-0.1-0.3-0.2-0.4c-13.1-10-27.3,6.3-32.3,17.6c-1.8,4.1-4.7,9.7-2.8,14.3c0.5,1.3,1.4,2.2,2.4,3.3c1.2,1.3,2.1,2.7,2.8,4.2
				c0.9,1.9,1.7,4.2,1.3,6.3c-0.2,1.3-0.9,2.3-1.9,3.2c-1.5,1.2-3.8,0.7-4.1-1.3c-0.1-0.3-0.5-0.7-0.8-0.4c-5.9,5.8-6.3,14.4-4,22
				c2.7,8.8,9.1,14.6,17.1,18.4c-0.4,1.9-0.8,3.8-1.2,5.8c0,0,0,0,0,0c-0.5,0.4-1,0.8-1.4,1.2c-2.5,2.5-4.9,5.1-7,7.9
				c-5.3,7.1-9.2,15.2-11.3,23.8c-1.7,6.9-2.3,14.1-1.8,21.2c0,0.2,0.2,0.4,0.4,0.5c5.2,1.9,10.6,3.3,16,4.1c0,0.1,0,0.1,0,0.2
				c2,5.9,4.2,11.7,6.7,17.4c1.2,2.7,2.8,5.4,3.6,8.3c1,3.2,1.2,6.9,1.7,10.2c1.7,12.7,2.7,25.5,2.9,38.3c0,2.9,0.1,5.8,0,8.8
				c0,3,0.2,6.2-0.4,9.2c-1,5.8-4.2,11.1-9,14.6c-1.7,1.3-3.6,2.2-5.5,3.3c-0.5,0.3-1.7,0.8-1.9,1.4c-0.3,1.1,1.1,1.6,1.9,1.8
				c1.4,0.3,2.8,0.3,4.2,0.3c2.3,0,5.8,0.3,7.7-1.2c2.3-1.8,4.7-4,6.8-6c1.5-1.5,2.4-3.5,3.4-5.3c0.3,2.7,0.5,5.4,0.6,8.1
				c0,1.1,0,4.1,1.9,2.8c0.9-0.6,1.3-2.1,1.5-3.1c0.7-2.3,0.9-4.8,0.8-7.3c-0.1-2.3-0.6-4.3-1-6.6c-0.5-2.3-1-4.7-1.5-7
				c-0.2-1.1-0.4-2.2-0.6-3.4c-0.3-1.4-0.9-3.1-0.7-4.6c0.4-2.4,1.5-4.9,2-7.3c0.5-2.6,1-5.2,1.3-7.8c1.2-8.9,1.5-17.4-0.5-26.2
				c-1.3-5.8-3.4-11.5-6.2-16.8c-1.5-2.8-0.7-7.2-0.7-10.3c-0.1-3.8-0.4-7.6-0.8-11.3c2.7-0.2,5.4-0.6,8-1.2c3.9,7.8,8.1,15,13,22.1
				c3,4.4,3.9,9,4.8,14.1c0.9,5.3,2.7,10.5,4.7,15.5c1.8,4.4,3.6,8.9,6,12.9c2,3.4,4.4,6.4,6,10c3.3,7.3,4,15.4,5.9,23.1
				c0.1,5,1,10,1.8,15c0,0.2,0.2,0.5,0.5,0.5c0.3,0,0.7,0,1,0c0.2,0,0.4-0.1,0.4-0.4c0-1.5,0-2.9,0-4.4c0.8,1.7,1.4,3.5,2.2,5.1
				c1.4,2.6,4.5,3.2,7.2,3.8h4.8c0.2-0.3,0.4-0.7,0.5-1.2C942.3,415.7,939.7,411.4,937.6,408.6z M893.9,244.9
				c-1.8,2.3-2.8,4.2-0.8,6.6c1.3,1.6,2.7,3,3.7,4.8c0.2,0.4,0.4,0.8,0.6,1.2c0.1,0.3,1.5,3.3-0.6,2.2c-1.4-1.9-2.8-3.8-4.3-5.6
				c-1.4-1.8-2.9-3.7-4.6-5.1c1.7-4.5,4.6-7.5,8.5-10.3c4.6-3.3,9.2-6.6,13.5-10.3c0.4,0.7,0.8,1.4,1.2,2c0.3,0.5,1.1,0.2,0.8-0.4
				c-2.8-4.4-5.2-9.1-7.1-13.9c-0.2-0.5-1.1-0.5-0.9,0.1c1.6,3.9,3.4,7.6,5.5,11.3c-4.7,3.9-9.6,7.4-14.5,11c-2,1.5-3.7,3.1-5,4.9
				c-0.1-0.1-0.2-0.1-0.3-0.1c-1.6,0.1-3.2,0-4.8,0c0.2-0.4,0.4-0.7,0.5-1c0.9-2,1.8-4,3.1-5.7c2.4-3.3,5.6-6,8.2-9.2
				c1.4-1.7,2.6-3.5,3.7-5.4c0,0,0-0.1,0-0.1c1.1-1.9,2.1-3.8,2.9-5.8c0.1-0.2,0-0.5-0.2-0.6c0.6,0.2,1.2,0.2,1.8,0.1
				c0.6-0.1,0.3-1-0.3-0.9c-1.1,0.2-2.1-0.3-2.8-1.2c-0.4-0.5-1,0.1-0.6,0.6c0.4,0.6,1,1,1.6,1.2c-0.1,0-0.2,0.1-0.2,0.2
				c-0.9,2-1.8,3.9-2.9,5.7c-3.2,1.6-3.2-2.7-3.3-4.7c-0.1-2,0-4,0.2-6c0.2-1.8,0.6-3.5,1.1-5.2c0.2-0.6,0.6-1.9,0.4-2.9
				c3.1-1.5,9.2-4.4,11.9-1.7c1.1,1.1,1.5,2.9,1.9,4.4c0.5,2.2,1.1,4.4,1.6,6.6c1.4,5.3,3.9,10.9,4.3,16.4c0.1,1.5-0.1,3.2-1.2,4.3
				c-0.8,0.8-2.1,1.3-3.1,1.8c-2.1,1.1-4.2,2.1-6.4,3.1C902.5,239.3,896.9,240.9,893.9,244.9z M887.1,248.4
				c-0.4-0.3-0.9-0.4-1.3-0.7c-0.6-0.4-1.6-1.3-1.7-2.1c-0.1-0.4,0.1-0.9,0.3-1.4c1.6,0.1,3.3,0.1,4.9,0
				C888.4,245.5,887.7,246.8,887.1,248.4z M846.8,220.7c-2.1-7-1.9-15,3.3-20.6c1.2,3.4,5.2,2.5,6.9-0.8c2.1-4-0.7-9.6-3.4-12.7
				c-1.6-1.8-3-3.3-3-5.7c-0.1-3,1.2-6,2.3-8.7c2.3-5.8,5.3-11.1,9.8-15.4c2.8-2.7,6.3-5.5,9.9-6.8c4.3-1.6,8.7-0.3,12.3,2.4
				c0.3,0.2,0.5,0.1,0.6-0.1c0,0.3,0.4,0.6,0.7,0.5c5.5-2.2,12.3-1.8,16.7,2.5c2.7,2.6,4.5,6.7,4.6,10.5c0.1,9.2,0.3,18,7.1,25
				c1.3,1.4,2.8,2.6,4.4,3.7c1.7,1.1,3.7,1.8,5.3,3.1c3.6,2.9,1.8,8.1,0.2,11.7c-0.8,1.9-1.7,3.7-2.5,5.6c-0.5,1-2,3.4-1.1,4.6
				c1.2,1.4,2.9-1.1,3.5,1.7c0.2,1-0.4,2.7-0.8,3.7c-4,10.7-15,16.4-25.8,17.8c0.1-0.1,0.2-0.1,0.3-0.2c3.1-1.9,6.7-3.2,10-4.7
				c4.3-2,10.8-3.5,10.5-9.2c-0.1-2.4-0.9-4.8-1.5-7.1c-1.2-4.1-2.4-8.2-3.5-12.4c-0.8-3-1.1-8-4.2-9.8c-3.3-1.8-8.8,0.8-11.9,2.3
				c0,0-0.1-0.1-0.1-0.1c-0.7-0.3-1.5,0-2.1,0.6c-0.3-3.3,0-6.6,1-9.8c0-0.1,0-0.2,0-0.3c0.3-0.6,0.7-1.2,1-1.7
				c0.5-0.7,0.8-1.4,1-2.2c0.3-1.2,0.5-2.4,0.4-3.6c0-1.5-0.4-1.6,0.7-2.5c2.1-1.8,3.7-3.6,3.3-6.5c-0.2-2.2-2.1-6.1-4.7-3.9
				c-0.5,0.4-0.9,1.5-1.3,1.8c-1.3,0.9-2.9-0.7-3.9-1.5c-2.2-1.8-4-4-5.6-6.4c-0.1-0.2-0.3-0.3-0.5-0.3c-4.7,0.4-9.4,0.5-14.1,0.2
				c0,0,0,0,0,0c-0.1,0-0.1,0-0.1,0c0,0,0,0,0,0c0,0-0.1,0-0.1,0.1c0,0,0,0,0,0c0,0,0,0,0,0c-1.3,2.1-2.6,4.1-3.9,6.2
				c-1,1.5-2.5,3.1-2.6,5c-0.1,1.7,0.9,2.8,1.7,4.1c0.1,0.3,0.3,0.6,0.4,0.9c-0.4,0.1-0.9,0.1-1.4,0.2c0.5,0.1,1.1,0.3,1.6,0.4
				c0.4,1.2,0.6,2.5,1,3.8c2,6.5,6,14.4,14,14.5c0.1,0,0.3,0,0.5,0c-0.8,3.8-2.8,7.4-6.8,8.3c0,0-0.1,0-0.1,0.1c0,0-0.1-0.1-0.1-0.1
				c-0.2-0.1-0.4-0.2-0.6-0.3c-0.1-0.1-0.3-0.1-0.5-0.1c-0.1,0-0.1,0.1-0.2,0.1c-1.6-1.2-4.5-1.3-5.9,0.2c-2.4,2.3-2.8,7.1-3.4,10.2
				c-1,1-1.9,2.2-2.2,3.8c-0.2,1.1-0.1,2.2,0.4,3.3c0.2,0.4,0.5,0.7,0.7,1c-0.4,3.8-1,7.5-1.7,11.2
				C855.5,234.6,849.4,229.2,846.8,220.7z M894.4,202.1c0,0.3,0.3,0.5,0.6,0.5c-0.2,0.3-0.4,0.5-0.5,0.8c-2,5.6-5,10.6-10.1,14.1
				c-1.6,1.1-3.8,2.3-5.8,2.1c-4.2-0.3-3.1-7-1.8-9.6c0.1,0.1,0.2,0.1,0.3,0.1c4.5-1,6.7-5.1,7.5-9.3c2.5-0.1,5.5-0.6,7.1-2.2
				c1.1-1.1,2.1-2.5,3.1-4C894.2,197,894.1,199.5,894.4,202.1z M891.9,196.7c-1.5,2.1-3.2,2.4-5.7,2.8c-3.4,0.5-6.4,0.2-9.3-1.9
				c-4.9-3.6-6.1-9.5-7.8-15c0.1,0,0.2,0,0.3,0c0.4,0,0.7,0,1.1,0c-0.4,0.4-0.3,1.5,0.3,2c0.6,0.6,1.7,0.7,2.3,0
				c0.4-0.5,0.4-1.8,0-2.2c0.6,0,1.3,0.1,1.9,0.4c0.8,0.3,1.6,0.9,2.5,1.4c-0.4-0.6-0.8-1.2-1.4-1.6c-0.3-0.3-0.6-0.5-0.9-0.7
				c-0.9-0.5-2-0.8-3-0.7c-1,0.1-1.9,0.2-2.8,0.3c-0.2,0-0.4,0-0.6,0.1c-0.2-0.5-0.5-1.1-0.8-1.6c-1.2-2-1.4-3.7-0.1-5.7
				c1.7-2.7,3.4-5.3,5.1-8c2.1,0.1,4.1,0.2,6.2,0.2c1.2,0,2.4,0,3.7-0.1c1.1-0.1,2.7-0.5,3.7,0c1.3,0.6,2.4,3,3.5,4.1
				c1.1,1.2,2.4,2.3,3.7,3.2c0.7,0.5,1.8,1.2,2.7,1.1c1.3-0.2,0.9-1.7,2-2.2c0.7-0.3,2.2,0.1,2.7,0.6c0.3,0.4,0.5,1,0.6,1.5
				c0.2,1,0.2,2.1,0,3.1c-0.5,1.9-2.1,3.3-3.9,3.9c-0.2,0.1-0.2,0.3-0.2,0.5C898.6,188.2,895.1,192.1,891.9,196.7z M874.6,209.4
				c-0.8,0.8-1.5,1.9-2.1,2.7c-1.3,1.8-2.6,3.6-4.3,5.1c-0.4,0.3-0.8,0.6-1.1,1c0.4-1.9,0.8-3.8,1.5-5.7c0.5-1.3,0.9-2.5,2.2-3.2
				C871.9,208.8,873.6,208.7,874.6,209.4z M864,239.6c0.1-0.4,0.1-0.5,0.1-0.8c0.7-3.6,1.2-7.2,1.7-10.9c0.3,0.3,0.6,0.5,0.7,0.8
				c0.3,0.6-0.2,2.6-0.2,3.5c0,2.2,0.3,4.3,0.3,6.4c0,2.2-1.8,3.9-3.6,5.4C863.3,242.6,863.7,241.1,864,239.6z M876,326.8
				c1.2,2.3,2.3,4.7,3.2,7.2c3.4,9.2,4.9,18.9,3.9,28.7c-0.4,4.1-1,8.1-1.7,12.2c-0.4,2.2-0.9,4.4-1.6,6.6c-0.5,1.7-0.9,2.8-0.6,4.5
				c0.8,4.5,1.8,9,2.7,13.6c0.5,2.3,0.9,4.3,0.9,6.6c0,2.5-0.3,5.6-1.5,7.9c-0.4,0.8-0.7,1.6-1,0.4c-0.1-0.4,0-0.9,0-1.3
				c0-3.3-0.4-6.5-0.7-9.8c0-0.4-0.6-0.8-0.9-0.3c-1.1,1.9-1.9,4-3.3,5.7c-1.7,2.1-4.2,3.9-6.2,5.7c-2.7,2.4-8.6,2.6-12.2,1.8
				c-0.9-0.2-1.3-0.2-0.9-0.8c0.6-1,3.2-1.8,4.2-2.3c3.8-2.2,7.1-5.2,9.3-9.1c2.2-4.1,2.8-8.2,3-12.7c0.1-5.5,0.1-11.1,0-16.6
				c-0.3-11.8-1.3-23.5-2.9-35.2c-0.4-2.8-0.8-5.6-1.3-8.4c-0.5-2.8-2-5.4-3.2-8c-2.8-6.3-5.3-12.8-7.5-19.3c5.4,0.8,11,1,16.5,0.5
				c0.6,5.8,0.9,11.7,0.8,17.5c0,0.8-0.2,2,0,2.8C875,325.4,875.6,326.1,876,326.8z M869.4,303.6c-8.4,0.2-16.7-1.1-24.7-3.6
				c-0.9-0.3-2.6-0.5-3.2-1.1c-0.6-0.6-0.4-2.6-0.4-3.6c-0.1-4.2,0.3-8.3,1-12.5c2.1-12.1,7.6-23.5,15.8-32.6c1.5-1.6,3-3.2,4.6-4.7
				c0.1-0.1,0.1-0.1,0.2-0.2c0,0,0,0,0,0c1.3-1.2,3-2.2,4.1-3.7c0.9-1.2,0.9-2.6,0.8-4.1c-0.2-3.1-0.4-6,0.1-9
				c0-0.2-0.1-0.4-0.2-0.5c-4.7-2.7-2.3-7.1,0.8-9.7c1.4-1.1,2.6-2.3,3.6-3.7c0.7-1,2.5-4.3,3.9-4.9c-1.5,3.8-1.6,10.9,3.8,10.5
				c5-0.4,9.6-5.1,12.3-8.9c1.1-1.6,2.1-3.2,2.8-5c0.2-0.5,1.3-4.4,2.2-4c0.9,0.5-0.9,6-1,7c-0.4,2.7-1.7,13.9,3,13
				c-1.1,1.8-2.3,3.4-3.7,5c-2.9,3.4-6.4,6.3-8.7,10.2c-1,1.7-1.8,3.6-2.5,5.4c-0.1,0.3,0,0.2-0.3,0.8c-0.4,1.1-0.8,2.5-0.1,3.5
				c0.8,1.1,2.1,0.9,3.2,1.5c0.1,0.1,0.3,0.2,0.4,0.3c0.1,0.1,0.1,0.1,0.2,0.2c2.4,1.8,4.4,4.8,6.2,7.1c0.9,1.2,1.8,2.4,2.7,3.6
				c0,0,0,0.1,0.1,0.1c3.5,4.9,6.9,9.9,10.2,14.9c1.4,2.1,2.8,4.3,4.2,6.5c0.7,1,1.3,2.1,2,3.1c0.1,0.2,1,1.3,1,1.6
				c0.1,0.9-0.1,0.9-0.8,1.4c-3.5,2.9-7.4,5.4-11.4,7.5C891.6,300.7,880.6,303.4,869.4,303.6z M926.1,414.1c0,3-0.5-0.7-0.6-1.7
				c-0.4-2.4-0.7-4.9-1-7.3c0.5,1.5,1,3,1.7,4.5C926.2,411.1,926.1,412.6,926.1,414.1z M939.8,420.2c-1.8,0.3-4.2-0.8-5.8-1.3
				c-1.7-0.5-3-0.9-3.9-2.5c-0.9-1.8-1.5-3.8-2.4-5.6c-1.2-2.4-2.1-4.9-2.8-7.4c-2.3-8.1-2.7-16.7-6-24.5c-1.4-3.4-3.4-6.4-5.4-9.5
				c-2.4-3.7-4.2-7.8-5.9-11.8c-2.3-5.5-4.5-11.3-5.6-17.2c-0.9-5-1.5-9.6-4.1-14c-1.8-2.9-4-5.6-5.8-8.5c-3-4.8-5.6-9.9-8.1-14.9
				c5.6-1.3,11.1-3.2,16.2-5.8c2.2,5.9,3.7,11.9,4.4,18.2c0.3,2.4,0.4,4.8,0.4,7.2c0,2.7,2,4.6,3.3,6.8c4.5,7.6,7.8,15.7,10,24.3
				c2.4,9.1,4.1,18.4,5.8,27.7c1,5,2,10,3.4,15c0.8,3.1,2.7,5.1,4.8,7.5c1.3,1.5,2.7,2.9,4,4.4C937.3,409.5,943.6,419.7,939.8,420.2
				z"/>
			<path d="M882.3,178.9c0.9-0.5,1.7-1.1,2.4-1.7c0.7-0.6,1.4-1.4,2.1-2c0.2-0.2,0.3-0.3,0.5-0.4c0.1-0.1,0.3-0.1,0.5-0.2
				c0.4-0.1,0.9,0,1.4,0c1,0.1,2,0,3,0c0,0,0.1,0,0.1-0.1c0,0,0-0.1-0.1-0.1l0,0c-1-0.2-1.9-0.3-2.9-0.6c-0.5-0.1-0.9-0.3-1.6-0.3
				c-0.3,0-0.6,0.1-0.9,0.2c-0.3,0.1-0.5,0.3-0.7,0.4c-0.8,0.6-1.7,1.1-2.4,1.9c-0.7,0.8-1.2,1.7-1.5,2.7c0,0,0,0,0,0.1
				C882.2,178.9,882.2,178.9,882.3,178.9z"/>
			<path d="M873.7,178.7c-0.6-0.4-1.3-0.6-2-0.8c-0.7-0.2-1.4-0.4-2.2-0.3c-0.8,0.1-1.4,0.5-1.9,1c0,0,0,0.1,0,0.1
				c0,0,0.1,0.1,0.1,0c0.6-0.3,1.3-0.5,1.9-0.4c0.6,0,1.2,0.3,1.8,0.7c0.6,0.3,1.1,0.8,1.8,1c0.6,0.2,1.3,0.4,2.1,0.3l0,0
				c0,0,0,0,0,0c0,0,0.1-0.1,0-0.1C874.8,179.6,874.3,179.1,873.7,178.7z"/>
			<path d="M891.9,177.1c-0.4,0.1-0.8,0.1-1.3,0.2c-0.5,0-1,0-1.5,0.1c-0.5,0.1-1,0.2-1.4,0.4c-0.9,0.4-1.8,1.1-2.3,2
				c-0.4,0.7-0.5,1.5-0.5,2.2c0,0.3,0,0.6,0.1,0.8c0.2-0.7,0.4-1.4,0.8-2c0.1,0.3,0.2,0.6,0.5,0.8c0.6,0.6,1.7,0.7,2.3,0
				c0.4-0.5,0.4-1.9-0.1-2.3c-0.3-0.2-0.6-0.2-0.9-0.2c0.2-0.1,0.4-0.2,0.6-0.3c0.8-0.4,1.6-0.5,2.6-0.7c0.5-0.1,1-0.2,1.4-0.5
				c0.4-0.3,0.8-0.7,0.9-1.1c0,0-0.1,0.1-0.1,0.1c0-0.1,0.1-0.2,0.1-0.2C892.7,176.7,892.3,177,891.9,177.1z"/>
			<path d="M881.4,190.4c0.1,0,0.2-0.1,0.2-0.1l0.2-0.1c0.5-0.3,0.6-0.7,1-0.9c0.3-0.3,0.6-0.5,1.1-0.5c-0.4-0.3-0.9-0.1-1.3,0.1
				c-0.4,0.2-0.8,0.6-1.1,0.7c-0.2,0.1-0.2,0.1-0.3,0c-0.1,0-0.2-0.1-0.3-0.3c-0.1-0.1-0.2-0.3-0.2-0.3c0,0,0-0.2,0.1-0.4
				c0.1-0.5,0.2-0.9,0.2-1.4c0-0.5,0-0.9-0.1-1.3c-0.1-0.9-0.3-1.7-0.7-2.5l-0.1,2.6c0,0.4,0,0.8-0.1,1.2c0,0.3-0.1,0.8-0.2,1.2
				c0,0.2-0.2,0.5-0.1,0.9c0.1,0.3,0.3,0.6,0.5,0.8c0.2,0.2,0.4,0.3,0.7,0.4C881,190.4,881.2,190.4,881.4,190.4z"/>
			<path d="M889.8,190.8L889.8,190.8l-0.1,0.1l0,0c-0.1,0.1-0.4,0.1-0.5,0.2c-0.2,0.1-0.4,0.1-0.6,0.2c-0.4,0.1-0.8,0.2-1.2,0.1
				c-0.4,0-0.7-0.1-1.2-0.2c-0.2-0.1-0.5-0.1-0.9,0c-0.2,0-0.3,0.1-0.5,0.2c-0.1,0.1-0.3,0.3-0.3,0.4c-0.1,0.3-0.1,0.3-0.2,0.3
				c-0.1,0.1-0.1,0.1-0.4,0c-0.4,0-1,0-1.4,0c-0.7,0-1.1,0.5-1.3,1c-0.2,0.5-0.2,0.9-0.4,1.3c0.4-0.3,0.6-0.8,0.8-1.1
				c0.1-0.2,0.2-0.3,0.4-0.4c0.1,0,0.2-0.1,0.2-0.1l0.2,0c0.5,0.1,0.9,0.1,1.3,0.1c0.1,0,0.2,0,0.4,0c0.2,0,0.4-0.1,0.5-0.2
				c0.3-0.1,0.6-0.6,0.6-0.7c0.1-0.2,0.2-0.2,0.6-0.2c0.4,0.1,1,0.2,1.5,0.1c0.9-0.1,1.8-0.6,2.4-1.3l-0.1,0.1l-0.2,0.4
				c-0.1,0.2-0.2,0.5-0.3,0.7c-0.2,0.5-0.5,0.8-0.8,1.2c-0.6,0.8-1.3,1.4-2.1,1.8c-0.8,0.4-1.7,0.4-2.7,0.2
				c-0.7-0.1-1.4-0.3-2.1-0.5c1.1,0.2,2.3,0.1,3.5-0.1c0.8-0.2,1.6-0.5,2.2-1c0.6-0.5,1.2-1,1.7-1.7c-0.7,0.3-1.4,0.7-2.1,1
				c-0.7,0.3-1.3,0.6-2,0.7c-1.4,0.3-2.9,0.4-4.5,0.8c0.2,0.1,0.4,0.1,0.6,0.1c0.7,0.6,1.6,1.1,2.6,1.4c1,0.3,2.2,0.4,3.3-0.1
				c1.1-0.5,1.8-1.4,2.3-2.3C889.6,192.9,889.8,191.6,889.8,190.8L889.8,190.8C889.8,190.8,889.8,190.8,889.8,190.8
				C889.8,190.8,889.8,190.8,889.8,190.8z"/>
		</g>
		<g>
			<path class="st12" d="M903,215.5c0.2,0.2,0.3,0.4,0.2,0.6c-0.9,2-1.8,3.9-2.9,5.8c0,0,0,0.1,0,0.1c-1.1,1.9-2.3,3.7-3.7,5.4
				c-2.6,3.2-5.8,5.8-8.2,9.2c-1.3,1.8-2.2,3.8-3.1,5.7c-0.1,0.3-0.3,0.6-0.5,1c1.6,0.1,3.2,0.1,4.8,0c0.1,0,0.2,0,0.3,0.1
				c1.4-1.8,3-3.4,5-4.9c4.8-3.7,9.8-7.1,14.5-11c-2.1-3.6-3.9-7.4-5.5-11.3c-0.1-0.4,0.1-0.5,0.4-0.5c0,0,0,0,0-0.1
				C903.8,215.7,903.4,215.6,903,215.5z"/>
			<path class="st11" d="M917.7,228.1c-0.4-5.5-2.9-11.1-4.3-16.4c-0.6-2.2-1.1-4.4-1.6-6.6c-0.4-1.5-0.8-3.2-1.9-4.4
				c-2.6-2.7-8.8,0.3-11.9,1.7c0.2,0.9-0.3,2.3-0.4,2.9c-0.5,1.7-0.9,3.4-1.1,5.2c-0.2,2-0.3,4-0.2,6c0.1,2,0.1,6.3,3.3,4.7
				c1.1-1.8,2-3.7,2.9-5.7c0.1-0.1,0.1-0.2,0.2-0.2c-0.6-0.3-1.2-0.7-1.6-1.2c-0.4-0.5,0.3-1.1,0.6-0.6c0.7,0.9,1.7,1.3,2.8,1.2
				c0.5-0.1,0.9,0.8,0.3,0.9c-0.2,0-0.3,0-0.5,0c0,0,0,0,0,0.1c0.2,0,0.4,0.1,0.5,0.3c2,4.8,4.4,9.5,7.1,13.9
				c0.3,0.6-0.5,0.9-0.8,0.4c-0.4-0.7-0.8-1.3-1.2-2c-4.4,3.7-8.9,7-13.5,10.3c-3.9,2.8-6.8,5.9-8.5,10.3c1.8,1.4,3.2,3.4,4.6,5.1
				c1.5,1.8,2.9,3.7,4.3,5.6c2.1,1.1,0.7-1.9,0.6-2.2c-0.2-0.4-0.4-0.8-0.6-1.2c-1-1.8-2.4-3.3-3.7-4.8c-2-2.4-1-4.4,0.8-6.6
				c3.1-4,8.6-5.6,13-7.6c2.2-1,4.3-2,6.4-3.1c1-0.5,2.3-1,3.1-1.8C917.6,231.3,917.8,229.6,917.7,228.1z"/>
		</g>
		<g>
			<path class="st14" d="M880.7,194.5c0.1,0,0.1-0.1,0.1-0.1l0-0.1C880.8,194.3,880.8,194.4,880.7,194.5z"/>
			<path class="st14" d="M873.7,178.7c-0.6-0.4-1.3-0.6-2-0.8c-0.7-0.2-1.4-0.4-2.2-0.3c-0.8,0.1-1.4,0.5-1.9,1c0,0,0,0.1,0,0.1
				c0,0,0.1,0.1,0.1,0c0.6-0.3,1.3-0.5,1.9-0.4c0.6,0,1.2,0.3,1.8,0.7c0.6,0.3,1.1,0.8,1.8,1c0.6,0.2,1.3,0.4,2.1,0.3l0,0
				c0,0,0,0,0,0c0,0,0.1-0.1,0-0.1C874.8,179.6,874.3,179.1,873.7,178.7z"/>
			<path class="st14" d="M881.4,190.4c0.1,0,0.2-0.1,0.2-0.1l0.2-0.1c0.5-0.3,0.6-0.7,1-0.9c0.3-0.3,0.6-0.5,1.1-0.5
				c-0.4-0.3-0.9-0.1-1.3,0.1c-0.4,0.2-0.8,0.6-1.1,0.7c-0.2,0.1-0.2,0.1-0.3,0c-0.1,0-0.2-0.1-0.3-0.3c-0.1-0.1-0.2-0.3-0.2-0.3
				c0,0,0-0.2,0.1-0.4c0.1-0.5,0.2-0.9,0.2-1.4c0-0.5,0-0.9-0.1-1.3c-0.1-0.9-0.3-1.7-0.7-2.5l-0.1,2.6c0,0.4,0,0.8-0.1,1.2
				c0,0.3-0.1,0.8-0.2,1.2c0,0.2-0.2,0.5-0.1,0.9c0.1,0.3,0.3,0.6,0.5,0.8c0.2,0.2,0.4,0.3,0.7,0.4
				C881,190.4,881.2,190.4,881.4,190.4z"/>
			<path class="st14" d="M889.8,190.8L889.8,190.8l-0.1,0.1l0,0c-0.1,0.1-0.4,0.1-0.5,0.2c-0.2,0.1-0.4,0.1-0.6,0.2
				c-0.4,0.1-0.8,0.2-1.2,0.1c-0.4,0-0.7-0.1-1.2-0.2c-0.2-0.1-0.5-0.1-0.9,0c-0.2,0-0.3,0.1-0.5,0.2c-0.1,0.1-0.3,0.3-0.3,0.4
				c-0.1,0.3-0.1,0.3-0.2,0.3c-0.1,0.1-0.1,0.1-0.4,0c-0.4,0-1,0-1.4,0c-0.7,0-1.1,0.5-1.3,1c-0.1,0.4-0.2,0.7-0.3,1.1l0,0.1
				c0.3-0.3,0.5-0.7,0.7-1c0.1-0.2,0.2-0.3,0.4-0.4c0.1,0,0.2-0.1,0.2-0.1l0.2,0c0.5,0.1,0.9,0.1,1.3,0.1c0.1,0,0.2,0,0.4,0
				c0.2,0,0.4-0.1,0.5-0.2c0.3-0.1,0.6-0.6,0.6-0.7c0.1-0.2,0.2-0.2,0.6-0.2c0.4,0.1,1,0.2,1.5,0.1c0.9-0.1,1.8-0.6,2.4-1.3
				l-0.1,0.1l-0.2,0.4c-0.1,0.2-0.2,0.5-0.3,0.7c-0.2,0.5-0.5,0.8-0.8,1.2c-0.6,0.8-1.3,1.4-2.1,1.8c-0.8,0.4-1.7,0.4-2.7,0.2
				c-0.7-0.1-1.4-0.3-2.1-0.5c1.1,0.2,2.3,0.1,3.5-0.1c0.8-0.2,1.6-0.5,2.2-1c0.6-0.5,1.2-1,1.7-1.7c-0.7,0.3-1.4,0.7-2.1,1
				c-0.7,0.3-1.3,0.6-2,0.7c-1.2,0.3-2.5,0.4-3.8,0.7l0.2,0.4l-0.2-0.4c-0.2,0-0.4,0.1-0.6,0.1c0.2,0.1,0.4,0.1,0.6,0.1
				c0.7,0.6,1.6,1.1,2.6,1.4c1,0.3,2.2,0.4,3.3-0.1c1.1-0.5,1.8-1.4,2.3-2.3C889.6,192.9,889.8,191.6,889.8,190.8L889.8,190.8
				C889.8,190.8,889.8,190.8,889.8,190.8C889.8,190.8,889.8,190.8,889.8,190.8z"/>
			<path class="st14" d="M882.3,178.9c0.9-0.5,1.7-1.1,2.4-1.7c0.7-0.6,1.4-1.4,2.1-2c0.2-0.2,0.3-0.3,0.5-0.4
				c0.1-0.1,0.3-0.1,0.5-0.2c0.4-0.1,0.9,0,1.4,0c1,0.1,2,0,3,0c0,0,0.1,0,0.1-0.1c0,0,0-0.1-0.1-0.1l0,0c-1-0.2-1.9-0.3-2.9-0.6
				c-0.5-0.1-0.9-0.3-1.6-0.3c-0.3,0-0.6,0.1-0.9,0.2c-0.3,0.1-0.5,0.3-0.7,0.4c-0.8,0.6-1.7,1.1-2.4,1.9c-0.7,0.8-1.2,1.7-1.5,2.7
				c0,0,0,0,0,0.1C882.2,178.9,882.2,178.9,882.3,178.9z"/>
			<path class="st14" d="M891.9,177.1c-0.4,0.1-0.8,0.1-1.3,0.2c-0.5,0-1,0-1.5,0.1c-0.5,0.1-1,0.2-1.4,0.4c-0.9,0.4-1.8,1.1-2.3,2
				c-0.4,0.7-0.5,1.5-0.5,2.2c0,0.3,0,0.6,0.1,0.8c0.2-0.7,0.4-1.4,0.8-2c0.1,0.3,0.2,0.6,0.5,0.8c0.6,0.6,1.7,0.7,2.3,0
				c0.4-0.5,0.4-1.9-0.1-2.3c-0.3-0.2-0.6-0.2-0.9-0.2c0.2-0.1,0.4-0.2,0.6-0.3c0.8-0.4,1.6-0.5,2.6-0.7c0.5-0.1,1-0.2,1.4-0.5
				c0.4-0.3,0.8-0.7,0.9-1.1c0,0-0.1,0.1-0.1,0.1c0-0.1,0.1-0.2,0.1-0.2C892.7,176.7,892.3,177,891.9,177.1z"/>
			<path class="st11" d="M901.6,174.8c-0.1-0.4-0.3-1.1-0.6-1.5c-0.4-0.6-1.9-1-2.7-0.6c-1.1,0.5-0.6,2-2,2.2
				c-0.9,0.1-2-0.6-2.7-1.1c-1.3-0.9-2.6-2-3.7-3.2c-1.1-1.1-2.2-3.5-3.5-4.1c-1-0.5-2.6,0-3.7,0c-1.2,0.1-2.4,0.1-3.7,0.1
				c-2.1,0-4.1,0-6.2-0.2c-1.7,2.7-3.4,5.3-5.1,8c-1.3,2-1.1,3.7,0.1,5.7c0.3,0.5,0.6,1,0.8,1.6c0.2,0,0.4,0,0.6-0.1
				c0.9-0.1,1.8-0.2,2.8-0.3c1-0.1,2.1,0.1,3,0.7c0.3,0.2,0.6,0.4,0.9,0.7c0.6,0.5,1,1,1.4,1.6c-0.8-0.6-1.6-1.1-2.5-1.4
				c-0.6-0.2-1.2-0.4-1.9-0.4c0.5,0.5,0.5,1.7,0,2.2c-0.5,0.6-1.7,0.5-2.3,0c-0.6-0.6-0.7-1.6-0.3-2c-0.4,0-0.7,0-1.1,0
				c-0.1,0-0.2,0-0.3,0c1.7,5.5,2.9,11.4,7.8,15c2.8,2.1,5.9,2.4,9.3,1.9c2.5-0.4,4.2-0.7,5.7-2.8c3.3-4.6,6.7-8.5,5.6-14.5
				c0-0.2,0-0.4,0.2-0.5c1.8-0.6,3.3-2,3.9-3.9C901.9,176.9,901.9,175.7,901.6,174.8z M875.2,180.4
				C875.2,180.4,875.2,180.4,875.2,180.4L875.2,180.4c-0.9,0.1-1.5-0.1-2.2-0.3c-0.7-0.2-1.2-0.7-1.8-1c-0.6-0.3-1.2-0.6-1.8-0.7
				c-0.6-0.1-1.3,0.1-1.9,0.4c0,0-0.1,0-0.1,0c0,0,0-0.1,0-0.1c0.5-0.5,1.2-0.9,1.9-1c0.8-0.1,1.6,0.1,2.2,0.3
				c0.7,0.2,1.4,0.4,2,0.8c0.6,0.4,1.2,0.9,1.6,1.5C875.3,180.3,875.3,180.3,875.2,180.4z M883.7,176.1c0.7-0.8,1.5-1.3,2.4-1.9
				c0.2-0.1,0.4-0.3,0.7-0.4c0.3-0.2,0.6-0.2,0.9-0.2c0.6,0,1.1,0.2,1.6,0.3c0.9,0.2,1.9,0.4,2.9,0.6l0,0c0,0,0.1,0,0.1,0.1
				c0,0,0,0.1-0.1,0.1c-1,0-2,0.1-3,0c-0.5,0-1-0.1-1.4,0c-0.2,0-0.3,0.1-0.5,0.2c-0.1,0.1-0.3,0.3-0.5,0.4c-0.7,0.7-1.3,1.5-2.1,2
				c-0.7,0.6-1.5,1.2-2.4,1.7c0,0-0.1,0-0.1,0c0,0,0,0,0-0.1C882.4,177.7,883,176.9,883.7,176.1z M879.6,189.2
				c-0.1-0.4,0-0.7,0.1-0.9c0.1-0.4,0.2-0.8,0.2-1.2c0-0.4,0-0.8,0.1-1.2l0.1-2.6c0.4,0.8,0.6,1.7,0.7,2.5c0.1,0.4,0.1,0.9,0.1,1.3
				c0,0.5-0.1,0.9-0.2,1.4c-0.1,0.2-0.1,0.4-0.1,0.4c0,0.1,0.1,0.2,0.2,0.3c0.1,0.1,0.2,0.2,0.3,0.3c0.1,0,0.1,0.1,0.3,0
				c0.3-0.1,0.7-0.5,1.1-0.7c0.4-0.2,0.9-0.3,1.3-0.1c-0.5,0-0.8,0.2-1.1,0.5c-0.3,0.2-0.5,0.6-1,0.9l-0.2,0.1c0,0-0.1,0.1-0.2,0.1
				c-0.2,0-0.4,0-0.5,0c-0.3-0.1-0.5-0.2-0.7-0.4C879.9,189.7,879.7,189.5,879.6,189.2z M889.8,190.8L889.8,190.8
				c0,0.8-0.2,2.1-0.7,3c-0.5,0.9-1.3,1.8-2.3,2.3c-1.1,0.5-2.3,0.4-3.3,0.1c-1-0.3-1.8-0.8-2.6-1.4c-0.2,0-0.4-0.1-0.6-0.1
				c0.2-0.1,0.4-0.1,0.6-0.1l0-0.1c0,0-0.1,0.1-0.1,0.1c0-0.1,0.1-0.2,0.1-0.2l-0.1-0.3l0.1,0.3c0.1-0.3,0.2-0.7,0.3-1.1
				c0.2-0.5,0.6-1,1.3-1c0.4,0,0.9,0,1.4,0c0.2,0,0.3,0,0.4,0c0.1-0.1,0.1-0.1,0.2-0.3c0.1-0.1,0.2-0.3,0.3-0.4
				c0.1-0.1,0.3-0.2,0.5-0.2c0.4-0.1,0.7,0,0.9,0c0.5,0.1,0.8,0.2,1.2,0.2c0.4,0,0.8,0,1.2-0.1c0.2,0,0.4-0.1,0.6-0.2
				C889.4,191,889.6,191,889.8,190.8L889.8,190.8L889.8,190.8L889.8,190.8C889.8,190.8,889.8,190.8,889.8,190.8
				C889.8,190.8,889.8,190.8,889.8,190.8z M893,176.6c-0.2,0.5-0.5,0.9-0.9,1.1c-0.4,0.3-1,0.4-1.4,0.5c-1,0.1-1.8,0.3-2.6,0.7
				c-0.2,0.1-0.4,0.2-0.6,0.3c0.2,0,0.6,0,0.9,0.2c0.6,0.4,0.6,1.8,0.1,2.3c-0.5,0.6-1.7,0.5-2.3,0c-0.2-0.2-0.4-0.5-0.5-0.8
				c-0.3,0.6-0.6,1.3-0.8,2c0-0.3-0.1-0.5-0.1-0.8c0-0.8,0.1-1.5,0.5-2.2c0.5-0.9,1.4-1.6,2.3-2c0.5-0.2,1-0.3,1.4-0.4
				c0.5-0.1,1-0.1,1.5-0.1c0.5,0,0.9,0,1.3-0.2c0.4-0.1,0.8-0.4,1.2-0.7c0,0.1-0.1,0.2-0.1,0.2C893,176.6,893,176.6,893,176.6z"/>
			<path class="st13" d="M886.8,193c0.7-0.3,1.3-0.7,2.1-1c-0.5,0.6-1,1.2-1.7,1.7c-0.6,0.5-1.4,0.8-2.2,1c-1.2,0.2-2.3,0.3-3.5,0.1
				c0.7,0.2,1.4,0.4,2.1,0.5c1,0.1,1.9,0.1,2.7-0.2c0.8-0.4,1.5-1,2.1-1.8c0.3-0.4,0.6-0.8,0.8-1.2c0.1-0.2,0.2-0.5,0.3-0.7l0.2-0.4
				l0.1-0.1c-0.6,0.6-1.4,1.1-2.4,1.3c-0.5,0.1-1.1,0-1.5-0.1c-0.4-0.1-0.5,0-0.6,0.2c0,0.1-0.3,0.6-0.6,0.7
				c-0.1,0.1-0.3,0.1-0.5,0.2c-0.2,0-0.3,0-0.4,0c-0.4-0.1-0.8-0.1-1.3-0.1l-0.2,0c0,0-0.2,0.1-0.2,0.1c-0.1,0.1-0.3,0.2-0.4,0.4
				c-0.2,0.3-0.4,0.7-0.7,1l0,0.1c1.3-0.3,2.6-0.4,3.8-0.7C885.5,193.6,886.1,193.4,886.8,193z"/>
		</g>
		<g>
			<path class="st13" d="M870.3,406.1c-1,0.4-2,0.7-2.7,0.9c-2,2.5-4.5,4.6-7.3,6.2c-0.9,0.6-3.6,1.4-4.2,2.3
				c-0.4,0.7,0,0.6,0.9,0.8c3.6,0.8,9.5,0.6,12.2-1.8c2-1.8,4.6-3.6,6.2-5.7c1.3-1.7,2.2-3.8,3.3-5.7c0.3-0.4,0.8,0,0.9,0.3
				c0.4,3.2,0.7,6.5,0.7,9.8c0,0.4-0.1,0.9,0,1.3c0.3,1.2,0.5,0.5,1-0.4c1.2-2.3,1.5-5.4,1.5-7.9c0-2.4-0.4-4.4-0.9-6.6
				c-0.3-1.3-0.6-2.7-0.8-4c-1.3,2.2-2.6,3.8-3.7,5C875.6,402.5,873.6,404.7,870.3,406.1z"/>
			<path class="st15" d="M881.3,374.8c0.8-4,1.3-8.1,1.7-12.2c1-9.8-0.4-19.5-3.9-28.7c-0.9-2.4-2-4.8-3.2-7.2
				c-0.3-0.7-1-1.4-1.2-2.2c-0.2-0.8,0-2,0-2.8c0.1-5.9-0.2-11.7-0.8-17.5c-5.5,0.4-11,0.2-16.5-0.5c2.2,6.6,4.7,13,7.5,19.3
				c1.2,2.6,2.7,5.1,3.2,8c0.5,2.8,0.9,5.6,1.3,8.4c1.6,11.7,2.6,23.4,2.9,35.2c0.2,5.5,0.2,11.1,0,16.6c-0.1,4.5-0.7,8.7-3,12.7
				c-0.6,1-1.2,2-1.9,2.9c0.8-0.2,1.7-0.5,2.7-0.9c3.3-1.4,5.2-3.5,7.1-5.6c1-1.2,2.4-2.8,3.7-5c-0.7-3.2-1.3-6.3-1.9-9.5
				c-0.3-1.8,0-2.8,0.6-4.5C880.4,379.3,880.9,377.1,881.3,374.8z"/>
		</g>
		<g>
			<path class="st13" d="M936.1,408.1c-0.9-1-1.8-2-2.7-3c-0.1,1.3-0.5,1.8-0.8,2c-1.5,0.9-4.9-1.7-6.7-3.9
				c-0.8-0.9-1.3-1.8-1.8-2.6c0.2,0.9,0.5,1.9,0.7,2.8c0.7,2.6,1.6,5.1,2.8,7.4c0.9,1.8,1.5,3.8,2.4,5.6c0.9,1.6,2.2,2,3.9,2.5
				c1.6,0.5,4.1,1.6,5.8,1.3C943.6,419.7,937.3,409.5,936.1,408.1z"/>
			<path class="st15" d="M932.6,407c0.3-0.2,0.7-0.6,0.8-2c-0.4-0.4-0.8-0.9-1.2-1.4c-2.1-2.4-3.9-4.4-4.8-7.5
				c-1.3-4.9-2.4-9.9-3.4-15c-1.8-9.2-3.5-18.6-5.8-27.7c-2.2-8.5-5.5-16.6-10-24.3c-1.3-2.3-3.3-4.2-3.3-6.8c0-2.4-0.2-4.8-0.4-7.2
				c-0.7-6.2-2.2-12.3-4.4-18.2c-5.2,2.6-10.6,4.5-16.2,5.8c2.5,5.1,5.2,10.1,8.1,14.9c1.8,2.9,4,5.6,5.8,8.5
				c2.7,4.5,3.2,9.1,4.1,14c1.1,5.9,3.3,11.6,5.6,17.2c1.7,4.1,3.5,8.1,5.9,11.8c2,3.1,4,6,5.4,9.5c2.9,6.9,3.6,14.5,5.3,21.7
				c0.4,0.8,1,1.7,1.8,2.6C927.7,405.3,931.1,408,932.6,407z"/>
		</g>
	</g>
</g>
</svg>
