<?xml version="1.0" encoding="utf-8"?>
<!-- Generator: Adobe Illustrator 22.1.0, SVG Export Plug-In . SVG Version: 6.00 Build 0)  -->
<svg version="1.1" id="Layer_2_1_" xmlns="http://www.w3.org/2000/svg" xmlns:xlink="http://www.w3.org/1999/xlink" x="0px" y="0px"
	 viewBox="0 0 117.5 280" style="enable-background:new 0 0 117.5 280;" xml:space="preserve">
<style type="text/css">
	.st0{fill:#EBF2F1;}
	.st1{fill:#B7CDDE;}
	.st2{fill:#202F51;}
	.st3{fill:none;}
	.st4{fill:#E5E5E5;}
</style>
<g>
	<g>
		<path class="st0" d="M39.7,70c-0.7,1.9-1.1,3.8-1.5,5.7c0.4-0.3,0.7-0.6,1.1-1c1.7-1.6,3-3.2,4.3-5.1c0.6-0.8,1.4-1.9,2.1-2.7
			c-1.2-0.5-2.5-0.7-3.8-0.1S40.1,68.8,39.7,70z"/>
		<path class="st0" d="M62.6,56.6c-1.9,1.7-4.5,1.9-7,2c-1.1,4.5-3.1,7.6-7.6,9.1c-0.1,0-0.2-0.1-0.3-0.1c-1.3,3.1-2.4,8.5,1.8,9.5
			c2,0.5,4.2-0.9,5.7-2c5.2-3.5,7.9-8.1,10.1-13.8c0.1-0.2,0.3-0.6,0.5-0.8c-0.2-0.1-0.5-0.2-0.6-0.5c-0.2-2.5-0.2-4.9,0.2-7.4
			C64.6,54,63.9,55.4,62.6,56.6z"/>
		<path class="st0" d="M37.6,96.4c0.1-2.3-0.4-4.3-0.2-6.4c0.1-1,0.5-2.7,0.2-3.4c-0.3-0.7-0.4-0.4-0.7-0.9c-0.4,3.7-1,7.3-1.7,10.9
			c-0.1,0.3,0,0.4-0.1,0.8c-0.3,1.4-0.6,3-0.9,4.4C35.7,100.4,37.5,98.7,37.6,96.4z"/>
		<path class="st1" d="M36,84.9c-0.3-0.3-0.5-0.6-0.7-1c-0.4-1.1-0.6-2.2-0.4-3.3c0.3-1.6,1.2-2.6,2.2-3.8c0.8-3.6,0.9-7.4,3.5-10.2
			c1.5-1.6,4-1.2,5.8-0.2c0.1,0,0.1-0.1,0.2-0.1s0.4,0,0.5,0.1s0.5,0.2,0.6,0.3c0.1,0.1,0.1,0.1,0.1,0.1c0,0,0.1-0.1,0.1-0.1
			c4-1.4,5.8-4.2,6.8-8.2c-0.2,0-0.3,0-0.5,0c-8.1-1.6-11.5-7.5-14-14.9c-0.5-1.4-0.5-2.3-1-3.6c-0.6-0.1-1.1-0.2-1.7-0.3
			c0.5-0.1,1-0.2,1.5-0.2c-0.1-0.3-0.3-0.5-0.5-0.8c-0.9-1.4-1.9-2.2-1.8-4.1c0.1-1.9,1.5-3.7,2.5-5.3c1.4-2.1,2.5-4.2,3.9-6.3l0,0
			l0,0c0.1-0.1-0.4,0,0.2-0.1c-0.3,0,0,0,0,0c0.4,0-1.6,0,0.4,0c-1.1,0,0,0,0,0c1.9,0,10.7,0,13.6-0.4c0.1,0,0.5,0.1,0.6,0.3
			c1.6,2.5,3.3,4.6,5.6,6.7c0.9,0.9,2.3,2.7,3.9,1.8c0.5-0.3,0.8-1.4,1.3-1.8c2.8-1.9,4.4,1.7,4.6,3.9c0.3,3.1-1.2,4.7-3.2,6.6
			c-1,1-0.7,1.3-0.7,2.5S69.3,45,69,46.2c-0.2,0.8-0.6,1.6-1,2.2s-0.7,1.1-1,1.8c0,0.1,0,0.2,0,0.3c-0.9,3.2-1,6.4-0.8,9.7
			c0.6-0.6,1.3-1,2.1-0.6c0,0,0,0.1,0.1,0.1c3.4-1.6,8.1-4.2,11.7-2.3c3.6,1.9,3.5,6.4,4.4,9.6c1.2,4.4,2.3,8.2,3.5,12.4
			c0.7,2.4,1.6,4.6,1.4,7.1c-0.4,5.8-5.8,7.2-10.4,9.2c-3.5,1.5-6.8,2.8-10,4.7c-0.1,0.1-0.2,0.1-0.3,0.2
			c11.7-2.2,20.4-6.9,25.8-17.8c0.5-1,1-2.7,0.8-3.6c-0.7-2.5-2.2-0.3-3.4-1.8c-1-1.3,0.5-3.3,1-4.5c0.9-2,1.7-3.6,2.5-5.7
			c1.6-3.9,3.1-8.2-0.3-11.6c-1.5-1.5-3.7-1.9-5.3-3.1c-1.6-1.2-3.1-2.2-4.4-3.7c-6.5-7.5-7-15.4-7.3-25c-0.1-3.9-1.6-7.7-4.5-10.5
			c-4.8-4.5-10.5-4.8-16.6-3c-0.3,0.1-0.7-0.2-0.7-0.5C56.1,10,56,10,55.7,9.8C51.8,7.3,47.8,6,43.3,7.5c-3.9,1.3-7.1,4-9.9,6.8
			c-4.5,4.5-7.3,9.7-9.7,15.5c-1.1,2.8-2.2,5.7-2.2,8.7c0,2.5,1.4,3.8,3,5.7c2.8,3.4,5.3,8.3,3.4,12.5c-1.6,3.5-5,4.1-6.8,1
			c-4.7,6.1-5.5,13.3-3.2,20.5c2.8,8.8,8.6,13.4,16.3,17.8C34.9,92.4,35.4,88.7,36,84.9z"/>
		<path class="st2" d="M96.1,270.2c0.1,0.9,0.5,4.4,0.6,1.7c0.1-1.3,0.1-3.1,0.1-4.5c-0.6-1.5-1.2-3-1.7-4.5
			C95.4,265.3,95.8,267.9,96.1,270.2z"/>
		<path class="st2" d="M83.6,145.7c0.7-0.5,0.8-0.5,0.8-1.5c0-0.3-0.8-1.3-1-1.5c-0.7-1.1-1.3-2.1-2-3.1c-1.4-2.2-2.8-4.3-4.2-6.5
			c-3.3-5.1-6.3-10.2-10.2-14.9c0,0-0.1-0.1-0.1-0.1c-1-1.2-1.7-2.3-2.7-3.6c-1.8-2.5-3.7-5.1-6.2-7.1c-0.1-0.1-0.2-0.1-0.2-0.2
			s-0.3-0.2-0.4-0.3c-1-0.6-2.4-0.5-3.2-1.5c-0.8-1-0.3-2.4,0.1-3.4c0.2-0.5,0.2-0.5,0.3-0.8c0.7-1.8,1.5-3.7,2.5-5.4
			c2.3-3.9,5.7-6.8,8.7-10.2c1.4-1.6,2.5-3.3,3.7-5c-5-1-3.5-9.1-3-12.9c0.2-1.5,2-5.8,0.9-6.7c-1.1-0.9-1.8,3.2-2.1,3.7
			c-1,1.7-1.6,3.4-2.8,5c-3.1,3.8-6.9,8.4-12.2,8.5c-5.6,0.1-5.1-6.5-3.8-10.3c-1.6,0.8-2.9,3.5-3.8,4.8c-1.3,1.7-2.3,2.5-3.7,3.8
			c-3.3,3.1-4.8,6.5-0.8,9.7c0.2,0.1,0.2,0.4,0.2,0.5c-0.5,3.1-0.2,5.9-0.1,9c0,1.4,0.2,2.8-0.8,4.1c-1,1.3-2.8,2.5-4.1,3.7
			c0,0,0,0,0,0c-0.1,0.1-0.1,0.1-0.2,0.2c-1.6,1.5-3.2,3-4.6,4.7c-8.1,9.8-13.2,20.1-15.8,32.6c-0.9,4.2-0.9,8.3-1.1,12.5
			c0,1-0.3,2.8,0.4,3.5s2.3,0.9,3.1,1.1c8.2,2.3,16.2,3.9,24.7,3.6c11.3-0.3,21.8-3.1,31.8-8.1C76.3,151.3,79.7,148.5,83.6,145.7z"
			/>
		<path d="M107.7,278.5c1.4,0.4,3,1,4.2-0.1c-1.6,0-3.2,0-4.8,0C107.3,278.5,107.5,278.4,107.7,278.5z"/>
		<path d="M108.3,266.6c-1.4-1.9-2.9-3.3-4.3-4.9c-1.2-1.4-2.4-2.6-3.4-4c-1.5-2.2-2-4.7-2.6-7.2c-2.4-10.2-4.1-20.5-6.3-30.7
			c-2-9.2-4.6-18-8.6-26.5c-1.4-3.2-3.3-6.2-5.1-9.2c-0.9-1.6-1.4-2.9-1.5-4.7c-0.1-1.5-0.1-2.9-0.2-4.4c-0.7-6.9-2.3-13.6-4.5-20.2
			c0-0.1-0.1-0.1-0.1-0.2c5-2.6,9.5-5.7,13.9-9.2c0.2-0.1,0.2-0.4,0.1-0.5c-5.5-8.8-11-17.6-17-26c1.4-0.2,1.5-1,0.9-2.5
			c-0.8-2.4-2.7-4.9-4.4-7c-1.3-1.6-1.7-2.5-0.7-4.3c0.4-0.7,0.9-1.4,1.4-2s0.8-1.1,1.4-1.4c0,0,0.1,0,0.1,0
			c12.1-0.9,20.6-5.9,27.1-16.3c1.2-2,2.4-5.1,1.8-7.4c-0.4-1.6-1.5-1-2.6-1.3c-0.2,0-0.4,0.2-0.5,0.1c-0.5-0.7-0.3-1.1,0-1.9
			c0.3-0.8,0.7-1.6,1.1-2.4c0.6-1.3,1.3-2.7,1.8-4c1.2-3,2.8-6.2,2.1-9.5c-1-4.8-5.6-5.7-9-8.4c-4.6-3.6-7.7-8-9-13.8
			c-0.8-3.2-0.8-6.4-0.9-9.5c-0.1-1.8,0.3-3.4-0.1-5.1c-0.9-4.4-2.6-8.4-6.5-11.1c-5-3.4-10.4-3.3-16-1.6c-0.1,0-0.1,0.1-0.2,0.1
			c-0.1-0.1-0.1-0.3-0.2-0.4C40,1.2,30.7,13.5,24,26.9c-2.4,4.9-4.1,9.1-2.8,14.3c0.4,1.5,1.5,2.1,2.4,3.3c1,1.2,2.1,2.6,2.8,4.2
			c0.9,2,1.7,4.1,1.3,6.3c-0.2,1.3-0.8,2.4-1.9,3.2c-1.6,1.2-3.5,0.7-4.1-1.3c-0.1-0.3-0.5-0.7-0.8-0.4c-5.4,6.5-6.4,14.1-3.9,22
			c2.9,9.2,9,14,17,18.5c-0.4,1.9-0.8,3.9-1.2,5.8c0,0,0,0,0,0c-0.4,0.4-1,0.8-1.4,1.2c-2.4,2.6-4.9,5-7,7.9
			c-5.2,7.4-9,15-11.3,23.8c-1.8,7-2.1,14-1.9,21.2c0,0.2,0.2,0.4,0.4,0.5c5.2,1.9,10.5,3.2,16,4.1c0,0.1,0,0.1,0,0.2
			c2,5.9,4.2,11.7,6.7,17.4c1.2,2.7,2.7,5.4,3.6,8.3c0.9,3.3,1.3,6.8,1.7,10.2c1.6,12.8,2.6,25.4,2.8,38.3c0.1,2.9,0.1,5.8,0,8.8
			c-0.1,3,0.2,6.1-0.5,9.2c-1.3,6-4.2,10.7-9,14.5c-1.7,1.4-3.6,2.2-5.5,3.3c-0.5,0.3-1.7,0.7-1.8,1.4c-0.3,1.1,1,1.6,1.8,1.8
			c1.5,0.3,2.7,0.3,4.2,0.3c2.5,0,5.5,0.3,7.6-1.2c2.5-1.8,4.7-3.9,6.8-6c1.6-1.5,2.3-3.4,3.5-5.3c0.3,2.7,0.5,5.3,0.6,8.1
			c0,1.2-0.1,3.8,1.9,2.7c0.9-0.5,1.2-2,1.5-3c0.6-2.4,0.9-4.9,0.8-7.3c-0.1-2.4-0.6-4.3-1-6.6c-0.4-2.3-1-4.6-1.5-7
			c-0.2-1.1-0.4-2.1-0.6-3.4c-0.2-1.3-0.9-3-0.6-4.5c0.4-2.5,1.5-4.8,2-7.3c0.5-2.5,1-5.2,1.3-7.8c1-8.9,1.4-17.3-0.5-26.2
			c-1.2-5.9-3.5-11.3-6.1-16.9c-1.4-3-0.7-7-0.7-10.2c0-3.9-0.4-7.5-0.7-11.3c2.7-0.2,5.3-0.6,8-1.2c3.8,7.7,8.3,15,12.9,22.1
			c2.9,4.4,3.8,8.9,4.8,14.1c1,5.2,2.7,10.5,4.7,15.5c1.8,4.4,3.7,8.8,6,12.9c2,3.5,4.4,6.4,5.9,10c3.1,7.4,4.1,15.3,5.9,23.1
			c0.2,5.1,1,10,1.8,15c0,0.2,0.2,0.5,0.5,0.5c0.3,0,0.7,0,1,0c0.3,0,0.4-0.1,0.4-0.4c0-1.4,0-2.9,0-4.4c0.9,1.6,1.3,3.5,2.2,5.1
			c1.6,2.6,4.3,3.1,7.1,3.8c1.6,0,3.2,0,4.8,0c0.2-0.5,0.5-0.7,0.5-1.2C112.6,273.2,110.5,269.6,108.3,266.6z M64.9,102.7
			c-1.9,2.3-2.5,4.1-0.8,6.6c1.1,1.6,2.7,3,3.7,4.8c0.2,0.4,0.3,0.6,0.6,1.3c0.3,0.6,1.2,2.9-0.6,2.1c-1.4-1.9-2.8-3.8-4.3-5.6
			c-1.5-1.8-2.8-3.6-4.6-5.1c2-4.4,4.7-7.4,8.5-10.2c4.6-3.3,9.2-6.6,13.5-10.3c0.3,0.6,0.8,1.4,1.2,2s1.1,0.2,0.8-0.4
			c-2.6-4.4-5.1-9-7-13.8c-0.2-0.5-1.1-0.5-0.9,0.1c1.5,3.9,3.5,7.6,5.5,11.2c-4.7,3.8-9.6,7.4-14.5,11c-2,1.5-3.5,3-5,4.9
			c-0.1-0.1-0.2-0.1-0.3-0.1c-1.6,0.1-3.2,0-4.8,0c0.2-0.3,0.4-0.7,0.5-1c0.9-2,1.8-3.9,3.1-5.7c2.5-3.3,5.5-6,8.2-9.2
			c1.4-1.7,2.9-3.2,3.7-5.4c0,0,0-0.1,0-0.1c0.6-2.1,2-3.8,2.9-5.8c0.1-0.2,0-0.5-0.2-0.6c0.6,0.1,1.2,0.2,1.8,0.1
			c0.6-0.2,0.3-0.9-0.3-0.9c-1.1,0.1-2-0.3-2.8-1.2C72.2,71,71.7,71.5,72,72c0.4,0.5,0.9,1,1.6,1.2c-0.1,0-0.2,0.1-0.2,0.2
			c-0.9,1.9-1.8,3.8-2.9,5.7c-3.2,1.1-3.2-2.5-3.3-4.6c-0.1-2.2,0-4,0.2-6c0.2-2,0.6-3.3,1.1-5.2c0.2-0.7,0.5-2,0.4-2.8
			c3.5-1.7,8.2-4.3,11.8-1.8c1.4,1,1.5,2.8,2,4.3c0.7,2.2,1,4.4,1.7,6.6c1.5,5.4,3.7,10.7,4.3,16.3c0.2,1.5-0.1,3.1-1.2,4.3
			c-0.8,0.9-2.1,1.3-3.1,1.8c-2.2,1.1-4.2,2.1-6.4,3.1C73.3,97.1,68.3,98.8,64.9,102.7z M58,106.2c-0.5-0.4-0.8-0.3-1.3-0.7
			c-0.6-0.4-1.5-1.2-1.6-2.1c-0.1-0.5,0.1-1,0.3-1.4c1.6,0.1,3.3,0.1,4.9,0C59.4,103.3,58.6,104.7,58,106.2z M17.8,78.3
			c-2.3-7.3-1.5-14.4,3.2-20.5c1.8,3.1,5.2,2.4,6.9-1c2-4.2-0.6-9.2-3.4-12.5c-1.6-1.9-3-3.3-3-5.7c-0.1-3.1,1.1-5.9,2.2-8.7
			c2.4-5.9,5.2-11,9.7-15.5c2.8-2.8,6.1-5.5,9.9-6.8c4.6-1.6,8.5-0.2,12.3,2.3C56,10,56.1,10,56.3,9.7c0,0.3,0.4,0.6,0.7,0.5
			c6.1-1.7,11.8-1.5,16.6,2.9c2.9,2.7,4.3,6.5,4.5,10.5c0.4,9.5,0.8,17.5,7.3,25c1.3,1.5,2.8,2.5,4.4,3.7c1.6,1.2,3.8,1.6,5.3,3.1
			c3.4,3.3,1.9,7.7,0.3,11.6c-0.9,2-1.6,3.6-2.5,5.7c-0.5,1.1-2,3.3-1,4.5c1.2,1.5,2.8-0.8,3.4,1.8c0.2,0.9-0.3,2.6-0.8,3.6
			c-5.3,10.9-14.1,15.6-25.8,17.8c0.1-0.1,0.2-0.1,0.3-0.2c3.2-1.9,6.5-3.2,10-4.7c4.5-2,10-3.4,10.4-9.2c0.1-2.4-0.8-4.7-1.4-7.1
			c-1.1-4.2-2.3-8.1-3.5-12.4c-0.9-3.1-0.8-7.7-4.4-9.6s-8.3,0.7-11.7,2.3c-0.1,0-0.1-0.1-0.1-0.1c-0.8-0.4-1.5,0.1-2.1,0.6
			c-0.3-3.3-0.1-6.5,0.8-9.7c0-0.1,0-0.2,0-0.3c0.3-0.6,0.6-1.1,1-1.7c0.4-0.6,0.8-1.5,1-2.2c0.3-1.1,0.4-2.5,0.4-3.6
			c0-1.3-0.3-1.6,0.7-2.5c1.9-1.9,3.5-3.5,3.2-6.6c-0.3-2.3-1.8-5.7-4.6-3.9c-0.5,0.3-0.8,1.5-1.3,1.8c-1.6,0.8-2.9-0.9-3.9-1.8
			c-2.2-2-4-4.2-5.6-6.7c-0.1-0.2-0.3-0.3-0.5-0.3c-4.7,0.3-9.4,0.5-14.1,0.3c0,0,0,0,0,0c-0.1,0-0.1,0.1-0.1,0c0,0,0,0,0,0
			c0-0.1-0.1,0.2-0.1,0.2l0,0l0,0c0,0-3.2,5.3-3.9,6.3c-0.5,0.8-2.5,3.6-2.5,5.2c0.1,1.6,0.7,2.8,1.8,4c0.2,0.2,0.3,0.6,0.5,0.8
			c-0.5,0.1-1,0.2-1.5,0.3c0.6,0.1,1.1,0.2,1.7,0.3c0.5,1.3,0.5,2.1,1,3.6c2.4,7.3,5.9,13.3,14,14.9c0.1,0,0.4,0,0.5,0
			c-1,4-2.6,7.2-6.8,8.2c0,0,0,0.1-0.1,0.1s0,0-0.1-0.1c-0.1-0.1-0.4-0.2-0.6-0.3c-0.1-0.1-0.4-0.1-0.5-0.1s-0.1,0.1-0.2,0.1
			c-1.8-1-4.3-1.5-5.9,0.2c-2.6,2.8-2.7,6.7-3.5,10.2c-1,1.2-1.9,2.2-2.2,3.8c-0.2,1.1,0,2.2,0.4,3.3c0.2,0.4,0.5,0.7,0.7,1
			c-0.4,3.8-1,7.5-1.7,11.2C26.4,91.7,20.7,87.2,17.8,78.3z M65.3,60.1c0,0.3,0.3,0.5,0.6,0.5c-0.2,0.3-0.4,0.5-0.5,0.8
			c-2.2,5.7-5.1,10.2-10.1,13.8c-1.6,1.1-3.7,2.4-5.7,2c-4.3-1-3.1-6.4-1.8-9.5c0.1,0,0.2,0.1,0.3,0.1c4.5-1.5,6.4-4.7,7.5-9.1
			c2.5,0,5.1-0.3,7-2c1.3-1.2,2-2.6,2.9-3.9C65.2,55.2,65.1,57.6,65.3,60.1z M62.8,54.7c-1.5,2.1-3.1,2.5-5.5,2.7
			c-3.3,0.2-6.5-0.2-9.3-2.4c-4.7-3.8-6-9.2-7.8-14.8c0.2,0,0.1,0,0.3,0s0.6-0.2,0.9-0.3c-0.2,0.7-0.2,1.4,0.4,1.9
			c0.6,0.5,1.7,0.6,2.1-0.2c0.4-0.8,0-1.8-0.4-2.5c0.8,0.2,1.4,0.4,2.1,0.9c0.7,0.5,1.5,1.4,2.3,1.8c-0.4-0.6-0.7-1.3-1.2-1.8
			c-0.3-0.3-0.5-0.6-0.8-0.9c-0.8-0.7-2-1.1-3-0.9c-1,0.2-1.6,0.6-2.5,0.9c-0.2,0.1-0.4,0.1-0.6,0.2c-0.2-0.5-0.6-0.9-1-1.4
			c-1.4-1.9-1.3-3.9-0.1-6c1.5-2.7,3.4-5.4,5-8.1c2.1,0.1,4.1,0.1,6.2,0.1c1.2,0,2.4-0.1,3.7-0.2c1.2-0.1,2.5-0.6,3.7,0.1
			c1.5,0.8,2.3,2.8,3.5,4.1c1.2,1.3,2.5,2.4,3.8,3.6c0.7,0.6,1.7,1.5,2.6,1.3c1.3-0.2,1-1.7,2.1-2.2c0.7-0.3,2.1,0.1,2.6,0.6
			c0.5,0.5,0.5,1,0.6,1.5c0.2,1.1,0.3,2.1,0,3.1c-0.6,2-2,3.2-3.8,3.9c-0.2,0.1-0.2,0.3-0.2,0.5C68.7,46,66,50.2,62.8,54.7z
			 M45.7,67.1c-0.7,0.8-1.5,1.8-2.1,2.7c-1.4,1.9-2.6,3.6-4.3,5.1c-0.4,0.3-0.8,0.6-1.1,1c0.5-1.9,0.8-3.8,1.5-5.7
			c0.5-1.3,0.9-2.5,2.2-3.2C43,66.4,44.6,66.4,45.7,67.1z M34.9,97.3C35,97,35,96.8,35,96.5c0.7-3.6,1.2-7.3,1.7-10.9
			c0.3,0.3,0.6,0.4,0.7,0.8c0.3,1-0.2,2.5-0.2,3.4c-0.1,2.3,0.4,4.2,0.2,6.5c-0.1,2.3-1.9,3.9-3.6,5.4
			C34.3,100.3,34.6,98.7,34.9,97.3z M46.8,184.6c1.2,2.4,2.3,4.7,3.2,7.2c3.2,9.4,4.6,18.7,3.8,28.7c-0.3,4.2-1.1,8.1-1.7,12.2
			c-0.3,2.2-1,4.5-1.6,6.6c-0.5,1.6-0.9,2.8-0.6,4.5c0.8,4.5,1.8,9,2.6,13.6c0.4,2.3,0.9,4.2,0.9,6.7c0,2.5-0.4,5.5-1.5,7.8
			c-0.4,0.8-0.6,1.5-1,0.4c-0.1-0.4,0-0.9,0-1.3c-0.1-3.3-0.4-6.5-0.7-9.8c0-0.4-0.6-0.8-0.9-0.3c-1.2,1.9-1.8,3.9-3.4,5.7
			c-1.9,2.1-3.9,3.8-6.3,5.7c-3.2,2.5-8.3,2.5-12,1.8c-0.9-0.2-1.3-0.1-0.9-0.8c0.6-1.2,3.1-1.6,4.1-2.3c3.9-2.5,7.1-5.1,9.3-9.1
			c2.2-4,2.9-8.2,3.1-12.7c0.2-5.5,0.2-11.1,0.1-16.6c-0.3-11.8-1.3-23.5-2.8-35.2c-0.4-2.8-0.8-5.6-1.3-8.4c-0.5-2.8-2-5.4-3.2-8
			c-2.8-6.3-5.2-12.8-7.5-19.3c5.5,0.7,10.9,0.9,16.5,0.5c0.5,5.9,0.8,11.6,0.8,17.5c0,0.8-0.1,1.9,0,2.8
			C45.9,183.3,46.4,183.9,46.8,184.6z M40.4,161.3c-8.7,0.3-16.5-1.3-24.7-3.6c-0.9-0.3-2.4-0.3-3.1-1.1c-0.7-0.8-0.4-2.5-0.4-3.5
			c0.1-4.3,0.2-8.3,1.1-12.5c2.6-12.4,7.7-22.8,15.8-32.5c1.5-1.7,3-3.1,4.6-4.7c0.1-0.1,0.1-0.1,0.2-0.2c0.1-0.1,0,0,0,0
			c1.4-1.3,3-2.2,4.1-3.7c0.9-1.2,0.9-2.6,0.8-4.1c-0.2-3-0.3-6,0.1-9c0-0.2-0.1-0.4-0.2-0.5c-4.1-3.2-2.5-6.6,0.8-9.7
			c1.5-1.4,2.4-2,3.7-3.8c0.9-1.3,2.2-3.9,3.8-4.7c-1.2,3.8-1.8,10.4,3.8,10.3c5.2-0.1,9.1-4.7,12.2-8.5c1.3-1.6,1.9-3.2,2.8-5
			c0.2-0.5,0.9-4.5,2.1-3.7s-0.7,5.2-0.9,6.7c-0.6,3.9-2.1,12,3,12.9c-1.1,1.8-2.3,3.4-3.7,5c-2.9,3.4-6.3,6.3-8.7,10.2
			c-1,1.7-1.8,3.5-2.5,5.4c-0.1,0.3-0.1,0.3-0.3,0.9c-0.3,0.9-0.8,2.4-0.1,3.4s2.1,1,3.2,1.5c0.1,0.1,0.3,0.2,0.4,0.3
			s0.1,0.1,0.2,0.2c2.4,2,4.3,4.6,6.2,7.1c1,1.3,2.1,2.1,2.7,3.6c0,0,0,0.1,0.1,0.1c3.5,4.9,6.8,9.9,10.2,14.9
			c1.4,2.1,2.8,4.3,4.2,6.5c0.7,1,1.3,2,2,3.1c0.1,0.2,0.9,1.2,1,1.5c0.1,0.9-0.1,0.9-0.8,1.5c-3.5,2.8-7.4,5.4-11.4,7.5
			C62.2,158,51.8,160.9,40.4,161.3z M96.7,271.9c-0.1,2.7-0.5-0.8-0.6-1.7c-0.3-2.3-0.7-4.9-1-7.2c0.5,1.5,1,3,1.7,4.5
			C96.8,268.8,96.8,270.6,96.7,271.9z M110.3,277.9c-1.8,0.7-4-0.7-5.7-1.2c-1.7-0.5-3-0.9-3.9-2.5s-1.5-3.8-2.4-5.6
			c-1.1-2.4-2.1-4.9-2.8-7.4c-2.2-8.2-2.9-16.6-6-24.5c-1.3-3.4-3.4-6.4-5.3-9.5c-2.3-3.8-4.2-7.7-5.9-11.8
			c-2.3-5.6-4.4-11.3-5.6-17.2c-1-5-1.6-9.6-4.1-14c-1.7-3-4-5.6-5.7-8.5c-2.9-4.9-5.5-9.8-8.1-14.9c5.6-1.4,11-3.2,16.2-5.8
			c2.1,6,3.6,11.9,4.4,18.2c0.3,2.4,0.3,4.7,0.4,7.2c0.1,2.6,2,4.5,3.2,6.8c4.4,7.7,7.7,15.7,10,24.3c2.4,9.1,4,18.4,5.8,27.7
			c1,5,2,10,3.4,15c0.9,3.1,2.7,5,4.8,7.5c1.3,1.6,2.5,2.5,4.1,4.5C108.3,267.9,114.1,276.4,110.3,277.9z"/>
		<path d="M53,36.4c1.1-0.4,1.5-1.3,2-2.2c0.6-0.9,1.2-1.4,2.1-2c0.3-0.2,0.3-0.2,0.6-0.3c0.3-0.1,0.2-0.1,0.6-0.2s1,0.1,1.5,0.1
			c1,0.1,2.1,0.1,3.1,0.3c0,0,0.1,0,0.1-0.1c0-0.1,0-0.1-0.1-0.1c-0.1,0,0,0,0,0c-1-0.4-2-0.5-3.1-0.9c-0.5-0.2-1.1-0.4-1.7-0.4
			c-0.3,0-0.7,0.1-0.9,0.1c-0.3,0.1-0.6,0.3-0.8,0.4c-1,0.5-1.9,1-2.4,1.9c-0.5,1-1.4,2.1-1.1,3.1C53,36.2,52.9,36.3,53,36.4
			C52.9,36.4,53,36.4,53,36.4z"/>
		<path d="M44.8,35.9c-0.6-0.4-1.3-0.8-2-1c-0.8-0.3-1.5-0.2-2.4,0.1c-0.9,0.2-1.6,0.7-2,1.7c0,0,0,0.1,0,0.1c0.1,0,0,0.1,0.1,0
			c0.6-0.6,1.2-1,2-1.1c0.8-0.1,1.3,0,2,0.4c0.6,0.4,1.1,0.8,1.8,1.1s1.4,0.4,2.1,0.4l0,0l0,0c0.1,0,0.1,0,0-0.1
			C46,36.9,45.4,36.4,44.8,35.9z"/>
		<path d="M62.6,35.2c-0.5-0.1-0.9-0.2-1.3-0.3c-0.5-0.1-1-0.3-1.5-0.3c-0.5,0-0.9-0.1-1.4,0c-1.1,0.2-1.9,1-2.4,1.9
			c-0.4,0.9-0.2,1.7-0.2,2.6c0,0.4,0.1,0.6,0.2,1c0.2-0.9,0.2-1.8,0.5-2.6c0.1,0.4,0.3,0.7,0.6,1c0.6,0.7,1.6,1,2.3,0.3
			s0.2-2.1-0.1-2.6c-0.3-0.5-0.5-0.3-0.9-0.6c0.2,0,0.4,0,0.6,0c0.9-0.1,1.7,0.1,2.6,0.2c0.4,0.1,0.9,0.2,1.4,0s0.8-0.5,0.9-1
			c0,0,0,0.2-0.1,0.1c-0.1,0,0-0.2,0.1-0.2C63.4,35,63.1,35.3,62.6,35.2z"/>
		<path d="M52.2,47.6c0.1,0,0.1-0.1,0.2-0.1c0.1,0,0.2-0.1,0.2-0.1c0.4-0.3,0.6-0.6,1-0.9c0.4-0.3,0.7-0.4,1.1-0.4
			c-0.4-0.3-0.9-0.1-1.3,0.1c-0.4,0.2-0.8,0.5-1,0.7c-0.3,0.1-0.1,0.1-0.3,0s-0.2-0.2-0.3-0.3c-0.1-0.1-0.2-0.1-0.2-0.3
			c0-0.2,0-0.2,0.1-0.4c0-0.3,0.1-0.9,0.1-1.3c0-0.4,0-0.8-0.1-1.2c-0.1-0.8-0.3-1.6-0.7-2.4c0,0.7-0.1,1.8-0.1,2.4
			c0,0.6,0,0.7-0.1,1.2c0,0.4-0.1,0.8-0.2,1.2c-0.1,0.4-0.1,0.6-0.1,0.9c0.1,0.3,0.3,0.6,0.5,0.8c0.2,0.2,0.5,0.3,0.7,0.3
			C51.9,47.7,52.1,47.6,52.2,47.6z"/>
		<path d="M60.1,49.2C60.1,49.2,60.1,49.2,60.1,49.2C60.1,49.2,60.1,49.2,60.1,49.2c0,0-0.1,0.1-0.2,0.1c0,0.2,0,0.4-0.1,0.5
			c-0.1,0.2-0.2,0.5-0.2,0.6c-0.2,0.4-0.3,0.5-0.6,0.9c-0.6,0.7-1,1.3-1.9,1.8s-1.9,0.3-2.8-0.2c-0.6-0.3-1.2-0.6-1.8-0.8
			c1.1,0,1.9,0.4,2.9,0.6c0.7,0.1,1.8-0.9,2.3-1.3c0.5-0.4,1-0.7,1.5-1.2c-0.7,0-1.3,0.1-2.1,0.2s-1.3,1-2,1
			c-1.4-0.1-2.1-0.1-3.4,0.3c0,0,0,0,0,0c0,0,0,0,0,0c-0.1,0-0.3,0.1-0.4,0.1c0.2,0.2,0.4,0,0.6,0.1c0,0,0,0,0.1,0H53h-0.9
			c0.8,0.6,1.3,1.1,2.3,1.7c1,0.6,2.4,0.8,3.5,0.2c1.1-0.5,1.3-1.3,1.8-2.2c0.5-0.9,0.4-1.7,0.4-2.7C60.1,49.1,60.2,49.1,60.1,49.2z
			"/>
		<path d="M52,51.9c0.7,0,1.3,0.1,1.8,0.4c0.5,0.1,1,0.3,1.6,0.4c0.7,0.1,1.8-0.9,2.3-1.3c0.5-0.4,1-0.7,1.5-1.2
			c-0.7,0-1.3,0.1-2.1,0.2s-1.3,1-2,1c-1.4-0.1-2.1-0.1-3.4,0.3c0,0,0,0,0,0c0,0,0,0,0,0c-0.1,0-0.3,0.1-0.4,0.1
			C51.6,52,51.8,51.8,52,51.9z"/>
		<path d="M59.9,49.3c0-0.1,0-0.2,0-0.3c0-0.1,0.1-0.1,0.1-0.1c-0.3,0.3-0.5,0.5-0.8,0.6c0.1,0,0.2,0,0.3,0
			C59.7,49.4,59.8,49.3,59.9,49.3z"/>
		<path d="M52.3,50.4c0.1-0.3,0.2-0.4,0.3-0.5c0.1-0.1,0.1-0.1,0.2-0.1c0.1-0.1,0.1,0,0.2,0c0.4-0.1,0.9,0,1.2,0.1
			c0.3,0,0.2,0,0.4,0.1c0.2,0,0.3-0.1,0.5-0.2s0.4-0.7,0.5-0.9c0.2-0.2,0.3-0.2,0.6-0.1s1,0.6,1.5,0.7c0.6,0.2,1.1,0.2,1.6,0
			c-0.1,0-0.2,0-0.3,0c-0.3,0-0.9-0.3-1.2-0.4s-0.9-0.4-1.2-0.6s-0.6-0.2-0.9-0.2c-0.3,0-0.3,0-0.5,0.1s-0.3,0.2-0.3,0.3
			c-0.1,0.1,0,0.2-0.2,0.3c-0.2,0.1-0.1,0-0.4,0S53.5,49,53,49.1c-0.5,0.1-1,0.6-1,1.1c-0.1,0.5,0,1-0.1,1.5c0,0,0,0,0,0
			C52.1,51.4,52.2,50.7,52.3,50.4z"/>
		<path d="M51.9,51.7C51.9,51.7,51.8,51.7,51.9,51.7C51.8,51.7,51.8,51.7,51.9,51.7C51.8,51.7,51.9,51.7,51.9,51.7z"/>
		<path d="M51.9,51.7C51.9,51.7,51.8,51.7,51.9,51.7C51.8,51.7,51.8,51.7,51.9,51.7C51.8,51.7,51.9,51.7,51.9,51.7z"/>
		<path d="M52.3,50.4c0.1-0.3,0.2-0.4,0.3-0.5c0.1-0.1,0.1-0.1,0.2-0.1c0.1-0.1,0.1,0,0.2,0c0.4-0.1,0.9,0,1.2,0.1
			c0.3,0,0.2,0,0.4,0.1c0.2,0,0.3-0.1,0.5-0.2s0.4-0.7,0.5-0.9c0.2-0.2,0.3-0.2,0.6-0.1s1,0.6,1.5,0.7c0.6,0.2,1.1,0.2,1.6,0
			c-0.1,0-0.2,0-0.3,0c-0.3,0-0.9-0.3-1.2-0.4s-0.9-0.4-1.2-0.6s-0.6-0.2-0.9-0.2c-0.3,0-0.3,0-0.5,0.1s-0.3,0.2-0.3,0.3
			c-0.1,0.1,0,0.2-0.2,0.3c-0.2,0.1-0.1,0-0.4,0S53.5,49,53,49.1c-0.5,0.1-1,0.6-1,1.1c-0.1,0.5,0,1-0.1,1.5c0,0,0,0,0,0
			C52.1,51.4,52.2,50.7,52.3,50.4z"/>
	</g>
	<g>
		<path class="st1" d="M73.9,73.4c0.2,0.2,0.3,0.4,0.2,0.6c-1,2-2.2,3.7-2.9,5.8c0,0,0,0.1,0,0.1c-0.7,2.2-2.3,3.7-3.7,5.4
			c-2.7,3.1-5.7,5.9-8.2,9.2c-1.3,1.8-2.1,3.7-3.1,5.7c-0.1,0.3-0.3,0.7-0.5,1c1.6,0.1,3.2,0.1,4.8,0c0.1,0,0.2,0,0.3,0.1
			c1.6-1.9,3.1-3.4,5-4.9c4.8-3.6,9.8-7.2,14.5-11c-2.1-3.6-3.9-7.4-5.5-11.2c-0.2-0.4,0.2-0.5,0.3-0.5c0.1,0,0.1-0.1,0-0.1
			C74.8,73.6,74.3,73.5,73.9,73.4z"/>
		<path class="st0" d="M88.6,85.9C88,80.2,85.9,75,84.3,69.6c-0.7-2.2-1-4.4-1.7-6.6c-0.5-1.5-0.5-3.2-2-4.3
			c-3.4-2.5-8.3,0.2-11.7,1.8c0.1,0.8-0.2,2.1-0.4,2.8c-0.5,2-0.9,3.3-1.1,5.3s-0.3,3.8-0.2,6s0.1,5.7,3.3,4.6
			c1.1-1.8,2-3.7,2.9-5.6c0.1-0.1,0.1-0.2,0.2-0.2c-0.5-0.3-1.2-0.7-1.6-1.2c-0.3-0.5,0.2-1.1,0.6-0.6c0.8,0.9,1.6,1.2,2.8,1.2
			c0.5,0,0.8,0.7,0.3,0.9c-0.2,0.1-0.5,0.1-0.5,0s-0.1,0.1,0,0.1c0.1,0,0.4,0.1,0.5,0.3c2,4.8,4.5,9.4,7.1,13.8
			c0.3,0.6-0.4,0.9-0.8,0.4s-0.8-1.4-1.2-2c-4.3,3.6-8.9,7-13.5,10.3c-3.9,2.8-6.5,5.9-8.5,10.2c1.8,1.5,3.1,3.3,4.6,5.1
			c1.5,1.8,2.9,3.7,4.3,5.6c1.9,0.8,0.9-1.5,0.6-2.1c-0.3-0.6-0.4-0.9-0.6-1.3c-0.9-1.8-2.5-3.3-3.6-4.8c-1.8-2.5-1.1-4.4,0.8-6.6
			c3.4-3.9,8.3-5.5,12.9-7.6c2.3-1,4.2-2,6.4-3.1c1-0.5,2.2-1,3.1-1.8C88.4,88.9,88.8,87.4,88.6,85.9z"/>
	</g>
	<g>
		<path class="st3" d="M52,51.8c0,0,0.1-0.1,0.1-0.1c0,0,0-0.1,0-0.1C51.9,51.5,51.9,51.8,52,51.8z"/>
		<path class="st3" d="M44.8,35.9c-0.6-0.4-1.3-0.8-2-1c-0.8-0.3-1.5-0.2-2.4,0.1c-0.9,0.2-1.6,0.7-2,1.7c0,0,0,0.1,0,0.1
			c0.1,0,0,0.1,0.1,0c0.6-0.6,1.2-1,2-1.1c0.8-0.1,1.3,0,2,0.4c0.6,0.4,1.1,0.8,1.8,1.1s1.4,0.4,2.1,0.4l0,0l0,0c0.1,0,0.1,0,0-0.1
			C46,36.9,45.4,36.4,44.8,35.9z"/>
		<path class="st3" d="M52.2,47.6c0.1,0,0.1-0.1,0.2-0.1c0.1,0,0.2-0.1,0.2-0.1c0.4-0.3,0.6-0.6,1-0.9c0.4-0.3,0.7-0.4,1.1-0.4
			c-0.4-0.3-0.9-0.1-1.3,0.1c-0.4,0.2-0.8,0.5-1,0.7c-0.3,0.1-0.1,0.1-0.3,0s-0.2-0.2-0.3-0.3c-0.1-0.1-0.2-0.1-0.2-0.3
			c0-0.2,0-0.2,0.1-0.4c0-0.3,0.1-0.9,0.1-1.3c0-0.4,0-0.8-0.1-1.2c-0.1-0.8-0.3-1.6-0.7-2.4c0,0.7-0.1,1.8-0.1,2.4
			c0,0.6,0,0.7-0.1,1.2c0,0.4-0.1,0.8-0.2,1.2c-0.1,0.4-0.1,0.6-0.1,0.9c0.1,0.3,0.3,0.6,0.5,0.8c0.2,0.2,0.5,0.3,0.7,0.3
			C51.9,47.7,52.1,47.6,52.2,47.6z"/>
		<path class="st3" d="M60.2,49.1L60.2,49.1c-0.1,0.1,0,0.1-0.1,0.1c0,0,0,0,0,0c-0.1,0.1-0.3,0.2-0.5,0.2s-0.3,0.1-0.6,0
			c-0.3,0-0.9-0.3-1.2-0.4s-0.9-0.4-1.2-0.6c-0.3-0.2-0.6-0.2-0.9-0.2c-0.3,0-0.3,0-0.5,0.1c-0.2,0.1-0.3,0.2-0.3,0.3
			c-0.1,0.1,0,0.2-0.2,0.3c-0.2,0.1-0.1,0-0.4,0c-0.3,0-0.8,0.1-1.3,0.1c-0.5,0.1-1,0.6-1,1.1c-0.1,0.5-0.1,0.8-0.1,1.3
			c0,0,0,0.1,0,0.1c0.4,0.1,0.4-1,0.4-1.2c0.1-0.2,0.2-0.4,0.3-0.5c0.1-0.1,0.1-0.1,0.2-0.1c0.1-0.1,0.1,0,0.2,0
			c0.4-0.1,0.9,0,1.2,0.1c0.3,0,0.2,0,0.4,0.1s0.3-0.1,0.5-0.2c0.2-0.2,0.4-0.7,0.5-0.9c0.2-0.2,0.3-0.2,0.6-0.1
			c0.4,0.1,1,0.6,1.5,0.7c0.9,0.3,1.7,0.2,2.4-0.6c0,0.1-0.1,0.1-0.1,0.1c0,0.2,0,0.6-0.1,0.8c-0.1,0.2-0.2,0.5-0.2,0.6
			c-0.2,0.4-0.3,0.5-0.6,0.9c-0.6,0.7-1,1.3-1.9,1.8c-0.9,0.5-1.9,0.3-2.8-0.2c-0.6-0.3-1.2-0.6-1.8-0.8c1.1,0,1.9,0.4,2.9,0.6
			c0.7,0.1,1.8-0.9,2.3-1.3c0.5-0.4,1-0.7,1.5-1.2c-0.7,0-1.3,0.1-2.1,0.2c-0.7,0.1-1.3,1-2,1c-1.3,0-1.9-0.4-3.1,0.3
			c0.1,0.1,0.1,0.3,0.2,0.4c0-0.1-0.2-0.4-0.3-0.4c-0.1,0-0.6,0-0.5,0.1c0,0.1,0.4,0,0.6,0.1c0.8,0.6,1.3,1.1,2.3,1.7
			s2.4,0.8,3.5,0.2c1.1-0.5,1.3-1.3,1.8-2.2C60.3,50.9,60.1,50,60.2,49.1L60.2,49.1L60.2,49.1L60.2,49.1z"/>
		<path class="st3" d="M53,36.4c1.1-0.4,1.5-1.3,2-2.2c0.6-0.9,1.2-1.4,2.1-2c0.3-0.2,0.3-0.2,0.6-0.3c0.3-0.1,0.2-0.1,0.6-0.2
			s1,0.1,1.5,0.1c1,0.1,2.1,0.1,3.1,0.3c0,0,0.1,0,0.1-0.1c0-0.1,0-0.1-0.1-0.1c-0.1,0,0,0,0,0c-1-0.4-2-0.5-3.1-0.9
			c-0.5-0.2-1.1-0.4-1.7-0.4c-0.3,0-0.7,0.1-0.9,0.1c-0.3,0.1-0.6,0.3-0.8,0.4c-1,0.5-1.9,1-2.4,1.9c-0.5,1-1.4,2.1-1.1,3.1
			C53,36.2,52.9,36.3,53,36.4C52.9,36.4,53,36.4,53,36.4z"/>
		<path class="st3" d="M62.6,35.2c-0.5-0.1-0.9-0.2-1.3-0.3c-0.5-0.1-1-0.3-1.5-0.3c-0.5,0-0.9-0.1-1.4,0c-1.1,0.2-1.9,1-2.4,1.9
			c-0.4,0.9-0.2,1.7-0.2,2.6c0,0.4,0.1,0.6,0.2,1c0.2-0.9,0.2-1.8,0.5-2.6c0.1,0.4,0.3,0.7,0.6,1c0.6,0.7,1.6,1,2.3,0.3
			s0.2-2.1-0.1-2.6c-0.3-0.5-0.5-0.3-0.9-0.6c0.2,0,0.4,0,0.6,0c0.9-0.1,1.7,0.1,2.6,0.2c0.4,0.1,0.9,0.2,1.4,0s0.8-0.5,0.9-1
			c0,0,0,0.2-0.1,0.1c-0.1,0,0-0.2,0.1-0.2C63.4,35,63.1,35.3,62.6,35.2z"/>
		<path class="st0" d="M72.3,32.7c-0.1-0.5-0.1-1-0.6-1.5c-0.5-0.5-1.7-1.1-2.6-0.6c-0.9,0.5-0.7,2-2,2.2c-0.9,0.1-1.9-0.7-2.6-1.4
			c-1.2-1.2-2.7-2.3-3.8-3.6c-1.1-1.3-2.1-3.4-3.4-4.1c-1.4-0.7-2.5-0.1-3.7-0.1c-1.3,0-2.4,0.2-3.7,0.2c-2.1,0-4.1,0.1-6.2-0.1
			c-1.6,2.7-3.5,5.4-5,8.1c-1.1,2-1.3,4.1,0.1,6c0.3,0.5,0.7,0.9,1,1.4c0.1,0.1,0.4-0.1,0.6-0.2c0.9-0.3,1.5-0.7,2.5-0.9
			c1-0.2,2.2,0.1,3,0.9c0.3,0.3,0.6,0.6,0.8,0.9c0.4,0.6,0.8,1.2,1.2,1.8c-0.8-0.5-1.5-1.4-2.3-1.8c-0.8-0.5-1.3-0.7-2.1-0.9
			c0.5,0.6,0.9,1.8,0.5,2.5c-0.4,0.7-1.5,0.6-2.1,0.2c-0.6-0.4-0.6-1.2-0.4-1.8c-0.2,0.1-0.7,0.2-0.9,0.3s-0.2,0-0.4,0
			c1.8,5.6,3,10.9,7.8,14.8c2.7,2.2,5.9,2.6,9.3,2.4c2.5-0.2,4.1-0.6,5.6-2.7c3.3-4.5,5.9-8.7,5.4-14.5c0-0.2,0-0.4,0.2-0.5
			c1.9-0.8,3.2-2,3.9-3.9C72.5,34.8,72.6,33.9,72.3,32.7z M46.3,37.7C46.2,37.7,46.3,37.7,46.3,37.7C46.3,37.7,46.3,37.7,46.3,37.7
			c-0.7,0-1.5-0.2-2.2-0.5c-0.7-0.2-1.1-0.7-1.8-1c-0.6-0.3-1.2-0.4-2-0.4s-1.3,0.8-2,1c0,0-0.1,0-0.1,0c0,0,0-0.1,0-0.1
			c0.5-0.9,1.1-1.4,2-1.6s1.7-0.4,2.5-0.1s1.4,0.6,2,1c0.6,0.4,1.1,0.9,1.5,1.5C46.3,37.6,46.4,37.7,46.3,37.7z M54,33.2
			c0.5-1.1,1.3-1.5,2.4-2c0.2-0.1,0.5-0.3,0.8-0.4s0.6-0.2,1-0.1s1.2,0.3,1.7,0.4c0.8,0.2,2.5,0.7,3,0.8c0.2,0.1,0,0,0,0
			c0.5,0.2,0,0,0.1,0.2c0.1,0.1,0,0.1-0.1,0.1c-1-0.2-2.1-0.1-3.1-0.3c-0.5-0.1-1.1-0.2-1.5-0.1c-0.4,0-0.4,0-0.6,0.2
			c-0.2,0.1-0.4,0.2-0.6,0.3c-0.8,0.6-1.4,1.2-2,2c-0.6,0.8-0.9,1.8-2.1,2.2c0,0-0.1,0-0.1,0c0,0,0,0,0-0.1
			C53.3,35.4,53.5,34.3,54,33.2z M50.5,46.5c-0.1-0.3-0.1-0.6,0-0.9c0.1-0.4,0.1-0.7,0.2-1.2c0-0.4,0-0.6,0.1-1.2
			c0.1-0.6,0.2-1.7,0.1-2.4c0.4,0.7,0.6,1.6,0.7,2.4c0.1,0.4,0.1,0.8,0.1,1.2c0,0.4-0.1,1-0.1,1.3c-0.1,0.3-0.1,0.3-0.1,0.4
			s0.1,0.2,0.2,0.3c0.1,0.1,0.2,0.2,0.3,0.3c0.1,0,0.1,0.1,0.3,0c0.3-0.1,0.7-0.5,1-0.7s0.9-0.3,1.3-0.1c-0.4,0-0.8,0.2-1.1,0.4
			c-0.3,0.3-0.6,0.6-1,0.9c0,0-0.1,0.1-0.2,0.1c-0.1,0-0.1,0.1-0.2,0.1c-0.1,0-0.3,0.1-0.5,0c-0.2,0-0.5-0.2-0.7-0.3
			C50.8,47,50.6,46.8,50.5,46.5z M60.2,49.1L60.2,49.1c-0.1,0.9,0,1.9-0.4,2.8c-0.4,0.9-0.8,1.7-1.9,2.2c-1.1,0.5-2.5,0.3-3.5-0.2
			c-1-0.6-1.6-1.1-2.4-1.7c-0.2-0.1-0.5-0.1-0.6-0.1c0-0.1,0.5,0,0.6-0.1c0-0.1,0-0.1,0-0.1c0,0,0,0.2-0.1,0.1
			c-0.1-0.1,0.1-0.1,0.1-0.2c0-0.2-0.1-0.1-0.1-0.3c0,0.1,0.1,0.3,0.1,0.3c0-0.2,0-0.9,0.1-1.3s0.5-1.1,1-1.1c0.5-0.1,1-0.1,1.3-0.1
			c0.3,0,0.2,0,0.4,0s0.1-0.2,0.2-0.3s0.2-0.3,0.3-0.4c0.2-0.1,0.3-0.1,0.5-0.1c0.2,0,0.7,0.1,0.9,0.2c0.4,0.2,0.8,0.5,1.2,0.7
			c0.4,0.2,0.9,0.3,1.1,0.4s0.4,0.1,0.6,0C59.7,49.6,60.2,49.1,60.2,49.1L60.2,49.1L60.2,49.1L60.2,49.1L60.2,49.1L60.2,49.1z
			 M63.7,34.9c-0.1,0.4-0.4,0.8-0.8,0.9c-0.5,0.1-1,0.1-1.4,0c-0.9-0.2-1.8-0.3-2.6-0.2c-0.2,0-0.6,0-0.5,0.1c0,0.1,0.6,0.2,0.8,0.5
			c0.4,0.6,0.9,2,0.2,2.7s-1.6,0.3-2.3-0.3c-0.2-0.2-0.5-0.7-0.6-1c-0.2,0.8-0.3,1.7-0.5,2.6c0-0.3-0.1-0.6-0.1-1
			c0-0.9-0.3-1.8,0.2-2.7c0.4-0.9,1.4-1.8,2.4-1.9c0.5-0.1,0.9,0,1.4,0c0.5,0,1,0.2,1.5,0.4c0.5,0.2,0.8,0.3,1.3,0.3
			s0.9-0.2,1.2-0.5c0.1-0.1,0,0.3-0.1,0.2C63.6,35,63.8,34.9,63.7,34.9z"/>
		<path class="st2" d="M57.3,50.5c0.8,0,1.3-0.2,2.1-0.2c-0.5,0.4-0.9,0.8-1.5,1.2s-1.6,1.4-2.3,1.3c-1.1-0.2-1.9-0.5-3-0.6
			c0.7,0.2,1.1,0.4,1.9,0.8c0.8,0.4,1.9,0.7,2.8,0.2s1.3-1.2,1.9-1.8c0.3-0.3,0.4-0.6,0.6-0.8c0.1-0.3,0.1-0.4,0.2-0.6
			c0.1-0.2,0.2-0.3,0.2-0.5c0-0.1,0.1-0.1,0.1-0.1c-0.7,0.7-1.3,0.8-2.3,0.6c-0.5-0.1-1.2-0.6-1.6-0.9c-0.4-0.3-0.5-0.3-0.6,0.1
			c-0.1,0.3-0.2,1.1-0.5,1.2s-0.2,0.2-0.5,0.2s-0.1,0-0.4-0.1c-0.3-0.1-0.8-0.5-1.2-0.3c0,0-0.1,0-0.2,0c-0.1,0.1-0.1,0-0.2,0.2
			s-0.2,0.2-0.3,0.5c-0.1,0.3-0.3,0.9-0.4,1.2c0,0,0,0.1,0,0.1c1.1-0.8,2-0.1,3.1-0.2C56,51.9,56.4,50.6,57.3,50.5z"/>
	</g>
</g>
<g>
	<path class="st2" d="M41.2,263.7c-1,0.4-2,0.7-2.7,0.9c-2,2.5-4.5,4.6-7.3,6.2c-0.9,0.6-3.6,1.4-4.2,2.3c-0.4,0.7,0,0.6,0.9,0.8
		c3.6,0.8,9.5,0.6,12.2-1.8c2-1.8,4.6-3.6,6.2-5.7c1.3-1.7,2.2-3.8,3.3-5.7c0.3-0.4,0.8,0,0.9,0.3c0.4,3.2,0.7,6.5,0.7,9.8
		c0,0.4-0.1,0.9,0,1.3c0.3,1.2,0.5,0.5,1-0.4c1.2-2.3,1.5-5.4,1.5-7.9c0-2.4-0.4-4.4-0.9-6.6c-0.3-1.3-0.6-2.7-0.8-4
		c-1.3,2.2-2.6,3.8-3.7,5C46.4,260.1,44.4,262.3,41.2,263.7z"/>
	<path class="st4" d="M52.1,232.4c0.8-4,1.3-8.1,1.7-12.2c1-9.8-0.4-19.5-3.9-28.7c-0.9-2.4-2-4.8-3.2-7.2c-0.3-0.7-1-1.4-1.2-2.2
		s0-2,0-2.8c0.1-5.9-0.2-11.7-0.8-17.5c-5.5,0.4-11,0.2-16.5-0.5c2.2,6.6,4.7,13,7.5,19.3c1.2,2.6,2.7,5.1,3.2,8
		c0.5,2.8,0.9,5.6,1.3,8.4c1.6,11.7,2.6,23.4,2.9,35.2c0.2,5.5,0.2,11.1,0,16.6c-0.1,4.5-0.7,8.7-3,12.7c-0.6,1-1.2,2-1.9,2.9
		c0.8-0.2,1.7-0.5,2.7-0.9c3.3-1.4,5.2-3.5,7.1-5.6c1-1.2,2.4-2.8,3.7-5c-0.7-3.2-1.3-6.3-1.9-9.5c-0.3-1.8,0-2.8,0.6-4.5
		C51.2,236.9,51.7,234.7,52.1,232.4z"/>
</g>
<g>
	<path class="st2" d="M107,265.7c-0.9-1-1.8-2-2.7-3c-0.1,1.3-0.5,1.8-0.8,2c-1.5,0.9-4.9-1.7-6.7-3.9c-0.8-0.9-1.3-1.8-1.8-2.6
		c0.2,0.9,0.5,1.9,0.7,2.8c0.7,2.6,1.6,5.1,2.8,7.4c0.9,1.8,1.5,3.8,2.4,5.6c0.9,1.6,2.2,2,3.9,2.5c1.6,0.5,4.1,1.6,5.8,1.3
		C114.4,277.3,108.1,267.1,107,265.7z"/>
	<path class="st4" d="M103.5,264.7c0.3-0.2,0.7-0.6,0.8-2c-0.4-0.4-0.8-0.9-1.2-1.4c-2.1-2.4-3.9-4.4-4.8-7.5
		c-1.3-4.9-2.4-9.9-3.4-15c-1.8-9.2-3.5-18.6-5.8-27.7c-2.2-8.5-5.5-16.6-10-24.3c-1.3-2.3-3.3-4.2-3.3-6.8c0-2.4-0.2-4.8-0.4-7.2
		c-0.7-6.2-2.2-12.3-4.4-18.2c-5.2,2.6-10.6,4.5-16.2,5.8c2.5,5.1,5.2,10.1,8.1,14.9c1.8,2.9,4,5.6,5.8,8.5c2.7,4.5,3.2,9.1,4.1,14
		c1.1,5.9,3.3,11.6,5.6,17.2c1.7,4.1,3.5,8.1,5.9,11.8c2,3.1,4,6,5.4,9.5c2.9,6.9,3.6,14.5,5.3,21.7c0.4,0.8,1,1.7,1.8,2.6
		C98.6,262.9,101.9,265.6,103.5,264.7z"/>
</g>
</svg>
