<?xml version="1.0" encoding="utf-8"?>
<!-- Generator: Adobe Illustrator 22.1.0, SVG Export Plug-In . SVG Version: 6.00 Build 0)  -->
<svg version="1.1" id="Layer_2" xmlns="http://www.w3.org/2000/svg" xmlns:xlink="http://www.w3.org/1999/xlink" x="0px" y="0px"
	 viewBox="0 0 117.5 280" style="enable-background:new 0 0 117.5 280;" xml:space="preserve">
<style type="text/css">
	.st0{fill:#EBF2F1;}
	.st1{fill:#B7CDDE;}
	.st2{fill:#202F51;}
	.st3{fill:none;}
	.st4{fill:#E5E5E5;}
</style>
<g>
	<path class="st0" d="M39.5,70c-0.7,1.8-1.1,3.7-1.5,5.7c0.4-0.3,0.7-0.6,1.1-1c1.7-1.5,3-3.2,4.3-5.1c0.6-0.8,1.3-1.9,2.1-2.7
		c-1.1-0.6-2.7-0.6-3.8-0.1C40.4,67.5,39.9,68.8,39.5,70z"/>
	<path class="st0" d="M62.5,56.1c-1.7,1.6-4.7,2.1-7.1,2.2c-0.8,4.2-3,8.2-7.5,9.3c-0.1,0-0.2,0-0.3-0.1c-1.3,2.6-2.3,9.3,1.8,9.6
		c2,0.2,4.2-1.1,5.8-2.1c5.2-3.4,8.1-8.4,10.1-14.1c0.1-0.2,0.2-0.5,0.5-0.8c-0.2,0-0.5-0.2-0.6-0.5c-0.2-2.5-0.1-5,0.4-7.5
		C64.7,53.6,63.7,55,62.5,56.1z"/>
	<path class="st0" d="M37.5,96.3c0-2.1-0.4-4.3-0.3-6.4c0-1,0.5-3,0.2-3.5c-0.2-0.3-0.5-0.6-0.7-0.8c-0.4,3.7-1,7.3-1.7,10.9
		c-0.1,0.3,0,0.3-0.1,0.8c-0.3,1.5-0.6,3-0.9,4.5C35.7,100.2,37.5,98.5,37.5,96.3z"/>
	<path class="st1" d="M35.8,84.8c-0.3-0.3-0.6-0.6-0.7-1c-0.5-1-0.6-2.2-0.4-3.3c0.3-1.6,1.2-2.7,2.2-3.8c0.6-3.1,1-7.8,3.4-10.2
		c1.4-1.4,4.3-1.4,5.9-0.2c0.1,0,0.1-0.1,0.2-0.1c0.1-0.1,0.3,0,0.5,0.1c0.2,0.1,0.4,0.2,0.6,0.3c0.1,0,0.1,0.1,0.1,0.1
		c0,0,0.1,0,0.1-0.1c4-0.9,6-4.6,6.8-8.3c-0.2,0-0.3,0-0.5,0c-8-0.1-11.9-8-14-14.5c-0.4-1.2-0.6-2.5-1-3.8
		c-0.5-0.1-1.1-0.3-1.6-0.4c0.5-0.1,0.9-0.2,1.4-0.2c-0.1-0.3-0.2-0.6-0.4-0.9c-0.7-1.4-1.8-2.5-1.7-4.1c0.1-1.9,1.6-3.5,2.6-5
		c1.3-2,2.6-4.1,3.9-6.2c0,0,0,0,0,0c0,0,0,0,0,0c0,0,0.1-0.1,0.1-0.1c0,0,0,0,0,0c0,0,0.1,0,0.1,0c0,0,0,0,0,0
		c4.7,0.3,9.4,0.2,14.1-0.2c0.2,0,0.4,0.1,0.5,0.3c1.5,2.4,3.3,4.6,5.6,6.4c0.9,0.8,2.6,2.4,3.9,1.5c0.4-0.3,0.8-1.4,1.3-1.8
		c2.6-2.3,4.5,1.7,4.7,3.9c0.3,3-1.2,4.8-3.3,6.5c-1.1,0.9-0.7,1-0.7,2.5c0,1.2-0.1,2.4-0.4,3.6c-0.2,0.8-0.5,1.5-1,2.2
		c-0.3,0.5-0.7,1.1-1,1.7c0,0.1,0.1,0.2,0,0.3c-1,3.2-1.3,6.4-1,9.8c0.6-0.6,1.4-0.9,2.1-0.6c0,0,0.1,0.1,0.1,0.1
		c3.2-1.5,8.6-4.2,11.9-2.3c3.1,1.8,3.5,6.8,4.2,9.8c1,4.2,2.3,8.3,3.5,12.4c0.7,2.3,1.4,4.7,1.5,7.1c0.2,5.7-6.2,7.3-10.5,9.2
		c-3.3,1.5-6.9,2.8-10,4.7c-0.1,0.1-0.2,0.1-0.3,0.2c10.8-1.4,21.8-7.1,25.8-17.8c0.4-1,1.1-2.7,0.8-3.7c-0.6-2.7-2.4-0.2-3.5-1.7
		c-1-1.2,0.6-3.6,1.1-4.6c0.8-1.8,1.7-3.7,2.5-5.6c1.5-3.6,3.4-8.8-0.2-11.7c-1.6-1.3-3.6-2-5.3-3.1c-1.6-1.1-3-2.3-4.4-3.7
		c-6.8-7-7-15.8-7.1-25c-0.1-3.8-1.9-7.9-4.6-10.5C69.4,8.6,62.5,8.2,57,10.4c-0.3,0.1-0.7-0.2-0.7-0.5c-0.1,0.2-0.3,0.3-0.6,0.1
		c-3.5-2.7-8-3.9-12.3-2.4c-3.7,1.3-7.1,4.1-9.9,6.8c-4.5,4.3-7.5,9.7-9.8,15.4c-1.1,2.7-2.3,5.7-2.3,8.7c0,2.5,1.5,4,3,5.7
		c2.7,3,5.4,8.7,3.4,12.7c-1.7,3.3-5.7,4.2-6.9,0.8c-5.2,5.5-5.4,13.6-3.3,20.6c2.6,8.5,8.7,14,16.4,17.7
		C34.8,92.3,35.3,88.5,35.8,84.8z"/>
	<path class="st2" d="M96.3,270c0.1,1,0.6,4.7,0.6,1.7c0-1.5,0.1-3,0.1-4.5c-0.6-1.5-1.2-3-1.7-4.5C95.6,265.1,95.9,267.6,96.3,270z
		"/>
	<path class="st2" d="M83.6,145.5c0.7-0.5,0.9-0.5,0.8-1.4c0-0.3-0.9-1.4-1-1.6c-0.7-1-1.3-2.1-2-3.1c-1.4-2.2-2.8-4.3-4.2-6.5
		c-3.3-5-6.6-10.1-10.2-14.9c0,0-0.1-0.1-0.1-0.1c-0.9-1.2-1.8-2.4-2.7-3.6c-1.7-2.3-3.7-5.3-6.2-7.1c-0.1,0-0.2-0.1-0.2-0.2
		c-0.1-0.1-0.3-0.2-0.4-0.3c-1-0.6-2.4-0.5-3.2-1.5c-0.8-1.1-0.3-2.4,0.1-3.5c0.3-0.5,0.2-0.4,0.3-0.8c0.7-1.8,1.6-3.7,2.5-5.4
		c2.2-3.9,5.8-6.8,8.7-10.2c1.3-1.6,2.6-3.3,3.7-5c-4.7,0.8-3.4-10.4-3-13c0.1-1,1.9-6.5,1-7c-0.8-0.5-1.9,3.5-2.2,4
		c-0.8,1.8-1.7,3.4-2.8,5c-2.7,3.8-7.3,8.6-12.3,8.9c-5.3,0.4-5.3-6.7-3.8-10.5c-1.4,0.6-3.1,3.9-3.9,4.9c-1.1,1.4-2.3,2.6-3.6,3.7
		c-3.1,2.6-5.4,7-0.8,9.7c0.2,0.1,0.3,0.4,0.2,0.5c-0.5,3.1-0.2,5.9-0.1,9c0.1,1.4,0.1,2.9-0.8,4.1c-1.1,1.4-2.8,2.5-4.1,3.7
		c0,0,0,0,0,0c-0.1,0.1-0.1,0.1-0.2,0.2c-1.6,1.5-3.2,3-4.6,4.7c-8.2,9.1-13.7,20.5-15.8,32.6c-0.7,4.1-1,8.3-1,12.5
		c0,1-0.2,3,0.4,3.6c0.7,0.6,2.4,0.8,3.2,1.1c8,2.5,16.4,3.8,24.7,3.6c11.1-0.2,22.1-3,31.9-8.2C76.2,150.9,80.1,148.4,83.6,145.5z"
		/>
	<path d="M107.9,278.2c1.5,0.4,3.4,1,4.2-0.1h-4.8C107.5,278.2,107.7,278.2,107.9,278.2z"/>
	<path d="M108.5,266.3c-1.3-1.7-2.9-3.3-4.3-4.9c-1.2-1.3-2.3-2.6-3.4-4c-1.6-2.1-2-4.7-2.6-7.2c-2.5-10.1-4.1-20.5-6.3-30.7
		c-2-9.2-4.5-18.1-8.6-26.5c-1.5-3.1-3.3-6.2-5.1-9.2c-1-1.6-1.5-2.8-1.5-4.7c0-1.5-0.1-2.9-0.2-4.4c-0.6-6.9-2.2-13.7-4.6-20.2
		c0-0.1-0.1-0.1-0.1-0.2c5-2.5,9.6-5.6,13.9-9.2c0.2-0.1,0.2-0.4,0.1-0.5c-5.5-8.7-11-17.6-17.1-26c1.1,0.2,1.6-0.6,1-2.4
		c-0.9-2.8-2.7-4.9-4.5-7.1c-1.3-1.7-1.9-2.4-0.7-4.3c0.4-0.7,0.9-1.4,1.4-2c0.4-0.5,0.9-1,1.4-1.4c0,0,0.1,0,0.1,0
		c10.9-1,21.8-6.1,27.1-16.2c1-1.9,2.6-5.2,1.8-7.5c-0.6-1.6-1.4-1-2.7-1.2c-0.2,0-0.4,0.1-0.5,0.1c-0.4-0.7-0.4-1.3,0-1.9
		c0.2-0.8,0.7-1.7,1.1-2.4c0.6-1.3,1.2-2.7,1.8-4c1.3-2.9,2.7-6.2,2.2-9.5c-0.7-4.8-5.7-5.8-9.1-8.4c-4.5-3.5-7.9-8.3-8.9-13.9
		c-0.6-3.1-0.8-6.4-0.9-9.5c0-1.7,0.2-3.4-0.1-5.1c-0.6-4.3-3-8.6-6.6-11.1c-4.6-3.2-10.9-3.3-16-1.2c-0.1,0-0.1,0.1-0.2,0.1
		c0-0.1-0.1-0.3-0.2-0.4c-13.1-10-27.3,6.3-32.3,17.6c-1.8,4.1-4.7,9.7-2.8,14.3c0.5,1.3,1.4,2.2,2.4,3.3c1.2,1.3,2.1,2.7,2.8,4.2
		c0.9,1.9,1.7,4.2,1.3,6.3c-0.2,1.3-0.9,2.3-1.9,3.2c-1.5,1.2-3.8,0.7-4.1-1.3c-0.1-0.3-0.5-0.7-0.8-0.4c-5.9,5.8-6.3,14.4-4,22
		c2.7,8.8,9.1,14.6,17.1,18.4c-0.4,1.9-0.8,3.8-1.2,5.8c0,0,0,0,0,0c-0.5,0.4-1,0.8-1.4,1.2c-2.5,2.5-4.9,5.1-7,7.9
		c-5.3,7.1-9.2,15.2-11.3,23.8c-1.7,6.9-2.3,14.1-1.8,21.2c0,0.2,0.2,0.4,0.4,0.5c5.2,1.9,10.6,3.3,16,4.1c0,0.1,0,0.1,0,0.2
		c2,5.9,4.2,11.7,6.7,17.4c1.2,2.7,2.8,5.4,3.6,8.3c1,3.2,1.2,6.9,1.7,10.2c1.7,12.7,2.7,25.5,2.9,38.3c0,2.9,0.1,5.8,0,8.8
		c0,3,0.2,6.2-0.4,9.2c-1,5.8-4.2,11.1-9,14.6c-1.7,1.3-3.6,2.2-5.5,3.3c-0.5,0.3-1.7,0.8-1.9,1.4c-0.3,1.1,1.1,1.6,1.9,1.8
		c1.4,0.3,2.8,0.3,4.2,0.3c2.3,0,5.8,0.3,7.7-1.2c2.3-1.8,4.7-4,6.8-6c1.5-1.5,2.4-3.5,3.4-5.3c0.3,2.7,0.5,5.4,0.6,8.1
		c0,1.1,0,4.1,1.9,2.8c0.9-0.6,1.3-2.1,1.5-3.1c0.7-2.3,0.9-4.8,0.8-7.3c-0.1-2.3-0.6-4.3-1-6.6c-0.5-2.3-1-4.7-1.5-7
		c-0.2-1.1-0.4-2.2-0.6-3.4c-0.3-1.4-0.9-3.1-0.7-4.6c0.4-2.4,1.5-4.9,2-7.3c0.5-2.6,1-5.2,1.3-7.8c1.2-8.9,1.5-17.4-0.5-26.2
		c-1.3-5.8-3.4-11.5-6.2-16.8c-1.5-2.8-0.7-7.2-0.7-10.3c-0.1-3.8-0.4-7.6-0.8-11.3c2.7-0.2,5.4-0.6,8-1.2c3.9,7.8,8.1,15,13,22.1
		c3,4.4,3.9,9,4.8,14.1c0.9,5.3,2.7,10.5,4.7,15.5c1.8,4.4,3.6,8.9,6,12.9c2,3.4,4.4,6.4,6,10c3.3,7.3,4,15.4,5.9,23.1
		c0.1,5,1,10,1.8,15c0,0.2,0.2,0.5,0.5,0.5c0.3,0,0.7,0,1,0c0.2,0,0.4-0.1,0.4-0.4c0-1.5,0-2.9,0-4.4c0.8,1.7,1.4,3.5,2.2,5.1
		c1.4,2.6,4.5,3.2,7.2,3.8h4.8c0.2-0.3,0.4-0.7,0.5-1.2C113.1,273.3,110.5,269,108.5,266.3z M64.7,102.5c-1.8,2.3-2.8,4.2-0.8,6.6
		c1.3,1.6,2.7,3,3.7,4.8c0.2,0.4,0.4,0.8,0.6,1.2c0.1,0.3,1.5,3.3-0.6,2.2c-1.4-1.9-2.8-3.8-4.3-5.6c-1.4-1.8-2.9-3.7-4.6-5.1
		c1.7-4.5,4.6-7.5,8.5-10.3c4.6-3.3,9.2-6.6,13.5-10.3c0.4,0.7,0.8,1.4,1.2,2c0.3,0.5,1.1,0.2,0.8-0.4c-2.8-4.4-5.2-9.1-7.1-13.9
		c-0.2-0.5-1.1-0.5-0.9,0.1c1.6,3.9,3.4,7.6,5.5,11.3c-4.7,3.9-9.6,7.4-14.5,11c-2,1.5-3.7,3.1-5,4.9c-0.1-0.1-0.2-0.1-0.3-0.1
		c-1.6,0.1-3.2,0-4.8,0c0.2-0.4,0.4-0.7,0.5-1c0.9-2,1.8-4,3.1-5.7c2.4-3.3,5.6-6,8.2-9.2c1.4-1.7,2.6-3.5,3.7-5.4c0,0,0-0.1,0-0.1
		c1.1-1.9,2.1-3.8,2.9-5.8c0.1-0.2,0-0.5-0.2-0.6c0.6,0.2,1.2,0.2,1.8,0.1c0.6-0.1,0.3-1-0.3-0.9c-1.1,0.2-2.1-0.3-2.8-1.2
		c-0.4-0.5-1,0.1-0.6,0.6c0.4,0.6,1,1,1.6,1.2c-0.1,0-0.2,0.1-0.2,0.2c-0.9,2-1.8,3.9-2.9,5.7c-3.2,1.6-3.2-2.7-3.3-4.7
		c-0.1-2,0-4,0.2-6c0.2-1.8,0.6-3.5,1.1-5.2c0.2-0.6,0.6-1.9,0.4-2.9c3.1-1.5,9.2-4.4,11.9-1.7c1.1,1.1,1.5,2.9,1.9,4.4
		c0.5,2.2,1.1,4.4,1.6,6.6c1.4,5.3,3.9,10.9,4.3,16.4c0.1,1.5-0.1,3.2-1.2,4.3c-0.8,0.8-2.1,1.3-3.1,1.8c-2.1,1.1-4.2,2.1-6.4,3.1
		C73.3,96.9,67.8,98.5,64.7,102.5z M57.9,106c-0.4-0.3-0.9-0.4-1.3-0.7c-0.6-0.4-1.6-1.3-1.7-2.1c-0.1-0.4,0.1-0.9,0.3-1.4
		c1.6,0.1,3.3,0.1,4.9,0C59.2,103.1,58.5,104.5,57.9,106z M17.6,78.3c-2.1-7-1.9-15,3.3-20.6c1.2,3.4,5.2,2.5,6.9-0.8
		c2.1-4-0.7-9.6-3.4-12.7c-1.6-1.8-3-3.3-3-5.7c-0.1-3,1.2-6,2.3-8.7c2.3-5.8,5.3-11.1,9.8-15.4c2.8-2.7,6.3-5.5,9.9-6.8
		c4.3-1.6,8.7-0.3,12.3,2.4c0.3,0.2,0.5,0.1,0.6-0.1c0,0.3,0.4,0.6,0.7,0.5c5.5-2.2,12.3-1.8,16.7,2.5c2.7,2.6,4.5,6.7,4.6,10.5
		c0.1,9.2,0.3,18,7.1,25c1.3,1.4,2.8,2.6,4.4,3.7c1.7,1.1,3.7,1.8,5.3,3.1c3.6,2.9,1.8,8.1,0.2,11.7c-0.8,1.9-1.7,3.7-2.5,5.6
		c-0.5,1-2,3.4-1.1,4.6c1.2,1.4,2.9-1.1,3.5,1.7c0.2,1-0.4,2.7-0.8,3.7c-4,10.7-15,16.4-25.8,17.8c0.1-0.1,0.2-0.1,0.3-0.2
		c3.1-1.9,6.7-3.2,10-4.7c4.3-2,10.8-3.5,10.5-9.2c-0.1-2.4-0.9-4.8-1.5-7.1c-1.2-4.1-2.4-8.2-3.5-12.4c-0.8-3-1.1-8-4.2-9.8
		c-3.3-1.8-8.8,0.8-11.9,2.3c0,0-0.1-0.1-0.1-0.1c-0.7-0.3-1.5,0-2.1,0.6c-0.3-3.3,0-6.6,1-9.8c0-0.1,0-0.2,0-0.3
		c0.3-0.6,0.7-1.2,1-1.7c0.5-0.7,0.8-1.4,1-2.2c0.3-1.2,0.5-2.4,0.4-3.6c0-1.5-0.4-1.6,0.7-2.5c2.1-1.8,3.7-3.6,3.3-6.5
		c-0.2-2.2-2.1-6.1-4.7-3.9c-0.5,0.4-0.9,1.5-1.3,1.8c-1.3,0.9-2.9-0.7-3.9-1.5c-2.2-1.8-4-4-5.6-6.4c-0.1-0.2-0.3-0.3-0.5-0.3
		c-4.7,0.4-9.4,0.5-14.1,0.2c0,0,0,0,0,0c-0.1,0-0.1,0-0.1,0c0,0,0,0,0,0c0,0-0.1,0-0.1,0.1c0,0,0,0,0,0c0,0,0,0,0,0
		c-1.3,2.1-2.6,4.1-3.9,6.2c-1,1.5-2.5,3.1-2.6,5c-0.1,1.7,0.9,2.8,1.7,4.1c0.1,0.3,0.3,0.6,0.4,0.9c-0.4,0.1-0.9,0.1-1.4,0.2
		c0.5,0.1,1.1,0.3,1.6,0.4c0.4,1.2,0.6,2.5,1,3.8c2,6.5,6,14.4,14,14.5c0.1,0,0.3,0,0.5,0c-0.8,3.8-2.8,7.4-6.8,8.3
		c0,0-0.1,0-0.1,0.1c0,0-0.1-0.1-0.1-0.1c-0.2-0.1-0.4-0.2-0.6-0.3c-0.1-0.1-0.3-0.1-0.5-0.1c-0.1,0-0.1,0.1-0.2,0.1
		c-1.6-1.2-4.5-1.3-5.9,0.2c-2.4,2.3-2.8,7.1-3.4,10.2c-1,1-1.9,2.2-2.2,3.8c-0.2,1.1-0.1,2.2,0.4,3.3c0.2,0.4,0.5,0.7,0.7,1
		c-0.4,3.8-1,7.5-1.7,11.2C26.3,92.3,20.2,86.8,17.6,78.3z M65.2,59.7c0,0.3,0.3,0.5,0.6,0.5c-0.2,0.3-0.4,0.5-0.5,0.8
		c-2,5.6-5,10.6-10.1,14.1c-1.6,1.1-3.8,2.3-5.8,2.1c-4.2-0.3-3.1-7-1.8-9.6c0.1,0.1,0.2,0.1,0.3,0.1c4.5-1,6.7-5.1,7.5-9.3
		c2.5-0.1,5.5-0.6,7.1-2.2c1.1-1.1,2.1-2.5,3.1-4C65.1,54.6,65,57.1,65.2,59.7z M62.7,54.3c-1.5,2.1-3.2,2.4-5.7,2.8
		c-3.4,0.5-6.4,0.2-9.3-1.9c-4.9-3.6-6.1-9.5-7.8-15c0.1,0,0.2,0,0.3,0c0.4,0,0.7,0,1.1,0c-0.4,0.4-0.3,1.5,0.3,2
		c0.6,0.6,1.7,0.7,2.3,0c0.4-0.5,0.4-1.8,0-2.2c0.6,0,1.3,0.1,1.9,0.4c0.8,0.3,1.6,0.9,2.5,1.4c-0.4-0.6-0.8-1.2-1.4-1.6
		c-0.3-0.3-0.6-0.5-0.9-0.7c-0.9-0.5-2-0.8-3-0.7c-1,0.1-1.9,0.2-2.8,0.3c-0.2,0-0.4,0-0.6,0.1c-0.2-0.5-0.5-1.1-0.8-1.6
		c-1.2-2-1.4-3.7-0.1-5.7c1.7-2.7,3.4-5.3,5.1-8c2.1,0.1,4.1,0.2,6.2,0.2c1.2,0,2.4,0,3.7-0.1c1.1-0.1,2.7-0.5,3.7,0
		c1.3,0.6,2.4,3,3.5,4.1c1.1,1.2,2.4,2.3,3.7,3.2c0.7,0.5,1.8,1.2,2.7,1.1c1.3-0.2,0.9-1.7,2-2.2c0.7-0.3,2.2,0.1,2.7,0.6
		c0.3,0.4,0.5,1,0.6,1.5c0.2,1,0.2,2.1,0,3.1c-0.5,1.9-2.1,3.3-3.9,3.9c-0.2,0.1-0.2,0.3-0.2,0.5C69.4,45.8,66,49.7,62.7,54.3z
		 M45.5,67c-0.8,0.8-1.5,1.9-2.1,2.7c-1.3,1.8-2.6,3.6-4.3,5.1c-0.4,0.3-0.8,0.6-1.1,1c0.4-1.9,0.8-3.8,1.5-5.7
		c0.5-1.3,0.9-2.5,2.2-3.2C42.7,66.4,44.4,66.3,45.5,67z M34.8,97.2c0.1-0.4,0.1-0.5,0.1-0.8c0.7-3.6,1.2-7.2,1.7-10.9
		c0.3,0.3,0.6,0.5,0.7,0.8c0.3,0.6-0.2,2.6-0.2,3.5c0,2.2,0.3,4.3,0.3,6.4c0,2.2-1.8,3.9-3.6,5.4C34.2,100.2,34.5,98.7,34.8,97.2z
		 M46.8,184.4c1.2,2.3,2.3,4.7,3.2,7.2c3.4,9.2,4.9,18.9,3.9,28.7c-0.4,4.1-1,8.1-1.7,12.2c-0.4,2.2-0.9,4.4-1.6,6.6
		c-0.5,1.7-0.9,2.8-0.6,4.5c0.8,4.5,1.8,9,2.7,13.6c0.5,2.3,0.9,4.3,0.9,6.6c0,2.5-0.3,5.6-1.5,7.9c-0.4,0.8-0.7,1.6-1,0.4
		c-0.1-0.4,0-0.9,0-1.3c0-3.3-0.4-6.5-0.7-9.8c0-0.4-0.6-0.8-0.9-0.3c-1.1,1.9-1.9,4-3.3,5.7c-1.7,2.1-4.2,3.9-6.2,5.7
		c-2.7,2.4-8.6,2.6-12.2,1.8c-0.9-0.2-1.3-0.2-0.9-0.8c0.6-1,3.2-1.8,4.2-2.3c3.8-2.2,7.1-5.2,9.3-9.1c2.2-4.1,2.8-8.2,3-12.7
		c0.1-5.5,0.1-11.1,0-16.6c-0.3-11.8-1.3-23.5-2.9-35.2c-0.4-2.8-0.8-5.6-1.3-8.4c-0.5-2.8-2-5.4-3.2-8c-2.8-6.3-5.3-12.8-7.5-19.3
		c5.4,0.8,11,1,16.5,0.5c0.6,5.8,0.9,11.7,0.8,17.5c0,0.8-0.2,2,0,2.8C45.8,183,46.5,183.7,46.8,184.4z M40.3,161.2
		c-8.4,0.2-16.7-1.1-24.7-3.6c-0.9-0.3-2.6-0.5-3.2-1.1c-0.6-0.6-0.4-2.6-0.4-3.6c-0.1-4.2,0.3-8.3,1-12.5
		c2.1-12.1,7.6-23.5,15.8-32.6c1.5-1.6,3-3.2,4.6-4.7c0.1-0.1,0.1-0.1,0.2-0.2c0,0,0,0,0,0c1.3-1.2,3-2.2,4.1-3.7
		c0.9-1.2,0.9-2.6,0.8-4.1c-0.2-3.1-0.4-6,0.1-9c0-0.2-0.1-0.4-0.2-0.5c-4.7-2.7-2.3-7.1,0.8-9.7c1.4-1.1,2.6-2.3,3.6-3.7
		c0.7-1,2.5-4.3,3.9-4.9c-1.5,3.8-1.6,10.9,3.8,10.5c5-0.4,9.6-5.1,12.3-8.9c1.1-1.6,2.1-3.2,2.8-5c0.2-0.5,1.3-4.4,2.2-4
		c0.9,0.5-0.9,6-1,7c-0.4,2.7-1.7,13.9,3,13c-1.1,1.8-2.3,3.4-3.7,5c-2.9,3.4-6.4,6.3-8.7,10.2c-1,1.7-1.8,3.6-2.5,5.4
		c-0.1,0.3,0,0.2-0.3,0.8c-0.4,1.1-0.8,2.5-0.1,3.5c0.8,1.1,2.1,0.9,3.2,1.5c0.1,0.1,0.3,0.2,0.4,0.3c0.1,0.1,0.1,0.1,0.2,0.2
		c2.4,1.8,4.4,4.8,6.2,7.1c0.9,1.2,1.8,2.4,2.7,3.6c0,0,0,0.1,0.1,0.1c3.5,4.9,6.9,9.9,10.2,14.9c1.4,2.1,2.8,4.3,4.2,6.5
		c0.7,1,1.3,2.1,2,3.1c0.1,0.2,1,1.3,1,1.6c0.1,0.9-0.1,0.9-0.8,1.4c-3.5,2.9-7.4,5.4-11.4,7.5C62.4,158.3,51.4,161,40.3,161.2z
		 M96.9,271.7c0,3-0.5-0.7-0.6-1.7c-0.4-2.4-0.7-4.9-1-7.3c0.5,1.5,1,3,1.7,4.5C97,268.7,96.9,270.2,96.9,271.7z M110.6,277.8
		c-1.8,0.3-4.2-0.8-5.8-1.3c-1.7-0.5-3-0.9-3.9-2.5c-0.9-1.8-1.5-3.8-2.4-5.6c-1.2-2.4-2.1-4.9-2.8-7.4c-2.3-8.1-2.7-16.7-6-24.5
		c-1.4-3.4-3.4-6.4-5.4-9.5c-2.4-3.7-4.2-7.8-5.9-11.8c-2.3-5.5-4.5-11.3-5.6-17.2c-0.9-5-1.5-9.6-4.1-14c-1.8-2.9-4-5.6-5.8-8.5
		c-3-4.8-5.6-9.9-8.1-14.9c5.6-1.3,11.1-3.2,16.2-5.8c2.2,5.9,3.7,11.9,4.4,18.2c0.3,2.4,0.4,4.8,0.4,7.2c0,2.7,2,4.6,3.3,6.8
		c4.5,7.6,7.8,15.7,10,24.3c2.4,9.1,4.1,18.4,5.8,27.7c1,5,2,10,3.4,15c0.8,3.1,2.7,5.1,4.8,7.5c1.3,1.5,2.7,2.9,4,4.4
		C108.1,267.1,114.4,277.3,110.6,277.8z"/>
	<path d="M53.1,36.5c0.9-0.5,1.7-1.1,2.4-1.7c0.7-0.6,1.4-1.4,2.1-2c0.2-0.2,0.3-0.3,0.5-0.4c0.1-0.1,0.3-0.1,0.5-0.2
		c0.4-0.1,0.9,0,1.4,0c1,0.1,2,0,3,0c0,0,0.1,0,0.1-0.1c0,0,0-0.1-0.1-0.1l0,0c-1-0.2-1.9-0.3-2.9-0.6c-0.5-0.1-0.9-0.3-1.6-0.3
		c-0.3,0-0.6,0.1-0.9,0.2c-0.3,0.1-0.5,0.3-0.7,0.4c-0.8,0.6-1.7,1.1-2.4,1.9c-0.7,0.8-1.2,1.7-1.5,2.7c0,0,0,0,0,0.1
		C53,36.5,53.1,36.5,53.1,36.5z"/>
	<path d="M44.5,36.3c-0.6-0.4-1.3-0.6-2-0.8c-0.7-0.2-1.4-0.4-2.2-0.3c-0.8,0.1-1.4,0.5-1.9,1c0,0,0,0.1,0,0.1c0,0,0.1,0.1,0.1,0
		c0.6-0.3,1.3-0.5,1.9-0.4c0.6,0,1.2,0.3,1.8,0.7c0.6,0.3,1.1,0.8,1.8,1c0.6,0.2,1.3,0.4,2.1,0.3l0,0c0,0,0,0,0,0c0,0,0.1-0.1,0-0.1
		C45.7,37.2,45.1,36.7,44.5,36.3z"/>
	<path d="M62.7,34.7c-0.4,0.1-0.8,0.1-1.3,0.2c-0.5,0-1,0-1.5,0.1c-0.5,0.1-1,0.2-1.4,0.4c-0.9,0.4-1.8,1.1-2.3,2
		c-0.4,0.7-0.5,1.5-0.5,2.2c0,0.3,0,0.6,0.1,0.8c0.2-0.7,0.4-1.4,0.8-2c0.1,0.3,0.2,0.6,0.5,0.8c0.6,0.6,1.7,0.7,2.3,0
		c0.4-0.5,0.4-1.9-0.1-2.3c-0.3-0.2-0.6-0.2-0.9-0.2c0.2-0.1,0.4-0.2,0.6-0.3c0.8-0.4,1.6-0.5,2.6-0.7c0.5-0.1,1-0.2,1.4-0.5
		c0.4-0.3,0.8-0.7,0.9-1.1c0,0-0.1,0.1-0.1,0.1c0-0.1,0.1-0.2,0.1-0.2C63.5,34.4,63.1,34.6,62.7,34.7z"/>
	<path d="M52.2,48c0.1,0,0.2-0.1,0.2-0.1l0.2-0.1c0.5-0.3,0.6-0.7,1-0.9c0.3-0.3,0.6-0.5,1.1-0.5c-0.4-0.3-0.9-0.1-1.3,0.1
		c-0.4,0.2-0.8,0.6-1.1,0.7c-0.2,0.1-0.2,0.1-0.3,0c-0.1,0-0.2-0.1-0.3-0.3c-0.1-0.1-0.2-0.3-0.2-0.3c0,0,0-0.2,0.1-0.4
		c0.1-0.5,0.2-0.9,0.2-1.4c0-0.5,0-0.9-0.1-1.3c-0.1-0.9-0.3-1.7-0.7-2.5l-0.1,2.6c0,0.4,0,0.8-0.1,1.2c0,0.3-0.1,0.8-0.2,1.2
		c0,0.2-0.2,0.5-0.1,0.9c0.1,0.3,0.3,0.6,0.5,0.8c0.2,0.2,0.4,0.3,0.7,0.4C51.8,48,52,48.1,52.2,48z"/>
	<path d="M60.6,48.4L60.6,48.4l-0.1,0.1l0,0c-0.1,0.1-0.4,0.1-0.5,0.2c-0.2,0.1-0.4,0.1-0.6,0.2C58.9,49,58.5,49,58.1,49
		c-0.4,0-0.7-0.1-1.2-0.2c-0.2-0.1-0.5-0.1-0.9,0c-0.2,0-0.3,0.1-0.5,0.2c-0.1,0.1-0.3,0.3-0.3,0.4c-0.1,0.3-0.1,0.3-0.2,0.3
		c-0.1,0.1-0.1,0.1-0.4,0c-0.4,0-1,0-1.4,0c-0.7,0-1.1,0.5-1.3,1c-0.2,0.5-0.2,0.9-0.4,1.3c0.4-0.3,0.6-0.8,0.8-1.1
		c0.1-0.2,0.2-0.3,0.4-0.4c0.1,0,0.2-0.1,0.2-0.1l0.2,0c0.5,0.1,0.9,0.1,1.3,0.1c0.1,0,0.2,0,0.4,0c0.2,0,0.4-0.1,0.5-0.2
		c0.3-0.1,0.6-0.6,0.6-0.7c0.1-0.2,0.2-0.2,0.6-0.2c0.4,0.1,1,0.2,1.5,0.1c0.9-0.1,1.8-0.6,2.4-1.3l-0.1,0.1L60.3,49
		c-0.1,0.2-0.2,0.5-0.3,0.7c-0.2,0.5-0.5,0.8-0.8,1.2c-0.6,0.8-1.3,1.4-2.1,1.8c-0.8,0.4-1.7,0.4-2.7,0.2c-0.7-0.1-1.4-0.3-2.1-0.5
		c1.1,0.2,2.3,0.1,3.5-0.1c0.8-0.2,1.6-0.5,2.2-1c0.6-0.5,1.2-1,1.7-1.7c-0.7,0.3-1.4,0.7-2.1,1c-0.7,0.3-1.3,0.6-2,0.7
		c-1.4,0.3-2.9,0.4-4.5,0.8c0.2,0.1,0.4,0.1,0.6,0.1c0.7,0.6,1.6,1.1,2.6,1.4c1,0.3,2.2,0.4,3.3-0.1c1.1-0.5,1.8-1.4,2.3-2.3
		C60.5,50.5,60.6,49.2,60.6,48.4L60.6,48.4C60.6,48.4,60.6,48.4,60.6,48.4C60.6,48.4,60.6,48.4,60.6,48.4z"/>
</g>
<g>
	<path class="st1" d="M73.8,73.1c0.2,0.2,0.3,0.4,0.2,0.6c-0.9,2-1.8,3.9-2.9,5.8c0,0,0,0.1,0,0.1c-1.1,1.9-2.3,3.7-3.7,5.4
		c-2.6,3.2-5.8,5.8-8.2,9.2c-1.3,1.8-2.2,3.8-3.1,5.7c-0.1,0.3-0.3,0.6-0.5,1c1.6,0.1,3.2,0.1,4.8,0c0.1,0,0.2,0,0.3,0.1
		c1.4-1.8,3-3.4,5-4.9c4.8-3.7,9.8-7.1,14.5-11c-2.1-3.6-3.9-7.4-5.5-11.3c-0.1-0.4,0.1-0.5,0.4-0.5c0,0,0,0,0-0.1
		C74.7,73.3,74.2,73.2,73.8,73.1z"/>
	<path class="st0" d="M88.5,85.7c-0.4-5.5-2.9-11.1-4.3-16.4c-0.6-2.2-1.1-4.4-1.6-6.6c-0.4-1.5-0.8-3.2-1.9-4.4
		c-2.6-2.7-8.8,0.3-11.9,1.7c0.2,0.9-0.3,2.3-0.4,2.9c-0.5,1.7-0.9,3.4-1.1,5.2c-0.2,2-0.3,4-0.2,6c0.1,2,0.1,6.3,3.3,4.7
		c1.1-1.8,2-3.7,2.9-5.7c0.1-0.1,0.1-0.2,0.2-0.2c-0.6-0.3-1.2-0.7-1.6-1.2c-0.4-0.5,0.3-1.1,0.6-0.6c0.7,0.9,1.7,1.3,2.8,1.2
		c0.5-0.1,0.9,0.8,0.3,0.9c-0.2,0-0.3,0-0.5,0c0,0,0,0,0,0.1c0.2,0,0.4,0.1,0.5,0.3c2,4.8,4.4,9.5,7.1,13.9c0.3,0.6-0.5,0.9-0.8,0.4
		c-0.4-0.7-0.8-1.3-1.2-2c-4.4,3.7-8.9,7-13.5,10.3c-3.9,2.8-6.8,5.9-8.5,10.3c1.8,1.4,3.2,3.4,4.6,5.1c1.5,1.8,2.9,3.7,4.3,5.6
		c2.1,1.1,0.7-1.9,0.6-2.2c-0.2-0.4-0.4-0.8-0.6-1.2c-1-1.8-2.4-3.3-3.7-4.8c-2-2.4-1-4.4,0.8-6.6c3.1-4,8.6-5.6,13-7.6
		c2.2-1,4.3-2,6.4-3.1c1-0.5,2.3-1,3.1-1.8C88.4,88.9,88.6,87.2,88.5,85.7z"/>
</g>
<g>
	<path class="st3" d="M51.6,52.1c0.1,0,0.1-0.1,0.1-0.1l0-0.1C51.6,51.9,51.6,52,51.6,52.1z"/>
	<path class="st3" d="M44.5,36.3c-0.6-0.4-1.3-0.6-2-0.8c-0.7-0.2-1.4-0.4-2.2-0.3c-0.8,0.1-1.4,0.5-1.9,1c0,0,0,0.1,0,0.1
		c0,0,0.1,0.1,0.1,0c0.6-0.3,1.3-0.5,1.9-0.4c0.6,0,1.2,0.3,1.8,0.7c0.6,0.3,1.1,0.8,1.8,1c0.6,0.2,1.3,0.4,2.1,0.3l0,0c0,0,0,0,0,0
		c0,0,0.1-0.1,0-0.1C45.7,37.2,45.1,36.7,44.5,36.3z"/>
	<path class="st3" d="M52.2,48c0.1,0,0.2-0.1,0.2-0.1l0.2-0.1c0.5-0.3,0.6-0.7,1-0.9c0.3-0.3,0.6-0.5,1.1-0.5
		c-0.4-0.3-0.9-0.1-1.3,0.1c-0.4,0.2-0.8,0.6-1.1,0.7c-0.2,0.1-0.2,0.1-0.3,0c-0.1,0-0.2-0.1-0.3-0.3c-0.1-0.1-0.2-0.3-0.2-0.3
		c0,0,0-0.2,0.1-0.4c0.1-0.5,0.2-0.9,0.2-1.4c0-0.5,0-0.9-0.1-1.3c-0.1-0.9-0.3-1.7-0.7-2.5l-0.1,2.6c0,0.4,0,0.8-0.1,1.2
		c0,0.3-0.1,0.8-0.2,1.2c0,0.2-0.2,0.5-0.1,0.9c0.1,0.3,0.3,0.6,0.5,0.8c0.2,0.2,0.4,0.3,0.7,0.4C51.8,48,52,48.1,52.2,48z"/>
	<path class="st3" d="M60.6,48.4L60.6,48.4l-0.1,0.1l0,0c-0.1,0.1-0.4,0.1-0.5,0.2c-0.2,0.1-0.4,0.1-0.6,0.2
		C58.9,49,58.5,49,58.1,49c-0.4,0-0.7-0.1-1.2-0.2c-0.2-0.1-0.5-0.1-0.9,0c-0.2,0-0.3,0.1-0.5,0.2c-0.1,0.1-0.3,0.3-0.3,0.4
		c-0.1,0.3-0.1,0.3-0.2,0.3c-0.1,0.1-0.1,0.1-0.4,0c-0.4,0-1,0-1.4,0c-0.7,0-1.1,0.5-1.3,1c-0.1,0.4-0.2,0.7-0.3,1.1l0,0.1
		c0.3-0.3,0.5-0.7,0.7-1c0.1-0.2,0.2-0.3,0.4-0.4c0.1,0,0.2-0.1,0.2-0.1l0.2,0c0.5,0.1,0.9,0.1,1.3,0.1c0.1,0,0.2,0,0.4,0
		c0.2,0,0.4-0.1,0.5-0.2c0.3-0.1,0.6-0.6,0.6-0.7c0.1-0.2,0.2-0.2,0.6-0.2c0.4,0.1,1,0.2,1.5,0.1c0.9-0.1,1.8-0.6,2.4-1.3l-0.1,0.1
		L60.3,49c-0.1,0.2-0.2,0.5-0.3,0.7c-0.2,0.5-0.5,0.8-0.8,1.2c-0.6,0.8-1.3,1.4-2.1,1.8c-0.8,0.4-1.7,0.4-2.7,0.2
		c-0.7-0.1-1.4-0.3-2.1-0.5c1.1,0.2,2.3,0.1,3.5-0.1c0.8-0.2,1.6-0.5,2.2-1c0.6-0.5,1.2-1,1.7-1.7c-0.7,0.3-1.4,0.7-2.1,1
		c-0.7,0.3-1.3,0.6-2,0.7c-1.2,0.3-2.5,0.4-3.8,0.7l0.2,0.4L51.7,52c-0.2,0-0.4,0.1-0.6,0.1c0.2,0.1,0.4,0.1,0.6,0.1
		c0.7,0.6,1.6,1.1,2.6,1.4c1,0.3,2.2,0.4,3.3-0.1c1.1-0.5,1.8-1.4,2.3-2.3C60.5,50.5,60.6,49.2,60.6,48.4L60.6,48.4
		C60.6,48.4,60.6,48.4,60.6,48.4C60.6,48.4,60.6,48.4,60.6,48.4z"/>
	<path class="st3" d="M53.1,36.5c0.9-0.5,1.7-1.1,2.4-1.7c0.7-0.6,1.4-1.4,2.1-2c0.2-0.2,0.3-0.3,0.5-0.4c0.1-0.1,0.3-0.1,0.5-0.2
		c0.4-0.1,0.9,0,1.4,0c1,0.1,2,0,3,0c0,0,0.1,0,0.1-0.1c0,0,0-0.1-0.1-0.1l0,0c-1-0.2-1.9-0.3-2.9-0.6c-0.5-0.1-0.9-0.3-1.6-0.3
		c-0.3,0-0.6,0.1-0.9,0.2c-0.3,0.1-0.5,0.3-0.7,0.4c-0.8,0.6-1.7,1.1-2.4,1.9c-0.7,0.8-1.2,1.7-1.5,2.7c0,0,0,0,0,0.1
		C53,36.5,53.1,36.5,53.1,36.5z"/>
	<path class="st3" d="M62.7,34.7c-0.4,0.1-0.8,0.1-1.3,0.2c-0.5,0-1,0-1.5,0.1c-0.5,0.1-1,0.2-1.4,0.4c-0.9,0.4-1.8,1.1-2.3,2
		c-0.4,0.7-0.5,1.5-0.5,2.2c0,0.3,0,0.6,0.1,0.8c0.2-0.7,0.4-1.4,0.8-2c0.1,0.3,0.2,0.6,0.5,0.8c0.6,0.6,1.7,0.7,2.3,0
		c0.4-0.5,0.4-1.9-0.1-2.3c-0.3-0.2-0.6-0.2-0.9-0.2c0.2-0.1,0.4-0.2,0.6-0.3c0.8-0.4,1.6-0.5,2.6-0.7c0.5-0.1,1-0.2,1.4-0.5
		c0.4-0.3,0.8-0.7,0.9-1.1c0,0-0.1,0.1-0.1,0.1c0-0.1,0.1-0.2,0.1-0.2C63.5,34.4,63.1,34.6,62.7,34.7z"/>
	<path class="st0" d="M72.5,32.4c-0.1-0.4-0.3-1.1-0.6-1.5c-0.4-0.6-1.9-1-2.7-0.6c-1.1,0.5-0.6,2-2,2.2c-0.9,0.1-2-0.6-2.7-1.1
		c-1.3-0.9-2.6-2-3.7-3.2c-1.1-1.1-2.2-3.5-3.5-4.1c-1-0.5-2.6,0-3.7,0c-1.2,0.1-2.4,0.1-3.7,0.1c-2.1,0-4.1,0-6.2-0.2
		c-1.7,2.7-3.4,5.3-5.1,8c-1.3,2-1.1,3.7,0.1,5.7c0.3,0.5,0.6,1,0.8,1.6c0.2,0,0.4,0,0.6-0.1c0.9-0.1,1.8-0.2,2.8-0.3
		c1-0.1,2.1,0.1,3,0.7c0.3,0.2,0.6,0.4,0.9,0.7c0.6,0.5,1,1,1.4,1.6c-0.8-0.6-1.6-1.1-2.5-1.4c-0.6-0.2-1.2-0.4-1.9-0.4
		c0.5,0.5,0.5,1.7,0,2.2c-0.5,0.6-1.7,0.5-2.3,0c-0.6-0.6-0.7-1.6-0.3-2c-0.4,0-0.7,0-1.1,0c-0.1,0-0.2,0-0.3,0
		c1.7,5.5,2.9,11.4,7.8,15c2.8,2.1,5.9,2.4,9.3,1.9c2.5-0.4,4.2-0.7,5.7-2.8c3.3-4.6,6.7-8.5,5.6-14.5c0-0.2,0-0.4,0.2-0.5
		c1.8-0.6,3.3-2,3.9-3.9C72.7,34.5,72.7,33.3,72.5,32.4z M46.1,38C46.1,38,46,38,46.1,38L46.1,38c-0.9,0.1-1.5-0.1-2.2-0.3
		c-0.7-0.2-1.2-0.7-1.8-1c-0.6-0.3-1.2-0.6-1.8-0.7c-0.6-0.1-1.3,0.1-1.9,0.4c0,0-0.1,0-0.1,0c0,0,0-0.1,0-0.1
		c0.5-0.5,1.2-0.9,1.9-1c0.8-0.1,1.6,0.1,2.2,0.3c0.7,0.2,1.4,0.4,2,0.8c0.6,0.4,1.2,0.9,1.6,1.5C46.1,37.9,46.1,38,46.1,38z
		 M54.5,33.7c0.7-0.8,1.5-1.3,2.4-1.9c0.2-0.1,0.4-0.3,0.7-0.4c0.3-0.2,0.6-0.2,0.9-0.2c0.6,0,1.1,0.2,1.6,0.3
		c0.9,0.2,1.9,0.4,2.9,0.6l0,0c0,0,0.1,0,0.1,0.1c0,0,0,0.1-0.1,0.1c-1,0-2,0.1-3,0c-0.5,0-1-0.1-1.4,0c-0.2,0-0.3,0.1-0.5,0.2
		c-0.1,0.1-0.3,0.3-0.5,0.4c-0.7,0.7-1.3,1.5-2.1,2c-0.7,0.6-1.5,1.2-2.4,1.7c0,0-0.1,0-0.1,0c0,0,0,0,0-0.1
		C53.3,35.3,53.8,34.5,54.5,33.7z M50.5,46.8c-0.1-0.4,0-0.7,0.1-0.9c0.1-0.4,0.2-0.8,0.2-1.2c0-0.4,0-0.8,0.1-1.2l0.1-2.6
		c0.4,0.8,0.6,1.7,0.7,2.5c0.1,0.4,0.1,0.9,0.1,1.3c0,0.5-0.1,0.9-0.2,1.4c-0.1,0.2-0.1,0.4-0.1,0.4c0,0.1,0.1,0.2,0.2,0.3
		c0.1,0.1,0.2,0.2,0.3,0.3c0.1,0,0.1,0.1,0.3,0c0.3-0.1,0.7-0.5,1.1-0.7c0.4-0.2,0.9-0.3,1.3-0.1c-0.5,0-0.8,0.2-1.1,0.5
		c-0.3,0.2-0.5,0.6-1,0.9l-0.2,0.1c0,0-0.1,0.1-0.2,0.1c-0.2,0-0.4,0-0.5,0c-0.3-0.1-0.5-0.2-0.7-0.4C50.7,47.4,50.6,47.1,50.5,46.8
		z M60.6,48.4L60.6,48.4c0,0.8-0.2,2.1-0.7,3c-0.5,0.9-1.3,1.8-2.3,2.3c-1.1,0.5-2.3,0.4-3.3,0.1c-1-0.3-1.8-0.8-2.6-1.4
		c-0.2,0-0.4-0.1-0.6-0.1c0.2-0.1,0.4-0.1,0.6-0.1l0-0.1c0,0-0.1,0.1-0.1,0.1c0-0.1,0.1-0.2,0.1-0.2l-0.1-0.3l0.1,0.3
		c0.1-0.3,0.2-0.7,0.3-1.1c0.2-0.5,0.6-1,1.3-1c0.4,0,0.9,0,1.4,0c0.2,0,0.3,0,0.4,0c0.1-0.1,0.1-0.1,0.2-0.3
		c0.1-0.1,0.2-0.3,0.3-0.4c0.1-0.1,0.3-0.2,0.5-0.2c0.4-0.1,0.7,0,0.9,0c0.5,0.1,0.8,0.2,1.2,0.2c0.4,0,0.8,0,1.2-0.1
		c0.2,0,0.4-0.1,0.6-0.2C60.2,48.6,60.4,48.6,60.6,48.4L60.6,48.4L60.6,48.4L60.6,48.4C60.6,48.4,60.6,48.4,60.6,48.4
		C60.6,48.4,60.6,48.4,60.6,48.4z M63.9,34.2c-0.2,0.5-0.5,0.9-0.9,1.1c-0.4,0.3-1,0.4-1.4,0.5c-1,0.1-1.8,0.3-2.6,0.7
		c-0.2,0.1-0.4,0.2-0.6,0.3c0.2,0,0.6,0,0.9,0.2c0.6,0.4,0.6,1.8,0.1,2.3c-0.5,0.6-1.7,0.5-2.3,0c-0.2-0.2-0.4-0.5-0.5-0.8
		c-0.3,0.6-0.6,1.3-0.8,2c0-0.3-0.1-0.5-0.1-0.8c0-0.8,0.1-1.5,0.5-2.2c0.5-0.9,1.4-1.6,2.3-2c0.5-0.2,1-0.3,1.4-0.4
		c0.5-0.1,1-0.1,1.5-0.1c0.5,0,0.9,0,1.3-0.2c0.4-0.1,0.8-0.4,1.2-0.7c0,0.1-0.1,0.2-0.1,0.2C63.8,34.2,63.8,34.2,63.9,34.2z"/>
	<path class="st2" d="M57.6,50.7c0.7-0.3,1.3-0.7,2.1-1c-0.5,0.6-1,1.2-1.7,1.7c-0.6,0.5-1.4,0.8-2.2,1c-1.2,0.2-2.3,0.3-3.5,0.1
		c0.7,0.2,1.4,0.4,2.1,0.5c1,0.1,1.9,0.1,2.7-0.2c0.8-0.4,1.5-1,2.1-1.8c0.3-0.4,0.6-0.8,0.8-1.2c0.1-0.2,0.2-0.5,0.3-0.7l0.2-0.4
		l0.1-0.1c-0.6,0.6-1.4,1.1-2.4,1.3c-0.5,0.1-1.1,0-1.5-0.1c-0.4-0.1-0.5,0-0.6,0.2c0,0.1-0.3,0.6-0.6,0.7c-0.1,0.1-0.3,0.1-0.5,0.2
		c-0.2,0-0.3,0-0.4,0c-0.4-0.1-0.8-0.1-1.3-0.1l-0.2,0c0,0-0.2,0.1-0.2,0.1c-0.1,0.1-0.3,0.2-0.4,0.4c-0.2,0.3-0.4,0.7-0.7,1l0,0.1
		c1.3-0.3,2.6-0.4,3.8-0.7C56.3,51.2,56.9,51,57.6,50.7z"/>
</g>
<g>
	<path class="st2" d="M41.2,263.7c-1,0.4-2,0.7-2.7,0.9c-2,2.5-4.5,4.6-7.3,6.2c-0.9,0.6-3.6,1.4-4.2,2.3c-0.4,0.7,0,0.6,0.9,0.8
		c3.6,0.8,9.5,0.6,12.2-1.8c2-1.8,4.6-3.6,6.2-5.7c1.3-1.7,2.2-3.8,3.3-5.7c0.3-0.4,0.8,0,0.9,0.3c0.4,3.2,0.7,6.5,0.7,9.8
		c0,0.4-0.1,0.9,0,1.3c0.3,1.2,0.5,0.5,1-0.4c1.2-2.3,1.5-5.4,1.5-7.9c0-2.4-0.4-4.4-0.9-6.6c-0.3-1.3-0.6-2.7-0.8-4
		c-1.3,2.2-2.6,3.8-3.7,5C46.4,260.1,44.4,262.3,41.2,263.7z"/>
	<path class="st4" d="M52.1,232.4c0.8-4,1.3-8.1,1.7-12.2c1-9.8-0.4-19.5-3.9-28.7c-0.9-2.4-2-4.8-3.2-7.2c-0.3-0.7-1-1.4-1.2-2.2
		c-0.2-0.8,0-2,0-2.8c0.1-5.9-0.2-11.7-0.8-17.5c-5.5,0.4-11,0.2-16.5-0.5c2.2,6.6,4.7,13,7.5,19.3c1.2,2.6,2.7,5.1,3.2,8
		c0.5,2.8,0.9,5.6,1.3,8.4c1.6,11.7,2.6,23.4,2.9,35.2c0.2,5.5,0.2,11.1,0,16.6c-0.1,4.5-0.7,8.7-3,12.7c-0.6,1-1.2,2-1.9,2.9
		c0.8-0.2,1.7-0.5,2.7-0.9c3.3-1.4,5.2-3.5,7.1-5.6c1-1.2,2.4-2.8,3.7-5c-0.7-3.2-1.3-6.3-1.9-9.5c-0.3-1.8,0-2.8,0.6-4.5
		C51.2,236.9,51.7,234.7,52.1,232.4z"/>
</g>
<g>
	<path class="st2" d="M107,265.7c-0.9-1-1.8-2-2.7-3c-0.1,1.3-0.5,1.8-0.8,2c-1.5,0.9-4.9-1.7-6.7-3.9c-0.8-0.9-1.3-1.8-1.8-2.6
		c0.2,0.9,0.5,1.9,0.7,2.8c0.7,2.6,1.6,5.1,2.8,7.4c0.9,1.8,1.5,3.8,2.4,5.6c0.9,1.6,2.2,2,3.9,2.5c1.6,0.5,4.1,1.6,5.8,1.3
		C114.4,277.3,108.1,267.1,107,265.7z"/>
	<path class="st4" d="M103.5,264.7c0.3-0.2,0.7-0.6,0.8-2c-0.4-0.4-0.8-0.9-1.2-1.4c-2.1-2.4-3.9-4.4-4.8-7.5
		c-1.3-4.9-2.4-9.9-3.4-15c-1.8-9.2-3.5-18.6-5.8-27.7c-2.2-8.5-5.5-16.6-10-24.3c-1.3-2.3-3.3-4.2-3.3-6.8c0-2.4-0.2-4.8-0.4-7.2
		c-0.7-6.2-2.2-12.3-4.4-18.2c-5.2,2.6-10.6,4.5-16.2,5.8c2.5,5.1,5.2,10.1,8.1,14.9c1.8,2.9,4,5.6,5.8,8.5c2.7,4.5,3.2,9.1,4.1,14
		c1.1,5.9,3.3,11.6,5.6,17.2c1.7,4.1,3.5,8.1,5.9,11.8c2,3.1,4,6,5.4,9.5c2.9,6.9,3.6,14.5,5.3,21.7c0.4,0.8,1,1.7,1.8,2.6
		C98.6,262.9,101.9,265.6,103.5,264.7z"/>
</g>
</svg>
