<?xml version="1.0" encoding="utf-8"?>
<!-- Generator: Adobe Illustrator 22.1.0, SVG Export Plug-In . SVG Version: 6.00 Build 0)  -->
<svg version="1.1" id="Layer_1" xmlns="http://www.w3.org/2000/svg" xmlns:xlink="http://www.w3.org/1999/xlink" x="0px" y="0px"
	 viewBox="0 0 205 250.3" style="enable-background:new 0 0 205 250.3;" xml:space="preserve">
<style type="text/css">
	.st0{fill:#1D74B5;}
	.st1{fill:#EEF6F8;}
	.st2{fill:#3E748C;}
	.st3{fill:#BAC9E3;}
	.st4{fill:none;stroke:#000000;stroke-width:1.2775;stroke-miterlimit:10;}
	.st5{fill:none;stroke:#000000;stroke-width:1.9162;stroke-miterlimit:10;}
	.st6{fill:none;stroke:#000000;stroke-width:0.6387;stroke-miterlimit:10;}
	.st7{fill:#FFFFFF;}
</style>
<g id="Bg">
	<g>
		<ellipse class="st0" cx="102.8" cy="148.1" rx="95.8" ry="95.8"/>
		<path d="M102.8,58.7c49.3,0,89.4,40.1,89.4,89.4s-40.1,89.4-89.4,89.4s-89.4-40.1-89.4-89.4S53.5,58.7,102.8,58.7 M102.8,45.9
			C46.3,45.9,0.6,91.7,0.6,148.1s45.8,102.2,102.2,102.2S205,204.5,205,148.1S159.2,45.9,102.8,45.9L102.8,45.9z"/>
	</g>
</g>
<g id="colors">
	<polygon class="st1" points="67,112.3 123.2,112.3 120.7,135.3 118.1,153.2 115.6,176.2 115.6,189 107.9,191.5 72.1,189 
		69.6,163.4 67,143 	"/>
	<polyline class="st1" points="64.5,112.3 54.2,112.3 67,138 	"/>
	<polyline class="st1" points="122.1,112.3 133.4,112.3 128.3,127.7 120.3,138 	"/>
	<path class="st1" d="M119.8,142.5c0,0,8.5-2.1,8.5,0.5c0,0,2.6,0,0,5.1c0,0-5.1,10.2-10.2,10.2"/>
	<g>
		<g>
			<path class="st1" d="M126.1,149.4c4.9,0,4.9-7.7,0-7.7C121.1,141.7,121.1,149.4,126.1,149.4L126.1,149.4z"/>
		</g>
	</g>
	<g>
		<g>
			<path class="st1" d="M124.7,151.9c4.9,0,4.9-7.7,0-7.7C119.7,144.2,119.7,151.9,124.7,151.9L124.7,151.9z"/>
		</g>
	</g>
	<g>
		<g>
			<path class="st1" d="M65,150.9c4.9,0,4.9-7.7,0-7.7C60,143.2,60,150.9,65,150.9L65,150.9z"/>
		</g>
	</g>
	<g>
		<g>
			<path class="st1" d="M62.1,150.5c4.9,0,4.9-7.7,0-7.7C57.1,142.8,57.1,150.5,62.1,150.5L62.1,150.5z"/>
		</g>
	</g>
	<g>
		<g>
			<path class="st1" d="M61.1,150.3c4.9,0,4.9-7.7,0-7.7S56.2,150.3,61.1,150.3L61.1,150.3z"/>
		</g>
	</g>
	<g>
		<g>
			<path class="st1" d="M62.2,152.4c4.9,0,4.9-7.7,0-7.7S57.3,152.4,62.2,152.4L62.2,152.4z"/>
		</g>
	</g>
	<g>
		<g>
			<path class="st1" d="M63.4,153.9c4.9,0,4.9-7.7,0-7.7C58.4,146.2,58.4,153.9,63.4,153.9L63.4,153.9z"/>
		</g>
	</g>
	<g>
		<g>
			<path class="st1" d="M64.5,155.2c4.9,0,4.9-7.7,0-7.7C59.5,147.5,59.5,155.2,64.5,155.2L64.5,155.2z"/>
		</g>
	</g>
	<g>
		<g>
			<path class="st1" d="M65.5,156.8c4.9,0,4.9-7.7,0-7.7C60.5,149.2,60.5,156.8,65.5,156.8L65.5,156.8z"/>
		</g>
	</g>
	<g>
		<g>
			<path class="st1" d="M68.1,158.9c4.9,0,4.9-7.7,0-7.7S63.1,158.9,68.1,158.9L68.1,158.9z"/>
		</g>
	</g>
	<g>
		<g>
			<path class="st1" d="M69.2,159.8c4.9,0,4.9-7.7,0-7.7C64.3,152.1,64.3,159.8,69.2,159.8L69.2,159.8z"/>
		</g>
	</g>
	<g>
		<g>
			<path class="st1" d="M62.9,120c4.9,0,4.9-7.7,0-7.7C57.9,112.3,57.9,120,62.9,120L62.9,120z"/>
		</g>
	</g>
	<g>
		<g>
			<path class="st1" d="M62.9,122.2c4.9,0,4.9-7.7,0-7.7S58,122.2,62.9,122.2L62.9,122.2z"/>
		</g>
	</g>
	<g>
		<g>
			<path class="st1" d="M62.9,123.7c4.9,0,4.9-7.7,0-7.7C58,116.1,58,123.7,62.9,123.7L62.9,123.7z"/>
		</g>
	</g>
	<g>
		<g>
			<path class="st1" d="M63.5,125.7c4.9,0,4.9-7.7,0-7.7S58.6,125.7,63.5,125.7L63.5,125.7z"/>
		</g>
	</g>
	<g>
		<g>
			<path class="st1" d="M63.7,126.9c4.9,0,4.9-7.7,0-7.7C58.8,119.2,58.8,126.9,63.7,126.9L63.7,126.9z"/>
		</g>
	</g>
	<g>
		<g>
			<path class="st1" d="M64.1,128.7c4.9,0,4.9-7.7,0-7.7S59.2,128.7,64.1,128.7L64.1,128.7z"/>
		</g>
	</g>
	<g>
		<g>
			<path class="st1" d="M66.9,119.9c4.9,0,4.9-7.7,0-7.7C62,112.2,62,119.9,66.9,119.9L66.9,119.9z"/>
		</g>
	</g>
	<g>
		<g>
			<path class="st1" d="M124.9,119c4.9,0,4.9-7.7,0-7.7C119.9,111.4,119.9,119,124.9,119L124.9,119z"/>
		</g>
	</g>
	<g>
		<g>
			<path class="st1" d="M128.1,118.8c4.9,0,4.9-7.7,0-7.7C123.1,111.1,123.1,118.8,128.1,118.8L128.1,118.8z"/>
		</g>
	</g>
	<g>
		<g>
			<path class="st1" d="M128.3,118.3c4.9,0,4.9-7.7,0-7.7C123.4,110.6,123.4,118.3,128.3,118.3L128.3,118.3z"/>
		</g>
	</g>
	<g>
		<g>
			<path class="st1" d="M120.5,137.2c4.9,0,4.9-7.7,0-7.7C115.6,129.6,115.6,137.2,120.5,137.2L120.5,137.2z"/>
		</g>
	</g>
	<g>
		<g>
			<path class="st1" d="M116.2,191.6c4.9,0,4.9-7.7,0-7.7C111.2,184,111.2,191.6,116.2,191.6L116.2,191.6z"/>
		</g>
	</g>
	<g>
		<g>
			<path class="st1" d="M76,192.2c4.9,0,4.9-7.7,0-7.7C71,184.5,71,192.2,76,192.2L76,192.2z"/>
		</g>
	</g>
	<g>
		<g>
			<path class="st1" d="M79.3,192.2c4.9,0,4.9-7.7,0-7.7C74.4,184.6,74.4,192.2,79.3,192.2L79.3,192.2z"/>
		</g>
	</g>
	<g>
		<g>
			<path class="st1" d="M84.3,192.6c4.9,0,4.9-7.7,0-7.7C79.4,184.9,79.4,192.6,84.3,192.6L84.3,192.6z"/>
		</g>
	</g>
	<g>
		<g>
			<path class="st1" d="M88.1,192.9c4.9,0,4.9-7.7,0-7.7C83.2,185.3,83.2,192.9,88.1,192.9L88.1,192.9z"/>
		</g>
	</g>
	<g>
		<g>
			<path class="st1" d="M95,193.5c4.9,0,4.9-7.7,0-7.7S90.1,193.5,95,193.5L95,193.5z"/>
		</g>
	</g>
	<g>
		<g>
			<path class="st2" d="M135.7,118.8c4.9,0,4.9-7.7,0-7.7C130.8,111.1,130.8,118.8,135.7,118.8L135.7,118.8z"/>
		</g>
	</g>
	<g>
		<g>
			<path class="st2" d="M135.2,121.3c4.9,0,4.9-7.7,0-7.7C130.2,113.6,130.2,121.3,135.2,121.3L135.2,121.3z"/>
		</g>
	</g>
	<g>
		<g>
			<path class="st2" d="M134.7,123c4.9,0,4.9-7.7,0-7.7C129.7,115.3,129.7,123,134.7,123L134.7,123z"/>
		</g>
	</g>
	<g>
		<g>
			<path class="st2" d="M134.5,123.8c4.9,0,4.9-7.7,0-7.7C129.5,116.2,129.5,123.8,134.5,123.8L134.5,123.8z"/>
		</g>
	</g>
	<g>
		<g>
			<path class="st2" d="M134.3,124.7c4.9,0,4.9-7.7,0-7.7C129.3,117,129.3,124.7,134.3,124.7L134.3,124.7z"/>
		</g>
	</g>
	<polyline class="st1" points="118.1,168.5 133.4,191.5 143.7,206.9 151.3,224.7 120.7,237.5 107.9,235 84.9,229.9 69.6,222.2 
		61.9,214.5 61.9,206.9 61.9,201.7 64.5,189 67,181.3 69.6,173.6 	"/>
	<g>
		<g>
			<path class="st1" d="M64.1,217.9c4.9,0,4.9-7.7,0-7.7S59.2,217.9,64.1,217.9L64.1,217.9z"/>
		</g>
	</g>
	<g>
		<g>
			<path class="st1" d="M66.2,219.4c4.9,0,4.9-7.7,0-7.7C61.2,211.7,61.2,219.4,66.2,219.4L66.2,219.4z"/>
		</g>
	</g>
	<g>
		<g>
			<path class="st1" d="M68,221c4.9,0,4.9-7.7,0-7.7C63,213.3,63,221,68,221L68,221z"/>
		</g>
	</g>
	<g>
		<g>
			<path class="st1" d="M69.7,222.7c4.9,0,4.9-7.7,0-7.7C64.8,215,64.8,222.7,69.7,222.7L69.7,222.7z"/>
		</g>
	</g>
	<g>
		<g>
			<path class="st1" d="M72.9,224.3c4.9,0,4.9-7.7,0-7.7C68,216.7,68,224.3,72.9,224.3L72.9,224.3z"/>
		</g>
	</g>
	<g>
		<g>
			<path class="st1" d="M76.5,226.3c4.9,0,4.9-7.7,0-7.7S71.6,226.3,76.5,226.3L76.5,226.3z"/>
		</g>
	</g>
	<g>
		<g>
			<path class="st1" d="M80.7,228.6c4.9,0,4.9-7.7,0-7.7C75.8,220.9,75.8,228.6,80.7,228.6L80.7,228.6z"/>
		</g>
	</g>
	<g>
		<g>
			<path class="st1" d="M75.7,226.2c4.9,0,4.9-7.7,0-7.7C70.8,218.6,70.7,226.2,75.7,226.2L75.7,226.2z"/>
		</g>
	</g>
	<g>
		<g>
			<path class="st1" d="M78,227.4c4.9,0,4.9-7.7,0-7.7C73,219.7,73,227.4,78,227.4L78,227.4z"/>
		</g>
	</g>
	<g>
		<g>
			<path class="st1" d="M83.8,230.2c4.9,0,4.9-7.7,0-7.7C78.8,222.6,78.8,230.2,83.8,230.2L83.8,230.2z"/>
		</g>
	</g>
	<g>
		<g>
			<path class="st1" d="M90,232.2c4.9,0,4.9-7.7,0-7.7S85.1,232.2,90,232.2L90,232.2z"/>
		</g>
	</g>
	<g>
		<g>
			<path class="st1" d="M94.6,233.2c4.9,0,4.9-7.7,0-7.7S89.6,233.2,94.6,233.2L94.6,233.2z"/>
		</g>
	</g>
	<g>
		<g>
			<path class="st1" d="M99.1,234.2c4.9,0,4.9-7.7,0-7.7C94.2,226.6,94.2,234.2,99.1,234.2L99.1,234.2z"/>
		</g>
	</g>
	<g>
		<g>
			<path class="st1" d="M97.5,233.9c4.9,0,4.9-7.7,0-7.7C92.5,226.2,92.5,233.9,97.5,233.9L97.5,233.9z"/>
		</g>
	</g>
	<g>
		<g>
			<path class="st1" d="M102.5,234.9c4.9,0,4.9-7.7,0-7.7S97.6,234.9,102.5,234.9L102.5,234.9z"/>
		</g>
	</g>
	<g>
		<g>
			<path class="st1" d="M106.3,235.4c4.9,0,4.9-7.7,0-7.7C101.4,227.8,101.4,235.4,106.3,235.4L106.3,235.4z"/>
		</g>
	</g>
	<g>
		<g>
			<path d="M59.6,224.1c4.9,0,4.9-7.7,0-7.7C54.6,216.4,54.6,224.1,59.6,224.1L59.6,224.1z"/>
		</g>
	</g>
	<g>
		<g>
			<path d="M56.4,217.3c-1.6,0.3-3.2,0.6-4.7,0.8c-4.1,0.7-3.1,6.2,0,7.4c4.6,1.7,9.1,3.7,13.5,6c3.6,1.8,8.3-3.2,4.6-6
				c-2.2-1.7-3.4-4-5.4-5.7c-3.7-3.2-9.1,2.1-5.4,5.4c2.1,1.8,4.1,3.6,6.6,4.9c1-2.3,2-4.7,3-7c-0.7-0.3-0.6-0.1,0.3,0.6
				c0.1,1,0.3,2,0.4,3c0-0.1,0-0.1,0.1-0.2c-0.6,0.8-1.2,1.5-1.8,2.3c0.1,0,0.1-0.1,0.2-0.1c-1,0.1-2,0.3-3,0.4
				c0.1,0,0.3,0.1,0.4,0.1c0.7-2.5,1.4-4.9,2-7.4c-0.2,0-0.3-0.1-0.5-0.1c-4.4-2.2-8.3,4.4-3.9,6.6c0.8,0.4,1.5,0.7,2.3,0.9
				c4.8,1,6.8-6,2-7.4c-2.5-0.7-5.1,0.7-5.5,3.4c-0.4,2.9,2.4,4.6,4.8,5.3c4.1,1.3,6.8-5,3-7c-1.9-1-3.5-2.3-5.1-3.7
				c-1.8,1.8-3.6,3.6-5.4,5.4c0.3,0.3,0.6,0.5,0.9,0.8c0.7,0.6,0.6,0.4-0.5-0.7c0.3,0.1,1.1,1.7,1.3,2c1,1.4,2.3,2.5,3.6,3.6
				c1.5-2,3.1-4,4.6-6c-5-2.5-10.1-4.7-15.3-6.7c0,2.5,0,4.9,0,7.4c1.6-0.3,3.2-0.6,4.7-0.8C63.2,223.8,61.2,216.4,56.4,217.3
				L56.4,217.3z"/>
		</g>
	</g>
	<g>
		<g>
			<path d="M70.3,231.4c4.9,0,4.9-7.7,0-7.7C65.3,223.8,65.3,231.4,70.3,231.4L70.3,231.4z"/>
		</g>
	</g>
	<g>
		<g>
			<path d="M71.7,232.5c4.9,0,4.9-7.7,0-7.7C66.8,224.8,66.8,232.5,71.7,232.5L71.7,232.5z"/>
		</g>
	</g>
	<g>
		<g>
			<path d="M74.5,233.8c4.9,0,4.9-7.7,0-7.7C69.5,226.2,69.5,233.8,74.5,233.8L74.5,233.8z"/>
		</g>
	</g>
	<g>
		<g>
			<path d="M76.9,235c4.9,0,4.9-7.7,0-7.7C71.9,227.3,71.9,235,76.9,235L76.9,235z"/>
		</g>
	</g>
	<g>
		<g>
			<path d="M78,235.5c4.9,0,4.9-7.7,0-7.7C73,227.8,73,235.5,78,235.5L78,235.5z"/>
		</g>
	</g>
	<g>
		<g>
			<path d="M120.4,244.1c4.9,0,4.9-7.7,0-7.7C115.5,236.5,115.5,244.1,120.4,244.1L120.4,244.1z"/>
		</g>
	</g>
	<g>
		<g>
			<path d="M118.2,243.9c4.9,0,4.9-7.7,0-7.7C113.2,236.2,113.2,243.9,118.2,243.9L118.2,243.9z"/>
		</g>
	</g>
	<g>
		<g>
			<path d="M113.7,243.7c4.9,0,4.9-7.7,0-7.7C108.8,236.1,108.8,243.7,113.7,243.7L113.7,243.7z"/>
		</g>
	</g>
	<g>
		<g>
			<path d="M112,235.9c-5.6-0.5-11-1.3-16.5-2.5c-4.4-1-9.9-1.5-14-3.3c0.6,1.1,1.3,2.2,1.9,3.3c0-0.1,0-0.2,0-0.4
				c-0.6,1.1-1.3,2.2-1.9,3.3c0.1-0.1,0.3-0.1,0.4-0.2c-1,0.1-2,0.3-3,0.4c0.3,0.1,0.6,0.2,0.8,0.2c4.7,1.4,6.8-6,2-7.4
				c-1.6-0.5-2.7-0.4-4.2,0.3c-1.2,0.6-1.8,2-1.9,3.3c0,0.1,0,0.2,0,0.4c-0.1,1.2,0.7,2.8,1.9,3.3c4.8,2.1,10.7,2.9,15.8,4.1
				c6.1,1.4,12.3,2.3,18.5,2.8C116.9,244,116.9,236.4,112,235.9L112,235.9z"/>
		</g>
	</g>
	<g>
		<g>
			<path d="M84,237.7c4.9,0,4.9-7.7,0-7.7C79.1,230.1,79,237.7,84,237.7L84,237.7z"/>
		</g>
	</g>
	<g>
		<g>
			<path d="M108.7,248.2c4.9,0,4.9-7.7,0-7.7C103.8,240.6,103.8,248.2,108.7,248.2L108.7,248.2z"/>
		</g>
	</g>
	<g>
		<g>
			<path d="M116,246.6c4.9,0,4.9-7.7,0-7.7C111.1,239,111.1,246.6,116,246.6L116,246.6z"/>
		</g>
	</g>
	<g>
		<g>
			<path d="M146,207.1c4.9,0,4.9-7.7,0-7.7C141.1,199.5,141.1,207.1,146,207.1L146,207.1z"/>
		</g>
	</g>
	<g>
		<g>
			<path d="M143.9,207.4c0.7,0.9,1,1.9,1.5,2.9c0.4,1.1,1.3,1.9,1.7,3c0.4,1,0.4,2.2,0.8,3.2c0.5,1.3,1.5,2.3,1.6,3.8
				c0.3,4.9,8,4.9,7.7,0c-0.2-3.3-1.8-5.9-2.7-9c-0.4-1.4-1.2-2.1-1.8-3.3c-0.8-1.4-1.1-3-2.1-4.4
				C147.7,199.6,141,203.4,143.9,207.4L143.9,207.4z"/>
		</g>
	</g>
	<g>
		<g>
			<path d="M159.7,221.6c2.2-2.1,3.9-4,5.3-6.7c1.3-2.4,3.9-4.4,5.8-6.4c3.5-3.5-2-8.9-5.4-5.4c-2.1,2.1-4.6,4.2-6.3,6.7
				c-0.7,0.9-0.9,2.1-1.5,3c-0.8,1.2-2.2,2.3-3.3,3.3C150.6,219.5,156.1,224.9,159.7,221.6L159.7,221.6z"/>
		</g>
	</g>
	<g>
		<g>
			<path d="M158,217.2c3.2-2.5,5.1-6.5,8.7-8.5c4.3-2.4,0.5-9-3.9-6.6c-4.3,2.4-6.5,6.8-10.3,9.7c-1.6,1.3-1.3,4.1,0,5.4
				C154.2,218.8,156.4,218.5,158,217.2L158,217.2z"/>
		</g>
	</g>
	<g>
		<g>
			<path d="M157,213.8c2.1-1.9,4.2-3.8,6.2-5.8c1.5-1.5,1.5-4,0-5.4c-1.5-1.5-3.9-1.5-5.4,0c-2,2-4.1,3.9-6.2,5.8
				c-1.5,1.4-1.4,4,0,5.4C153.2,215.3,155.5,215.2,157,213.8L157,213.8z"/>
		</g>
	</g>
	<g>
		<g>
			<path d="M148.7,206.7c4.9,0,4.9-7.7,0-7.7S143.8,206.7,148.7,206.7L148.7,206.7z"/>
		</g>
	</g>
	<g>
		<g>
			<path d="M151.2,206.1c4.9,0,4.9-7.7,0-7.7C146.2,198.4,146.2,206.1,151.2,206.1L151.2,206.1z"/>
		</g>
	</g>
	<g>
		<g>
			<path d="M154.1,205.8c4.9,0,4.9-7.7,0-7.7C149.2,198.1,149.2,205.8,154.1,205.8L154.1,205.8z"/>
		</g>
	</g>
	<g>
		<g>
			<path d="M157,205.5L157,205.5c2.1,0,4-1.8,3.9-3.8c-0.1-2.1-1.7-3.8-3.8-3.8c0,0,0,0-0.1,0c-2,0-3.9,1.8-3.8,3.8
				C153.2,203.8,154.8,205.5,157,205.5L157,205.5z"/>
		</g>
	</g>
	<g>
		<g>
			<path d="M161.9,205.6c4.9,0,4.9-7.7,0-7.7C156.9,198,156.9,205.6,161.9,205.6L161.9,205.6z"/>
		</g>
	</g>
	<g>
		<g>
			<path d="M163.9,205.5c0.1,0,0.1,0,0.2,0.1c1,0.3,2.1,0.1,3-0.4c0.8-0.5,1.6-1.4,1.8-2.3c0.5-2-0.6-4.2-2.7-4.7
				c-0.1,0-0.1,0-0.2-0.1c-1-0.3-2.1-0.1-3,0.4c-0.8,0.5-1.6,1.4-1.8,2.3C160.7,202.8,161.8,205,163.9,205.5L163.9,205.5z"/>
		</g>
	</g>
	<g>
		<g>
			<path d="M167.9,205.6c4.9,0,4.9-7.7,0-7.7C163,197.9,163,205.6,167.9,205.6L167.9,205.6z"/>
		</g>
	</g>
	<g>
		<g>
			<path d="M161.2,205.7c4.9,0,4.9-7.7,0-7.7C156.2,198,156.2,205.7,161.2,205.7L161.2,205.7z"/>
		</g>
	</g>
	<g>
		<g>
			<path d="M160.3,205.7c4.9,0,4.9-7.7,0-7.7C155.3,198,155.3,205.7,160.3,205.7L160.3,205.7z"/>
		</g>
	</g>
	<g>
		<g>
			<path d="M153.1,209.6c4.9,0,4.9-7.7,0-7.7C148.1,202,148.1,209.6,153.1,209.6L153.1,209.6z"/>
		</g>
	</g>
	<g>
		<g>
			<path d="M145.7,206.7c4.9,0,4.9-7.7,0-7.7S140.7,206.7,145.7,206.7L145.7,206.7z"/>
		</g>
	</g>
	<g>
		<g>
			<path d="M171.5,206.6c2.4-0.5,3.7-2.3,5.2-4c1.6-1.9,3.8-3.3,5.6-4.9c1.6-1.3,1.4-4,0-5.4c-1.6-1.6-3.8-1.3-5.4,0
				c-1.6,1.4-3.4,2.7-4.9,4.1c-0.7,0.7-1.9,2.7-2.6,2.8C164.6,200.2,166.7,207.6,171.5,206.6L171.5,206.6z"/>
		</g>
	</g>
	<g>
		<g>
			<path d="M183.5,193.6c4.9,0,4.9-7.7,0-7.7C178.6,185.9,178.6,193.6,183.5,193.6L183.5,193.6z"/>
		</g>
	</g>
	<g>
		<g>
			<path d="M179.9,195.9c4.9,0,4.9-7.7,0-7.7C175,188.3,175,195.9,179.9,195.9L179.9,195.9z"/>
		</g>
	</g>
	<g>
		<g>
			<path d="M176.8,197.4c4.9,0,4.9-7.7,0-7.7C171.9,189.8,171.9,197.4,176.8,197.4L176.8,197.4z"/>
		</g>
	</g>
	<g>
		<g>
			<path d="M173.5,200.1c4.9,0,4.9-7.7,0-7.7C168.6,192.4,168.6,200.1,173.5,200.1L173.5,200.1z"/>
		</g>
	</g>
	<g>
		<g>
			<path d="M171.7,202c4.9,0,4.9-7.7,0-7.7S166.7,202,171.7,202L171.7,202z"/>
		</g>
	</g>
	<g>
		<g>
			<path d="M145.4,207.2c4.9,0,4.9-7.7,0-7.7S140.5,207.2,145.4,207.2L145.4,207.2z"/>
		</g>
	</g>
	<g>
		<g>
			<path d="M145.3,207.1c4.9,0,4.9-7.7,0-7.7C140.4,199.4,140.4,207.1,145.3,207.1L145.3,207.1z"/>
		</g>
	</g>
	<g>
		<g>
			<path d="M145.2,207c4.9,0,4.9-7.7,0-7.7C140.2,199.4,140.2,207,145.2,207L145.2,207z"/>
		</g>
	</g>
	<g>
		<g>
			<path d="M145,207c4.9,0,4.9-7.7,0-7.7C140.1,199.4,140.1,207,145,207L145,207z"/>
		</g>
	</g>
	<g>
		<g>
			<path d="M144.9,206.9c4.9,0,4.9-7.7,0-7.7C139.9,199.3,139.9,206.9,144.9,206.9L144.9,206.9z"/>
		</g>
	</g>
	<g>
		<g>
			<path d="M141.5,202.6c1.2,0,1.2-1.9,0-1.9C140.3,200.7,140.3,202.6,141.5,202.6L141.5,202.6z"/>
		</g>
	</g>
	<g>
		<g>
			<path d="M97.6,145.6C98,145.5,97.3,145.5,97.6,145.6c1.1,0.3,2.2-0.3,2.5-1.3c0.2-1-0.3-2.1-1.3-2.4c-0.4-0.1-0.8-0.2-1.2-0.1
				c-0.5,0.1-1,0.2-1.4,0.6c-0.3,0.3-0.6,0.9-0.6,1.4C95.7,144.6,96.5,145.8,97.6,145.6L97.6,145.6z"/>
		</g>
	</g>
	<g>
		<g>
			<path d="M97.5,145.6c2.5,0,2.5-3.8,0-3.8S95,145.6,97.5,145.6L97.5,145.6z"/>
		</g>
	</g>
	<g>
		<g>
			<path d="M98.8,147.4c6.1-0.2,12.1-0.1,18.2,0.5c2.5,0.2,2.4-3.6,0-3.8c-6.1-0.5-12.1-0.7-18.2-0.5
				C96.3,143.7,96.3,147.5,98.8,147.4L98.8,147.4z"/>
		</g>
	</g>
	<g>
		<g>
			<path d="M117.6,145.7c2.5,0,2.5-3.8,0-3.8S115.1,145.7,117.6,145.7L117.6,145.7z"/>
		</g>
	</g>
	<g>
		<g>
			<path d="M117.7,145.5c2.5,0,2.5-3.8,0-3.8C115.2,141.6,115.2,145.5,117.7,145.5L117.7,145.5z"/>
		</g>
	</g>
	<g>
		<g>
			<path d="M116.5,145.1c2.5,0,2.5-3.8,0-3.8S114,145.1,116.5,145.1L116.5,145.1z"/>
		</g>
	</g>
	<g>
		<g>
			<path d="M115.9,144.8c2.5,0,2.5-3.8,0-3.8S113.4,144.8,115.9,144.8L115.9,144.8z"/>
		</g>
	</g>
	<g>
		<g>
			<path d="M114.6,144.1c2.5,0,2.5-3.8,0-3.8S112.1,144.1,114.6,144.1L114.6,144.1z"/>
		</g>
	</g>
	<g>
		<g>
			<path d="M113.2,143.9c2.5,0,2.5-3.8,0-3.8C110.7,140,110.7,143.9,113.2,143.9L113.2,143.9z"/>
		</g>
	</g>
	<g>
		<g>
			<path d="M111.9,143.5c2.5,0,2.5-3.8,0-3.8C109.4,139.6,109.4,143.5,111.9,143.5L111.9,143.5z"/>
		</g>
	</g>
	<g>
		<g>
			<path d="M110,143.1c2.5,0,2.5-3.8,0-3.8C107.6,139.3,107.6,143.1,110,143.1L110,143.1z"/>
		</g>
	</g>
	<g>
		<g>
			<path d="M108.6,143.1c2.5,0,2.5-3.8,0-3.8S106.1,143.1,108.6,143.1L108.6,143.1z"/>
		</g>
	</g>
	<g>
		<g>
			<path d="M107.8,143.1c2.5,0,2.5-3.8,0-3.8S105.3,143.1,107.8,143.1L107.8,143.1z"/>
		</g>
	</g>
	<g>
		<g>
			<path d="M105.8,142.9c2.5,0,2.5-3.8,0-3.8C103.3,139.1,103.3,142.9,105.8,142.9L105.8,142.9z"/>
		</g>
	</g>
	<g>
		<g>
			<path d="M104.5,143.1c2.5,0,2.5-3.8,0-3.8C102.1,139.2,102.1,143.1,104.5,143.1L104.5,143.1z"/>
		</g>
	</g>
	<g>
		<g>
			<path d="M102.9,143.3c2.5,0,2.5-3.8,0-3.8C100.5,139.5,100.5,143.3,102.9,143.3L102.9,143.3z"/>
		</g>
	</g>
	<g>
		<g>
			<path d="M101.8,143.9c2.5,0,2.5-3.8,0-3.8C99.4,140.1,99.4,143.9,101.8,143.9L101.8,143.9z"/>
		</g>
	</g>
	<g>
		<g>
			<path d="M99.9,144.8c2.5,0,2.5-3.8,0-3.8S97.4,144.8,99.9,144.8L99.9,144.8z"/>
		</g>
	</g>
	<g>
		<g>
			<path d="M99.8,144.4c2.5,0,2.5-3.8,0-3.8C97.4,140.6,97.4,144.4,99.8,144.4L99.8,144.4z"/>
		</g>
	</g>
	<g>
		<g>
			<path d="M103.6,145.6c2.6,0,5.1-0.1,7.7-0.3c2.4-0.2,2.5-4,0-3.8s-5.1,0.3-7.7,0.3C101.1,141.7,101.1,145.6,103.6,145.6
				L103.6,145.6z"/>
		</g>
	</g>
	<g>
		<g>
			<path d="M98.4,147.1c2.5,0,2.5-3.8,0-3.8C95.9,143.2,95.9,147.1,98.4,147.1L98.4,147.1z"/>
		</g>
	</g>
	<g>
		<g>
			<path d="M98.4,147.9c2.5,0,2.5-3.8,0-3.8C95.9,144,95.9,147.9,98.4,147.9L98.4,147.9z"/>
		</g>
	</g>
	<g>
		<g>
			<path d="M99.1,149.3c2.5,0,2.5-3.8,0-3.8S96.6,149.3,99.1,149.3L99.1,149.3z"/>
		</g>
	</g>
	<g>
		<g>
			<path d="M99.4,150.1c2.5,0,2.5-3.8,0-3.8C97,146.3,97,150.1,99.4,150.1L99.4,150.1z"/>
		</g>
	</g>
	<g>
		<g>
			<path d="M100.1,151c2.5,0,2.5-3.8,0-3.8C97.6,147.1,97.6,151,100.1,151L100.1,151z"/>
		</g>
	</g>
	<g>
		<g>
			<path d="M100.8,152.1c2.5,0,2.5-3.8,0-3.8S98.3,152.1,100.8,152.1L100.8,152.1z"/>
		</g>
	</g>
	<g>
		<g>
			<path d="M101.4,153.1c2.5,0,2.5-3.8,0-3.8C99,149.3,99,153.1,101.4,153.1L101.4,153.1z"/>
		</g>
	</g>
	<g>
		<g>
			<path d="M102.5,154.4c2.5,0,2.5-3.8,0-3.8C100,150.6,100,154.4,102.5,154.4L102.5,154.4z"/>
		</g>
	</g>
	<g>
		<g>
			<path d="M103.3,155.4c2.5,0,2.5-3.8,0-3.8C100.9,151.5,100.9,155.4,103.3,155.4L103.3,155.4z"/>
		</g>
	</g>
	<g>
		<g>
			<path d="M104.4,155.8c2.5,0,2.5-3.8,0-3.8S101.9,155.8,104.4,155.8L104.4,155.8z"/>
		</g>
	</g>
	<g>
		<g>
			<path d="M106,156.5c2.5,0,2.5-3.8,0-3.8C103.5,152.6,103.5,156.5,106,156.5L106,156.5z"/>
		</g>
	</g>
	<g>
		<g>
			<path d="M105.3,156.5c2.5,0,2.5-3.8,0-3.8C102.9,152.6,102.9,156.5,105.3,156.5L105.3,156.5z"/>
		</g>
	</g>
	<g>
		<g>
			<path d="M105.7,151.6c0.1-0.7,0-1.3-0.2-1.9c-0.1-0.4-0.6-1.1-0.6-1.5c-0.3,0.6-0.6,1.1-0.9,1.7c0,0,0.1,0,0.1-0.1
				c-0.6,0-1.3,0-1.9,0h0.1c-0.1-1-0.3-2-0.4-3c-0.2,0.2-0.4,0.4-0.7,0.4c0.6,0.2,1.2,0.3,1.9,0.5c-0.1-0.1-0.1-0.1-0.2-0.2
				c0.2,0.5,0.4,0.9,0.6,1.4c-0.8,0.7-0.9,1.1-0.3,1.1c0.3,0,0.5,0.1,0.8,0.1c0.4,0.1,0.8,0.1,1.3,0.2c0.9,0.2,1.8,0.4,2.8,0.6
				c2.4,0.6,3.4-3.1,1-3.7c-1.6-0.4-3.2-0.7-4.8-1c-1.5-0.2-3.2-0.3-4.1,1.1c-0.7,1.1-0.5,2.7,0.7,3.4c1.3,0.8,2.8-0.3,3.8-1.2
				c0.9-0.8,0.7-2.5-0.4-3c-1.3-0.6-2.8-0.1-3,1.4c-0.2,1.3,0.9,2.4,0.8,3.7C101.6,154.1,105.5,154,105.7,151.6L105.7,151.6z"/>
		</g>
	</g>
	<g>
		<g>
			<path d="M117.2,150.1c2.5,0,2.5-3.8,0-3.8C114.8,146.3,114.8,150.1,117.2,150.1L117.2,150.1z"/>
		</g>
	</g>
	<g>
		<g>
			<path d="M116.4,151c2.5,0,2.5-3.8,0-3.8C114,147.1,114,151,116.4,151L116.4,151z"/>
		</g>
	</g>
	<g>
		<g>
			<path d="M116.5,151.4c2.5,0,2.5-3.8,0-3.8C114,147.5,114,151.4,116.5,151.4L116.5,151.4z"/>
		</g>
	</g>
	<g>
		<g>
			<path d="M115.6,152.2c2.5,0,2.5-3.8,0-3.8S113.1,152.2,115.6,152.2L115.6,152.2z"/>
		</g>
	</g>
	<g>
		<g>
			<path d="M115.1,153c2.5,0,2.5-3.8,0-3.8S112.6,153,115.1,153L115.1,153z"/>
		</g>
	</g>
	<g>
		<g>
			<path d="M114,153.8c2.5,0,2.5-3.8,0-3.8C111.5,149.9,111.5,153.8,114,153.8L114,153.8z"/>
		</g>
	</g>
	<g>
		<g>
			<path d="M113.5,154.2c2.5,0,2.5-3.8,0-3.8S111,154.2,113.5,154.2L113.5,154.2z"/>
		</g>
	</g>
	<g>
		<g>
			<path d="M112.6,154.8c2.5,0,2.5-3.8,0-3.8S110.1,154.8,112.6,154.8L112.6,154.8z"/>
		</g>
	</g>
	<g>
		<g>
			<path d="M112,155.2c2.5,0,2.5-3.8,0-3.8S109.5,155.2,112,155.2L112,155.2z"/>
		</g>
	</g>
	<g>
		<g>
			<path d="M110.8,156.1c2.5,0,2.5-3.8,0-3.8C108.3,152.2,108.3,156.1,110.8,156.1L110.8,156.1z"/>
		</g>
	</g>
	<g>
		<g>
			<path d="M109.6,156.5c2.5,0,2.5-3.8,0-3.8C107.1,152.6,107.1,156.5,109.6,156.5L109.6,156.5z"/>
		</g>
	</g>
	<g>
		<g>
			<path d="M108.8,156.7c2.5,0,2.5-3.8,0-3.8S106.3,156.7,108.8,156.7L108.8,156.7z"/>
		</g>
	</g>
	<g>
		<g>
			<path d="M107.3,156.8c2.5,0,2.5-3.8,0-3.8S104.8,156.8,107.3,156.8L107.3,156.8z"/>
		</g>
	</g>
	<g>
		<g>
			<path d="M108.1,152.6c0.1-0.8,1.4-0.6,2-0.9c0.7-0.4,1.2-1.1,1.3-1.9c0-0.4,0-0.9-0.2-1.2c-0.2-0.5-0.3-0.5-0.4,0.1
				c-0.3,0.5-0.2,0.6,0.3,0.5c0.9,0.5,2.4,0.1,3.5,0.3c-0.4-0.3-0.8-0.6-1.1-0.9c0.1,0.1,0.1,0.2,0.2,0.2c0-0.6,0-1.3,0-1.9
				c0.1-0.2-1.4,0.3-1.7,0.4c-0.8,0.3-1.2,0.8-1.9,1.2c-1.4,0.8-3.2,0.3-4.3,1.7c-0.9,1-0.7,2.9,0.8,3.2c0.9,0.2,1.9,0.3,2.8,0.3
				c2.5-0.1,2.5-3.9,0-3.8c-0.6,0-1.2,0-1.8-0.1c0.3,1.1,0.6,2.1,0.8,3.2c-0.2,0-0.2,0,0.2-0.1c0.2,0,0.4-0.1,0.6-0.1
				c0.5-0.1,0.9-0.1,1.4-0.3c0.9-0.3,1.5-0.8,2.2-1.3c1.5-0.9,3.1-0.8,4.2-2.3c0.4-0.5,0.3-1.4,0-1.9c-0.7-1.1-1.5-1.2-2.7-1.3
				c-1.4-0.1-2.9-0.5-4.3-0.2c-2.6,0.5-3.2,3-2,5.1c-0.1-0.5-0.1-1-0.2-1.5c1-0.7,1.1-0.9,0.3-0.7c-0.3,0-0.6,0.1-0.9,0.3
				c-0.5,0.2-0.9,0.5-1.3,0.9c-0.9,0.9-1.2,1.9-1.4,3.1C104,155.1,107.9,155.1,108.1,152.6L108.1,152.6z"/>
		</g>
	</g>
	<g>
		<g>
			<path d="M108.2,149.2c0.3-0.8,0.7-1.5,1.2-2.2c0.5-0.9,0.2-2.1-0.7-2.6c-0.9-0.5-2.1-0.2-2.6,0.7c-0.5,0.7-0.8,1.5-1.2,2.2
				c-0.4,0.9-0.3,2.1,0.7,2.6C106.4,150.3,107.7,150.2,108.2,149.2L108.2,149.2z"/>
		</g>
	</g>
	<g>
		<g>
			<path d="M105.3,146.3c0.5-0.2-0.3,0.1,0.2-0.1c0.1,0,0.3-0.1,0.4-0.1c0.2-0.1-0.4,0,0.1,0c0.2,0,0.3,0,0.5,0c1,0.1,2-0.9,1.9-1.9
				c0-1.1-0.8-1.9-1.9-1.9c-1.1-0.1-2.1,0.2-3.1,0.7c-0.9,0.4-1.2,1.8-0.7,2.6C103.3,146.5,104.3,146.7,105.3,146.3L105.3,146.3z"/>
		</g>
	</g>
	<g>
		<g>
			<path d="M70.4,146c2.5,0,2.5-3.8,0-3.8C68,142.2,68,146,70.4,146L70.4,146z"/>
		</g>
	</g>
	<g>
		<g>
			<path d="M71.6,145.7c2.5,0,2.5-3.8,0-3.8S69.1,145.7,71.6,145.7L71.6,145.7z"/>
		</g>
	</g>
	<g>
		<g>
			<path d="M72.7,145.2c2.5,0,2.5-3.8,0-3.8S70.2,145.2,72.7,145.2L72.7,145.2z"/>
		</g>
	</g>
	<g>
		<g>
			<path d="M74.3,144.8c2.5,0,2.5-3.8,0-3.8S71.8,144.8,74.3,144.8L74.3,144.8z"/>
		</g>
	</g>
	<g>
		<g>
			<path d="M75.1,144.4c2.5,0,2.5-3.8,0-3.8C72.6,140.6,72.6,144.4,75.1,144.4L75.1,144.4z"/>
		</g>
	</g>
	<g>
		<g>
			<path d="M76,144.3c2.5,0,2.5-3.8,0-3.8S73.5,144.3,76,144.3L76,144.3z"/>
		</g>
	</g>
	<g>
		<g>
			<path d="M77.7,143.8c2.5,0,2.5-3.8,0-3.8C75.2,139.9,75.2,143.8,77.7,143.8L77.7,143.8z"/>
		</g>
	</g>
	<g>
		<g>
			<path d="M78.9,143.6c2.5,0,2.5-3.8,0-3.8S76.4,143.6,78.9,143.6L78.9,143.6z"/>
		</g>
	</g>
	<g>
		<g>
			<path d="M80,143.7c2.5,0,2.5-3.8,0-3.8C77.6,139.9,77.6,143.7,80,143.7L80,143.7z"/>
		</g>
	</g>
	<g>
		<g>
			<path d="M81.5,144.2c2.5,0,2.5-3.8,0-3.8C79.1,140.3,79.1,144.2,81.5,144.2L81.5,144.2z"/>
		</g>
	</g>
	<g>
		<g>
			<path d="M82.8,144.2c2.5,0,2.5-3.8,0-3.8C80.4,140.3,80.3,144.2,82.8,144.2L82.8,144.2z"/>
		</g>
	</g>
	<g>
		<g>
			<path d="M84.3,144.9c2.5,0,2.5-3.8,0-3.8C81.8,141.1,81.8,144.9,84.3,144.9L84.3,144.9z"/>
		</g>
	</g>
	<g>
		<g>
			<path d="M85.6,145.5c2.5,0,2.5-3.8,0-3.8C83.1,141.6,83.1,145.5,85.6,145.5L85.6,145.5z"/>
		</g>
	</g>
	<g>
		<g>
			<path d="M87.2,145.9c2.5,0,2.5-3.8,0-3.8C84.7,142.1,84.7,145.9,87.2,145.9L87.2,145.9z"/>
		</g>
	</g>
	<g>
		<g>
			<path d="M88.1,146.1c2.5,0,2.5-3.8,0-3.8S85.6,146.1,88.1,146.1L88.1,146.1z"/>
		</g>
	</g>
	<g>
		<g>
			<path d="M68.8,146.3c0,1.3-0.2,2.7-0.3,4c-0.1,1,1,1.9,1.9,1.9c1.1,0,1.8-0.9,1.9-1.9c0.2-1.3,0.3-2.7,0.3-4
				C72.7,143.9,68.8,143.9,68.8,146.3L68.8,146.3z"/>
		</g>
	</g>
	<g>
		<g>
			<path d="M71.9,152.9c2.5,0,2.5-3.8,0-3.8C69.4,149.1,69.4,152.9,71.9,152.9L71.9,152.9z"/>
		</g>
	</g>
	<g>
		<g>
			<path d="M87.4,148.3c2.5,0,2.5-3.8,0-3.8C85,144.4,85,148.3,87.4,148.3L87.4,148.3z"/>
		</g>
	</g>
	<g>
		<g>
			<path d="M87.1,149.9c2.5,0,2.5-3.8,0-3.8C84.6,146,84.6,149.9,87.1,149.9L87.1,149.9z"/>
		</g>
	</g>
	<g>
		<g>
			<path d="M86.8,151.1c2.5,0,2.5-3.8,0-3.8S84.3,151.1,86.8,151.1L86.8,151.1z"/>
		</g>
	</g>
	<g>
		<g>
			<path d="M86.1,152.8c2.5,0,2.5-3.8,0-3.8S83.6,152.8,86.1,152.8L86.1,152.8z"/>
		</g>
	</g>
	<g>
		<g>
			<path d="M85.1,153.9c2.5,0,2.5-3.8,0-3.8C82.7,150.1,82.7,153.9,85.1,153.9L85.1,153.9z"/>
		</g>
	</g>
	<g>
		<g>
			<path d="M84,155c2.5,0,2.5-3.8,0-3.8C81.6,151.1,81.5,155,84,155L84,155z"/>
		</g>
	</g>
	<g>
		<g>
			<path d="M83.2,155.8c2.5,0,2.5-3.8,0-3.8C80.8,151.9,80.7,155.8,83.2,155.8L83.2,155.8z"/>
		</g>
	</g>
	<g>
		<g>
			<path d="M72.7,153.7c2.5,0,2.5-3.8,0-3.8S70.2,153.7,72.7,153.7L72.7,153.7z"/>
		</g>
	</g>
	<g>
		<g>
			<path d="M73.4,154c2.5,0,2.5-3.8,0-3.8S70.9,154,73.4,154L73.4,154z"/>
		</g>
	</g>
	<g>
		<g>
			<path d="M74.4,154.6c2.5,0,2.5-3.8,0-3.8C72,150.7,72,154.6,74.4,154.6L74.4,154.6z"/>
		</g>
	</g>
	<g>
		<g>
			<path d="M75.5,155c2.5,0,2.5-3.8,0-3.8S73,155,75.5,155L75.5,155z"/>
		</g>
	</g>
	<g>
		<g>
			<path d="M76.5,155.6c2.5,0,2.5-3.8,0-3.8S74,155.6,76.5,155.6L76.5,155.6z"/>
		</g>
	</g>
	<g>
		<g>
			<path d="M77.7,156c2.5,0,2.5-3.8,0-3.8S75.2,156,77.7,156L77.7,156z"/>
		</g>
	</g>
	<g>
		<g>
			<path d="M79,156.3c2.5,0,2.5-3.8,0-3.8S76.5,156.3,79,156.3L79,156.3z"/>
		</g>
	</g>
	<g>
		<g>
			<path d="M79.9,156.3c2.5,0,2.5-3.8,0-3.8C77.5,152.5,77.5,156.3,79.9,156.3L79.9,156.3z"/>
		</g>
	</g>
	<g>
		<g>
			<path d="M81.6,156.3c2.5,0,2.5-3.8,0-3.8C79.2,152.5,79.2,156.3,81.6,156.3L81.6,156.3z"/>
		</g>
	</g>
	<g>
		<g>
			<path d="M80.6,156.4c2.5,0,2.5-3.8,0-3.8C78.1,152.6,78.1,156.4,80.6,156.4L80.6,156.4z"/>
		</g>
	</g>
	<g>
		<g>
			<path d="M83.3,145.4c-0.3,1.9-0.9,3.5-2,5.1c1.2,0.2,2.3,0.3,3.5,0.5c-0.8-2.1,1-4.6,1.1-6.8c0.1-1.6-2.2-2.6-3.3-1.4
				c-2.7,3.3-4.3,7-4.7,11.2c1.3,0,2.6,0,3.8,0c-0.1-2.9-0.3-6.2,1.8-8.6c1.4-1.7-0.3-4-2.3-3c-3.1,1.5-5.8,2.3-6.5,5.9
				c-0.5,2.4-0.6,7.1,3.3,5.5c2.6-1.1,2.6-4.2,0-5.1c-0.7-0.2-1.4-0.2-2.1-0.2s-1.9,0.4-0.8-0.4c1.2-0.9,3.3-1.1,4.7-1.9
				c2.1-1.3,0.2-4.6-1.9-3.3c-1.6,0.9-3.5,0.9-5,1.9c-1.1,0.8-1.9,2.2-2.1,3.5c-0.2,1.4,0.3,2.7,1.5,3.5c0.6,0.4,1.5,0.6,2.2,0.6
				c0.8,0,2,0.2,1.8-0.6c0.2-0.6,0.3-1.2,0.5-1.9c-0.2,0.1-0.4,0.2-0.6,0.4c0.5,0.1,1,0.1,1.5,0.2c-0.1-0.1-0.3-0.1-0.4-0.2
				c0.3,0.4,0.6,0.8,0.9,1.1c-0.2-1.3,0.1-3.2,1.2-3.9c1.1-0.8,2.6-1.2,3.8-1.8c-0.8-1-1.5-2-2.3-3c-2.8,3.3-3,7.2-2.9,11.3
				c0.1,2.5,3.6,2.4,3.8,0c0.3-3.2,1.5-6.1,3.5-8.5c-1.1-0.5-2.2-0.9-3.3-1.4c-0.1,2.8-2.1,4.9-1,7.9c0.6,1.6,2.5,1.9,3.5,0.5
				c1.3-1.8,2.1-3.8,2.4-6C87.4,144,83.7,142.9,83.3,145.4L83.3,145.4z"/>
		</g>
	</g>
	<path class="st3" d="M136,53.6l-17.9-15.3l-12.8-12.8l-5.1-2.6l-2.1-1.7c-2.5-0.2-4.5-1.2-6-2.5c-1.6-1.3-2.8-3-3.4-5l-1.3-1
		L79.8,5l-7.7-2.6L67,5l-2.6,10.2H51.7L41.5,25.5l-2.6,15.3L41.5,51l5.1,20.4l7.7,20.4L67,112.3h56.2v-2.6l7.7-15.3l5.1-12.8
		l2.6-10.2V61.2L136,53.6z"/>
	<g>
		<g>
			<path class="st3" d="M66.6,17.2c4.9,0,4.9-7.7,0-7.7C61.7,9.5,61.6,17.2,66.6,17.2L66.6,17.2z"/>
		</g>
	</g>
	<g>
		<g>
			<path class="st3" d="M62.8,120.4c4.9,0,4.9-7.7,0-7.7C57.8,112.7,57.8,120.4,62.8,120.4L62.8,120.4z"/>
		</g>
	</g>
	<g>
		<g>
			<path class="st3" d="M58,117.5c3.7,0,3.7-5.7,0-5.7S54.3,117.5,58,117.5L58,117.5z"/>
		</g>
	</g>
	<g>
		<g>
			<path class="st3" d="M59,119.2c3.7,0,3.7-5.7,0-5.7S55.3,119.2,59,119.2L59,119.2z"/>
		</g>
	</g>
	<g>
		<g>
			<path class="st3" d="M60.5,122.7c3.7,0,3.7-5.7,0-5.7C56.8,116.9,56.8,122.7,60.5,122.7L60.5,122.7z"/>
		</g>
	</g>
	<g>
		<g>
			<path class="st3" d="M60.9,125c3.7,0,3.7-5.7,0-5.7C57.2,119.2,57.2,125,60.9,125L60.9,125z"/>
		</g>
	</g>
	<g>
		<g>
			<path class="st3" d="M62.8,127.9c3.7,0,3.7-5.7,0-5.7C59.1,122.1,59,127.9,62.8,127.9L62.8,127.9z"/>
		</g>
	</g>
	<g>
		<g>
			<path class="st3" d="M63.8,131.7c3.7,0,3.7-5.7,0-5.7S60.1,131.7,63.8,131.7L63.8,131.7z"/>
		</g>
	</g>
	<g>
		<g>
			<path class="st3" d="M66.5,137.1c2.5,0,2.5-3.8,0-3.8S64,137.1,66.5,137.1L66.5,137.1z"/>
		</g>
	</g>
	<g>
		<g>
			<path class="st3" d="M66.1,134.7c2.5,0,2.5-3.8,0-3.8C63.6,130.8,63.6,134.7,66.1,134.7L66.1,134.7z"/>
		</g>
	</g>
	<g>
		<g>
			<path class="st3" d="M65.4,133.1c2.5,0,2.5-3.8,0-3.8S62.9,133.1,65.4,133.1L65.4,133.1z"/>
		</g>
	</g>
	<g>
		<g>
			<path class="st3" d="M67,124.9c-0.2-2.1-0.5-4.2-1-6.3c-0.6-2.4-4.3-1.4-3.7,1c0.4,1.7,0.8,3.5,0.9,5.2
				C63.4,127.3,67.2,127.3,67,124.9L67,124.9z"/>
		</g>
	</g>
	<g>
		<g>
			<path class="st3" d="M124,115.5c2.5,0,2.5-3.8,0-3.8S121.5,115.5,124,115.5L124,115.5z"/>
		</g>
	</g>
	<g>
		<g>
			<path class="st3" d="M126.3,115.2c2.5,0,2.5-3.8,0-3.8C123.8,111.4,123.8,115.2,126.3,115.2L126.3,115.2z"/>
		</g>
	</g>
	<g>
		<g>
			<path class="st3" d="M128.6,115.3c2.5,0,2.5-3.8,0-3.8C126.2,111.5,126.2,115.3,128.6,115.3L128.6,115.3z"/>
		</g>
	</g>
	<g>
		<g>
			<path class="st3" d="M129.5,115.3c2.5,0,2.5-3.8,0-3.8S127,115.3,129.5,115.3L129.5,115.3z"/>
		</g>
	</g>
	<g>
		<g>
			<path class="st3" d="M122,137c2.5,0,2.5-3.8,0-3.8C119.6,133.2,119.6,137,122,137L122,137z"/>
		</g>
	</g>
	<g>
		<g>
			<path class="st3" d="M122.7,134.3c2.5,0,2.5-3.8,0-3.8C120.2,130.4,120.2,134.3,122.7,134.3L122.7,134.3z"/>
		</g>
	</g>
	<g>
		<g>
			<path class="st3" d="M123.8,131.9c2.5,0,2.5-3.8,0-3.8C121.3,128.1,121.3,131.9,123.8,131.9L123.8,131.9z"/>
		</g>
	</g>
	<g>
		<g>
			<path class="st3" d="M126.7,129.1c1.1-4.2,3.8-8.3,3.3-12.8c-0.3-2.4-4.1-2.5-3.8,0c0.4,4-2.2,8-3.2,11.8
				C122.4,130.5,126.1,131.5,126.7,129.1L126.7,129.1z"/>
		</g>
	</g>
	<g>
		<g>
			<path class="st3" d="M129.1,117.1c2.5,0,2.5-3.8,0-3.8C126.6,113.3,126.6,117.1,129.1,117.1L129.1,117.1z"/>
		</g>
	</g>
	<g>
		<g>
			<path class="st3" d="M122.6,116.7c0.7,1.8-0.6,3.8-1.1,5.5c-0.5,1.8-0.6,3.6-0.5,5.5c0.2,2.4,4.1,2.5,3.8,0
				c-0.5-4.6,2.9-8.5,1-12.9C125,112.5,121.6,114.5,122.6,116.7L122.6,116.7z"/>
		</g>
	</g>
	<g>
		<g>
			<path class="st3" d="M126.3,117.2c2.5,0,2.5-3.8,0-3.8C123.8,113.4,123.8,117.2,126.3,117.2L126.3,117.2z"/>
		</g>
	</g>
	<g>
		<g>
			<path class="st3" d="M123.8,121.8c2.5,0,2.5-3.8,0-3.8S121.3,121.8,123.8,121.8L123.8,121.8z"/>
		</g>
	</g>
	<g>
		<g>
			<path class="st3" d="M60.9,17c1.9,0,1.9-3,0-3S59,17,60.9,17L60.9,17z"/>
		</g>
	</g>
	<g>
		<g>
			<path class="st3" d="M58.9,17.3c1.9,0,1.9-3,0-3C56.9,14.3,56.9,17.3,58.9,17.3L58.9,17.3z"/>
		</g>
	</g>
	<g>
		<g>
			<path class="st3" d="M43.1,58.1c1.9,0,1.9-3,0-3C41.2,55.1,41.1,58.1,43.1,58.1L43.1,58.1z"/>
		</g>
	</g>
	<g>
		<g>
			<path class="st3" d="M43.1,60c1.9,0,1.9-3,0-3C41.2,57,41.2,60,43.1,60L43.1,60z"/>
		</g>
	</g>
	<g>
		<g>
			<path class="st3" d="M41.8,60.5L41.8,60.5c0,0.8,0.7,1.6,1.5,1.5c0.8,0,1.5-0.7,1.5-1.5l0,0c0-0.8-0.7-1.5-1.5-1.5
				C42.4,59,41.8,59.7,41.8,60.5L41.8,60.5z"/>
		</g>
	</g>
	<g>
		<g>
			<path class="st3" d="M44.1,64.5c1.9,0,1.9-3,0-3C42.2,61.5,42.1,64.5,44.1,64.5L44.1,64.5z"/>
		</g>
	</g>
	<g>
		<g>
			<path class="st3" d="M44.6,66.1c1.9,0,1.9-3,0-3C42.7,63.1,42.7,66.1,44.6,66.1L44.6,66.1z"/>
		</g>
	</g>
	<g>
		<g>
			<path class="st3" d="M45.6,67.9c1.9,0,1.9-3,0-3C43.7,64.9,43.7,67.9,45.6,67.9L45.6,67.9z"/>
		</g>
	</g>
	<g>
		<g>
			<path class="st3" d="M46.3,69.9c1.9,0,1.9-3,0-3C44.4,66.9,44.4,69.9,46.3,69.9L46.3,69.9z"/>
		</g>
	</g>
	<g>
		<g>
			<path class="st3" d="M66.7,112.4c1.9,0,1.9-3,0-3C64.7,109.4,64.7,112.4,66.7,112.4L66.7,112.4z"/>
		</g>
	</g>
	<path class="st3" d="M106.6,26.7c0,0,4.9,2.2,7.7,7.7"/>
	<path class="st3" d="M117.7,37.8c0,0,8.6,5.6,17.5,15.1"/>
</g>
<g id="johnny">
	<path class="st4" d="M65.7,21.6"/>
	<g>
		<path d="M134.7,52.3c2.2,1.6,3.7,4.1,4.6,6.7c0.8,2.7,1.1,5.4,1.1,8.2c0,2.7-0.4,5.4-0.9,8.1s-1.2,5.3-2.1,7.8
			c-1.7,5.1-3.9,10-6.3,14.8c-1.2,2.4-2.5,4.7-3.9,7s-2.8,4.5-4.4,6.7l0,0l0.1-0.8c0.2,1.1,0.2,1.9,0.2,2.8c0,0.8,0,1.7-0.1,2.5
			c-0.1,1.7-0.2,3.3-0.3,5c-0.2,3.3-0.5,6.6-0.8,9.9c-0.6,6.6-1.3,13.2-2,19.8s-1.5,13.2-2.3,19.8l-2.4,19.8l-0.1,0.7l-0.7,0.1
			c-3.5,0.7-6.9,0.9-10.3,1s-6.9,0.1-10.3,0.1c-6.9-0.1-13.7-0.5-20.5-1.1l-0.6-0.1l-0.2-0.6c-0.5-1.7-0.8-3.3-1.1-5
			c-0.3-1.7-0.5-3.3-0.7-5c-0.4-3.3-0.8-6.6-1.1-9.9c-0.7-6.6-1.2-13.2-1.7-19.8l-3-39.7l0.2,0.5c-3.6-4.7-6.6-9.7-9.4-14.8
			c-2.8-5.1-5.3-10.4-7.4-15.8c-2.1-5.4-4-10.9-5.5-16.6c-1.6-5.6-2.6-11.4-3.5-17.1v0.1c-0.8-4.1-1-8.1-0.7-12.2S39.9,27,42,23.4
			c1-1.8,2.3-3.5,3.9-4.9c1.6-1.4,3.4-2.5,5.3-3.3c3.8-1.6,8-2.2,12-2.2l-0.9,0.8l0,0c0.3-1.6,0.8-3.1,1.4-4.5
			C64.2,7.8,65,6.4,66,5.1s2.4-2.4,4-3c1.6-0.7,3.5-0.7,5.1-0.3c3.3,0.8,5.8,2.8,8.1,4.9c2.3,2.1,4.2,4.5,5.5,7.3
			c-2.4-2-4.5-4.1-6.7-6s-4.7-3.5-7.3-4.2c-1.3-0.3-2.6-0.2-3.8,0.3c-1.2,0.5-2.2,1.3-3.1,2.4c-1.7,2.1-2.9,4.9-3.6,7.6l0,0L64,14.9
			h-0.8c-3.9,0-7.8,0.6-11.3,2.1c-1.7,0.8-3.3,1.8-4.8,3c-1.4,1.2-2.6,2.7-3.5,4.4c-1.9,3.3-2.8,7.1-3.2,11
			c-0.3,3.9-0.1,7.8,0.7,11.6v0.1l0,0C42,52.8,43,58.5,44.5,64c1.4,5.6,3.3,11,5.4,16.4C52,85.8,54.5,91,57.2,96s5.8,10,9.2,14.5
			l0.2,0.2v0.3l3,39.7c0.5,6.6,1.1,13.2,1.7,19.8c0.3,3.3,0.7,6.6,1.1,9.9c0.2,1.6,0.4,3.3,0.7,4.9c0.3,1.6,0.6,3.2,1,4.7l-0.8-0.7
			c6.8,0.6,13.6,1,20.4,1.1c3.4,0.1,6.8,0.1,10.2-0.1c3.4-0.1,6.8-0.4,10-1l-0.8,0.8l2.4-19.8c0.8-6.6,1.5-13.2,2.3-19.8
			c0.7-6.6,1.4-13.2,2-19.8c0.3-3.3,0.6-6.6,0.8-9.9c0.1-1.6,0.2-3.3,0.3-4.9c0-0.8,0-1.6,0.1-2.4c0-0.8,0-1.6-0.1-2.2l-0.1-0.5
			l0.2-0.3l0,0c2.8-4.4,5.4-9,7.8-13.7s4.5-9.5,6.1-14.5c0.9-2.5,1.6-5,2.1-7.5s1-5.1,1-7.7c0.1-2.6-0.1-5.1-0.7-7.6
			C136.9,57.1,135.9,54.7,134.7,52.3z"/>
	</g>
	<g>
		<path d="M64.1,14.1c-0.8,8-1,16.2-0.7,24.3c0.2,8.1,0.9,16.2,2.2,24.2s3.1,15.9,5.8,23.6c1.3,3.8,2.9,7.6,4.6,11.2l2.7,5.4
			c0.8,1.9,1.8,3.7,2.3,5.7c-3.2-2.8-5.3-6.4-7.1-10.1c-1.8-3.7-3.5-7.5-4.8-11.4c-2.8-7.8-4.8-15.8-6.1-23.9
			c-1.3-8.1-2-16.3-2.1-24.6c-0.1-4.1,0-8.2,0.2-12.3s0.5-8.2,1.1-12.3L64.1,14.1z"/>
	</g>
	<g>
		<path d="M106.6,26.7c-1.8-0.6-3.4-1.4-5-2.1s-3.2-1.5-4.8-1.8c-1.6-0.4-3.3-0.4-4.6,0.3c-1.3,0.7-2.2,2.1-2.9,3.6
			c-1.2,3.1-1.7,6.7-1.9,10.2c-0.2,3.5-0.1,7.1,0,10.7c0.3,7.2,1,14.3,1.9,21.4c0.4,3.6,0.9,7.1,1.4,10.7l0.3,2.7
			c0.1,0.9,0.2,1.8,0.2,2.7c0.1,1.8,0.2,3.6,0,5.5c-0.7-1.7-1.2-3.5-1.7-5.2c-0.5-1.8-0.8-3.5-1.1-5.3c-0.6-3.6-1.1-7.1-1.6-10.7
			c-1-7.2-1.7-14.4-2-21.6c-0.1-3.6-0.1-7.3,0.1-10.9c0.3-3.7,0.8-7.4,2.3-10.9c0.8-1.7,2-3.5,3.9-4.5s4.1-0.9,6-0.4
			s3.6,1.3,5.1,2.3C103.9,24.2,105.4,25.4,106.6,26.7z"/>
	</g>
	<g>
		<path d="M114.3,34.4c2.3,2,4.3,4.3,5.8,7s2.3,5.8,2.7,8.8c0.8,6.1,0.3,12.2-0.3,18.1c-0.7,6-1.8,11.9-3.1,17.7
			c-0.7,2.9-1.3,5.8-2,8.8c-0.8,2.9-1.7,5.8-3.1,8.5c0-3.1,0.4-6,0.9-9l1.8-8.8c1.1-5.9,2.2-11.7,2.9-17.6
			c0.8-5.9,1.3-11.8,0.8-17.6c-0.3-2.9-1-5.7-2.2-8.3C117.3,39.6,115.6,37.1,114.3,34.4z"/>
	</g>
	<path class="st5" d="M65.3,112.3H54.2c0,0,10.8,26.2,12.8,25.5"/>
	<path class="st5" d="M121.9,111h10.2c0,0-4.8,23.1-11.4,26.9"/>
	<path class="st4" d="M70.5,170.7c0,0-7.4,19.6-9.9,45.1c0,0,15.3,17.9,53.7,20.4c0,0,46,2.6,43.4-12.8"/>
	<path class="st4" d="M117.1,166.9c0,0,27.9,38.7,33,54.1l2.6,7.7"/>
	<path class="st4" d="M190.9,182.6c0,0-20.4,7.7-23,15.3c0,0-20.1-0.7-27.9,3.5"/>
	<path class="st4" d="M40.2,223.5c0,0,17.9-7.7,20.4-7.7"/>
	<path class="st6" d="M90,143c-7.7-2.6-10.5-5.1-21.8,0"/>
	<path class="st6" d="M95.1,143c5.1-2.6,11-6.7,24.7-0.8"/>
	<path class="st6" d="M68.8,151"/>
	<path class="st6" d="M68.7,149.7"/>
	<path class="st6" d="M69.6,160.3c-10.2-4.6-20.5-22.6-1.3-16.2"/>
	<path class="st6" d="M118,159c7.8-3.3,21.4-21.6,1.8-16.3"/>
	<path class="st6" d="M68.8,151.5c5.8,4.2,18.6,11.9,21.2-8.6c0,0,3-2.8,5.3-0.1c0,0,6.7,26.3,23.7,6.8"/>
	<g>
		<path class="st7" d="M113,166c0,0,0,12.8-2.6,12.8s-7.7-7.7-15.3-5.1C95.1,173.6,110.4,171.1,113,166z"/>
		<path d="M113.1,165.7c0.1,0,0.2,0.1,0.2,0.3c0,0.1,0,0.1,0,0.1l0,0v0.1v0.1v0.2v0.5v1l-0.1,1.9c-0.1,1.3-0.2,2.5-0.4,3.8
			c-0.2,1.3-0.4,2.5-0.8,3.7c-0.1,0.3-0.2,0.6-0.4,0.9c-0.2,0.3-0.4,0.6-0.8,0.7c-0.8,0.1-1.4-0.3-1.9-0.6c-1.1-0.7-2.1-1.5-3.1-2.2
			s-2.1-1.4-3.2-1.9s-2.4-0.8-3.6-0.9c-1.3-0.1-2.5,0.1-3.7,0.4l0,0l0,0c3.3-0.6,6.5-1.5,9.6-2.6c1.6-0.6,3.1-1.2,4.5-2
			c0.7-0.4,1.4-0.9,2-1.4c0.3-0.3,0.6-0.5,0.9-0.8c0.1-0.1,0.2-0.3,0.4-0.5c0,0,0.2-0.3,0.3-0.4C112.8,165.8,113,165.7,113.1,165.7z
			 M112.9,166.3c0,0.2,0.2,0.2,0,0.4c-0.1,0.2-0.3,0.4-0.4,0.5c-0.3,0.3-0.6,0.6-0.9,0.9c-0.7,0.5-1.4,1-2.1,1.4
			c-1.5,0.8-3,1.4-4.6,1.9c-3.2,1-6.4,1.8-9.7,2.3l0,0l0,0c1.2-0.3,2.5-0.6,3.7-0.5c1.3,0.1,2.5,0.4,3.7,0.9s2.3,1.2,3.3,1.9
			c1.1,0.7,2,1.5,3.1,2.1c0.5,0.3,1.1,0.6,1.6,0.5c0.5-0.2,0.8-0.8,1-1.4c0.4-1.2,0.6-2.4,0.7-3.7c0.1-1.2,0.2-2.5,0.3-3.8l0.1-1.9
			v-0.9v-0.5v-0.2v-0.1V166l0,0c0,0,0,0,0,0.1S112.8,166.3,112.9,166.3z"/>
	</g>
	<g>
		<path d="M92.6,145.5c0.3,1.3,0.3,2.6,0.3,3.8c0,1.3-0.1,2.6-0.3,3.8c-0.3-1.3-0.3-2.6-0.3-3.8C92.3,148.1,92.3,146.8,92.6,145.5z"
			/>
	</g>
	<g>
		<path class="st6" d="M92.6,158.3c0-1.4-2.3-2.6-5.1-2.6"/>
		<path class="st6" d="M92.6,158.3c0-1.4,2.3-2.6,5.1-2.6"/>
	</g>
	<line class="st4" x1="151.6" y1="225.7" x2="152.6" y2="231.1"/>
	<g>
		<path d="M72.1,135.3c1.5-0.9,2.7-2.2,4.1-3.3c1.3-1.1,3-2.1,4.9-2.2c1.9,0,3.6,0.8,5,1.9c0.4,0.2,0.7,0.5,1.1,0.8l1,0.9
			c0.6,0.6,1.2,1.3,1.8,1.9l-2-1.7l-1.1-0.8c-0.3-0.3-0.7-0.5-1.1-0.7c-1.4-0.9-3.1-1.7-4.7-1.7c-1.7,0-3.2,0.9-4.6,1.9
			C75.1,133.4,73.8,134.6,72.1,135.3z"/>
	</g>
</g>
</svg>
