<?xml version="1.0" encoding="utf-8"?>
<!-- Generator: Adobe Illustrator 22.1.0, SVG Export Plug-In . SVG Version: 6.00 Build 0)  -->
<svg version="1.1" id="Layer_2" xmlns="http://www.w3.org/2000/svg" xmlns:xlink="http://www.w3.org/1999/xlink" x="0px" y="0px"
	 viewBox="0 0 205 250.3" style="enable-background:new 0 0 205 250.3;" xml:space="preserve">
<style type="text/css">
	.st0{fill:#1D74B5;}
	.st1{fill:#EEF6F8;stroke:#000000;stroke-miterlimit:10;}
	.st2{fill:#EEF6F8;}
	.st3{fill:none;stroke:#000000;stroke-miterlimit:10;}
	.st4{fill:#BAC9E3;}
	.st5{fill:#BAC9E3;stroke:#000000;stroke-miterlimit:10;}
	.st6{fill:none;stroke:#000000;stroke-width:0.5;stroke-miterlimit:10;}
	.st7{fill:none;stroke:#000000;stroke-width:0.75;stroke-miterlimit:10;}
	.st8{fill:#FFFFFF;}
</style>
<g id="Bg">
	<g>
		<ellipse class="st0" cx="102.8" cy="148.1" rx="95.8" ry="95.8"/>
		<path d="M102.8,58.7c49.3,0,89.4,40.1,89.4,89.4s-40.1,89.4-89.4,89.4s-89.4-40.1-89.4-89.4S53.5,58.7,102.8,58.7 M102.8,45.9
			C46.3,45.9,0.6,91.7,0.6,148.1s45.8,102.2,102.2,102.2S205,204.5,205,148.1S159.2,45.9,102.8,45.9L102.8,45.9z"/>
	</g>
</g>
<path d="M46.1,221l14.5-5.2c0,0,42.2,32.9,92,15.3C102.8,251.3,74.4,237,46.1,221z"/>
<path d="M152.6,231.6c2-2.4-7.1-26.2-12.6-30.2c10.2-5.2,27.9-3.5,27.9-3.5s6.4-9.4,16.9-12.7C184.8,185.2,175.4,226.3,152.6,231.6z
	"/>
<path class="st1" d="M60.6,215.8c0,0,6-39.8,9.4-43.5c2.6,16.4,3.2,17.9,3.2,17.9s34.4,2.1,40.8,0c2.1-11.6,3.2-21.7,3.2-21.7
	s34.2,41.7,35.4,62.6C121.9,242.8,90.5,235.1,60.6,215.8z"/>
<path class="st2" d="M66.7,112.4c0,0,1.3,51.2,6.5,77.8c22.6,4.1,40.8,0,40.8,0s6.2-24.2,6.9-77.8H66.7z"/>
<path class="st3" d="M65.8,112.4c0,0,4.9,73.8,7.4,77.8c0,0,29.2,2.4,40.8,0c4.1-18.5,7.5-77.6,7.5-77.6"/>
<path class="st4" d="M66.7,112.4h54.2c0,0,40.5-51.4-0.8-72.3c-6.3-10.5-23.3-22.9-27.7-18.9c-6.2-17.3-26.3-31-30.3-7.3
	C37.6,13.4,25.1,44.8,66.7,112.4"/>
<path class="st5" d="M120.2,139.4c0,0,9.7-5.8,12.4-26.6l-11.1-0.1L120.2,139.4z"/>
<path class="st5" d="M67.5,139.4c0,0-9.7-5.8-12.4-26.6l11.1-0.1L67.5,139.4z"/>
<g>
	<path d="M66.2,112.6c-5.3-8.2-10-16.8-14.1-25.7c-4.1-8.9-7.8-18-10.3-27.5c-1.3-4.7-2.2-9.6-2.7-14.5c-0.4-4.9-0.4-10,0.9-14.8
		c0.7-2.4,1.6-4.8,3-6.9c1.4-2.1,3.2-3.9,5.3-5.3c4.2-2.8,9.2-3.8,14-4c-2.4,0.3-4.8,0.8-7.1,1.6c-2.3,0.8-4.5,1.8-6.4,3.3
		c-3.9,2.8-6.3,7.2-7.3,11.8c-1.1,4.6-1.1,9.5-0.5,14.2c0.5,4.8,1.5,9.5,2.8,14.2c1.2,4.7,2.8,9.3,4.4,13.8
		c1.6,4.6,3.5,9.1,5.4,13.5c1.9,4.5,4,8.9,6.1,13.3C61.6,104,63.9,108.3,66.2,112.6z"/>
</g>
<g>
	<path d="M80.1,107c-3.2-8.6-6.1-17.4-8.7-26.2c-2.6-8.9-4.9-17.8-6.8-26.8c-1.9-9-3.4-18.2-3.9-27.5c-0.2-4.6-0.1-9.3,0.8-14
		c0.5-2.3,1.3-4.6,2.6-6.7c0.7-1,1.5-2,2.5-2.7c1-0.7,2.2-1.3,3.4-1.5l0,0c1-0.3,2-0.5,3.1-0.5C74,1,75,1.2,76,1.4
		C78,2,79.8,3,81.4,4.3C83,5.6,84.3,7,85.5,8.6c1.2,1.6,2.3,3.3,3.2,5.1c-1-1.7-2.2-3.3-3.5-4.8c-1.3-1.5-2.7-2.9-4.3-4
		c-1.6-1.2-3.3-2-5.2-2.4c-0.9-0.2-1.9-0.3-2.8-0.2c-0.9,0.1-1.9,0.3-2.8,0.5l0,0c-1,0.3-2,0.8-2.8,1.4c-0.8,0.7-1.5,1.5-2.1,2.4
		c-1.1,1.9-1.8,4-2.2,6.2c-0.8,4.4-0.8,9-0.6,13.6c0.2,4.6,0.8,9.1,1.5,13.6c0.7,4.5,1.5,9.1,2.4,13.6c1.8,9,4,17.9,6.3,26.9
		C75,89.3,77.4,98.2,80.1,107z"/>
</g>
<g>
	<path d="M91.3,89.3c-1.6-5.8-2.9-11.7-4-17.6c-1.1-5.9-2-11.9-2.6-17.8c-0.6-6-1-12-0.6-18.1c0.2-3,0.6-6.1,1.6-9.1
		c0.5-1.5,1.2-2.9,2.3-4.2c0.6-0.6,1.3-1.1,2.1-1.5c0.8-0.3,1.7-0.5,2.5-0.4l-0.1,0c1.5-0.1,2.9,0,4.4,0.3c1.4,0.3,2.8,0.7,4.2,1.3
		c2.6,1.2,5,3,6.7,5.4c-0.9-1.1-2.1-2-3.2-2.8c-1.2-0.8-2.4-1.4-3.7-1.9c-2.6-1-5.4-1.3-8.2-1l0,0l0,0c-1.3,0-2.6,0.6-3.4,1.6
		c-0.9,1-1.4,2.3-1.8,3.7c-0.8,2.8-1.1,5.7-1.3,8.7c-0.2,3-0.1,5.9,0,8.9c0.1,3,0.3,5.9,0.6,8.9c0.5,5.9,1.3,11.9,2.1,17.8
		C89.5,77.4,90.4,83.3,91.3,89.3z"/>
</g>
<g>
	<path d="M115.6,100.4c1-5.5,2-11.1,2.9-16.6c0.4-2.8,0.9-5.5,1.2-8.3c0.4-2.8,0.7-5.5,0.9-8.3c0.3-2.8,0.5-5.6,0.5-8.3
		c0.1-2.8,0.1-5.6-0.1-8.3c-0.2-2.8-0.6-5.5-1.4-8.1c-0.8-2.6-2.1-5.2-4.3-7c2.5,1.4,4.1,4,5.2,6.6c1.1,2.7,1.7,5.5,2,8.3
		c0.7,5.7,0.5,11.4,0,17c-0.5,5.6-1.4,11.2-2.6,16.7C118.8,89.6,117.4,95.1,115.6,100.4z"/>
</g>
<g>
	<path d="M134.7,52.3c3.5,4.2,5.4,9.8,5.5,15.4c0.1,2.8-0.1,5.6-0.5,8.3c-0.5,2.7-1.2,5.4-2,8.1c-1.7,5.3-4,10.3-6.8,15.1
		c-2.7,4.8-5.8,9.3-9.4,13.5c1.4-2.3,2.9-4.6,4.2-7c1.3-2.4,2.6-4.8,3.8-7.2c2.4-4.8,4.6-9.8,6.2-14.9c1.6-5.1,2.8-10.4,2.9-15.7
		C138.8,62.4,137.5,57,134.7,52.3z"/>
</g>
<path class="st3" d="M121.5,112.6c0,0,11-17.2,13.8-25.6"/>
<path class="st3" d="M66.2,112.6c0,0-20.6-33.1-22.1-50.2"/>
<path d="M68.7,151.8c0,0,18.8,15.4,21.3-8.8c-11-6.6-22-0.8-22-0.8L68.7,151.8z"/>
<path d="M118.6,151.3c0,0-16.1,17.2-23.3-8.5c11-6.6,16.9-3.4,23.9-1.1L118.6,151.3z"/>
<path class="st6" d="M89.7,143.3c0,0,2.9-3.7,6,0"/>
<g>
	<path d="M92.6,145.5c0.2,1.3,0.2,2.5,0.2,3.8c0,1.3-0.1,2.5-0.2,3.8c-0.2-1.3-0.2-2.5-0.2-3.8C92.4,148,92.4,146.8,92.6,145.5z"/>
</g>
<path class="st7" d="M87.5,155.7c0,0,4.3,0.1,5,2.2c0.5-2,5.2-2.2,5.2-2.2"/>
<g>
	<path class="st8" d="M95.3,173.8c0,0,17.4-3,17.7-7.8c-0.1,4.1,0.4,11.4-2.2,13C108,180.1,103.7,172,95.3,173.8z"/>
	<path d="M95.3,173.8c3.3-0.7,6.5-1.6,9.6-2.7c1.6-0.5,3.1-1.2,4.6-1.9c0.7-0.4,1.4-0.8,2-1.3c0.6-0.5,1.1-1.2,1.1-1.9l0,0
		c0-0.2,0.2-0.3,0.4-0.3c0.2,0,0.3,0.2,0.3,0.4c-0.1,2.2,0,4.5-0.1,6.8c-0.1,1.1-0.2,2.3-0.5,3.4c-0.3,1.1-0.7,2.3-1.8,3.1
		c0,0,0,0,0,0l0,0c-0.9,0.3-1.7,0-2.3-0.4c-0.7-0.4-1.2-0.8-1.8-1.2c-1.1-0.9-2.3-1.7-3.5-2.4c-1.2-0.7-2.5-1.2-3.9-1.5
		C98.1,173.5,96.7,173.6,95.3,173.8z M95.3,173.8c1.4-0.3,2.8-0.4,4.2-0.2c1.4,0.2,2.8,0.7,4,1.4c1.3,0.7,2.4,1.5,3.6,2.3
		c0.6,0.4,1.2,0.8,1.8,1.1c0.6,0.3,1.2,0.5,1.7,0.3l0,0c0.8-0.6,1.2-1.6,1.5-2.7c0.2-1.1,0.3-2.2,0.4-3.3c0.1-2.2,0.1-4.5,0.2-6.8
		l0.7,0c-0.1,1-0.7,1.8-1.4,2.3c-0.7,0.6-1.4,1-2.2,1.4c-1.5,0.8-3.1,1.3-4.7,1.8c-1.6,0.5-3.2,0.9-4.9,1.3
		C98.6,173.2,97,173.6,95.3,173.8z"/>
</g>
<g>
	<path d="M72.1,135.3c1-1.5,2.3-2.7,3.8-3.7c1.5-1,3.3-1.6,5.2-1.7c1.8,0,3.7,0.5,5.2,1.6c0.2,0.1,0.4,0.2,0.6,0.4l0.5,0.5l1,0.9
		c0.6,0.7,1.1,1.4,1.6,2.1c-0.7-0.6-1.3-1.2-2-1.7l-1.1-0.7l-0.5-0.4c-0.2-0.1-0.4-0.2-0.6-0.3l-1.1-0.6l-1.2-0.4
		c-0.4-0.2-0.8-0.1-1.2-0.2c-0.2,0-0.4-0.1-0.6-0.1l-0.6,0c-1.7,0-3.3,0.6-4.8,1.4C74.8,133.1,73.4,134.1,72.1,135.3z"/>
</g>
<path class="st4" d="M120.9,112.4"/>
</svg>
