<?xml version="1.0" encoding="utf-8"?>
<!-- Generator: Adobe Illustrator 22.1.0, SVG Export Plug-In . SVG Version: 6.00 Build 0)  -->
<svg version="1.1" xmlns="http://www.w3.org/2000/svg" xmlns:xlink="http://www.w3.org/1999/xlink" x="0px" y="0px"
	 viewBox="0 0 117.5 232" style="enable-background:new 0 0 117.5 232;" xml:space="preserve">
<style type="text/css">
	.st0{display:none;}
	.st1{fill:#212F51;}
	.st2{fill:#EBF2F1;}
	.st3{fill:#98B4C9;}
	.st4{fill:#020202;}
	.st5{fill:#FFFFFF;}
	.st6{fill:#98B4C9;stroke:#000000;stroke-width:0.1986;stroke-miterlimit:10;}
</style>
<g id="Layer_1" class="st0">
	
		<image style="display:inline;overflow:visible;" width="275" height="183" xlink:href="images.jpg"  transform="matrix(1 0 0 1 -232.5 -241.6679)">
	</image>
	
		<image style="display:inline;overflow:visible;" width="168" height="300" xlink:href="images.png"  transform="matrix(1 0 0 1 -57.5 -67.6667)">
	</image>
	
		<image style="display:inline;overflow:visible;" width="1024" height="768" xlink:href="johnny_bravo_and_mary_kiss_again_by_crawfordjenny-d8pfoad.jpg"  transform="matrix(0.5635 0 0 0.5635 138.5 -200.4167)">
	</image>
	
		<image style="display:inline;overflow:visible;" width="1090" height="614" xlink:href="johnny-bravo-cartoon.jpg"  transform="matrix(-0.3744 0 0 0.3744 -161.2583 -24.0916)">
	</image>
</g>
<g id="Layer_2">
	<g>
		<path class="st1" d="M46.2,223.1c1.2-0.2,2.7-0.1,3.8-0.5c1.2-0.4,1-0.4,0.6-1.6c-0.1-0.4-0.3-0.8-0.4-1.1
			c-0.4-1.1-0.9-2.3-1.4-3.4c-1-2.3-2.1-4.6-3.2-6.9c-3.4-6.8-7.2-13.4-11.2-19.8c-1.9-3.1-3.9-6.1-6.2-9c-1-1.3-3.5-4.7-5.6-4.2
			c-2.4,1.4-2.1,7.1-1.7,9.3c0.4,2.1,1.2,4.2,2.2,6.1c1.7,3.3,4.3,5.8,6.7,8.7c3.8,4.7,6.5,10,9.6,15.1c1.3,2.2,2.7,4.3,4.1,6.5
			C44.2,223.5,44.9,223.3,46.2,223.1z"/>
		<path class="st1" d="M68.6,220.2c0.1-0.1,0.1-0.2,0.1-0.3c0-0.5-1.3-1.7-1.7-2.2c-0.5-0.7-1-1.4-1.5-2.2c-1.4-2.2-2.3-4.9-4.4-6.6
			c-0.8-0.7-1.7-1.2-2.6-1.6c-1.3-0.6-2-0.8-3.4-0.2c-1,0.4-1.4,0.4-1.3,1.3c0,0.4,0.2,0.9,0.5,1.3c0.5,0.6,1.3,0.8,1.9,1.3
			c0.8,0.7,1.3,2,1.8,2.8c0.5,0.8,1.1,1.7,1.6,2.5c1.1,1.7,2.2,3.4,3.3,5.2C65,221,66.8,220.6,68.6,220.2z"/>
		<path d="M51.6,222.7c-0.1,0-0.1,0-0.2,0c-2.5,0.3-5,0.7-7.5,1c0,0,0,0-0.1,0c-0.3,1.1-1.4,1.6-2.4,2c-2.7,0.9-5.5,1.1-8,2.6
			c-0.1,0.1-2.5,1.6-2.4,2c0.1,0.5,1.7,0.3,2,0.3c1.8,0.1,3.6,0.1,5.4,0.2c1.9,0.1,3.9,0.1,5.8,0.2c0.9,0,1.9,0.3,2.6-0.4
			c0.7-0.6,1.1-1.8,1.6-2.5c0.1-0.1,0.5-0.3,0.6-0.1c0.2,0.4,0.4,1.7,0.9,2.4c1.2-1.3,2.6-2.2,4.2-2.9
			C53.5,225.7,52.7,224.1,51.6,222.7z"/>
		<path d="M63.3,221.9c-0.1,0.1-0.1,0.2-0.2,0.2c-0.4,0.8,0.2,1.6-0.4,2.4c-1.2,1.5-3.8,1.7-5.6,2.1c-1.9,0.5-5.2,1.4-6.3,3.1
			c-0.7,1.1,0.9,0.8,1.7,0.8c1.2,0,2.3,0.1,3.5,0.1c2.2,0.1,4.4,0.1,6.6,0.2c1,0,2.2,0.3,3.1-0.1c0.9-0.5,1.5-1.9,2-2.8
			c0.1-0.1,0.5-0.3,0.6-0.1c0.6,1.5,0.7,2.6,2.4,2.9c1.1,0.2,2.3,0.1,3.4,0.1c-0.3-3.9-2.3-7.5-5-10.3
			C67.1,221,65.2,221.4,63.3,221.9z"/>
		<path d="M69.8,220.2c-1.4-1.7-2.7-3.5-3.9-5.3c-1-1.5-1.7-3.2-2.7-4.7c-1.5-2.2-4.7-4.1-7.4-4c-2,0.1-3.1,2-1.8,3.7
			c0.6,0.8,1.6,1.1,2.3,1.9c0.8,0.9,1.4,2.1,2,3.2c1.4,2.2,2.9,4.5,4.3,6.7c0,0,0,0.1,0,0.1c0.2,2.1-0.2,3.2-2.3,3.8
			c-1.4,0.4-2.8,0.6-4.2,1c-0.5,0.1-0.9,0.3-1.4,0.5c-0.7-2-1.8-3.8-3.2-5.5c0,0,0,0-0.1,0c-3.9-10.2-9.2-19.8-14.8-29.2
			c-2.6-4.3-5.2-8.6-8.4-12.4c-1.2-1.5-3.5-4.3-5.7-3.6c0,0-0.1,0-0.1,0c0,0,0,0,0,0c-1.9,1-2.1,4.4-2.2,6.3
			c-0.1,2.6,0.5,5.1,1.6,7.5c1.8,4.1,4.7,7.1,7.4,10.5c2.5,3.1,4.5,6.4,6.5,9.8c2.5,4.4,5.2,8.6,7.9,12.8c-0.1,0-0.1,0.1-0.1,0.1
			c-0.2,2.6-4.9,2.7-6.9,3.4c-2.4,0.7-4.5,2-6.2,3.9c-0.1,0.1,0,0.1,0.1,0.1c4.4,0.1,8.7,0.3,13.1,0.4c0.9,0,2.6,0.4,3.4,0
			c0.7-0.4,1.3-1.7,1.8-2.6c0.3,0.8,0.6,1.6,0.9,2.4c0,0,0.1,0,0.1,0c0.2,0,0.4,0,0.6,0c0.1,0,0.3-0.1,0.4-0.1
			c3.8,0.1,7.6,0.2,11.4,0.3c1,0,3.2,0.5,4.1,0.1c0.7-0.4,1.3-1.7,1.8-2.7c0.3,0.8,0.6,1.6,0.9,2.3c0,0.1,0.1,0.1,0.2,0.1
			c1.8,0,3.6,0.1,5.4,0.1c0.1,0,0.4-0.1,0.4-0.2c-0.3-4-2.2-7.7-5.1-10.5C69.7,220.3,69.8,220.3,69.8,220.2z M59.8,216.3
			c-0.5-0.8-1.1-1.7-1.6-2.5c-0.6-0.9-1.1-2.1-1.8-2.8c-0.5-0.5-1.4-0.6-1.9-1.3c-0.3-0.3-0.5-0.8-0.5-1.3c-0.1-1,0.3-0.9,1.3-1.3
			c1.4-0.6,2.1-0.4,3.4,0.2c0.9,0.4,1.8,1,2.6,1.6c2,1.7,3,4.4,4.4,6.6c0.5,0.7,1,1.5,1.5,2.2c0.3,0.4,1.6,1.7,1.7,2.2
			c0,0.1,0,0.2-0.1,0.3c-1.8,0.5-3.7,0.8-5.5,1.3C62,219.7,60.9,218,59.8,216.3z M39.4,215.8c-3.1-5.1-5.8-10.4-9.6-15.1
			c-2.3-2.9-4.9-5.4-6.7-8.7c-1-1.9-1.9-4-2.2-6.1c-0.4-2.2-0.6-7.9,1.7-9.3c2-0.5,4.5,2.9,5.6,4.2c2.3,2.8,4.3,5.9,6.2,9
			c4,6.4,7.9,13,11.2,19.8c1.1,2.3,2.2,4.6,3.2,6.9c0.5,1.1,0.9,2.2,1.4,3.4c0.1,0.4,0.3,0.8,0.4,1.1c0.4,1.2,0.6,1.2-0.6,1.6
			c-1.1,0.4-2.6,0.3-3.8,0.5c-1.4,0.2-2,0.3-2.8-0.8C42.1,220.1,40.7,218,39.4,215.8z M49.9,230.2c-0.5-0.7-0.7-1.9-0.9-2.4
			c-0.1-0.1-0.5,0-0.6,0.1c-0.5,0.8-1,1.9-1.6,2.5c-0.7,0.7-1.7,0.4-2.6,0.4c-1.9-0.1-3.9-0.1-5.8-0.2c-1.8-0.1-3.6-0.1-5.4-0.2
			c-0.3,0-1.9,0.2-2-0.3c-0.1-0.4,2.3-1.9,2.4-2c2.5-1.6,5.3-1.7,8-2.6c1-0.4,2.1-0.9,2.4-2c0,0,0,0,0.1,0c2.5-0.3,5-0.7,7.5-1
			c0,0,0.1,0,0.2,0c1,1.4,1.9,3,2.5,4.6C52.5,228,51.1,229,49.9,230.2z M74.1,230.8c-1.1,0-2.3,0.1-3.4-0.1
			c-1.7-0.2-1.9-1.4-2.4-2.9c-0.1-0.2-0.5,0-0.6,0.1c-0.5,0.8-1.2,2.3-2,2.8c-0.9,0.4-2.1,0.2-3.1,0.1c-2.2-0.1-4.4-0.1-6.6-0.2
			c-1.2,0-2.3-0.1-3.5-0.1c-0.8,0-2.4,0.3-1.7-0.8c1.1-1.8,4.4-2.7,6.3-3.1c1.7-0.4,4.3-0.6,5.6-2.1c0.7-0.8,0-1.7,0.4-2.4
			c0-0.1,0.1-0.2,0.2-0.2c1.9-0.4,3.8-0.9,5.7-1.3C71.8,223.3,73.8,226.9,74.1,230.8z"/>
		<polygon class="st2" points="37.8,44.8 44.4,52 43.8,56.4 35.1,50.9 		"/>
		<g>
			<g>
				<path d="M72.2,214.1c2.3,5.7,4.7,11.4,7,17.1c-0.9-5.6-1.8-11.3-2.7-16.9C75.1,214.2,73.6,214.1,72.2,214.1z"/>
			</g>
			<g>
				<path class="st3" d="M44.8,80.9c5.6-0.6,13.6-0.9,22.8,1c6.3,1.3,11.6,3.3,15.7,5.2c0,0,11.4,8,12.7,27.6
					c0.2,2.4,0.3,5.1-1.2,7.7c-1,1.7-1.9,2-3.2,4.4c-1,1.7-2,3.6-1.8,5.8c0.1,0.6,0.4,2.5,4.6,6.2c3,2.6,5.3,3.9,6.4,4.6
					c5.4,3.6,5.9,12.2,6.4,18.7c0.8,12.2-2.7,21.5-6,30c-3.2,8.4-4.9,12.6-8.7,16.3c-8.2,7.8-20.6,8.8-25.2,7.7
					C44.8,211,44,124.8,44.8,80.9z"/>
				<g>
					<path d="M44.7,81c7.9-0.8,15.9-0.5,23.6,1.2c4.9,1.1,11.4,2.4,15.6,5.6c7.3,5.7,10.8,16.4,11.7,25.2c0.4,4.4,0,7.7-2.5,11.3
						c-1.5,2.2-3.5,4.6-3.5,7.4c0,4,4.4,7.1,7.3,9.2c2,1.4,4.2,2.5,5.8,4.4c2.2,2.6,3,6.2,3.5,9.4c1.1,7.3,1.1,14.8-0.4,22
						c-1.4,6.6-3.9,12.9-6.4,19.2c-3,7.5-6.7,13.5-14.4,17c-8.4,3.8-19,5.4-25-2.7c-4.7-6.3-6.8-14.6-8.5-22.2
						c-2.3-10.3-3.6-20.9-4.5-31.4c-2.2-25.2-2.4-50.6-1.9-75.9c0-0.2-0.6-0.1-0.6,0.1c-0.4,24.5-0.3,49,1.7,73.4
						c1,11.9,2.3,23.8,5.1,35.4c1.8,7.6,4,16.3,9.4,22.2c4.9,5.4,11.9,5,18.6,3.3c5.3-1.3,10.5-3.9,14.3-7.9
						c4.3-4.6,6.3-11.1,8.4-16.8c2.8-7.3,5.1-14.7,5.5-22.6c0.3-6.3,0.2-13.8-2.4-19.7c-2.7-6.1-9.5-7.7-13.4-12.9
						c-4.6-6.1,3.5-10.6,4.6-16.3c1.9-10-3.5-25.3-11.9-31.7c-4.2-3.2-10.6-4.5-15.6-5.6c-7.9-1.7-15.9-2.1-23.9-1.2
						C44.5,80.7,44.3,81.1,44.7,81z"/>
				</g>
			</g>
			<g>
				<path class="st2" d="M72.4,93.9c-2.1-2.4-6.7-6.9-14-9.5c-2.8-1-10.1-3.5-18.8-1.1C29,86.2,23.5,94.4,21.9,97.1
					c-5.7,9.5-4.4,18.9-4,22.5c0.6,4.5,1.9,8,2.9,10.3c0.5,0,4.4,0.4,6.4,3.4c2.4,3.8-0.3,8.4-0.8,9.3c-2.4,4-6.5,5.1-7.4,5.3
					c-1,3-2.1,7.4-2.4,12.7c-0.7,13.7,4.5,24.4,7.9,29.9c9.2,14.7,22.7,20.3,27.3,22c6.3,2.3,12.4,4.9,20.1,3.2
					c10-2.2,15.7-10,17.5-12.4c4.9-6.7,5.8-13,7.1-22.5c1.5-10.3,2.7-18.6-1.6-27.5c-2.2-4.5-4.5-9.5-9.8-11.9
					c-3.8-1.7-7.5-1.3-9.3-4.2c-1.2-1.9-1.2-4.6-0.3-6.6c1.6-3.5,5.2-2.9,7.1-6.1c1.3-2.1,0.9-4.6,0-9.5c-1.4-7.7-4.5-13.1-5.8-15.1
					C75.3,97.2,73.7,95.2,72.4,93.9z"/>
				<g>
					<path d="M73.1,93.6c-10.7-11.8-28.9-15.7-42.5-6.5c-14.1,9.6-16.9,27.9-10.5,42.9c0,0.1,0.2,0.1,0.3,0.2
						c6.5,0.6,8.6,6.7,5.6,12c-0.7,1.3-1.7,2.5-2.9,3.4c0.1-0.1-3.8,1.6-4.2,2c-0.8,0.9,0-0.3-1,1.5c-2.1,3.8-2.1,10.1-2.1,14.4
						c0,5.9,1.1,11.8,3.2,17.3c5.5,15,17.4,26.4,32.3,32c8.8,3.3,17.5,5.5,26.5,1.2c5.8-2.8,10.6-7.6,14-13.2
						c5.2-8.7,6.2-20.6,6.9-30.5c0.6-9.4-2-21.8-10.1-27.8c-4.5-3.3-14.6-2.8-12.5-11c1.2-4.8,7.8-4.6,8.4-10
						c0.6-5.1-1.6-11.5-3.5-16.1C79,101.1,76.3,97.2,73.1,93.6c-0.3-0.3-1.7,0.2-1.4,0.5c3.8,4.2,6.8,9,8.6,14.4
						c1.1,3.3,1.9,6.9,2.3,10.4c0.5,4.6-1.3,6.2-5.1,8.7c-3.1,2.1-4.6,6.3-2.4,9.7c1.3,2.1,3.7,2.5,5.9,3.1c3.6,1,6.7,2.7,9,5.7
						c9.7,12.3,7.2,28.1,4.5,42.4c-2.2,11.5-9.4,23.1-21.3,26.5c-10.9,3.1-25.3-3.4-34.2-9.9c-9.7-7-16.7-17.2-20-28.7
						c-2-7.3-2.4-15-1-22.4c0.4-2.1,0.6-5,2.1-6.1c1.1-0.9,2.8-1.2,4-2.1c3.1-2.4,5.7-7.2,4.4-11.2c-0.6-2-2.2-3.4-4-4.2
						c-2.2-1-2.9-0.5-3.9-3c-4.8-12.1-2.7-27,6.6-36.4c12.8-12.9,33.1-9.6,44.5,3.1C72.1,94.5,73.4,93.9,73.1,93.6z"/>
				</g>
			</g>
			<g>
				<path d="M78.7,127.4c-0.7,0.2-2,1.3-2.9,2.7c-1.5,2.2-1.7,6,0,7.7c0.6,0.6,1.3,0.9,1.9,1c1.5-0.8,2.7-1.4,3.7-1.9
					c3.8-1.9,5-2.2,6.2-2.3c1.1-0.1,2.4-0.2,3-0.1c-0.4-1.8-0.7-3.1-0.4-4c0.4-1.5,1-2.2,2.6-5.3c0.5-0.9,1.4-1.4,1.6-1.9
					c-1.3,0-3.2-0.1-4.7,0.1C84.9,124.1,81.2,125.6,78.7,127.4z"/>
			</g>
			<g>
				<path class="st3" d="M66.9,211.9c1.2-0.4-2.9-14.4-6.9-38.7c-2.7-16.5-3.4-26-7.1-73.9c-1.2-15.6-2.9-37.1-4.5-56.9
					c-1.3-0.1-2.6-0.2-4-0.3c-2.6,26.1-3.9,54.2-3.2,83.9c0.2,6.6,0.4,13.2,0.8,19.6C60.2,199.7,65.7,212.2,66.9,211.9z"/>
				<g>
					<path d="M67.1,211.8c0.9-0.6-0.2-3.9-0.3-4.6c-0.9-5.1-2.1-10.2-3.1-15.3c-2-9.9-3.8-19.9-5.1-29.9
						c-2.7-21.3-3.9-42.8-5.6-64.2c-1.5-18.5-2.9-37-4.4-55.5c0,0-0.1,0-0.1,0c-1.3-0.1-2.6-0.2-4-0.3c-0.1,0-0.5,0.1-0.5,0.2
						c-1.7,17.3-2.8,34.6-3.2,51.9c-0.2,9-0.2,18.1-0.1,27.1c0.2,9.1-0.8,19.6,2.2,28.2c6.6,19.3,12.6,39.3,20.9,57.9
						c0.4,0.8,1.6,4.8,2.9,4.6c0.2,0,0.5-0.3,0.1-0.2c-2.3,0.4-9.6-22.9-10.2-24.6c-4.7-12.9-9.1-25.8-13.5-38.8
						c-2.7-7.9-1.7-18-1.8-26.3c-0.2-8.7-0.2-17.5,0-26.2c0.3-16.5,1.3-33,2.8-49.4c0.2-1.9,1.7-6.9,4-2.1c0.6,1.3,0.3,4,0.4,5.5
						c0.3,4.3,0.7,8.6,1,12.8c0.6,7.9,1.3,15.8,1.9,23.7c1.8,23.2,3.3,46.5,5.8,69.7c0.9,8.3,2.2,16.6,3.7,24.8
						c1.3,7.3,2.8,14.6,4.3,21.8c0.2,1.1,2.6,8.4,1.3,9.3C66.5,212,67,211.9,67.1,211.8z"/>
				</g>
			</g>
			<g>
				<g>
					<path class="st4" d="M47.5,46.8c-0.7,22-0.1,44.1,0.4,66.1c0.1,5.9,0.2,11.8,0.4,17.7c0.1,5.7-0.2,11.8,1,17.4
						c2.7,13.2,7.3,26.3,11.8,39.1c0.1,0.3,1.3,0,1.2-0.3c-4.5-12.8-8.8-25.8-11.8-39.1c-1.2-5.6-0.8-11.7-1-17.4
						c-0.1-5.9-0.3-11.8-0.4-17.7c-0.5-22-1.1-44.1-0.4-66.1C48.7,46.2,47.5,46.4,47.5,46.8L47.5,46.8z"/>
				</g>
			</g>
			<g>
				<g>
					<path class="st4" d="M46.3,46.6c-0.7,22.4-1.4,44.8-1.1,67.2c0.2,11.4,0.3,23,1.5,34.3c0.7,6.4,3.7,12.9,5.5,19.1
						c2,6.9,4,13.7,6.4,20.4c0.2,0.4,1.3,0.1,1.2-0.3c-2.2-6.4-4.2-13-6.1-19.5c-1.7-6-4.7-12.4-5.7-18.6
						c-0.9-5.9-0.6-12.2-0.9-18.1c-0.3-6.2-0.5-12.4-0.6-18.7c-0.3-22,0.4-43.9,1.1-65.9C47.4,45.9,46.3,46.1,46.3,46.6L46.3,46.6z"
						/>
				</g>
			</g>
			<g>
				<g>
					<path d="M62.3,130.8c2.9-3.7,6.7-1.9,7.4,1.1c0.7,2.8-0.2,6.4-0.7,9.1c-1.3,6.4-3.9,12.7-4.1,19.3c-0.2,7.9,9.4,11.6,13.8,4.5
						c0.6-1-1.2-1.1-1.7-0.3c-2.2,3.5-7.9,2.4-9.5-0.9c-0.7-1.5-0.7-3-0.5-4.6c0.3-3.1,1-6.1,1.7-9.1c1.4-5.4,3.4-10.9,3.2-16.6
						c-0.2-6.2-7-8.2-10.9-3.2C60.1,131.1,61.7,131.6,62.3,130.8L62.3,130.8z"/>
				</g>
			</g>
			<g>
				<g>
					<path d="M39.2,128.6c-1.3-2.7-2.2-5.3-5.9-3.2c-2.6,1.5-2.6,3.9-2,6.5c1.3,5.8,4.7,11.1,7.2,16.4c1.7,3.7,4.8,9.2,2.3,13.2
						c-2.3,3.8-6.4,2.9-7.7-0.9c-0.2-0.6-1.6-1.7-1.2-0.4c0.8,2.4,0.7,5.3,3.8,5.8c5.7,1,7.7-4.9,7-9.3c-1-6.3-5-12-7.6-17.7
						c-1.1-2.4-3.7-6.9-2.7-9.7c0.9-2.7,4.5-3.5,5.8-0.8C38.5,129.4,39.8,129.8,39.2,128.6L39.2,128.6z"/>
				</g>
			</g>
			<g>
				<path d="M42.4,143.6c0,0.2,0.1,0.6,0.8,1.1c2.3-0.3,4.7-0.6,7.1-0.8c1.9-0.2,3.7-0.3,5.4-0.4c-0.1-0.7-0.2-1.6-0.2-2.6
					c0-0.5,0.1-1.1,0.1-1.5c-1,0.5-2.5,1.1-4.4,1.7C46.4,142.7,42.5,142.5,42.4,143.6z"/>
			</g>
			<g>
				<path d="M55.2,185.4c1.6-0.2,5.5-0.9,7.1-1.1c2.2,10.7,5.6,29.1,6,32C66.7,213.4,59,195.9,55.2,185.4z"/>
			</g>
			<g>
				<path d="M59.6,12.3c-0.3-0.3-3-3.4-7.2-3.3c-4.3,0.2-6.8,3.5-7.5,4.5c-0.5,0.7-2.2,3.1-2.4,9.2c-0.1,2.4,0,4.2,0.3,5.9l-0.3-0.5
					c0,0-0.6,0.5-1.5,0.5c-0.9,0-1.4-1.1-1.6-1.2c-0.1,0-0.5-0.3-0.9-0.4c-0.5-0.5-1.1-0.8-1.7-0.9c-0.2,0-0.7-0.1-1.2,0.1
					c-1.2,0.5-1.5,1.8-1.6,1.9c-0.2,1.1,0.3,2.3,1.2,3c1,0.7,2.6,0.8,3.5-0.2c0.4-0.4,0.6-1,0.6-1.5c0.4-0.1,0.8-0.3,1.1-0.2
					c0.4,0.1,1.7,0.4,2.5,0.6c0.3,1.8,0.7,3.5,1,5.7c0,0.2,0,0.4,0.1,0.5c-0.4,0.2-1,0.4-1.4,0.4c-0.7,0-1.4-0.2-1.8-0.6
					c-0.1-0.1-0.2-0.1-0.3-0.2c-0.5-0.8-1.4-1.4-2.4-1.6c-0.2,0-1.1-0.1-2,0.4c-1.1,0.7-1.3,1.9-1.4,2.5c-0.1,0.7-0.3,1.8,0.3,2.5
					c0.8,1,2.6,0.7,3.7,0.1c0.3-0.1,2-1,2-2.6c0.1,0,0.3,0,0.5,0c1,0,1.4,0.4,1.9,0.4c0.3,0,0.7,0,1,0c-0.1,3.4,0.2,7.4-0.9,12.5
					c2.6,0.6,5.6,1.1,5.7,0.2c0.3-2.2-0.2-4.4-0.4-10.7c1-0.2,1.6-0.3,2.3-0.5c0.6-0.2,1.4,0,1.9,0c-0.1,1.4,0.7,3.1,1.9,3.3
					c1,0.2,1.9-0.8,2.2-1c0.1-0.1,1.7-1.9,0.8-3.7c-0.5-1-1.8-1.9-3-1.5c-0.5,0.1-0.9,0.4-1.2,0.8c-0.1,0-0.3,0-0.4,0
					c-0.4,0-0.9,0.1-1.4,0.7c-0.4,0.6-1,0.5-1.9,0.6c-0.9,0.1-0.9,0.2-1.2,0c0-0.4,0-0.9,0-1.3c0-1.3,0-3.2,0.3-5.4
					c0.4,0,1,0,1.3-0.1c0.4-0.2,1.9-0.3,1.9-0.3l0.9,0c0,1,0.8,1.9,1.7,2.4c1.2,0.6,2.4,0.1,2.5,0.1c1.3-0.6,2.3-2.1,1.8-3.5
					c-0.5-1.3-2-1.6-2.1-1.7c-1.2-0.2-2.1,0.4-2.5,0.6c-0.3,0.2-0.8,0.5-1.1,1c-0.1,0-0.2,0.1-0.3,0.1c-1,0.3-2.2,0.4-2.8,0.2
					c-0.3-0.1-0.7-0.3-1-0.5c0.1-0.6,0.3-1.2,0.4-1.9c1.2-4.5,2.5-4.8,2.8-4.9c1.6-0.3,2.4,2.6,4.5,2.4c2.9-0.3,4.1-3.8,4.4-4.6
					C62.3,18,61.6,14.6,59.6,12.3z"/>
			</g>
		</g>
		<path class="st1" d="M32.8,83.8c1.7-3.4,3.4-6.8,5.3-10c0.3-0.6,2.2-3.1,2-3.5c-0.2-0.4-1.3-0.8-1.7-1.1c-1.2-0.8-2.4-1.5-3.5-2.3
			c-2.3,3.6-3.9,7.7-6.2,11.3C26,82.8,22.8,87,19.3,91c-0.1,0.1-0.6,0.1-0.6,0.1c3.5-3.9,6.7-8.1,9.4-12.6c2.3-3.8,4-8,6.4-11.7
			c0-0.1,0-0.2,0.1-0.2c0.1-0.1,0.1-0.2,0.2-0.2c0.1-0.1,0.3-0.1,0.5-0.1c0.8-1.8,2.2-3.5,3.5-5.1c-1-0.5-2-1.2-3-1.7
			c-0.1,0-0.1-0.1,0-0.1c1-1.6,1.9-3.3,2.9-4.9c-1.3-0.1-2.6-0.1-4,0c-0.8,1-1.6,1.9-2.5,2.7c-0.6,0.6-1,0.9-1.8,1.1
			c-0.7,0.2-1.9,0.4-3,0.4c-0.8,1.4-1.1,3.1-1.7,4.6c-0.5,1.5-1.1,3-1.7,4.5c-1.5,3.6-3.2,7.1-5.3,10.5c-2.9,4.8-6.7,9.5-6.8,15.4
			c0,2.9,0.6,6.5,4.1,6.6c3.6,0.1,8.4-2.5,10.5-5.3C29.2,91.5,31,87.5,32.8,83.8z"/>
		<path class="st1" d="M37,58.2c-0.4,0.7-0.5,0.9,0.2,1.4c0.7,0.4,1.3,0.8,2,1.1c0.1-0.2,0.3-0.3,0.4-0.5c0.7-0.9,1.6-2.5,2.7-3
			c0.2-0.1,0.4-0.1,0.7-0.2c-0.1-0.3-0.1-0.7-0.2-1c0,0,0-0.1,0-0.1c-0.8-0.6-1.7-1.2-2.5-1.8c-0.1,0.1-0.2,0.1-0.3,0.1
			c-0.2,0-0.4,0-0.6,0C38.5,55.6,37.8,56.9,37,58.2z"/>
		<path class="st2" d="M31.9,56.8c3.5-3.2,5.8-7.5,6.7-12.1c0-0.2,0.3-0.3,0.5-0.2c2.3,1,2.6-0.9,3-2.5c0.3-1,0.7-2.2,0.4-3.2
			c-0.1-0.4-0.4-1-0.7-1.4c-0.1,0-0.1,0-0.1-0.1c-0.3-0.2-0.6-0.3-0.9-0.2c-0.6,0.3-1.1,2.1-1.3,2.7c-0.1,0.2-0.4,0.3-0.5,0.1
			c-1.4-2.5-2.7-5.3-4.3-7.7c-1-1.4-2.1-1.2-3.7-1.1c-1.1,0.1-2.2,0.2-3.3,0.4C26.3,31.7,25,32,23.7,32c-0.5,0-1.1-0.1-1.6-0.2
			c-0.8-0.2-3.3-1.6-2.5,0.4c0,0,0,0.1,0,0.1c0,1.6-0.1,3.3-0.1,5c0.2-0.3,0.5-0.6,0.8-0.8c0.3-0.3,0.7-0.5,1.1-0.6
			c0.4-0.2,0.8-0.4,1.2-0.4c0.2,0,0.4,0.1,0.6,0.2c0.2,0.1,0.4,0.2,0.6,0.4l0,0.1c-0.4,0.3-0.8,0.4-1.1,0.5c-0.3,0.1-0.7,0-1.1,0.1
			c-0.4,0.1-0.7,0.1-1.1,0.3c-0.4,0.1-0.7,0.3-1.1,0.4l0,0c0,2.8,0.1,5.5,0.2,8.3c0.2,3,0.8,6,2.3,8.7c0.7,1.2,1.5,2.2,2.6,3
			C26.5,58.6,30.2,58.3,31.9,56.8z M29.2,34.7c0.6-0.1,1.3,0.1,1.9,0.2c0.6,0.2,1.1,0.4,1.7,0.6c0.5,0.2,1.1,0.5,1.6,0.8l0,0.1
			c-0.6-0.1-1.2-0.2-1.7-0.3c-0.6-0.1-1.2-0.2-1.7-0.2c-0.5,0-1.1,0.1-1.6,0c-0.3,0-0.6-0.1-0.8-0.1c-0.3,0-0.6-0.1-0.9-0.2l0-0.1
			C28,35.1,28.6,34.8,29.2,34.7z M31.4,40.5c-0.1,0.3-0.5,0.8-1,0.8c-0.5,0-0.8-0.4-0.8-0.5c-0.3-0.4-0.2-0.9,0-1.3
			c0.1-0.1,0.1-0.3,0.3-0.4c0.4-0.2,0.9-0.1,1.2,0.1C31.5,39.5,31.6,40.1,31.4,40.5z M22.5,42c-0.5,0-0.8-0.4-0.8-0.5
			c-0.3-0.4-0.2-0.9,0-1.3c0.1-0.1,0.1-0.3,0.3-0.4c0.4-0.2,0.9-0.1,1.2,0.1c0.4,0.3,0.5,0.9,0.3,1.3C23.4,41.5,23,42,22.5,42z
			 M24,45.9c0.6-1.9,0.4-4.2-0.1-6.2c0-0.1,0.5-0.3,0.6-0.2c0.5,1.8,0.6,3.7,0.2,5.6c-0.1,0.7-1.1,2.3-0.5,2.7
			c0.6,0.3,4.7-0.1,3.9-1.3c0-0.1,0.5-0.3,0.6-0.2c1.1,1.6-4,2-4.8,1.7C22.7,47.6,23.6,46.9,24,45.9z M24.2,53.4
			c-0.1,0-0.2-0.1-0.2-0.2c0.1-0.9,0.1-1.6-0.1-2.6c0-0.1,0-0.2,0.2-0.3c0,0,0,0,0,0c0.5-0.3,1.4-0.1,1.9-0.1c1.4,0,3,0,4.3-0.7
			c0.8-0.4,2.3-1.3,2.6,0.3c0.2,1.2-1.5,2.2-2.4,2.7C28.5,53.5,26.3,53.5,24.2,53.4z"/>
		<path class="st5" d="M31.3,49.5c-0.2,0-0.7,0.5-0.9,0.6c-0.4,0.2-0.8,0.3-1.3,0.4c-0.9,0.2-1.9,0.2-2.8,0.3
			c-0.3,0-1.2-0.1-1.7-0.1c0.1,0.4,0.2,0.8,0.2,1.3c0,1.2-0.1,1.1,1.2,1.1c1.9,0,3.9-0.3,5.3-1.5C31.6,51.2,33.3,49.5,31.3,49.5z"/>
		<path class="st1" d="M77.5,58.9c-2.7-3.1-5.8-7.4-9.7-9c-3.4-1.4-7.1,0-10.2,1.6C56.7,52,56,52.4,55,52.6
			c-0.6,5.5-1.3,10.9-2.2,16.3c1.4-1.1,4.3-3.1,5-1c0.6,1.8-0.2,4.6-0.5,6.5c-0.3,1.9-0.6,3.8-0.4,5.7c2.2,0.1,4.5,0.4,6.7,0.7
			c-0.1-4.4,1-8.5,1.9-12.8c0.1-0.2,0.6-0.3,0.6-0.1c-0.2,1-0.5,2-0.7,3c3.9,2.6,7.4,5.5,10.4,9.1c3.9,4.5,7.5,9.7,10.1,15
			c0.5-0.3,1-0.7,1.5-1c0.1-0.1,0.7-0.1,0.4,0c-3.7,2.3-6.9,5.7-10.3,8.4c-1.6,1.2-3.2,2.5-5.1,3.3c-1.4,0.6-2.8,1-4.1,1.8
			c-1.3,0.7-2.6,1.6-3.9,2.4c-0.6,0.3-1.3,0.5-1.6,1c0.2,0,0,0.2-0.2,0.3c-0.1,0.1-0.1,0.3-0.1,0.4c-0.1,0.7,0.2,1.6,0.4,2.3
			c0.1,0.9,0.2,1.9,0.4,2.7c0.3,1,0.4,1.1,1.4,1c3.1-0.2,6.2-0.5,9.2-1c5.1-0.8,11.6-1.2,15.8-4.4c1.9-1.4,3.3-3.6,4.5-5.5
			c1.6-2.4,3.6-5.5,4.1-8.3c0.7-4.2-1.5-9.1-3.2-12.8C90.6,75.9,84.5,67.1,77.5,58.9z"/>
		<path class="st2" d="M56.7,111.5c-1.2,0-2.4,0-3.5-0.1c-1.7-0.2-3.7-1.3-5.1,0.2c-0.8,0.9-5.3,5.7-3,6.7c0.3,0.1,0.1,0.1,0.5-0.4
			c0.5-0.8,1.2-1.5,1.9-2.2c0.5-0.6,1.2-1,1.9-1.4c0.1-0.1,0.3-0.1,0.4-0.1c1.1,0.7,0.6,3.7,0.7,4.8c0.1,1.1,0.2,2.2,0.6,3.2
			c0.3,0.9,1.2,2,1.7,0.8c0.2-0.5,0-1.5,0-2.1c0-0.8,0-1.6,0-2.3c0-0.9-0.2-2.1,0-3c0-0.2,0.6-0.3,0.6-0.1c-0.4,1.7,0,3.8,0,5.5
			c0,0.7,0.2,1.7-0.1,2.3c0.1,0,0.2-0.1,0.3,0c0.5,0.5,1.2,0.6,1.9,0.2c0-0.4,0.1-0.8,0.2-1.2c0.1-0.8,0.2-1.6,0.4-2.4
			c0.3-1.6,0.6-3.2,1-4.7c0-0.2,0.6-0.3,0.6-0.1c-0.4,1.6-0.7,3.1-1,4.7c-0.2,0.9-0.1,2.7-0.5,3.6c0.1,0,0.2,0,0.3,0
			c1.2,0.7,2-2.5,2.2-3.1c0.6-1.7,1.3-3.3,2.1-4.9c0.1-0.2,0.7-0.2,0.5,0c-0.2,0.4-0.4,0.7-0.5,1.1c0.1,0,0.2,0,0.2,0
			c0.7,0.2,1.4,0.3,2.1,0.5c-0.3-2-0.6-3.9-0.9-5.9C60.1,111.4,58.4,111.5,56.7,111.5z"/>
		<path class="st6" d="M23.4,31.5c1.3,0.1,2.6-0.2,3.9-0.4c2.2-0.3,4.5-0.5,6.7-0.6c0.1,0,0.2,0,0.2,0.1c1.6,2.8,3.2,5.7,4.8,8.5
			c0.3-0.9,0.8-2.2,1.6-2.6c0.3-0.1,0.7-0.1,1,0.1c0.2-1.7,0.6-3.4,1.2-5.1c0.5-1.5,1-2.9,0.6-4.5c-0.5-1.9-2.6-1.1-3.5-2.3
			c-0.4-0.5-0.2-1.3-0.5-1.9c-0.7-1.3-2.6-1.5-4-1.6c-3.6-0.3-7.3,0.9-11,0.7c-2.7-0.2-5.3-0.9-7.7-2.2c0.1,0.8,0.2,1.6,0.4,2.4
			c0.4,1,1.4,1.6,1.8,2.5c0.1,0.3,0.4,0.4,0.1,0.7c-0.6,0.7-2.9-0.1-4-0.5c0,2.8,2,4.1,4.2,5.7C20.2,30.3,22.5,31.5,23.4,31.5z"/>
		<path class="st2" d="M40.9,59.2c-0.5,0.6-1,1.2-1.5,1.8c0,0,0,0-0.1,0.1c-1.4,1.7-2.8,3.5-3.5,5.4c-0.1,0.2-0.6,0.2-0.6,0.1
			c0,0,0,0,0,0c1.3,0.8,2.7,1.7,4,2.5c0,0,0-0.1,0-0.1c0.8-1.4,1.3-2.9,2.1-4.3c-0.3-0.1-0.5-0.3-0.8-0.4c0,0-0.1,0-0.1,0
			c-0.1,0-0.1-0.1-0.2-0.1c-0.1,0-0.1-0.1-0.1-0.2c0,0,0,0,0,0c0.1-0.1,0.3-0.2,0.4-0.2c0.7,0.2,1.4,0.6,2.1,0.9
			c0.5,0.3,1.3,0.7,1.9,0.3c0.5-0.4-0.1-0.7-0.2-1.1c-0.3,0-0.7-0.2-1-0.3c-0.9-0.4-1.7-0.8-2.7-1.1c-0.2-0.1,0.3-0.3,0.5-0.2
			c0.8,0.3,1.5,0.6,2.3,0.9c0.3,0.1,0.7,0.4,1,0.5c0.1-0.1,0.2-0.1,0.3,0c0.4-0.1,0.8-0.5,0.8-0.8c0-0.1-0.1-0.2-0.1-0.3
			c0,0,0,0,0,0c-0.4-0.1-0.8-0.3-1.2-0.5c-0.8-0.3-1.6-0.7-2.4-1c-0.3-0.1,0.3-0.4,0.5-0.3c0.9,0.3,1.7,0.7,2.5,1
			c0.5,0.2,1.3,0.6,1.7,0.2c0.2-0.2,0.3-0.5,0.4-0.8c-1.1-0.3-2.4-1-3.4-1.3c-0.3-0.1,0.2-0.3,0.4-0.3c0.9,0.2,1.8,0.5,2.6,0.8
			c0.3,0.1,0.5,0.2,0.8,0.3c0.5-0.4,1.1-0.7,1.6-1.1c0.1-0.4-1.1-1.1-1.4-1.3c-1-0.6-2.1-0.9-3.3-1C42.7,57.3,41.9,57.9,40.9,59.2z"
			/>
		<path class="st1" d="M56.9,73.3c0.2-1.2,1-4.2,0.3-5.2c-1-1.6-3.8,1-4.6,1.6c-0.1,0.1-0.5,0.1-0.5-0.1c0.7-4.3,1.3-8.6,1.8-13
			c0.1-1.1,0.3-2.2,0.4-3.3c0.1-0.8,0.7-2.3-0.4-2.5c-0.7-0.2-2.3,0.6-3,0.9c-0.1,0-1.4,0.4-1.4,0.4c-0.2,0.3,0.1,1.7,0.2,2
			c0.1,1.4,0.2,2.8,0.4,4.2c0.3,3.9,0.7,7.8,1,11.7c0.3,3,0.5,6,0.8,9c0.1,1.5,0,1,1.5,1.1c1,0,1.9,0,2.9,0.1
			C56.1,77.8,56.5,75.6,56.9,73.3z"/>
		<path d="M89.1,73.3c-4.4-6.9-9.6-13.6-15.3-19.4c-2.4-2.5-5-4.9-8.6-4.9c-1.8,0-3.5,0.4-5.2,1.1c-1.7,0.7-3.2,1.8-5,2.3
			c0.1-0.7,0.2-1.4,0.2-2.1c0-0.1-0.1-0.2-0.3-0.2c-2,0.3-3.9,0.9-5.8,1.7C49,51.9,49,52,49,52.1c0.8,9.4,1.6,18.8,2.4,28.3
			c0,0.1,0.2,0.1,0.3,0.1c4.1-0.1,8.1,0.2,12.1,0.8c0.1,0,0.2,0,0.3-0.1c0.1,0,0.1-0.1,0.1-0.1c-0.1-3.3,0.4-6.4,1.1-9.5
			c3.7,2.5,7.1,5.4,10,8.8c3.8,4.5,7.5,9.6,10.1,15c0,0.1,0.1,0.1,0.2,0.1c-3.1,2.3-5.9,5.1-8.9,7.4c-2.1,1.6-4.2,2.6-6.7,3.7
			c-2.9,1.2-5.3,3.2-8.1,4.5c0,0-0.1,0-0.1,0.1c-1.3,0.1-2.7,0.1-4,0.2c-1.1,0-2.2,0-3.3,0c-1.3-0.1-2.4-0.3-3.6-0.7
			c-0.3-0.1-0.7-0.3-1-0.3c-1.2,0-2,1-2.7,1.8c-1.2,1.3-3.2,3.3-3.3,5.2c0,0.8,0.5,1.7,1.4,1.4c0.4-0.1,0.7-0.7,1-1
			c0.4-0.5,2.5-3.4,3.2-2.9c0.9,0.6-0.6,11.4,3.2,9c0.1-0.1,0.2-0.1,0.2-0.2c0.8,0.5,2.1,1.1,2.8,0.2c0,0,0,0,0,0
			c1.4,0.8,2-0.2,2.5-1.5c0.7-1.8,1.4-3.7,2.2-5.4c0.8,0.2,1.6,0.4,2.4,0.6c0,0.2,0.1,0.4,0.1,0.5c0,0.1,0.1,0.1,0.2,0
			c4.9-0.3,9.7-0.9,14.5-1.7c3.5-0.6,7.1-1.1,10.4-2.7c2.7-1.3,4.5-3.4,6.2-5.8c2.3-3.3,5.1-7.4,5-11.5c-0.2-3.7-1.6-7.3-3.1-10.7
			C93.9,81.5,91.6,77.3,89.1,73.3z M53.4,80c-1.6,0-1.4,0.4-1.5-1.1c-0.3-3-0.5-6-0.8-9c-0.3-3.9-0.7-7.8-1-11.7
			c-0.1-1.4-0.2-2.8-0.4-4.2c0-0.4-0.4-1.7-0.2-2c0,0,1.3-0.4,1.4-0.4c0.6-0.2,2.2-1,3-0.9c1.1,0.3,0.5,1.7,0.4,2.5
			c-0.1,1.1-0.2,2.2-0.4,3.3c-0.5,4.3-1.1,8.7-1.8,13c0,0.3,0.4,0.2,0.5,0.1c0.8-0.6,3.7-3.2,4.6-1.6c0.7,1.1-0.1,4-0.3,5.2
			c-0.4,2.3-0.8,4.5-0.6,6.8C55.3,80,54.4,80,53.4,80z M60.7,116.7c0,0-0.1,0-0.2,0c0.2-0.4,0.4-0.7,0.5-1.1c0.1-0.3-0.4-0.2-0.5,0
			c-0.8,1.6-1.5,3.2-2.1,4.9c-0.2,0.6-1,3.8-2.2,3.1c-0.1,0-0.2,0-0.3,0c0.4-0.9,0.4-2.7,0.5-3.6c0.3-1.6,0.6-3.2,1-4.7
			c0-0.2-0.5-0.1-0.6,0.1c-0.4,1.6-0.7,3.1-1,4.7c-0.1,0.8-0.3,1.6-0.4,2.4c-0.1,0.4-0.1,0.8-0.2,1.2c-0.7,0.4-1.3,0.3-1.9-0.2
			c-0.1,0-0.2,0-0.3,0c0.3-0.6,0.1-1.6,0.1-2.3c0-1.7-0.4-3.8,0-5.5c0-0.2-0.5-0.1-0.6,0.1c-0.2,0.9,0,2.1,0,3c0,0.8,0,1.6,0,2.3
			c0,0.5,0.2,1.6,0,2.1c-0.5,1.2-1.4,0.1-1.7-0.8c-0.3-1-0.5-2.1-0.6-3.2c-0.1-1.1,0.5-4.1-0.7-4.8c-0.1-0.1-0.3,0-0.4,0.1
			c-0.7,0.4-1.3,0.9-1.9,1.4c-0.6,0.7-1.4,1.4-1.9,2.2c-0.3,0.5-0.2,0.5-0.5,0.4c-2.3-1,2.2-5.9,3-6.7c1.4-1.5,3.4-0.4,5.1-0.2
			c1.2,0.1,2.4,0.1,3.5,0.1c1.7,0,3.4-0.1,5.1-0.2c0.3,2,0.6,3.9,0.9,5.9C62,117,61.3,116.8,60.7,116.7z M98.4,98.5
			c-0.5,2.9-2.5,5.9-4.1,8.3c-1.3,1.9-2.7,4.1-4.5,5.5c-4.2,3.2-10.8,3.7-15.8,4.4c-3.1,0.5-6.1,0.8-9.2,1c-1,0.1-1.2-0.1-1.4-1
			c-0.2-0.9-0.3-1.8-0.4-2.7c-0.1-0.7-0.4-1.6-0.4-2.3c0-0.2,0.1-0.3,0.1-0.4c0.2-0.1,0.4-0.3,0.2-0.3c0.4-0.5,1-0.7,1.6-1
			c1.3-0.8,2.6-1.6,3.9-2.4c1.3-0.7,2.7-1.2,4.1-1.8c1.9-0.8,3.5-2.1,5.1-3.3c3.5-2.7,6.6-6.1,10.3-8.4c0.2-0.2-0.3-0.1-0.4,0
			c-0.5,0.3-1,0.6-1.5,1c-2.6-5.4-6.3-10.5-10.1-15c-3-3.6-6.5-6.5-10.4-9.1c0.2-1,0.5-2,0.7-3c0.1-0.3-0.5-0.2-0.6,0.1
			c-1,4.3-2,8.4-1.9,12.8c-2.2-0.3-4.4-0.6-6.7-0.7c-0.2-1.9,0-3.8,0.4-5.7c0.3-1.8,1.2-4.7,0.5-6.5c-0.7-2.1-3.6-0.1-5,1
			c0.9-5.4,1.6-10.9,2.2-16.3c1-0.2,1.7-0.6,2.7-1.1c3.1-1.6,6.7-3,10.2-1.6c3.9,1.6,7.1,5.9,9.7,9c7,8.2,13.1,17,17.6,26.8
			C96.9,89.4,99.1,94.2,98.4,98.5z"/>
		<path d="M27.9,93.9c4.7-7.6,8-16,12.9-23.5c0.1-0.1,0.1-0.2,0-0.3c-0.4-0.3-0.8-0.5-1.2-0.8c0,0,0,0,0,0c0.8-1.3,1.4-3,2.2-4.4
			c0.6,0.3,1.3,0.6,1.9,0.7c0.5,0.1,1.2,0,1.5-0.5c0.4-0.5-0.1-0.8-0.3-1.3c0.8-0.1,1.3-0.5,1.2-1.3c0,0,0,0,0,0
			c0.8,0,1.1-0.6,1.4-1.2c0.2,0,0.3,0,0.5,0c0.6,0,1-0.2,1.4-0.7c1.4-2.2-3.4-3.4-4.7-3.6c-0.3,0-0.7-0.1-1.1-0.1
			c-0.1-0.3-0.1-0.6-0.2-1c0.1-0.1,0.2-0.1,0.1-0.2c-2.1-1.7-4.5-2.9-6.8-4.3c0.9-1.7,1.7-3.5,2.1-5.4c1.5,1.7,2.9,3.5,4.5,5.1
			c0.1,0.1,0.6-0.1,0.5-0.2c-1.7-1.8-3.3-3.7-4.9-5.5c0-0.2,0.1-0.4,0.1-0.5c1,0.3,2,0.3,2.7-0.6c0.6-0.8,0.8-2.2,1.1-3.1
			c0.2-0.9,0.5-1.9,0.2-2.9c-0.1-0.4-0.4-0.9-0.8-1.3c0.2-1.9,0.6-3.7,1.3-5.6c0.5-1.5,0.9-2.8,0.6-4.3c-0.3-1.3-0.9-1.7-2-2.1
			c-0.5-0.2-1.5-0.3-1.8-0.9c-0.1-0.3,0-0.7-0.1-1c-0.2-0.6-0.4-1-0.9-1.4c-2.7-1.9-7-0.7-9.9-0.4c-4.4,0.5-8.7,0-12.6-2.2
			c-0.1-0.1-0.5-0.1-0.5,0.2c0.1,1.6,0.3,3.2,1.4,4.5c0.1,0.1,0.7,0.7,0.7,0.7c0.3,0.5,0.7,0.4,0,0.4c-1,0.1-2.3-0.5-3.1-0.8
			c-0.2,0-0.4,0-0.5,0.2c-0.2,3.2,2,4.6,4.3,6.4c-0.1,0.3-0.1,0.7,0.2,1.4c-0.1,5-0.2,10.1,0.3,15.1c0.4,3.3,1.5,6.8,3.8,9.2
			c0.8,0.8,1.8,1.7,2.9,1.9c0.3,0.1,0.6,0.1,0.9,0.1c-1.2,2-1.6,4.6-2.5,6.8c-1.1,2.9-2.3,5.7-3.8,8.4C17.9,79.2,13.5,84.1,12,90
			c-0.8,3.2-1.2,9.3,2.9,10.4C19.4,101.6,25.6,97.6,27.9,93.9z M44.3,57.5c1.1,0.1,2.3,0.4,3.3,1c0.3,0.2,1.5,0.8,1.4,1.3
			c-0.5,0.4-1.1,0.7-1.6,1.1c-0.3-0.1-0.5-0.2-0.8-0.3c-0.9-0.3-1.7-0.6-2.6-0.8c-0.2,0-0.7,0.2-0.4,0.3c1,0.3,2.3,1,3.4,1.3
			c-0.1,0.3-0.2,0.6-0.4,0.8c-0.5,0.4-1.2,0-1.7-0.2c-0.8-0.4-1.7-0.7-2.5-1c-0.2-0.1-0.7,0.2-0.5,0.3c0.8,0.3,1.6,0.6,2.4,1
			c0.4,0.2,0.8,0.4,1.2,0.5c0,0,0,0,0,0c0,0.1,0.1,0.2,0.1,0.3c0,0.3-0.4,0.7-0.8,0.8c-0.1,0-0.2,0-0.3,0c-0.4-0.1-0.7-0.3-1-0.5
			c-0.7-0.4-1.5-0.7-2.3-0.9c-0.1,0-0.6,0.2-0.5,0.2c0.9,0.3,1.8,0.7,2.7,1.1c0.3,0.1,0.7,0.3,1,0.3c0.1,0.4,0.7,0.7,0.2,1.1
			c-0.5,0.5-1.3,0-1.9-0.3c-0.7-0.3-1.4-0.7-2.1-0.9c-0.2-0.1-0.4,0-0.4,0.2c0,0,0,0,0,0c0,0.1,0,0.2,0.1,0.2c0.1,0,0.1,0.1,0.2,0.1
			c0,0,0.1,0,0.1,0c0.3,0.1,0.5,0.2,0.8,0.4c-0.8,1.4-1.3,2.9-2.1,4.3c0,0,0,0.1,0,0.1c-1.3-0.8-2.7-1.7-4-2.5c0,0,0,0,0,0
			c0,0.1,0.5,0.1,0.6-0.1c0.7-1.9,2.1-3.7,3.5-5.4c0,0,0.1,0,0.1-0.1c0.5-0.6,1-1.2,1.5-1.8C41.9,57.9,42.7,57.3,44.3,57.5z
			 M40.2,54.3c0.9,0.5,1.7,1.1,2.5,1.8c0,0,0,0.1,0,0.1c0.1,0.3,0.1,0.7,0.2,1c-0.2,0-0.5,0.1-0.7,0.2c-1.1,0.5-2,2.1-2.7,3
			c-0.1,0.2-0.3,0.3-0.4,0.5c-0.7-0.4-1.3-0.8-2-1.1c-0.7-0.4-0.6-0.7-0.2-1.4c0.8-1.3,1.5-2.6,2.3-3.9c0.2,0,0.4,0,0.6,0
			C40,54.4,40.1,54.3,40.2,54.3z M39.6,53.9c-1.5-0.1-3-0.1-4.5-0.1c0.4-0.6,0.9-1.2,1.2-1.9C37.4,52.7,38.5,53.3,39.6,53.9z
			 M19.2,30.5c-2.1-1.6-4.1-3-4.2-5.7c1.1,0.4,3.4,1.2,4,0.5c0.3-0.3,0-0.4-0.1-0.7c-0.4-0.9-1.4-1.5-1.8-2.5
			c-0.3-0.7-0.4-1.6-0.4-2.4c2.4,1.3,5,2,7.7,2.2c3.7,0.2,7.3-0.9,11-0.7c1.4,0.1,3.3,0.3,4,1.6c0.3,0.6,0.1,1.4,0.5,1.9
			c1,1.2,3,0.4,3.5,2.3c0.4,1.6-0.1,3-0.6,4.5c-0.6,1.7-0.9,3.3-1.2,5.1c-0.3-0.2-0.6-0.3-1-0.1c-0.8,0.3-1.3,1.6-1.6,2.6
			c-1.6-2.8-3.2-5.7-4.8-8.5c0-0.1-0.2-0.1-0.2-0.1c-2.3,0.1-4.5,0.2-6.7,0.6c-1.3,0.2-2.6,0.5-3.9,0.4
			C22.5,31.5,20.2,30.3,19.2,30.5z M24.7,57.3c-1.1-0.8-2-1.8-2.6-3c-1.5-2.7-2.1-5.6-2.3-8.7c-0.2-2.7-0.2-5.5-0.2-8.3l0,0
			c0.4-0.2,0.7-0.3,1.1-0.4c0.4-0.1,0.7-0.2,1.1-0.3c0.4-0.1,0.7,0,1.1-0.1c0.4-0.1,0.7-0.2,1.1-0.5l0-0.1c-0.2-0.2-0.4-0.3-0.6-0.4
			c-0.2-0.1-0.4-0.1-0.6-0.2c-0.4-0.1-0.9,0.2-1.2,0.4c-0.4,0.2-0.8,0.4-1.1,0.6c-0.3,0.2-0.6,0.5-0.8,0.8c0-1.7,0-3.3,0.1-5
			c0,0,0-0.1,0-0.1c-0.8-2,1.7-0.6,2.5-0.4c0.5,0.1,1,0.2,1.6,0.2c1.3,0,2.6-0.3,3.9-0.5c1.1-0.2,2.2-0.3,3.3-0.4
			c1.6-0.1,2.7-0.4,3.7,1.1c1.7,2.4,2.9,5.2,4.3,7.7c0.1,0.2,0.5,0.1,0.5-0.1c0.2-0.6,0.7-2.4,1.3-2.7c0.3-0.2,0.6-0.1,0.9,0.2
			c0,0.1,0,0.1,0.1,0.1c0.3,0.4,0.6,0.9,0.7,1.4c0.3,1-0.1,2.2-0.4,3.2c-0.4,1.6-0.7,3.5-3,2.5c-0.2-0.1-0.4,0-0.5,0.2
			c-0.9,4.7-3.1,8.9-6.7,12.1C30.2,58.3,26.5,58.6,24.7,57.3z M16.3,100.1c-3.6-0.1-4.2-3.7-4.1-6.6c0.1-5.8,3.9-10.6,6.8-15.4
			c2-3.3,3.8-6.9,5.3-10.5c0.6-1.5,1.2-3,1.7-4.5c0.5-1.5,0.8-3.2,1.7-4.6c1.1-0.1,2.3-0.3,3-0.4c0.8-0.2,1.1-0.6,1.8-1.1
			c0.9-0.8,1.8-1.8,2.5-2.7c1.3-0.1,2.6-0.1,4,0c-1,1.6-1.9,3.3-2.9,4.9c0,0.1,0,0.1,0,0.1c1,0.5,2,1.2,3,1.7
			c-1.3,1.6-2.7,3.3-3.5,5.1c-0.1,0-0.4,0-0.5,0.1c-0.1,0.1-0.1,0.2-0.2,0.2c-0.1,0.1-0.2,0.1-0.1,0.2c-2.5,3.7-4.1,7.9-6.4,11.7
			c-2.7,4.5-5.9,8.7-9.4,12.6c0,0,0.5,0,0.6-0.1c3.5-3.9,6.7-8.1,9.4-12.6c2.2-3.7,3.9-7.7,6.2-11.3c1.2,0.8,2.4,1.5,3.5,2.3
			c0.4,0.2,1.5,0.7,1.7,1.1c0.2,0.3-1.7,2.9-2,3.5c-1.9,3.3-3.6,6.7-5.3,10c-1.8,3.6-3.6,7.7-6.1,10.9
			C24.6,97.6,19.9,100.2,16.3,100.1z"/>
		<path d="M28.4,35.8c0.3,0.1,0.6,0.1,0.8,0.1c0.5,0.1,1.1-0.1,1.6,0c0.5,0.1,1.1,0.2,1.7,0.2c0.6,0.1,1.2,0.2,1.7,0.3l0-0.1
			c-0.5-0.3-1.1-0.5-1.6-0.8c-0.5-0.2-1.1-0.4-1.7-0.6c-0.6-0.2-1.2-0.3-1.9-0.2c-0.6,0.1-1.2,0.3-1.7,0.7l0,0.1
			C27.8,35.7,28.1,35.8,28.4,35.8z"/>
		<path d="M28.6,46.4c-0.1-0.1-0.6,0.1-0.6,0.2c0.8,1.2-3.3,1.6-3.9,1.3c-0.7-0.4,0.3-2,0.5-2.7c0.4-1.9,0.3-3.8-0.2-5.6
			c0-0.1-0.6,0-0.6,0.2c0.5,1.9,0.7,4.2,0.1,6.2c-0.3,1-1.2,1.8-0.1,2.3C24.6,48.5,29.7,48,28.6,46.4z"/>
		<path d="M29.9,39.1c-0.2,0.1-0.3,0.3-0.3,0.4c-0.2,0.3-0.3,0.9,0,1.3c0.1,0.1,0.4,0.5,0.8,0.5c0.5,0,0.9-0.5,1-0.8
			c0.1-0.4,0.1-1-0.3-1.3C30.8,38.9,30.2,38.9,29.9,39.1z"/>
		<path d="M23.2,39.9c-0.3-0.2-0.9-0.3-1.2-0.1c-0.2,0.1-0.3,0.3-0.3,0.4c-0.2,0.3-0.3,0.9,0,1.3c0.1,0.1,0.4,0.5,0.8,0.5
			c0.5,0,0.9-0.5,1-0.8C23.7,40.8,23.7,40.2,23.2,39.9z"/>
		<path d="M32.8,49.9c-0.2-1.6-1.8-0.7-2.6-0.3c-1.3,0.6-2.9,0.6-4.3,0.7c-0.5,0-1.4-0.2-1.9,0.1c0,0,0,0,0,0
			c-0.1,0.1-0.2,0.1-0.2,0.3c0.2,0.9,0.2,1.6,0.1,2.6c0,0.1,0.1,0.2,0.2,0.2c2.1,0.2,4.3,0.2,6.2-0.8C31.3,52.1,33,51.1,32.8,49.9z
			 M26,53c-1.4,0-1.2,0.1-1.2-1.1c0-0.4-0.1-0.8-0.2-1.3c0.5-0.1,1.3,0.1,1.7,0.1c0.9,0,1.9-0.1,2.8-0.3c0.5-0.1,0.9-0.2,1.3-0.4
			c0.2-0.1,0.7-0.6,0.9-0.6c2,0.1,0.4,1.7,0,2C29.9,52.7,27.9,53,26,53z"/>
	</g>
</g>
</svg>
