<?xml version="1.0" encoding="utf-8"?>
<!-- Generator: Adobe Illustrator 22.1.0, SVG Export Plug-In . SVG Version: 6.00 Build 0)  -->
<svg version="1.1" id="Layer_1" xmlns="http://www.w3.org/2000/svg" xmlns:xlink="http://www.w3.org/1999/xlink" x="0px" y="0px"
	 viewBox="0 0 277.6 327.9" style="enable-background:new 0 0 277.6 327.9;" xml:space="preserve">
<style type="text/css">
	.st0{fill:#EBF2F1;stroke:#000000;stroke-miterlimit:10;}
	.st1{fill:#009EFF;stroke:#000000;stroke-miterlimit:10;}
	.st2{fill:none;stroke:#000000;stroke-width:0.5;stroke-miterlimit:10;}
	.st3{fill:none;stroke:#000000;stroke-width:0.75;stroke-miterlimit:10;}
	.st4{fill:#BAC9E3;}
	.st5{fill:#BAC9E3;stroke:#000000;stroke-miterlimit:10;}
	.st6{fill:#009EFF;}
	.st7{fill:#EBF2F1;}
	.st8{fill:none;stroke:#000000;stroke-miterlimit:10;}
	.st9{fill:#F9C7F9;stroke:#000000;stroke-miterlimit:10;}
</style>
<g id="Layer_3">
	<path class="st0" d="M119.8,88.4l4,40c0,0,11,9,23,1l5-40"/>
	<polygon class="st1" points="172.2,289.1 157.7,254.1 120.8,254.1 106.2,289.1 137.1,289.1 137.1,274.5 138.8,274.5 139.7,274.5 
		141.4,274.5 141.4,289.1 	"/>
	<path class="st0" d="M116,289.6l-7.3,15.5c0,0-15.4,1.2-23.4,3.6c-3.1,0.9-3.8,5-1.1,6.8c1.8,1.2,4.5,2.1,8.5,1.7c13-1.3,21-4,21-4
		l10.5-23.5H116V289.6z"/>
	<path class="st0" d="M155,289.6l14.7,19.5c0,0,4,14.8,4,17c0,3,10,2,14-2l-13-16l-11-18.5H155z"/>
	<g>
		<path d="M121.6,112.3c0,0,10.5,8.6,11.9-4.9c-6.1-3.7-12.3-0.4-12.3-0.4L121.6,112.3z"/>
		<path d="M149.5,112.1c0,0-9,9.5-13-4.7c6.1-3.7,9.4-1.9,13.4-0.6L149.5,112.1z"/>
		<path class="st2" d="M133.4,107.6c0,0,1.6-2.1,3.4,0"/>
	</g>
	<g>
		<path d="M134.8,113.9c-0.3-0.5-0.4-1-0.4-1.5s0.1-1,0.4-1.5c0.3,0.5,0.4,1,0.4,1.5S135.1,113.4,134.8,113.9z"/>
	</g>
	<path class="st3" d="M131.9,115.7c0,0,2.3,0.1,2.7,1.1c0.3-1.1,2.7-1.1,2.7-1.1"/>
	<g>
		<path class="st4" d="M119.6,88.3l31.1,1.2c0,0,24.3-30.3,1.1-43.9c-3.4-6.5-12.9-14.4-15.5-12c-3.2-10.7-14.4-19.4-17.2-5.1
			C105,27.6,97.2,46.4,119.6,88.3"/>
		<path class="st5" d="M149.7,105.9c0,0,5.7-3.4,7.6-15.9l-6.4-0.3L149.7,105.9z"/>
		<path class="st5" d="M121,105.5c0,0-5.7-3.4-7.7-15.9l6.4-0.3L121,105.5z"/>
		<g>
			<path d="M119.3,88.5c-2.8-5.1-5.3-10.5-7.5-15.9s-4-11-5.3-16.8c-0.6-2.9-1.1-5.8-1.2-8.7c-0.2-2.9-0.1-5.9,0.7-8.8
				c0.8-2.9,2.3-5.6,4.8-7.4c2.5-1.7,5.5-2.4,8.4-2.4c-2.9,0.3-5.8,1-8.1,2.8c-2.3,1.7-3.7,4.4-4.3,7.2c-0.6,2.8-0.7,5.7-0.5,8.6
				c0.2,2.9,0.7,5.8,1.3,8.6c1.2,5.7,3,11.2,5,16.7c1,2.7,2.1,5.5,3.2,8.1C116.8,83.1,118,85.8,119.3,88.5z"/>
		</g>
		<g>
			<path d="M134.3,28.9c-0.5-1-1.2-2-1.8-3c-0.7-0.9-1.5-1.8-2.3-2.5c-0.9-0.7-1.9-1.4-2.9-1.7c-1.1-0.3-2.2-0.3-3.3,0l0,0l0,0
				c-1.3,0.3-2.3,1.2-3,2.3c-0.7,1.1-1.1,2.5-1.4,3.8c-0.5,2.7-0.7,5.5-0.6,8.2c0.1,5.5,0.8,11.1,1.6,16.6c0.8,5.5,1.9,11,3,16.4
				c1.2,5.4,2.4,10.9,3.7,16.3c-1.7-5.3-3.1-10.7-4.4-16.1s-2.4-10.9-3.3-16.4S118,41.7,118,36.1c0-2.8,0.1-5.6,0.7-8.4
				c0.3-1.4,0.8-2.8,1.6-4c0.7-1.2,2-2.3,3.5-2.6l0,0c1.2-0.3,2.4-0.3,3.6,0.1s2.1,1.1,3,1.9s1.6,1.7,2.3,2.7
				C133.3,26.8,133.9,27.8,134.3,28.9z"/>
		</g>
		<g>
			<path d="M134.2,74.8c-0.8-3.6-1.4-7.1-1.8-10.7c-0.5-3.6-0.9-7.2-1.1-10.8c-0.2-3.6-0.3-7.3,0-10.9c0.2-1.8,0.4-3.7,1-5.4
				c0.3-0.9,0.7-1.8,1.4-2.5c0.6-0.8,1.7-1.2,2.7-1.1l0,0c0.8,0,1.7,0.1,2.5,0.3s1.6,0.5,2.4,0.9c1.5,0.8,2.8,1.9,3.7,3.3
				c-0.5-0.7-1.1-1.2-1.7-1.7c-0.6-0.5-1.3-0.9-2.1-1.3c-0.7-0.3-1.5-0.6-2.3-0.7c-0.8-0.2-1.6-0.2-2.4-0.2l0,0l0,0
				c-0.8,0-1.6,0.3-2.1,1c-0.5,0.6-0.9,1.5-1.1,2.3c-0.5,1.7-0.8,3.5-0.9,5.2c-0.3,3.6-0.2,7.2,0,10.8s0.5,7.2,0.8,10.8
				C133.4,67.6,133.7,71.2,134.2,74.8z"/>
		</g>
		<g>
			<path d="M147.9,82.1c0.4-1.7,0.7-3.3,1.1-5c0.4-1.7,0.7-3.3,1-5c0.6-3.3,1.2-6.7,1.6-10c0.2-1.7,0.4-3.4,0.5-5
				c0.1-1.7,0.2-3.4,0.1-5c-0.1-1.7-0.2-3.4-0.6-5c-0.4-1.6-1.1-3.2-2.3-4.4c1.4,1,2.3,2.6,2.8,4.2c0.5,1.6,0.8,3.4,0.9,5.1
				c0.3,3.4,0,6.9-0.4,10.3c-0.4,3.4-1,6.8-1.8,10.1C149.9,75.6,149,78.9,147.9,82.1z"/>
		</g>
		<g>
			<path d="M159.9,53.3c1,1.3,1.6,2.9,2.1,4.5s0.6,3.3,0.6,5c0,3.4-0.7,6.6-1.8,9.8c-1.1,3.1-2.5,6.1-4.2,9s-3.5,5.6-5.7,8.1
				c0.9-1.4,1.8-2.8,2.6-4.2c0.8-1.4,1.6-2.8,2.4-4.3c1.5-2.9,2.9-5.9,3.9-9s1.8-6.3,2-9.5c0.1-1.6,0-3.2-0.4-4.8
				C161.2,56.3,160.6,54.8,159.9,53.3z"/>
		</g>
	</g>
	<g>
		<path class="st6" d="M131.8,274.6c0,0,12.6-0.7,15.5-2.4"/>
		<path d="M131.8,274.6c1.3-0.2,2.6-0.4,3.9-0.6l3.9-0.5l3.9-0.5c0.6-0.1,1.3-0.2,1.9-0.3c0.6-0.1,1.3-0.3,1.9-0.5
			c-1.1,0.7-2.4,1.1-3.7,1.4s-2.6,0.5-3.9,0.7c-1.3,0.1-2.6,0.3-3.9,0.3C134.4,274.7,133.1,274.7,131.8,274.6z"/>
	</g>
</g>
<g id="Layer_4">
	<g id="XMLID_46_">
		<g>
			<path class="st7" d="M188.8,186.1c-0.1-3-0.8-5.6-2.2-7.8c3.5-2.4,4.6-5.4,4.3-8.6l6.3,1.5C192.8,178.8,188.8,186.1,188.8,186.1z
				 M141.5,246.5l-1.7-0.2c-0.2,0.7-1,1.1-1.7,0.8c-0.9-0.3-1.4-1.2-1.1-2.1c0.4-1.1,1.6-1.7,2.6-1.3
				C141,244.1,141.7,245.3,141.5,246.5z M81.6,170.8c2-0.6,3.5-3.7,3.5-3.7c1.5,1.2,3,2.3,4.5,3.4c-1.8,4.3-2.1,9.3-1.5,14.7
				c0.1,0.6,0.1,1.1,0.2,1.7C88.3,186.8,86.2,181,81.6,170.8z M29.7,178.4L29.7,178.4c1,1.4,17.1,23,54,25.9
				c-4.6,3.9,0.7,10,4.8,13.7l-0.1,0.1c0,0-6.8,7.2,3.2,9.2c8.1,1.6,9.6-3.3,9.9-5.3c9.4,17.3,20.1,31.3,20.1,31.3h36
				c0,0,13.7-18.6,22.9-38.1l0.1,0.1c0,0,0,9,10,7s3.2-9.2,3.2-9.2l-0.1-0.1c4.2-3.7,9.4-9.8,4.8-13.7c38-3,53-26,53-26v-0.2
				c7.2-1.5,5.8-3.5,5-9.8c-0.4-3.5-3.2-5.9-6.1-7.4l0.2-0.4c0,0-5.1-14.3-7.1-15.3c-1.1-0.5-24.3-7.1-36.9-10.7
				c-35.9-52.7-48.1,2.7-48.1,2.7v0.1c-2.6-0.3-5.2-0.5-7-0.1c-1-3-3-4-4-5c-5,5-17,6-23,1c-0.9-1-2.1-1-3.1-0.8l0,0
				c-0.9-0.8-2.2-1.5-3.4-1.9c0,0,1.2-15.8-13.5-29.9c-3.5-3.4-8.1-5.4-12.9-5.5c-22.2-0.2-27.7,27.4-28.2,29.9l-23.6,18.1
				c-1,0.8-1.7,1.8-2.2,2.9c-1,2.7-2.9,7.8-3.2,10.4c-5.1,4.5-12.4,11.2-13.1,13.8C20.8,168.9,19.9,173.9,29.7,178.4z M89,162.1
				c-2.8-2.6-4.8-5.1-4.4-5.5s3,1.4,5.8,4s4.8,5.1,4.4,5.5S91.8,164.7,89,162.1z M177.2,175.7c-0.6-1.1,1-3,3.4-4.3
				c2.5-1.3,4.9-1.4,5.5-0.3c0.6,1.1-1,3-3.4,4.3C180.2,176.6,177.8,176.8,177.2,175.7z"/>
			<path class="st7" d="M137.1,245.1c-0.3,0.9,0.2,1.8,1.1,2.1c0.7,0.2,1.5-0.1,1.7-0.8l1.7,0.2c0.1-1.2-0.6-2.3-1.8-2.8
				C138.7,243.4,137.5,244,137.1,245.1z"/>
		</g>
	</g>
	<g>
		<path class="st8" d="M186.6,178.4c12,19-29,75-29,75h-36c0,0-30.4-39.6-33.5-68.3c-0.6-5.4-0.2-10.4,1.5-14.7"/>
		<path class="st8" d="M172.6,145.4c0,0,53,41-21,38"/>
		<path class="st8" d="M182.6,136.4c0,0-5,9.5-3.5,14.8"/>
		<path class="st8" d="M226.6,150.4c0,0-15,0-21,8s-16.8,27.8-16.8,27.8"/>
		<path class="st8" d="M242.6,153.4c0,0,13,2,14,10s3,9-13,11"/>
		<g>
			<path class="st8" d="M29.6,178.4c0,0,16,23,54,26c-7,6,9,17,9,17s1,2-2,1"/>
			<path class="st8" d="M101.6,221.4c0,0,0,8-10,6s-3.2-9.2-3.2-9.2"/>
		</g>
		<g>
			<path class="st8" d="M251.6,173.4c0,0-15,23-53,26c7,6-9,17-9,17s-1,2,2,1"/>
			<path class="st8" d="M180.6,215.4c0,0,0,9,10,7s3.2-9.2,3.2-9.2"/>
		</g>
		<path class="st8" d="M250.7,155.6c0,0-5.1-14.3-7.1-15.3c-1.5-0.7-45-13-45-13"/>
		<path class="st8" d="M158.6,132.4c0,0,12.1-55.4,48.1-2.7"/>
		<path class="st8" d="M167.6,134.4c0,0-11-3-16-2c-1-3-3-4-4-5c-5,5-17,6-23,1c-0.8-1-3.8-1-3.8-1s-1.2,5-1.2,7"/>
		<path class="st8" d="M112.6,124.4c0,0,5.8,0.4,8.9,3.2"/>
		<path class="st8" d="M63.6,120.4c0,0,4.9-30.4,28.2-30.1c4.8,0.1,9.4,2.1,12.9,5.5c14.6,14.1,13.5,29.9,13.5,29.9"/>
		<path class="st8" d="M68.6,116.4l-28.5,21.9c-1,0.7-1.7,1.7-2.2,2.9c-1.1,3-3.3,9-3.3,11.2"/>
		<path class="st8" d="M39.6,147.4c0,0-17,14-18,18s-2,10,13,15"/>
		<line class="st8" x1="197.3" y1="171.3" x2="191" y2="169.7"/>
		<path class="st8" d="M108.6,131.4c-63.3-2.7-41.3,23.3-19,39c11.2,7.9,23,11,23,11"/>
		<path class="st8" d="M45.6,151.4c0,0,16-5,34,15c6,13,8.7,20.4,8.7,20.4"/>
		<path class="st8" d="M85.1,167c0,0-1.5,3.1-3.5,3.7"/>
		<path class="st8" d="M91.6,125.4c0,0-6.1,4.3-6.5,6.7"/>
		<path class="st8" d="M51.6,142.4c0,0-0.9,4.7,3.6,8.9"/>
		<g>
			<path d="M161.6,141.4l-4.8,0.2c-1.6,0.1-3.2,0.2-4.8,0.3s-3.2,0.3-4.7,0.5c-1.6,0.2-3.1,0.5-4.7,1c2.8-1.6,6.1-2.2,9.3-2.5
				C155.2,140.7,158.5,140.8,161.6,141.4z"/>
		</g>
		<g>
			<path d="M137.6,173.4c-1-1.8-1.5-3.8-1.9-5.8c-0.3-2-0.4-4.1-0.4-6.1c0-2.1,0.3-4.1,0.7-6.1c0.2-1,0.4-2,0.7-3s0.6-2,0.9-2.9
				c-0.1,1-0.3,2-0.4,3l-0.4,3c-0.1,1-0.2,2-0.3,3l-0.1,1.5v1.5c-0.1,2,0,4,0.2,6c0.1,1,0.2,2,0.4,3
				C137.1,171.4,137.3,172.4,137.6,173.4z"/>
		</g>
		<g>
			<path d="M129.6,146.4c1.3,2.3,2.3,4.7,3.2,7.1c0.9,2.4,1.7,4.9,2.2,7.5c0.5,2.5,1,5.1,0.9,7.8c0,2.6-0.3,5.3-1.4,7.7
				c0.1-0.6,0.3-1.3,0.4-1.9c0.1-0.6,0.1-1.3,0.2-1.9c0.1-0.6,0.1-1.3,0.1-1.9c0-0.6,0-1.3-0.1-1.9c-0.1-2.5-0.6-5.1-1.1-7.6
				s-1.2-5-2-7.4c-0.4-1.2-0.8-2.5-1.2-3.7C130.5,148.8,130.1,147.6,129.6,146.4z"/>
		</g>
		<g>
			<path d="M128.6,154.4c-0.6-1.2-1.3-2.3-2-3.4c-0.7-1.1-1.5-2.1-2.4-3.1c-0.8-1-1.7-1.9-2.7-2.8c-0.9-0.9-1.9-1.8-2.9-2.7
				c1.2,0.6,2.4,1.2,3.5,2.1c1.1,0.8,2,1.8,2.9,2.8s1.6,2.2,2.3,3.4C127.9,151.8,128.4,153,128.6,154.4z"/>
		</g>
		<g>
			<path d="M123.6,152.4c-2.1-1.5-4-3.1-6-4.6c-1-0.8-2-1.5-3-2.3c-1-0.7-2-1.5-3.1-2.1c1.2,0.3,2.4,0.8,3.5,1.5
				c1.1,0.6,2.1,1.4,3.1,2.1C120.3,148.6,122.1,150.3,123.6,152.4z"/>
		</g>
		<g>
			<path d="M109.6,196.4c-1.3-0.4-2.4-1.3-3.3-2.2c-0.9-1-1.7-2.1-2.3-3.2c-0.6-1.2-1.1-2.4-1.6-3.6c-0.2-0.6-0.4-1.3-0.5-1.9
				c-0.1-0.7-0.2-1.3-0.3-1.9c0.3,0.6,0.5,1.2,0.8,1.8s0.5,1.2,0.8,1.8c0.6,1.2,1.1,2.3,1.7,3.4c0.6,1.1,1.3,2.2,2,3.2
				c0.4,0.5,0.8,1,1.2,1.5C108.6,195.6,109.1,196,109.6,196.4z"/>
		</g>
		<g>
			<path d="M99.6,193.4c-1.3-0.9-2.4-2.1-3.3-3.4c-0.9-1.3-1.7-2.7-2.3-4.2c-0.6-1.5-1.1-3-1.3-4.6c-0.3-1.6-0.2-3.2-0.1-4.8
				c0.2,1.6,0.5,3.1,0.8,4.6s0.8,3,1.4,4.4s1.3,2.8,2.1,4.1C97.7,190.9,98.6,192.2,99.6,193.4z"/>
		</g>
		<g>
			<path d="M153.6,239.4c0.6-2,0.9-4,1.1-6l0.1-1.5v-1.5c0.1-1-0.1-2-0.1-3.1c-0.3-4.1-1.1-8.1-2.3-12l-0.9-2.9
				c-0.3-1-0.8-1.9-1.1-2.8c-0.7-1.9-1.7-3.7-2.6-5.6c-0.9-1.8-2-3.6-3-5.4c-1.1-1.7-2.2-3.4-3.3-5.2c1.3,1.6,2.5,3.3,3.7,4.9
				c1.1,1.8,2.2,3.5,3.2,5.3c0.5,0.9,1,1.8,1.4,2.7c0.5,0.9,0.9,1.9,1.3,2.8c0.4,1,0.8,1.9,1.2,2.9l1,2.9c1.1,4,2,8.1,2.1,12.2
				C155.6,231.3,155.2,235.5,153.6,239.4z"/>
		</g>
		<g>
			<path d="M119.6,239.4c-0.5-4-0.7-8-0.6-12s0.4-8.1,1.1-12c0.7-4,1.7-7.9,3.2-11.7c0.8-1.9,1.6-3.7,2.7-5.4s2.3-3.4,3.6-4.8
				c-2.4,3.2-4.3,6.8-5.6,10.5c-1.3,3.7-2.3,7.6-2.9,11.6c-0.7,3.9-1.1,7.9-1.3,11.9c-0.1,2-0.2,4-0.2,6
				C119.5,235.4,119.6,237.4,119.6,239.4z"/>
		</g>
		<g>
			<path d="M137.6,237.4c-0.2-3.3-0.3-6.7-0.4-10c-0.1-3.3-0.1-6.7-0.1-10s0-6.7,0.1-10l0.1-5c0.1-1.7,0.1-3.3,0.2-5
				c0.1,1.7,0.2,3.3,0.2,5l0.1,5c0.1,3.3,0.1,6.7,0.1,10s0,6.7-0.1,10C137.9,230.7,137.8,234,137.6,237.4z"/>
		</g>
		<g>
			<path d="M141.2,240.7c-2.6-0.8-5.4,0.8-6.2,3.2c-0.4,1.2-0.2,2.5,0.5,3.5s1.9,1.6,3.1,1.5c1.2-0.1,2.2-1,2.5-2.1
				s-0.4-2.4-1.5-2.7c-0.5-0.2-1.2-0.1-1.6,0.3c-0.5,0.3-0.8,0.9-0.7,1.5c0,0.6,0.5,1.1,1.1,1.3s1.3-0.2,1.6-0.8
				c-0.2,0.7-0.9,1.1-1.6,1c-0.7-0.1-1.3-0.7-1.4-1.5c-0.1-0.7,0.2-1.5,0.8-1.9c0.6-0.5,1.4-0.7,2.1-0.5c1.5,0.3,2.4,2,2,3.5
				c-0.3,1.4-1.6,2.6-3.1,2.7c-1.5,0.1-2.9-0.7-3.7-1.8c-0.8-1.2-1-2.7-0.5-4.1c0.5-1.3,1.5-2.4,2.8-2.9
				C138.5,240.3,139.9,240.2,141.2,240.7z"/>
		</g>
		
			<ellipse transform="matrix(0.8871 -0.4616 0.4616 0.8871 -59.5361 103.4144)" class="st9" cx="181.6" cy="173.4" rx="5" ry="2.2"/>
		<ellipse transform="matrix(0.6806 -0.7327 0.7327 0.6806 -89.6372 117.235)" class="st9" cx="89.6" cy="161.4" rx="1" ry="7"/>
	</g>
</g>
</svg>
