<?xml version="1.0" encoding="utf-8"?>
<!-- Generator: Adobe Illustrator 22.1.0, SVG Export Plug-In . SVG Version: 6.00 Build 0)  -->
<svg version="1.1" id="Layer_35" xmlns="http://www.w3.org/2000/svg" xmlns:xlink="http://www.w3.org/1999/xlink" x="0px" y="0px"
	 viewBox="0 0 280.7 328.3" style="enable-background:new 0 0 280.7 328.3;" xml:space="preserve">
<style type="text/css">
	.st0{fill:#212F51;}
	.st1{fill:#F9F9FA;}
	.st2{fill:#0F1214;}
	.st3{fill:#EBF2F1;}
	.st4{fill:#98B4C9;}
	.st5{fill:#C2C1C0;}
	.st6{fill:#B8CDDF;}
	.st7{fill:#111415;}
</style>
<g>
	<path class="st0" d="M181.2,168.4c2.3-1.9,6.7-2.7,9.4-3.8c0.8-0.3,1.6-0.7,2.4-1c1.1-2.8,2.2-5.7,3.3-8.5c0,0,0-0.1,0-0.1
		c-0.3-10.1-1.6-20.3-4.9-29.8c-2.3-6.7-5.2-13.1-8.2-19.5c0,1.4,0,2.7,0,4c0.2,3.9,0.6,7.8,0.5,11.7c0,0.6-0.1,1.1-0.2,1.6
		c0.2,0,0.3,0.2,0.3,0.4c-0.2,15.3-0.7,31.2-3.6,46.3C180.5,169.1,180.8,168.7,181.2,168.4z"/>
	<path class="st1" d="M178.8,128.9c0.6,1.5,0.8,3.7,0.8,5.7c1-1.3,1.9-2.6,2.6-4.1c0,0,0,0,0,0c0-1.7,0.1-3.3,0.1-5
		C181.5,126.6,180.2,127.7,178.8,128.9z"/>
	<path class="st2" d="M197.6,151.7c4.8-12.6,9.5-25.2,14.2-37.9c-3.4,1.1-5.9,2.2-9.6,1.7c-5.6-0.9-10.9-3.4-15.7-6.2
		c2.3,5,4.5,10.2,6.3,15.4C195.8,133.4,197.2,142.5,197.6,151.7z"/>
	<path class="st0" d="M170.6,145.1c2.4,1.6,5.9,4.6,7.3,0.5c0.7-2,0.5-4.5,0.3-6.6c-0.1-2.1-0.2-4.3-0.5-6.4
		c-0.1-1.1-0.1-2.5-0.5-3.3c0,0,0,0,0,0c-0.3-0.6-0.8-0.9-1.6-0.9c-1.9,0-5.1,2.8-6.6,3.7c-1.8,1.1-3.5,2.3-5.2,3.5
		c0.4,1.1,0.4,2.3-0.4,3.5C165.5,141.4,167.9,143.3,170.6,145.1z"/>
	<path class="st1" d="M166.4,148c0.9-0.7,1.8-1.5,2.7-2.3c-2-1.3-3.8-2.8-5.5-4.4C164.6,143.5,165.5,145.8,166.4,148z"/>
	<path class="st0" d="M156.8,139.7c1.8,1.1,4.3,0.7,5.3-1.2c1.1-1.9-0.3-4.1-2.1-5C156.1,132.2,153.2,137.5,156.8,139.7z"/>
	<path class="st3" d="M208.1,175.5c-0.3,0.2-0.6,0.4-0.8,0.6c-1.3,0.9-2.8,2-4.3,2.2c-1,0.1-0.5-0.7,0.2-0.8
		c1.7-0.2,3.9-2.3,5.2-3.3c1.3-1.1,2.3-1.9,1.5-3.5c-0.3-0.5-0.6-0.9-1-1.4c0,0-0.1-0.1-0.1-0.1c-0.5-0.6-1.2-1.2-1.8-1.8
		c-2.2,1.2-4.8,2-6.3,2.3c-1,0.2-0.3-0.5,0.2-0.6c3-0.6,13.2-5.9,7.4-9.7c-2.1-1.4-5.3,0.6-7.3,1.5c-2.2,1-4.4,2-6.7,3
		c-0.1,0-0.1,0.1-0.2,0.1c-3.5,1.4-7.1,2.9-10.6,4.3c-2.2,0.9-2.2,3.1-3.2,6.1c-0.5,1.5-0.5,2.6-0.1,3.8c1.5,4.1,3.1,8.2,4.6,12.4
		c-0.1,0,2.9-0.1,3.6-0.2c3.9-0.3,7.5-1,10.9-2.9C204.4,184.3,209.2,181.8,208.1,175.5z"/>
	<path class="st4" d="M207.9,144c-1.4,0.9-2.2,2.4-2.3,4c0,0.9,0.1,1.8,0.5,2.5c0.3,0.7,0.9,1.4,1.5,1.8c1.1,0.8,1.8,0.8,3.2,0.5
		c1.4-0.3,1.9-0.5,2.5-1.7c0.2-0.3,0.3-0.7,0.4-1c0.1-0.4,0.2-0.9,0.2-1.4C213.9,146,210.9,142.8,207.9,144z"/>
	<path class="st4" d="M214.9,129.8c-4.7-0.9-4.5,7.8,0.4,6.9C219.1,136,218.3,130.6,214.9,129.8z"/>
	<path class="st1" d="M176.3,181.7c1.7,4.5,3.4,9,5,13.5c0,0,0,0,0,0c0,0,0,0,0,0c1.5-0.5,2.9-1.2,3.2-1.7c-0.2,0.5-1.5-3.2-1.8-3.7
		c-0.5-1.3-1-2.6-1.4-3.9c-0.5-1.5-1.1-2.9-1.6-4.4c-0.5-1.4-1-2.4-1.3-3.5c-0.3-0.8-0.6-1.5-0.8-2.3c0,0,0,0,0-0.1
		c-0.4-1.1-0.8-2.1-1.2-3.2c-0.2-0.5-0.4-1.4-0.7-1.9c-0.5,0.2-1.2,0.5-1.3,0.6c-2.3,0.9-1.9,0.2-1,2.6
		C174.3,176.5,175.3,179.1,176.3,181.7z"/>
	<path class="st5" d="M209.1,167.6c0.3-0.8,0.5-1.6,0.8-2.3c-0.5,0.5-1.2,1-1.9,1.4C208.4,166.9,208.8,167.2,209.1,167.6z"/>
	<path class="st2" d="M201.3,203.3c0.3-0.6,0.5-1.2,0.8-1.9c-0.9,0-1.7-0.1-2.6-0.1c0,0,0,0,0,0c0,0,0,0,0,0c-0.6,1.6-1,3.4-1.2,5
		C197.7,211.3,200.7,204.9,201.3,203.3z"/>
	<path class="st1" d="M141.5,126.5c-3.5-3.3-6.5-7.8-7.6-12.5c-0.3,1.8-0.5,3.6-0.6,5.4c2.1,6.1,4.9,12.1,8.3,17.5
		c-0.2-2.9-0.3-5.8-0.1-8.7C141.5,127.7,141.5,127.1,141.5,126.5z"/>
	<path class="st0" d="M145.5,209.5c3.8,2.7,7.6,5.4,11.5,8c0.5-1.3,1.2-2.4,1.9-3.6c0,0,0,0,0,0c-2.1-2.3-4-4.7-6-7.1
		C150.5,207.7,148,208.6,145.5,209.5z"/>
	<path class="st1" d="M163.5,207.5c1-1.2,3.2-5.1,5.3-7.1c-4.8,1.9-9.7,3.9-14.6,5.8c1.8,2.2,3.6,4.4,5.4,6.5
		C160.8,211,162.1,209.3,163.5,207.5z"/>
	<path class="st2" d="M128.1,215.3c-0.5,1.2-1.3,2.4-1.4,3.6c-0.3,2.1,0.9,4.5,1.8,6.5c2.6,5.8,6.8,10.6,11.3,15c0,0,0,0,0,0
		c3.9,4,8.9,6.8,14.2,8.6c0.4-8.1,0.3-16.5,1.3-24.5c0.3-2.1,0.7-4,1.4-5.7c-4.2-2.7-8.4-5.8-12.6-8.7
		C138.7,212,133.4,213.7,128.1,215.3z"/>
	<path class="st1" d="M152.4,148.1c0.9-2.7,1.7-5.5,2.6-8.2c-0.1-0.1-0.1-0.1-0.2-0.2c-2.4,1.6-4.9,3.1-7.5,4.5
		C148.9,145.7,150.5,147.1,152.4,148.1z"/>
	<path class="st3" d="M206.5,183.3c-1.6,1.4-3.7,2.6-6,3.9c-3.4,2-7,3-10.8,3.5c0.3,0.4,0.6,0.8,0.9,1.2c2.6-0.9,5.1-0.6,8.2-0.8
		c1-0.1,0.5,0.8-0.2,0.8c-2.1,0.2-5.4-0.3-7.8,0.4c-0.1,0.2-0.7,0.5-1.1,0.5c-0.5,0.3-0.9,0.6-1.2,1.1c0,0,0,0,0,0
		c0,0,0,0.1-0.1,0.3c-0.2,0.7,0,1.7,0.1,2.5c0.2,1.5,0.4,2.4,1.8,2.9c2.3,0.9,5.3,0.7,7.7,0.9c1.5,0.1,3,0.2,4.4,0.2
		c1.3-3,2.6-5.9,3.9-8.9c-0.2,0-0.4,0-0.4-0.1c0-1.2,0.3-2.4,0.4-3.6C206.6,186.9,207.2,184.5,206.5,183.3z"/>
	<path class="st2" d="M221.8,133.2c-3.7,11.9-7.6,23.6-11.6,35.4c1,1.1,1.7,2.3,1.4,3.4c-0.3,0.9-1.2,1.8-2.1,2.5
		c0.8,3.5-0.1,5.9-1.9,7.9c1.2,0.9,0.7,3,0.5,4.3c-0.1,0.7-0.2,1.5-0.3,2.3c3.9-8.7,7.1-16.8,7.1-26.5c-0.4-1.6-0.3-3.3,0.6-4.9
		c3.4-5.7,12.9-2.8,18.6-0.3c2.2-9.2,4.3-18,3.8-27.6c-0.3-6.5-1.3-19.4-9.5-20.5C226.4,117.3,224.2,125.2,221.8,133.2z"/>
	<path class="st0" d="M177.1,202c0.9-2,1.7-4,2.5-5.9c-2.7,1.1-5.3,2.2-8,3.3c0.1,0.2-0.6,0.6-1,0.6c1,0-0.5,1-1.2,1.9
		c-0.8,1-1.7,2-2.5,3c-2,2.6-4.1,5.1-6,7.8c-2.7,3.7-4,7.8-4.4,12.3C161.8,216.1,170.7,210,177.1,202z"/>
	<path class="st4" d="M219.5,116.7c-3.7-0.7-3.5,6.4,0.4,5.7C223,121.7,222.1,117.3,219.5,116.7z"/>
	<path class="st1" d="M171.6,171.8c1.5-0.6,3-1.1,4.5-1.7c0.1-0.1,0.9-0.3,1,0c0.4,1,0.7,1.9,1.1,2.9c2.8-13.1,3.7-26.8,4.1-40.2
		c-0.8,1.1-1.6,2.2-2.5,3.3c0,1.3,0,2.5,0,3.2c0.1,2.8,0.6,8.4-2.4,9.7c-1.9,0.8-4.4-0.9-6-1.8c-0.4-0.2-0.8-0.5-1.2-0.8
		c-1.2,1-2.4,2-3.6,3c-0.3,0.3-1,0.3-1.2-0.1c-1.2-2.9-2.4-5.8-3.6-8.7c-1.6,1-3.7,1.1-5.4,0.3c0,0-0.1,0-0.1-0.1
		c-0.9,2.8-1.8,5.6-2.6,8.4c-0.1,0.4-0.8,0.5-1.1,0.4c-2.4-1.1-4.5-2.8-6.4-4.7c-0.2,0.1-0.3,0.2-0.5,0.2c-0.7,0.3-1.5,0.8-2.2,0.4
		c-1.1-0.6-1.4-3.8-1.5-5.8c0,0-0.1,0-0.1-0.1c-3.5-5.1-6.4-10.8-8.7-16.6c-0.4,9,0.4,18,1.4,26.9c1.3,10.5,3.4,20.6,7,30.5
		c10.2-1.9,20.5-3.7,30.7-5.6c-0.3-0.9-0.7-1.8-1-2.7C171.1,172,171.5,171.9,171.6,171.8z M158.2,157.9c0.3-1.3,1.3-2,2.5-2.2
		c0.1,0,0.3-0.1,0.4-0.1c0,0,0,0,0,0c0.1,0,0.2,0,0.2,0c1.4,0.1,2.5,1.5,2.2,2.9c-0.3,1.3-1.8,2.2-3.1,2.1
		C159,160.7,158,159.4,158.2,157.9z M163.6,174.1c-0.9,1.5-3,2-4.4,1c-1.3-0.9-1.9-2.6-1-4c0,0,0,0,0,0c0,0,0,0,0-0.1
		c1-1.1,2.7-1.5,4-0.8C163.9,170.9,164.5,172.6,163.6,174.1z"/>
	<path class="st0" d="M143.7,142.1c0.1,0.5,0.3,2.3,0.7,2.6c0.7,0.4,0.8-0.2,1.6-0.5c0,0,0,0,0,0c0.1-0.1,0.2-0.1,0.4-0.2
		c2.8-1.2,5.4-3.1,8-4.7c-0.9-1.4-1-3.2,0.1-4.8c-2.5-2.9-4.9-5.5-7.8-7.9c-0.7-0.6-1.5-1.2-2.3-1.8c-0.7-0.5-1.4-0.6-1.2-0.9
		c-0.2,0.5-0.3,1.3-0.4,2.1c0.2,0.2,0.2,0.4,0,0.6c0,0.9,0,1.7,0,2.1C142.8,133.1,142.8,137.7,143.7,142.1z"/>
	<path class="st2" d="M159.6,171.2c-0.5,0.8-0.4,1.7,0.1,2.4c0.7,1,2.1,1.5,2.7,0.1C163.2,172.1,161,169.8,159.6,171.2z"/>
	<path class="st2" d="M161.2,160c0.9-0.1,1.1-1.5,0.9-2.2c-0.2-0.7-0.8-1.4-1.6-1.5c-0.6,0.1-0.9,1.5-0.9,2
		C159.7,159,160.4,160,161.2,160z"/>
	<path class="st6" d="M196.8,206.1c0.3-1.8,1.1-3.7,1.4-4.7c0,0,0,0,0,0c0,0,0,0,0-0.1c-1.3-0.1-2.5-0.2-3.8-0.3
		c-1.9-0.2-5.5,0-6.7-1.8c-1.2-1.8-1.3-5.1,0.6-6.3c0.3-0.2,0.7-0.4,1-0.6c-0.3-0.4-0.6-0.8-0.9-1.2c-0.1-0.1,0-0.3,0.2-0.4
		c-1.2,0.1-2.4,0.2-3.7,0.2c0.3,0.8,0.6,1.6,0.9,2.4c0,0.1-0.2,0.3-0.3,0.3c-1.4,0.6-2.8,1.2-4.2,1.7c-0.8,2-1.8,4.1-2.7,6.2
		c0,0,0,0,0,0C184,205.2,190.1,208.6,196.8,206.1z"/>
	<path class="st2" d="M180.3,315.8c-4.3,0-8.7,0-13,0c-0.8,3-1.6,6-2.5,9c-0.1,0.5-0.6,1.5-0.6,2c0.1,0,0.1,0,0.2,0.1
		c0.9,0.4,2.6,0.2,4,0.1c-0.1-1.8,0.2-3.6,2.3-3.6c1.8,0,2.3,1.6,3.2,2.6c0.6,0.6,0.3,0.8,0.2,0.9c0.1,0,0.4,0,0.9,0.1
		c6.5,0.9,13.6,0.1,20.2,0C190.8,322.3,186.6,318,180.3,315.8C180.3,315.8,180.3,315.8,180.3,315.8z"/>
	<path class="st0" d="M158.9,241c-1.2,1.9,1.9,4.6,2.9,2.2C162.5,241.6,160.2,239.5,158.9,241z"/>
	<path class="st0" d="M174.4,252.6c-12.2,1-27.2-2.7-36-11.6c0,0,0,0-0.1,0c-4.5-4.5-8.7-9.3-11.4-15.2c-0.8-1.7-1.3-3-1.5-4.1
		c-8.2,5.7-13.8,13.9-14,24.2c-0.2,6.6,2.4,12.3,3.7,18.6c2.2,10.7,4.5,21.4,6.7,32.2c1,5,1.3,11.4,3.3,16.1
		c1.5,3.5,4.4,2.7,7.7,2.6c2.1,0,4.2-0.1,6.2-0.1c2.8-14.9,4.9-29.9,7.6-44.8c-2.4,0-4.9,0.4-7.2,1.4c-0.7,0.3-1.5-0.3-0.6-0.7
		c6.1-2.6,12.9-2.1,18.6,1.4c0.6,0.4-0.7,1.1-1.1,0.8c-1.5-0.9-3.1-1.6-4.7-2.1c6.2,4.5,12.4,9,18.6,13.4c0,0,0.1,0.1,0,0.2
		c-1,8.3-2,16.6-3,24.9c-0.2,1.5-0.7,3.3-0.6,4.8c0,0.3,0,0.5-0.1,0.6c0.1,0,0.2,0,0.3,0c0.2,0,0.3,0,0.4,0.1
		c3.7,1,8.4-0.6,12.2-0.1c0.2,0,0.4,0,0.6,0c0,0,0-0.1,0-0.1c0.2-1.3,0.7-2.7,1-4c1.2-4.7,2.4-9.4,3.6-14.1
		c1.1-4.4,2.2-8.9,2.9-13.4c0.5-3.5-0.6-6.4-1.9-9.7c-2.9-7.3-6.5-14.4-10-21.4C175.4,252.4,174.9,252.5,174.4,252.6z"/>
	<path class="st2" d="M139.1,315.7c-4.5,0.1-8.9,0.1-13.4,0.2c-0.7,3-1.4,6.1-2,9.1c-0.1,0.3-0.5,1.5-0.4,1.8c0,0,0,0,0,0
		c0.1,0,0.3,0,0.6,0.1c1,0.3,2.4,0.1,3.6,0c-0.1-1.8,0.2-3.6,2.3-3.6c1.7,0,2.4,1.5,3.2,2.6c0.6,0.7,0.3,0.9,0.2,0.9
		c0.1,0,0.3,0,0.9,0.1c4,0.6,8.7,0,12.8,0c2.5,0,5,0,7.5,0C149.7,322.2,145.5,317.9,139.1,315.7
		C139.1,315.7,139.1,315.7,139.1,315.7z"/>
	<path class="st2" d="M127.8,214.8c5.3-1.6,10.5-3.4,15.8-5.2c0-0.4,0.9-0.8,1.3-0.5c0,0,0,0,0,0c2.5-0.9,5.1-1.9,7.6-2.8
		c-0.1-0.3,0.9-0.7,1.3-0.5c2.2-0.8,4.4-1.7,6.6-2.6c5.5-2.1,11-4.3,16.5-6.6c0.5-0.2,1.6-0.5,2.8-0.9c0-0.1,0-0.1,0.1-0.2
		c-2.5-6.6-4.9-13.2-7.4-19.8c-10.3,2-20.7,3.7-31,5.7c-0.3,0.2-0.9,0.3-1.1,0.2c-4.3,0.8-8.6,1.7-12.9,2.6c-0.2,0.4-1,0.6-1.3,0.3
		c-3.4,0.7-6.8,1.5-10.2,2.3c-0.9,0.2-1.1-0.6-0.2-0.8c3.3-0.8,6.6-1.5,9.9-2.2c-3.5-5.4-6-11-8.5-16.9c-0.1-0.1,0.1-0.3,0.1-0.4
		c1.2-1.3,7.2-5.9,7.3-7.5c0.1-2.7-6.4-4.4-8.5-5.4c-0.1-0.1-0.2-0.2-0.2-0.3c-0.3-17.6,4-35.6,12.2-51.3c-15,4.4-29.5,10-44.5,14.3
		c3.5,3,6.3,7.6,8.2,11.1c0.1,0.2-1.2,0.7-1.4,0.4c-2.5-4.5-11.6-18.9-17.4-11.8c-4.9,6-3.5,15.7-2.7,22.8
		c1.2,9.9,3.4,19.7,5.8,29.4c3.1,12.3,6.6,24.6,10.7,36.7c2.1,5.6,7.5,9.9,12.9,12.2c7.1,3,13.1,2,20.3,0.2c2.3-0.6,4.6-1.3,6.9-1.9
		C127.1,214.9,127.5,214.8,127.8,214.8z"/>
	<path class="st0" d="M117.4,146.3c-0.1,2.6-0.8,5.4,1.4,7.2c2.1,1.7,5.6,2.8,8.1,4c0.2,0.1,0.2,0.4,0,0.6c-2.1,2.1-5,4.4-6.7,6.9
		c-1.7,2.5-0.7,4,0.4,6.5c1.8,4.2,4,8.2,6.5,12c4.3-0.9,8.6-1.7,12.8-2.6c-3.8-10.5-5.8-21.1-7.1-32.2c-1.1-9.5-1.8-19.3-1-28.9
		c0,0,0,0,0,0c0-0.1,0-0.1,0-0.2c0.4-4.2,1-8.4,2.1-12.5c0,0,0,0,0,0c0.1-0.5,0.3-1,0.5-1.5c1.9-4.9,5.2-8.9,8.9-12.6
		c-3.7,1.4-7.5,2.8-11.2,4.3c-5.8,9.7-9.9,20.5-12.3,31.5C118.4,134.5,117.6,140.4,117.4,146.3z"/>
	<path class="st4" d="M240.8,162.7c-1.4-1-3.9-2.6-6.7-4c-0.1,0-0.2-0.1-0.2-0.1c-6.1-3-13.9-5.4-16.9-0.6
		c-3.4,5.5,5.5,12.7,9.3,15.4c3.4,2.4,11.4,6.9,17.4,6.9c0,0,0,0,0.1,0c0.3-0.1,0.6-0.1,0.8,0c2.1-0.2,3.9-0.9,5.1-2.6
		C252.3,172,244.7,165.5,240.8,162.7z"/>
	<path class="st3" d="M141.7,124.8c0.3-1.2,1-1.9,2.6-1.5c2.3,0.7,4.8,3.5,6.5,5c1.7,1.6,3.2,3.4,4.8,5.1c1.5-1.1,3.6-1.5,5.3-0.9
		c1,0.4,1.8,1.1,2.4,2c2.6-1.8,5.2-3.5,7.9-5.1c1.4-0.8,4.2-2.9,6-2.4c0.5,0.1,1,0.6,1.3,1.1c1.7-1.4,3.5-3.2,3.9-5.1
		c0.2-1-0.1-2.4-0.2-3.4c-0.2-3.8-0.3-7.7-0.5-11.5c-0.1-2,0.1-4.2-0.3-6.1c0-0.1-0.1-0.3-0.1-0.4c0-0.1-0.1-0.1-0.1-0.2
		c0-0.1,0-0.1,0-0.2c-0.4-1.7-1.2-3.4-1.9-5.1c-0.2,1.2-0.3,2.4-0.5,3.6c-0.1,0.4-0.9,0.5-1.2,0.5c-8.1,0-16.3,0-24.4,0
		c0,0-0.2,0-0.3-0.1c-0.5-4.3-0.9-8.6-1.4-13c-5.8,5-11.9,10.2-15.1,17.3C133.1,111.7,136.5,119.3,141.7,124.8z"/>
	<path class="st2" d="M174.1,223.9c-2.4-6.5-0.7-12.7,1.7-18.8c-6.8,7.3-15.2,13.6-19.4,22.7c0,0,0,0.1-0.1,0.1
		c-0.5,7.2-0.6,14.4-1,21.6c5,1.5,10.3,2.3,15.4,2.5c3.1,0.1,5.7,0.1,8.1-2.1c1.9-1.7,3.5-3.8,5-5.8c1.7-2.3,3.3-4.6,4.9-7.1
		C182.2,235,176.6,230.6,174.1,223.9z M163,243.9c-2,3.4-7.2,0.2-5.4-3.1c0-0.1,0.1-0.2,0.1-0.3c0.1-0.1,0.1-0.1,0.2-0.2
		c1-1,2.6-1.3,3.9-0.6C163.3,240.6,163.9,242.4,163,243.9z M163,231.6c-0.8,1.4-2.8,1.9-4.2,1.3c-1.5-0.7-2.2-2.5-1.3-4c0,0,0,0,0,0
		c0,0,0,0,0-0.1c0.9-1.1,2.6-1.5,3.9-1C163.1,228.3,163.9,230.1,163,231.6z"/>
	<path class="st6" d="M203.5,201.3c-0.6,1.4-1.2,2.8-1.8,4.2c-0.1,0.3-1.3,3.4-1.5,3.5c-0.5,0.4-1.4,0.8-2,0.7
		c-1.6-0.1-1.8-1.6-1.6-3.3c-2.6,0.8-5.5,1-8.1,0.7c-4.2-0.4-7.2-2.3-10.5-4.5c-2.5,5.7-4.6,11.6-3.4,17.7c2.4,12,14.8,18.5,26.3,17
		c14-1.8,17.7-16.1,21.2-28C214.3,210.2,208.2,207.6,203.5,201.3z"/>
	<path class="st0" d="M159,228.7c-0.4,0.7-0.5,1.5-0.1,2.2c0.5,1.1,2,2.2,2.8,0.8c0.5-0.9,0.4-2-0.4-2.8
		C160.6,228.3,159.7,228,159,228.7z"/>
	<path class="st6" d="M216.1,165.4c-0.9,12.1-6.8,22.6-11.7,33.9c-0.1,0.2-0.2,0.4-0.2,0.5c4.4,6.6,10.2,9.7,18.2,9.1
		c0.4-1.3,0.8-2.7,1.2-3.9c3.4-10.5,8.4-19.2,18.2-23.9c-5-0.6-10.5-3.3-13.7-5.1C225.1,174.2,219,170,216.1,165.4z"/>
	<path class="st6" d="M229,95.8c-0.8-0.5-2.2-0.7-3.1-0.9c-5-0.7-5.3-0.5-5.7,0.8c0,0,0,0,0,0c0,0,0,0,0,0.1
		c-0.1,0.5-0.3,1.1-0.7,1.8c-1.1,2.1-1.8,4.7-2.7,6.9c-1.6,4.1-3.1,8.1-4.6,12.2c-5.8,15.4-11.5,30.9-17.5,46.2
		c1.8-0.8,3.5-1.5,5.3-2.3c2-0.9,5.8-3.2,8.2-2.6c1.4,0.4,2.7,1.9,3.1,3.5c1.4-4.1,2.8-8.3,4.2-12.4c4.7-14.6,9.1-29.1,12.7-44
		c0.6-2.3,1.1-4.7,1.7-7C230.2,96,230.5,96.6,229,95.8z M212.5,153.1c-2.9,1.5-6.9,0.7-8.1-2.6c-0.9-2.5,0.1-5.1,2.3-6.4
		c0,0,0,0,0.1-0.1c0,0,0,0,0,0c0,0,0,0,0,0c0,0,0.1,0,0.1-0.1c3-1.3,6.9-0.6,8.1,2.8C215.9,149.2,214.8,151.9,212.5,153.1z
		 M219.2,133.9c-0.5,2.5-3.1,4-5.5,3.7c-2.7-0.3-4.5-3.1-3.6-5.7c0.8-2.3,3.3-3.3,5.6-2.9C218.1,129.6,219.7,131.5,219.2,133.9z
		 M223.3,120.1c-0.4,2.1-2.7,3.4-4.8,3.2c-2.3-0.2-3.8-2.6-3-4.8c0.7-2,2.9-2.9,4.9-2.5C222.3,116.4,223.7,118,223.3,120.1z"/>
	<path class="st3" d="M149.6,74.9c-2.6,0.4-2.7,3.1-2,5.4c0.4,1.2,1.1,2,2.5,1.8c0.3,0,0.7-0.1,1-0.2c-0.1-1.1-0.2-2.2-0.3-3.4
		C150,77.5,149.6,76.2,149.6,74.9z"/>
	<path class="st6" d="M227.5,89.2c-0.7,0.1-2.4,0.3-3.9,0.6c0,0.6-1.1,0.9-1.4,0.4c-0.7,0.2-1.2,0.5-1.5,0.9
		c-0.5,0.8-0.5,2.3-0.5,3.6c3-1.6,7.2-0.6,10.3,0.6c0.5-1,1-2,1.3-3c0.2-0.5,0.3-0.8,0.2-1.3C231.7,88.6,229.2,88.9,227.5,89.2z"/>
	<path class="st6" d="M188.9,88.9c0.2,0.3,0.4,0.5,0.4,0.7c0.1,0,0.2,0,0.3,0c2.4,0.4,6.2-1.1,8.6-1.8c3.2-0.9,6.6-1.8,9.7-3
		c3.2-1.2,6.2-3.3,9.7-3.1c5.5,0.4,5.1,3.3,6,7.6c1.6-0.4,3.3-0.8,5-1c0.9-0.1,1.9-0.1,2.9,0c0.7-5.8-1.3-12.6-7.9-13.9
		c-4.3-0.8-9.2,0.8-13,2.7c-5.2,2.7-10.7,5.5-16.5,6.8c-1,0.2-4.4,0.3-5.9,0.9l0.6,3.8C188.7,88.8,188.8,88.8,188.9,88.9z"/>
	<path class="st6" d="M184.1,60.4c-0.1,1.1-0.3,2.2-0.4,3.2c1.8-2.9,2.3-6.7,1.8-10.1C184.9,55.8,184.4,58.1,184.1,60.4z"/>
	<path class="st3" d="M167.8,89.8c3.8-0.4,7.6-1.7,11.3-3.1c0.3-2.4,0.6-4.8,1-7.1c-3.4,3.5-9.9,4-12.4-1.9c-0.8-1.8-0.8-3.6-0.2-5
		c-1.2-0.6-2.5-0.7-3.8-0.3c1,1.5,1.1,3.5,0.1,5.5c-2.5,5.1-8.4,5.1-11.8,2.1c0.1,0.6,0.1,1.2,0.2,1.8c0.1,0,0.1,0.1,0,0.2
		c0.4,3.3,0.8,6.6,1.2,9.9c0.2,1.9-0.1,5.5,0.9,7.2c0.1,0.2,0.1,0.3,0.1,0.3c0.1,0,0.1,0.1,0.3,0.1c0.8,0.4,2.9,0,3.8,0
		c6.3,0,12.6,0,18.9,0c0.3-2,0.5-4,0.8-6c0,0,0,0,0,0c0,0,0-0.1,0-0.1c-3.5,0.3-6.9,0.3-10.4,0.5c-0.1,0-0.6,0-0.6-0.2
		c0-1.1-0.1-2.2-0.1-3.3C167,90,167.5,89.8,167.8,89.8z"/>
	<path class="st6" d="M144.8,50.9c-0.6,4.7,1.3,9.6,4.1,13.3c-0.3-2-0.6-4.1-1-6.1C147.5,55.6,146.1,53.3,144.8,50.9z"/>
	<path class="st3" d="M181.9,76.6c-0.2,1.7-0.5,3.4-0.7,5c0,0,0.1,0,0.1,0c2.1,0.2,4.4-1.9,4.3-4c-0.1-1.8-1.8-2.8-3.4-3
		C182.2,75.3,182.1,75.9,181.9,76.6z"/>
	<path class="st7" d="M160.5,160.7c1.3,0,2.8-0.8,3.1-2.1c0.3-1.4-0.7-2.8-2.2-2.9c-0.1,0-0.1,0-0.2,0c0,0,0,0,0,0
		c-0.1,0-0.3,0-0.4,0.1c-1.2,0.2-2.2,1-2.5,2.2C158,159.4,159,160.7,160.5,160.7z M160.5,156.3c0.8,0.1,1.4,0.8,1.6,1.5
		c0.2,0.7,0,2.1-0.9,2.2c-0.8,0.1-1.5-1-1.5-1.7C159.6,157.8,159.9,156.5,160.5,156.3z"/>
	<path class="st7" d="M162.3,170.2c-1.4-0.6-3-0.3-4,0.8c0,0,0,0,0,0.1c0,0,0,0,0,0c-0.9,1.4-0.4,3.1,1,4c1.5,1,3.5,0.5,4.4-1
		C164.5,172.6,163.9,170.9,162.3,170.2z M162.4,173.8c-0.6,1.3-2,0.9-2.7-0.1c-0.5-0.7-0.5-1.7-0.1-2.4
		C161,169.8,163.2,172.1,162.4,173.8z"/>
	<path class="st7" d="M161.5,227.8c-1.3-0.5-3,0-3.9,1c0,0,0,0,0,0.1c0,0,0,0,0,0c-0.9,1.4-0.2,3.3,1.3,4c1.4,0.7,3.4,0.1,4.2-1.3
		C163.9,230.1,163.1,228.3,161.5,227.8z M161.6,231.7c-0.8,1.4-2.3,0.2-2.8-0.8c-0.3-0.7-0.3-1.5,0.1-2.2c0.7-0.7,1.6-0.4,2.3,0.3
		C162,229.7,162.2,230.8,161.6,231.7z"/>
	<path class="st7" d="M161.8,239.8c-1.3-0.7-2.9-0.5-3.9,0.6c-0.1,0-0.1,0.1-0.2,0.2c-0.1,0.1-0.1,0.2-0.1,0.3
		c-1.7,3.3,3.4,6.5,5.4,3.1C163.9,242.4,163.3,240.6,161.8,239.8z M161.8,243.3c-1,2.4-4.1-0.3-2.9-2.2
		C160.2,239.5,162.5,241.6,161.8,243.3z"/>
	<path class="st2" d="M236.7,158.6c-0.4-0.2-0.9-0.5-1.4-0.7c2.5-10.6,4.8-20.7,3.8-31.7c-0.6-6.6-2.3-17.2-10.4-18
		c1-4.1,2-8.2,3-12.3c0,0,0,0,0,0c0.6-1.4,1.7-3.1,1.9-4.6c0.1-1.1-0.2-1.8-0.8-2.3c1.9-12.9-8.8-18.6-19.8-14.2
		c-8,3.1-14.8,7.4-23.4,9c-0.5,0.1-0.9,0.2-1.3,0.3c0.5-0.3,0.2-0.9-0.5-0.6c-2.4,0.7-4.8,1.7-7.2,2.7c0.2-1.3,0.3-2.5,0.5-3.8
		c2.4,0,4.7-1.3,5.7-3.6c1.3-3.1-1.8-4.9-4.5-5c0.4-2.7,0.7-5.3,1.1-8c3.8-3.7,4.5-10,3-14.8c0-0.1-0.1-0.2-0.2-0.2
		c1.4-5.3,3-10.6,3.7-16.1c0.9-7.1-0.3-10.4-7.4-13c-2.1-6-7.2-14.2-13.5-14.1c-0.8,0-1.6,0.2-2.2,0.4c0-0.1,0-0.1,0-0.2
		c-2-3.1-6.1-8.1-10.2-8.3c-1.7-0.1-3,0.7-3.9,1.9c-4.4,0.9-8.4,3-11.3,6.6c-4.4,5.5-4,12.6-3,19.2c1,6.6,2.1,13.3,4.6,19.5
		c0.3,0.8,0.7,1.5,1,2.2c0,0,0,0,0,0c-1.7,6.2,1,12.9,5.2,17.5c0.1,0.1,0.2,0.1,0.3,0.1c0.3,1.8,0.5,3.7,0.7,5.5
		c-0.3,0.7-0.4,1.4-0.4,2.1c-1,0.2-2,0.6-2.8,1.3c-1,1-1.1,2.3-1,3.7c0.2,1.3,0.4,2.7,1.7,3.3c1.3,0.6,2.4,0,3.6-0.1
		c0.1,1.1,0.2,2.1,0.3,3.2c-2.2,1.9-4.4,3.8-6.6,5.9c-4.6,1.7-9.1,3.5-13.7,5.2c-0.2,0.1-0.4,0.2-0.4,0.3c-0.8,1.3-1.5,2.7-2.3,4
		c-15.3,4.5-30.2,10.2-45.5,14.6c-1.3-1-2.7-1.8-4.1-2.2c-6.7-1.9-9.9,6-10.5,11.4c-1.1,9.8,1.1,20,3.1,29.5
		c2.3,11.1,5.2,22.1,8.4,32.9c1.7,5.9,3.5,11.8,5.5,17.6c0,0,0,0,0,0c0,0,0,0,0,0c0.1,0.3,0.2,0.6,0.3,0.9c0,0,0.1,0.1,0.1,0.1
		c2.6,5.9,8.7,10.1,14.6,12.1c6.4,2.2,12.1,1.3,18.6-0.3c2.6-0.6,5.2-1.3,7.7-2.1c-0.9,2.3-1.3,3.7-1.1,5.3c-0.1,0-0.3,0.1-0.3,0.1
		c-12.7,8.5-18.2,22.7-13.2,37.4c2.8,8.1,3.9,16.8,5.7,25.2c2.2,10.7,4.4,21.4,6.7,32.1c-0.9,3.9-1.7,7.7-2.6,11.6
		c-0.1,0.2,0.3,0.3,0.4,0.3c1.9,0,3.8,0,5.7,0c0.3,0,1-0.2,1-0.6c-0.3-3.6,2.6-2.2,2.9,0.4c0,0.2,0.3,0.2,0.4,0.2
		c7.7,0,15.4,0,23.2,0c0.2,0,1.3-0.3,1-0.7c-4.9-4.9-9.2-9.5-15.8-11.9c2.8-14.9,4.9-29.9,7.6-44.8c0.2,0,0.4,0,0.6,0.1
		c4.1,3,8.2,5.9,12.3,8.9c1.9,1.4,7.2,4,7.8,5.9c0.7,2.2-0.8,7-1.1,9.2c-0.9,7-1.7,14-2.6,21.1c0,0.2,0.3,0.3,0.4,0.3
		c0.1,0,0.2,0,0.3,0c-1.1,3.9-2.1,7.7-3.2,11.6c-0.1,0.2,0.3,0.4,0.5,0.4c1.9,0,3.8,0,5.7,0c0.4,0,1-0.2,1-0.6
		c-0.3-3.8,2.6-2.4,2.9,0.4c0,0.2,0.3,0.2,0.5,0.2c7.7,0,15.4,0,23.2,0c0.2,0,1.4-0.3,0.9-0.7c-4.9-4.9-9.2-9.5-15.8-11.9
		c1.2-4.6,2.4-9.2,3.6-13.9c1.6-6.3,4-13.2,4.3-19.7c0.2-5.1-3.1-10.7-5.2-15.2c-2.2-4.9-4.6-9.7-7-14.5c0,0,0,0,0,0
		c5.5-2.4,9.6-9.7,12.5-14.4c2.3,0.6,4.7,0.9,7,1c5.1,0.1,10.3-1.2,14.4-4.2c5-3.7,7.5-10.2,9.8-15.8c5.7-14.2,6.8-30.2,22.3-37.1
		c3.1,0.1,5.9-0.7,7.8-3.2c0,0,0,0,0-0.1c0,0,0,0,0.1-0.1C254.8,169.9,242.3,161.5,236.7,158.6z M237.9,129.7
		c0.5,9.6-1.7,18.4-3.8,27.6c-5.7-2.5-15.2-5.4-18.6,0.3c-0.9,1.6-1,3.2-0.6,4.9c0.1,9.7-3.2,17.8-7.1,26.5c0.1-0.8,0.3-1.5,0.3-2.3
		c0.1-1.3,0.6-3.4-0.5-4.3c1.8-1.9,2.7-4.3,1.9-7.9c1-0.7,1.8-1.6,2.1-2.5c0.3-1.1-0.4-2.3-1.4-3.4c4-11.8,7.9-23.5,11.6-35.4
		c2.5-8,4.6-16,6.6-24C236.6,110.3,237.5,123.2,237.9,129.7z M206.4,191.7c-1.3,2.9-2.6,5.9-3.9,8.9c-1.5,0-3-0.1-4.4-0.2
		c-2.4-0.1-5.4,0-7.7-0.9c-1.4-0.5-1.6-1.4-1.8-2.9c-0.1-0.7-0.3-1.8-0.1-2.5c0-0.2,0.1-0.2,0.1-0.3c0,0,0,0,0,0
		c0.3-0.5,0.7-0.8,1.2-1.1c0.4,0,1-0.2,1.1-0.5c2.4-0.7,5.6-0.3,7.8-0.4c0.7-0.1,1.2-0.9,0.2-0.8c-3.1,0.2-5.6-0.1-8.2,0.8
		c-0.3-0.4-0.6-0.8-0.9-1.2c3.8-0.5,7.4-1.5,10.8-3.5c2.2-1.3,4.3-2.5,6-3.9c0.7,1.2,0.1,3.6,0,4.7c-0.1,1.2-0.5,2.4-0.4,3.6
		C206.1,191.7,206.2,191.7,206.4,191.7z M158.9,213.9C158.9,213.9,158.9,213.9,158.9,213.9c-0.7,1.2-1.3,2.4-1.9,3.6
		c-3.9-2.5-7.7-5.3-11.5-8c2.5-0.9,4.9-1.8,7.4-2.8C154.9,209.2,156.8,211.6,158.9,213.9z M154.3,206.2c4.9-1.9,9.8-3.8,14.6-5.8
		c-2.2,2-4.4,5.9-5.3,7.1c-1.4,1.8-2.7,3.5-3.8,5.2C157.8,210.6,156.1,208.4,154.3,206.2z M156.5,218.8c-0.6,1.7-1.1,3.6-1.4,5.7
		c-1,8.1-0.9,16.4-1.3,24.5c-5.3-1.8-10.3-4.6-14.2-8.6c0,0,0,0,0,0c-4.5-4.5-8.7-9.2-11.3-15c-0.9-1.9-2.1-4.4-1.8-6.5
		c0.2-1.2,0.9-2.5,1.4-3.6c5.3-1.6,10.6-3.3,15.9-5.2C148.1,213,152.3,216,156.5,218.8z M161,212.7c2-2.6,4-5.2,6-7.8
		c0.8-1,1.6-2,2.5-3c0.7-0.9,2.2-1.9,1.2-1.9c0.4,0,1.1-0.4,1-0.6c2.7-1.1,5.3-2.2,8-3.3c-0.8,2-1.7,3.9-2.5,5.9
		c-6.4,7.9-15.3,14.1-20.6,23C157,220.5,158.2,216.4,161,212.7z M181.3,195.4c1.4-0.6,2.8-1.1,4.2-1.7c0.1,0,0.4-0.2,0.3-0.3
		c-0.3-0.8-0.6-1.6-0.9-2.4c1.2,0,2.5-0.1,3.7-0.2c-0.2,0.1-0.3,0.3-0.2,0.4c0.3,0.4,0.6,0.8,0.9,1.2c-0.3,0.2-0.7,0.4-1,0.6
		c-1.8,1.2-1.8,4.5-0.6,6.3c1.2,1.8,4.8,1.6,6.7,1.8c1.3,0.1,2.5,0.2,3.8,0.3c0,0,0,0,0,0.1c0,0,0,0,0,0c-0.3,0.9-1.1,2.9-1.4,4.7
		c-6.6,2.5-12.8-0.8-18.2-4.4c0,0,0,0,0,0C179.5,199.5,180.5,197.4,181.3,195.4z M172.1,174.9c-10.2,1.9-20.5,3.7-30.7,5.6
		c-3.6-10-5.7-20-7-30.5c-1.1-8.9-1.9-17.9-1.4-26.9c2.2,5.8,5.1,11.5,8.7,16.6c0,0,0.1,0,0.1,0.1c0.1,2,0.4,5.2,1.5,5.8
		c0.7,0.4,1.5-0.1,2.2-0.4c0.2-0.1,0.3-0.2,0.5-0.2c1.9,1.9,3.9,3.6,6.4,4.7c0.3,0.1,1,0,1.1-0.4c0.9-2.8,1.8-5.6,2.6-8.4
		c0,0,0.1,0,0.1,0.1c1.7,0.8,3.8,0.7,5.4-0.3c1.2,2.9,2.4,5.8,3.6,8.7c0.2,0.5,0.9,0.4,1.2,0.1c1.2-1,2.4-2,3.6-3
		c0.4,0.2,0.8,0.5,1.2,0.8c1.5,0.9,4.1,2.6,6,1.8c3-1.3,2.6-6.9,2.4-9.7c0-0.7,0-1.8,0-3.2c0.9-1,1.8-2.1,2.5-3.3
		c-0.3,13.5-1.2,27.1-4.1,40.2c-0.4-1-0.7-1.9-1.1-2.9c-0.1-0.3-0.8,0-1,0c-1.5,0.6-3,1.1-4.5,1.7c-0.1,0-0.5,0.2-0.5,0.4
		C171.5,173.1,171.8,174,172.1,174.9z M141.6,136.9c-3.5-5.4-6.3-11.5-8.3-17.5c0.2-1.8,0.4-3.6,0.6-5.4c1.1,4.7,4.1,9.2,7.6,12.5
		c0,0.6,0,1.2,0,1.7C141.3,131.1,141.4,134,141.6,136.9z M142.8,126.5c0.2-0.2,0.2-0.4,0-0.6c0-0.8,0.1-1.6,0.4-2.1
		c-0.1,0.4,0.5,0.5,1.2,0.9c0.8,0.5,1.5,1.2,2.3,1.8c2.9,2.4,5.3,5,7.8,7.9c-1.1,1.6-1.1,3.4-0.1,4.8c-2.5,1.6-5.2,3.5-8,4.7
		c-0.1,0-0.3,0.1-0.4,0.2c0,0,0,0,0,0c-0.8,0.3-0.9,0.9-1.6,0.5c-0.4-0.2-0.6-2.1-0.7-2.6c-0.9-4.3-0.9-9-0.8-13.4
		C142.9,128.2,142.8,127.4,142.8,126.5z M154.8,139.7c0.1,0.1,0.1,0.1,0.2,0.2c-0.9,2.7-1.7,5.5-2.6,8.2c-1.9-1-3.5-2.5-5.1-4
		C149.9,142.8,152.4,141.3,154.8,139.7z M160,133.5c1.8,0.8,3.2,3,2.1,5c-1.1,1.9-3.6,2.3-5.3,1.2
		C153.2,137.5,156.1,132.2,160,133.5z M163.7,135.5c1.7-1.2,3.4-2.4,5.2-3.5c1.5-0.9,4.7-3.7,6.6-3.7c0.9,0,1.3,0.4,1.6,0.9
		c0,0,0,0,0,0c0.5,0.9,0.4,2.2,0.5,3.3c0.3,2.1,0.4,4.3,0.5,6.4c0.1,2.1,0.4,4.6-0.3,6.6c-1.4,4.1-4.9,1.1-7.3-0.5
		c-2.7-1.8-5.1-3.7-7.3-6.1C164.1,137.9,164.2,136.6,163.7,135.5z M169.2,145.7c-0.9,0.8-1.8,1.5-2.7,2.3c-0.9-2.2-1.9-4.5-2.8-6.7
		C165.3,142.9,167.2,144.4,169.2,145.7z M183.5,122.9c0.1-0.5,0.2-1,0.2-1.6c0.1-3.9-0.3-7.9-0.5-11.7c-0.1-1.3,0-2.6,0-4
		c3,6.4,5.9,12.8,8.2,19.5c3.3,9.6,4.6,19.7,4.9,29.8c0,0,0,0.1,0,0.1c-1.1,2.8-2.2,5.7-3.3,8.5c-0.8,0.3-1.6,0.7-2.4,1
		c-2.7,1.1-7.2,1.9-9.4,3.8c-0.4,0.3-0.7,0.8-1,1.3c2.9-15.2,3.4-31,3.6-46.3C183.8,123.1,183.7,123,183.5,122.9z M186.6,109.3
		c4.9,2.8,10.2,5.3,15.7,6.2c3.7,0.6,6.2-0.5,9.6-1.7c-4.8,12.6-9.5,25.3-14.2,37.9c-0.4-9.2-1.8-18.3-4.8-27
		C191.1,119.4,188.9,114.3,186.6,109.3z M182.3,130.4C182.3,130.4,182.3,130.4,182.3,130.4c-0.7,1.5-1.6,2.9-2.6,4.1
		c-0.1-2-0.3-4.2-0.8-5.7c1.4-1.2,2.6-2.2,3.5-3.5C182.3,127.1,182.3,128.7,182.3,130.4z M174.3,171.3c0.2-0.1,0.8-0.4,1.3-0.6
		c0.3,0.5,0.5,1.3,0.7,1.9c0.4,1.1,0.8,2.1,1.2,3.2c0,0,0,0,0,0.1c0.3,0.8,0.6,1.5,0.8,2.3c0.3,1,0.8,2.1,1.3,3.5
		c0.5,1.5,1.1,2.9,1.6,4.4c0.5,1.3,1,2.6,1.4,3.9c0.2,0.5,1.5,4.2,1.8,3.7c-0.3,0.6-1.7,1.2-3.2,1.7c0,0,0,0,0,0c0,0,0,0,0,0
		c-1.7-4.5-3.4-9-5-13.5c-1-2.6-1.9-5.2-2.9-7.8C172.5,171.5,172.1,172.2,174.3,171.3z M198.3,206.4c0.2-1.7,0.7-3.4,1.2-5
		c0,0,0,0,0,0c0,0,0,0,0,0c0.9,0,1.7,0.1,2.6,0.1c-0.3,0.6-0.5,1.2-0.8,1.9C200.7,204.9,197.7,211.3,198.3,206.4z M199.1,187.2
		c-3.4,1.9-7,2.7-10.9,2.9c-0.7,0.1-3.7,0.2-3.6,0.2c-1.5-4.1-3.1-8.2-4.6-12.4c-0.3-1.1-0.4-2.2,0.1-3.8c1-3,1-5.2,3.2-6.1
		c3.5-1.4,7.1-2.9,10.6-4.3c0.1,0,0.1,0,0.2-0.1c2.3-0.9,4.4-1.9,6.7-3c2-0.9,5.2-2.9,7.3-1.5c5.8,3.8-4.4,9.1-7.4,9.7
		c-0.6,0.1-1.3,0.8-0.2,0.6c1.6-0.3,4.1-1.1,6.3-2.3c0.6,0.6,1.2,1.2,1.8,1.8c0,0,0,0.1,0.1,0.1c0.4,0.4,0.7,0.9,1,1.4
		c0.9,1.6-0.2,2.4-1.5,3.5c-1.2,1.1-3.4,3.2-5.2,3.3c-0.7,0.1-1.2,0.9-0.2,0.8c1.6-0.2,3.1-1.3,4.3-2.2c0.2-0.2,0.5-0.4,0.8-0.6
		C209.2,181.8,204.4,184.3,199.1,187.2z M209.9,165.2c-0.3,0.8-0.5,1.6-0.8,2.3c-0.4-0.3-0.7-0.7-1.1-0.9
		C208.8,166.2,209.4,165.7,209.9,165.2z M229.8,98c-0.6,2.3-1.1,4.7-1.7,7c-3.5,14.9-8,29.4-12.7,44c-1.3,4.2-2.8,8.3-4.2,12.4
		c-0.4-1.6-1.7-3.1-3.1-3.5c-2.4-0.6-6.2,1.7-8.2,2.6c-1.8,0.8-3.5,1.6-5.3,2.3c6-15.4,11.7-30.8,17.5-46.2
		c1.5-4.1,3.1-8.1,4.6-12.2c0.9-2.2,1.5-4.8,2.7-6.9c0.4-0.7,0.6-1.3,0.7-1.8c0,0,0,0,0-0.1c0,0,0,0,0,0c0.4-1.2,0.6-1.5,5.7-0.8
		c0.9,0.1,2.3,0.4,3.1,0.9C230.5,96.6,230.2,96,229.8,98z M231.9,92.2c-0.3,1-0.8,2-1.3,3c-3.1-1.2-7.3-2.2-10.3-0.6
		c0-1.2,0-2.7,0.5-3.6c0.2-0.4,0.8-0.7,1.5-0.9c0.3,0.5,1.3,0.2,1.4-0.4c1.5-0.3,3.2-0.5,3.9-0.6c1.7-0.3,4.3-0.6,4.6,1.7
		C232.1,91.5,232,91.7,231.9,92.2z M194,84c5.8-1.3,11.3-4.1,16.5-6.8c3.8-2,8.7-3.6,13-2.7c6.6,1.3,8.5,8.1,7.9,13.9
		c-0.9-0.2-2-0.1-2.9,0c-1.7,0.2-3.3,0.6-5,1c-0.8-4.3-0.5-7.2-6-7.6c-3.5-0.2-6.6,1.9-9.7,3.1c-3.1,1.2-6.5,2.1-9.7,3
		c-2.4,0.7-6.2,2.2-8.6,1.8c-0.1,0-0.2,0-0.3,0c-0.1-0.1-0.2-0.3-0.4-0.7c-0.1-0.1-0.1-0.1-0.2-0.2l-0.6-3.8
		C189.6,84.3,193,84.3,194,84z M183.7,92.8c1-0.2,6.3-0.4,6.2-2.1c4.9-0.9,9.4-2,14.2-3.5c1.9-0.6,3.7-1.1,5.5-1.9
		c2.2-0.9,4.6-2.4,7.1-2.4c4.2-0.1,4.9,3.6,5.5,6.8c-0.7,0.1-1.5,0.2-2,0.6c-1.5,1-1.2,4.1-1.4,5.7c0,0,0,0,0,0
		c-0.5,0.7-0.6,1.5-1.1,2.7c-1.9,4.8-3.7,9.6-5.5,14.4c-3.7,1.2-6.6,2.3-10.6,1.4c-5.6-1.3-10.9-4-15.9-7c-1-2.1-2-4.1-3-6.2
		c-0.6-2.7-2.1-5.4-3-7.9C181.1,93.2,182.4,93,183.7,92.8z M167.2,93.8c0,0.3,0.5,0.2,0.6,0.2c3.5-0.2,7-0.2,10.4-0.5
		c0,0,0,0.1,0,0.1c0,0,0,0,0,0c-0.3,2-0.5,4-0.8,6c-6.3,0-12.6,0-18.9,0c-0.9,0-2.9,0.4-3.8,0c-0.1-0.1-0.2-0.1-0.3-0.1
		c0-0.1,0-0.2-0.1-0.3c-0.9-1.7-0.6-5.3-0.9-7.2c-0.4-3.3-0.8-6.6-1.2-9.9c0.1-0.1,0-0.1,0-0.2c-0.1-0.6-0.1-1.2-0.2-1.8
		c3.4,2.9,9.3,3,11.8-2.1c1-2,0.8-4-0.1-5.5c1.2-0.4,2.6-0.3,3.8,0.3c-0.6,1.4-0.6,3.2,0.2,5c2.5,5.9,9,5.4,12.4,1.9
		c-0.3,2.4-0.6,4.8-1,7.1c-3.7,1.4-7.5,2.7-11.3,3.1c-0.3,0-0.8,0.2-0.8,0.6C167.1,91.5,167.1,92.6,167.2,93.8z M185.6,77.6
		c0.1,2.1-2.2,4.2-4.3,4c0,0-0.1,0-0.1,0c0.2-1.7,0.5-3.4,0.7-5c0.2-0.6,0.3-1.3,0.3-2C183.9,74.8,185.6,75.8,185.6,77.6z
		 M183.7,63.6c0.1-1.1,0.3-2.2,0.4-3.2c0.3-2.3,0.8-4.6,1.3-6.8C186,56.9,185.5,60.7,183.7,63.6z M144.8,50.9
		c1.3,2.3,2.6,4.6,3.1,7.3c0.4,2,0.7,4,1,6.1C146.1,60.5,144.3,55.7,144.8,50.9z M150.1,82.1c-1.4,0.2-2.2-0.6-2.5-1.8
		c-0.7-2.2-0.6-5,2-5.4c0,1.4,0.5,2.6,1.2,3.6c0.1,1.1,0.2,2.2,0.3,3.4C150.7,81.9,150.4,82,150.1,82.1z M151,71.1
		c-0.2-1.4-0.3-2.8-0.5-4.2c0-0.3-0.1-0.6-0.1-0.8c0,0,0,0,0,0c-0.3-2.8-0.5-5.5-1-8.3c-0.6-3.7-3.1-6.5-4.6-9.9
		c-2.8-6.4-3.9-13.4-5.1-20.3c-1.7-10.6-0.2-23.1,12.3-25.7c-1.3,1.9-1.9,4.4-2.4,6.3c-3.2,13.3,0.5,29.4,5.9,41.7
		c0.3,0.6,1.7,0.2,1.4-0.4c-3.7-8.5-5.7-17.4-6.5-26.7c-0.6-5.8-0.5-11.7,1.4-17.2c0.7-2.2,2.3-4.9,5.1-4.9c0.9,0,2.4,1.3,3.1,1.9
		c2.1,1.6,3.7,3.6,5.1,5.7c0,0.1,0.1,0.1,0.2,0.1c-3.6,2.2-4.8,7.8-4.7,11.8c0.3,10.3,2.9,21,5.4,31c0.1,0.3,1.5-0.1,1.4-0.4
		c-2-7.8-3.6-15.7-4.7-23.8c-0.7-5.3-1.7-24,8.7-17.8c4.9,2.9,7.9,7.4,9.5,12.6c-0.1,0.1-0.1,0.1,0,0.2c0,0,0,0,0.1,0
		c2.6,8.8,1,19.4-2.7,27c-0.1,0.2,1.3,0.1,1.4-0.3c3.6-7.5,5.3-16.7,3.2-25c-0.1-0.4-0.2-0.8-0.3-1.2c6.9,3.1,6.3,8.2,4.9,15.7
		c-1.4,7.9-4.3,15.4-5.3,23.3c-0.2,1.3-0.3,2.6-0.5,3.9c0,0.1,0,0.1,0,0.1c-0.2,1.8-0.5,3.6-0.7,5.4c-2.3-1.7-7.1-1.9-9.6-1.5
		c-1.6,0.3-2.8,1-3.6,2c-1.5-0.6-3.2-0.6-4.8,0c-0.9-1-2.3-1.7-3.9-1.9C157.2,69.6,153.2,69.8,151,71.1z M151.6,87.1
		c0.4,4.3,0.9,8.7,1.4,13c0,0.1,0.2,0.1,0.3,0.1c8.1,0,16.3,0,24.4,0c0.3,0,1.1-0.1,1.2-0.5c0.2-1.2,0.3-2.4,0.5-3.6
		c0.7,1.7,1.5,3.4,1.9,5.1c0,0.1,0,0.1,0,0.2c0,0.1,0.1,0.1,0.1,0.2c0,0.1,0.1,0.3,0.1,0.4c0.4,1.9,0.2,4.2,0.3,6.1
		c0.2,3.8,0.3,7.7,0.5,11.5c0,1,0.4,2.4,0.2,3.4c-0.4,1.9-2.2,3.7-3.9,5.1c-0.3-0.6-0.8-1-1.3-1.1c-1.8-0.5-4.6,1.6-6,2.4
		c-2.7,1.6-5.3,3.3-7.9,5.1c-0.6-0.8-1.4-1.5-2.4-2c-1.8-0.6-3.9-0.3-5.3,0.9c-1.5-1.8-3-3.6-4.8-5.1c-1.7-1.6-4.2-4.4-6.5-5
		c-1.6-0.5-2.3,0.3-2.6,1.5c-5.2-5.5-8.7-13.1-5.3-20.4C139.7,97.3,145.8,92.1,151.6,87.1z M132.1,97.3c3.7-1.4,7.5-2.8,11.2-4.3
		c-3.7,3.7-7,7.7-8.9,12.6c-0.2,0.5-0.3,1-0.5,1.5c0,0,0,0,0,0c-1.1,4.1-1.7,8.3-2.1,12.5c0,0.1,0,0.1,0,0.2c0,0,0,0,0,0
		c-0.8,9.6-0.1,19.3,1,28.9c1.3,11.1,3.4,21.7,7.1,32.2c-4.3,0.8-8.6,1.7-12.8,2.6c-2.5-3.8-4.7-7.8-6.5-12c-1.1-2.5-2.1-4-0.4-6.5
		c1.7-2.5,4.6-4.8,6.7-6.9c0.2-0.2,0.2-0.4,0-0.6c-2.5-1.2-6-2.2-8.1-4c-2.2-1.8-1.5-4.6-1.4-7.2c0.3-5.9,1-11.8,2.4-17.6
		C122.2,117.8,126.3,106.9,132.1,97.3z M120,217c-7.2,1.9-13.2,2.9-20.3-0.2c-5.3-2.3-10.8-6.6-12.9-12.2
		c-4-12.1-7.6-24.3-10.7-36.7c-2.4-9.7-4.6-19.5-5.8-29.4c-0.8-7-2.2-16.8,2.7-22.8c5.8-7.1,14.9,7.3,17.4,11.8
		c0.2,0.4,1.6-0.2,1.4-0.4c-1.9-3.5-4.7-8.1-8.2-11.1c15-4.4,29.5-9.9,44.5-14.3c-8.2,15.7-12.5,33.7-12.2,51.3c0,0.1,0,0.3,0.2,0.3
		c2.1,1,8.6,2.8,8.5,5.4c-0.1,1.6-6.1,6.3-7.3,7.5c-0.1,0.1-0.2,0.2-0.1,0.4c2.5,5.9,5,11.5,8.5,16.9c-3.3,0.7-6.6,1.4-9.9,2.2
		c-0.9,0.2-0.7,1,0.2,0.8c3.4-0.8,6.8-1.6,10.2-2.3c0.3,0.3,1.1,0.1,1.3-0.3c4.3-0.9,8.6-1.8,12.9-2.6c0.2,0.1,0.8,0,1.1-0.2
		c10.3-1.9,20.7-3.7,31-5.7c2.5,6.6,4.9,13.2,7.4,19.8c0,0.1,0,0.1-0.1,0.2c-1.2,0.4-2.4,0.7-2.8,0.9c-5.5,2.2-11,4.4-16.5,6.6
		c-2.2,0.9-4.4,1.7-6.6,2.6c-0.4-0.2-1.4,0.2-1.3,0.5c-2.5,1-5.1,1.9-7.6,2.8c0,0,0,0,0,0c-0.4-0.3-1.3,0.1-1.3,0.5
		c-5.2,1.9-10.5,3.7-15.8,5.2c-0.3,0-0.7,0.1-1,0.3C124.6,215.8,122.3,216.4,120,217z M154.3,326.9c-2.5,0-5,0-7.5,0
		c-4.1,0-8.7,0.6-12.8,0c-0.6-0.1-0.9-0.1-0.9-0.1c0.1,0,0.4-0.1-0.2-0.9c-0.9-1-1.5-2.6-3.2-2.6c-2.1,0-2.4,1.8-2.3,3.6
		c-1.2,0.1-2.6,0.2-3.6,0c-0.3-0.1-0.5-0.1-0.6-0.1c0,0,0,0,0,0c-0.1-0.3,0.3-1.5,0.4-1.8c0.7-3,1.4-6.1,2-9.1
		c4.5-0.1,8.9-0.1,13.4-0.2c0,0,0,0,0.1,0.1C145.5,317.9,149.7,322.2,154.3,326.9z M195.3,326.9c-6.6,0.1-13.8,0.9-20.2,0
		c-0.6-0.1-0.8-0.1-0.9-0.1c0.1,0,0.3-0.2-0.2-0.9c-0.9-1.1-1.4-2.6-3.2-2.6c-2.1,0-2.4,1.9-2.3,3.6c-1.3,0.1-3.1,0.3-4-0.1
		c-0.1,0-0.1,0-0.2-0.1c-0.1-0.5,0.4-1.5,0.6-2c0.8-3,1.6-6,2.5-9c4.3,0,8.7,0,13,0c0,0,0,0,0.1,0
		C186.6,318,190.8,322.3,195.3,326.9z M185.9,273.7c1.3,3.3,2.5,6.1,1.9,9.7c-0.7,4.5-1.9,9-2.9,13.4c-1.1,4.7-2.3,9.4-3.6,14.1
		c-0.3,1.3-0.8,2.6-1,4c0,0,0,0.1,0,0.1c-0.2,0-0.4,0-0.6,0c-3.8-0.5-8.5,1-12.2,0.1c-0.1-0.1-0.2-0.1-0.4-0.1c-0.1,0-0.2,0-0.3,0
		c0-0.1,0.1-0.3,0.1-0.6c-0.1-1.5,0.4-3.3,0.6-4.8c1-8.3,2-16.6,3-24.9c0-0.1,0-0.1,0-0.2c-6.2-4.5-12.4-9-18.6-13.4
		c1.6,0.5,3.2,1.2,4.7,2.1c0.5,0.3,1.8-0.4,1.1-0.8c-5.6-3.5-12.5-4-18.6-1.4c-0.9,0.4-0.1,1,0.6,0.7c2.3-1,4.8-1.4,7.2-1.4
		c-2.8,14.9-4.9,29.9-7.6,44.8c-2.1,0-4.2,0.1-6.2,0.1c-3.3,0.1-6.2,0.8-7.7-2.6c-2-4.7-2.3-11.1-3.3-16.1
		c-2.2-10.7-4.5-21.4-6.7-32.2c-1.3-6.3-3.9-12-3.7-18.6c0.3-10.3,5.9-18.5,14-24.2c0.2,1.1,0.7,2.4,1.5,4.1
		c2.6,5.9,6.9,10.7,11.4,15.2c0,0,0,0,0.1,0c8.7,8.9,23.8,12.6,36,11.6c0.5,0,1-0.1,1.5-0.3C179.4,259.3,182.9,266.4,185.9,273.7z
		 M183.8,244.1c-1.5,2-3.1,4.1-5,5.8c-2.4,2.2-5,2.2-8.1,2.1c-5.1-0.2-10.4-1-15.4-2.5c0.3-7.2,0.5-14.4,1-21.6c0,0,0.1-0.1,0.1-0.1
		c4.2-9.2,12.7-15.4,19.4-22.7c-2.4,6.1-4,12.3-1.7,18.8c2.4,6.7,8,11.1,14.5,13.2C187.2,239.5,185.5,241.8,183.8,244.1z M201,237.4
		c-11.5,1.5-23.9-5-26.3-17c-1.2-6,0.9-12,3.4-17.7c3.3,2.2,6.3,4.1,10.5,4.5c2.7,0.3,5.5,0.1,8.1-0.7c-0.2,1.7,0,3.2,1.6,3.3
		c0.6,0,1.5-0.4,2-0.7c0.2-0.2,1.4-3.3,1.5-3.5c0.6-1.4,1.2-2.8,1.8-4.2c4.6,6.3,10.7,8.9,18.7,8.1C218.7,221.3,215,235.6,201,237.4
		z M223.5,205c-0.4,1.3-0.8,2.6-1.2,3.9c-7.9,0.6-13.7-2.5-18.2-9.1c0.1-0.2,0.2-0.4,0.2-0.5c4.9-11.2,10.8-21.7,11.7-33.9
		c2.9,4.6,8.9,8.8,12,10.6c3.2,1.9,8.7,4.5,13.7,5.1C231.9,185.9,226.9,194.6,223.5,205z M249.7,177.7c-1.3,1.6-3,2.4-5.1,2.6
		c-0.2-0.1-0.5-0.1-0.8,0c0,0,0,0-0.1,0c-6.1,0-14-4.5-17.4-6.9c-3.9-2.7-12.7-9.9-9.3-15.4c2.9-4.8,10.8-2.4,16.9,0.6
		c0.1,0.1,0.1,0.1,0.2,0.1c2.8,1.4,5.3,3,6.7,4C244.7,165.5,252.3,172,249.7,177.7z"/>
	<path class="st7" d="M215.8,129.1c-2.3-0.4-4.8,0.6-5.6,2.9c-0.9,2.6,0.8,5.4,3.6,5.7c2.4,0.3,5-1.2,5.5-3.7
		C219.7,131.5,218.1,129.6,215.8,129.1z M215.3,136.7c-4.9,1-5.1-7.8-0.4-6.9C218.3,130.6,219.1,136,215.3,136.7z"/>
	<path class="st7" d="M220.4,116c-2-0.4-4.2,0.5-4.9,2.5c-0.8,2.2,0.7,4.5,3,4.8c2.1,0.2,4.4-1,4.8-3.2
		C223.7,118,222.3,116.4,220.4,116z M219.9,122.4c-3.9,0.8-4.1-6.4-0.4-5.7C222.1,117.3,223,121.7,219.9,122.4z"/>
	<path class="st7" d="M207,143.9c-0.1,0-0.1,0-0.1,0.1c0,0,0,0,0,0c0,0,0,0,0,0c0,0-0.1,0-0.1,0.1c-2.1,1.4-3.1,4-2.3,6.4
		c1.2,3.3,5.2,4.1,8.1,2.6c2.2-1.2,3.4-4,2.6-6.4C213.9,143.3,210,142.6,207,143.9z M213.7,150.2c-0.1,0.4-0.2,0.7-0.4,1
		c-0.6,1.2-1.1,1.4-2.5,1.7c-1.4,0.3-2,0.3-3.2-0.5c-0.7-0.5-1.2-1.1-1.5-1.8c-0.4-0.8-0.5-1.7-0.5-2.5c0.1-1.6,0.9-3.1,2.3-4
		c3.1-1.3,6,1.9,6,4.8C213.9,149.3,213.8,149.7,213.7,150.2z"/>
</g>
<g>
	<path class="st3" d="M149.4,57.8c0.5,2.7,0.7,5.5,1,8.3c0,0,0,0,0,0c0,0.3,0.1,0.6,0.1,0.8c0.2,1.4,0.3,2.8,0.5,4.2
		c2.2-1.3,6.2-1.5,8.4-1.3c1.7,0.2,3,0.9,3.9,1.9c1.5-0.5,3.2-0.5,4.8,0c0.8-1,2-1.7,3.6-2c2.5-0.4,7.3-0.2,9.6,1.5
		c0.2-1.8,0.5-3.6,0.7-5.4c0,0,0-0.1,0-0.1c0.2-1.3,0.3-2.6,0.5-3.9c0.3-2.4,0.8-4.8,1.4-7.2l-35.3,0.5
		C149,56,149.2,56.9,149.4,57.8z"/>
	<path class="st6" d="M182.9,22.8c0.1,0.4,0.2,0.8,0.3,1.2c2.1,8.2,0.4,17.4-3.2,25c-0.2,0.4-1.5,0.5-1.4,0.3
		c3.7-7.6,5.3-18.2,2.7-27c0,0,0,0-0.1,0c-0.1,0-0.1-0.1,0-0.2c-1.6-5.1-4.6-9.7-9.5-12.6c-10.4-6.2-9.5,12.4-8.7,17.8
		c1.1,8,2.7,15.9,4.7,23.8c0.1,0.3-1.4,0.7-1.4,0.4c-2.5-10-5.2-20.6-5.4-31c-0.1-4,1.1-9.5,4.7-11.8c-0.1,0-0.1-0.1-0.2-0.1
		c-1.4-2.2-3.1-4.2-5.1-5.7c-0.7-0.6-2.2-1.9-3.1-1.9c-2.8,0-4.4,2.7-5.1,4.9c-1.9,5.6-2,11.4-1.4,17.2c0.9,9.2,2.8,18.1,6.5,26.7
		c0.3,0.6-1.2,1-1.4,0.4c-5.3-12.3-9.1-28.4-5.9-41.7c0.5-1.9,1.1-4.4,2.4-6.3c-12.6,2.5-14.1,15.1-12.3,25.7
		c1.1,6.9,2.3,13.8,5.1,20.3c1.1,2.6,2.8,4.8,3.8,7.2l35.3-0.5c1.3-5.4,2.9-10.7,3.9-16.1C189.2,31.1,189.8,26,182.9,22.8z"/>
</g>
</svg>
