<?xml version="1.0" encoding="utf-8"?>
<!-- Generator: Adobe Illustrator 22.1.0, SVG Export Plug-In . SVG Version: 6.00 Build 0)  -->
<svg version="1.1" id="Layer_35" xmlns="http://www.w3.org/2000/svg" xmlns:xlink="http://www.w3.org/1999/xlink" x="0px" y="0px"
	 viewBox="0 0 280.7 328.3" style="enable-background:new 0 0 280.7 328.3;" xml:space="preserve">
<style type="text/css">
	.st0{fill:#EBF2F1;}
	.st1{fill:#212F51;}
	.st2{fill:#FFFFFF;}
	.st3{fill:#0F1214;}
	.st4{fill:#B8CDDF;}
	.st5{fill:#98B4C9;}
	.st6{fill:#111415;}
	.st7{fill:none;}
</style>
<g>
	<path class="st0" d="M180.4,84.2c2.1-0.1,4.1-2.6,3.8-4.7c-0.3-1.9-2.2-2.6-3.9-2.6C180.3,79.3,180.3,81.8,180.4,84.2
		C180.3,84.2,180.3,84.2,180.4,84.2z"/>
	<path class="st1" d="M177.6,181.3c0.2,0,0.7-0.2,0.8,0.1c0.4,1.4,0.8,2.9,1.2,4.3c0.6-2,1.7-4.8,3.1-5.9c1.5-1.2,4.3-1.7,6.6-2.2
		c1.1-1.9,2-3.9,2.9-5.9c0.5-1,3.4-5.9,3-7.1c-0.3-1.1-6.9-3.2-8.8-4c-0.3-0.1-0.1-0.5,0.1-0.6c2.7-1.5,6.6-2.7,8.8-4.8
		c0.2-0.2,1-0.3,1.2-0.6c0.4-0.7-0.4-4.8-0.5-5.8c-0.3-3.7-0.7-7.3-1.4-11c-1.8-10.1-5.6-19.6-9.9-28.9c-0.5,0.1-1,0.2-1.5,0.3
		c0,0.2,0,0.4,0,0.5c0.2,4,0.8,8.3,0.5,12.3c0,0.2-0.1,0.4-0.1,0.6c0,0,0,0,0,0c-0.2,19.7-1,39.7-6.3,58.8
		C177.5,181.4,177.5,181.3,177.6,181.3z"/>
	<path class="st2" d="M178.9,129.1c0.5,1.5,0.7,3.5,0.8,5.4c0.9-1.2,1.8-2.4,2.4-3.7c0,0,0-0.1,0.1-0.1c0-1.6,0.1-3.2,0.1-4.8
		C181.3,127,180.1,128,178.9,129.1z"/>
	<path class="st3" d="M197.8,154.5c0,0.2-0.1,0.3-0.3,0.4c-1.4,0.8-2.8,1.5-4.2,2.3c-1,0.5-4.6,1.8-5.4,2.8c0.1,0,0.3,0.1,0.6,0.2
		c1,0.5,2.1,0.9,3.2,1.4c1.7,0.7,3.4,1.5,5,2.2c0.1,0,0.2,0.2,0.2,0.3c-1.8,4.4-3.4,9-5.8,13.1c0.2-0.1,0.4-0.1,0.6-0.2
		c1-0.3,2.1-0.7,3.1-1c6.1-15.9,12-31.8,18-47.7c1.8-4.6,3.6-9.2,5.3-13.9c0.3-0.8,0.5-1.3,0.7-1.8c0-0.3,0-0.8,0.1-1.2
		c-4.3,1.4-8.9,3.8-13.3,4.2c-3.4,0.3-7-0.7-10.5-2.1c-0.2,0-0.4-0.1-0.4-0.2c-2.8-1.2-5.5-2.7-8-4.1c2.3,5,4.5,10.2,6.3,15.4
		C196.2,134.3,197.5,144.4,197.8,154.5z"/>
	<path class="st4" d="M180.3,62.2c0,1.2,0,2.4,0,3.6c1.3-3,1.3-6.7,0.4-9.9C180.5,58,180.4,60.1,180.3,62.2z"/>
	<path class="st4" d="M140.1,58.6c0.1,4.8,2.4,9.8,5.7,13.2c-0.5-2-1.1-4-1.6-6.1C143.5,63,141.8,60.9,140.1,58.6z"/>
	<path class="st0" d="M149.3,88.7c0.3-0.1,0.6-0.2,0.8-0.3c-0.6-2.2-1.1-4.4-1.7-6.5c-2.6,0.6-2.7,3.1-1.8,5.3
		C147.1,88.3,147.8,89.1,149.3,88.7z"/>
	<path class="st1" d="M177.9,145.6c0.6-2,0.5-4.5,0.3-6.6c-0.1-2.1-0.2-4.3-0.5-6.4c-0.1-1-0.1-2.3-0.5-3.2
		c-0.1-0.1-0.1-0.1-0.1-0.2c-0.3-0.5-0.8-0.9-1.6-0.9c-1.9,0-5.1,2.7-6.6,3.7c-1.8,1.1-3.5,2.3-5.2,3.5c0.4,1.1,0.3,2.4-0.4,3.5
		c2.2,2.4,4.6,4.3,7.3,6.1C173.1,146.7,176.6,149.8,177.9,145.6z"/>
	<path class="st4" d="M188.9,105.6c0.3,0.3,0.4,0.6,0.4,0.7c0.1,0,0.2,0,0.3,0c0.8,0.2,3.3,0.1,4.7-0.4c-0.7-1.7-1.7-3.4-2.5-5.1
		c-0.8,0.1-3.2,0.5-3.7,0.8l0.6,3.8C188.7,105.5,188.8,105.6,188.9,105.6z"/>
	<path class="st0" d="M152.3,90.5c0.8,3.2,1.7,6.5,2.5,9.7c0.4,1.4,0.5,3.7,1.3,5c0.1,0,0.2,0,0.3,0c1.2,0,2.4-0.3,3.6-0.5
		c3.4-0.5,6.8-0.9,10.2-1.4c2.9-0.4,5.9-1,8.9-1.2c0,0,0,0,0,0c0-0.4,0-1,0-1.3c-0.8-6,0-12.7,0-18.8c0-0.2,0-0.4,0-0.6
		c-0.6,1.2-1.6,2.2-2.8,2.9c-0.4,0.2-2.6,1.4-5.2,0.5c-2.7-0.9-4.7-3.6-4.8-6.3c0-0.4-0.1-0.8,0-1.3c0,0-0.1,0-0.1,0
		c-1.6-0.7-3.3-0.6-4.8,0.4c0.5,0.6,0.7,1.3,0.8,1.6c0.8,2.6-0.4,5.7-2.8,7.3c-2.3,1.5-4.7,1-5.2,0.9c-1.2-0.3-2.2-0.9-3.1-1.6
		c0.2,0.8,0.4,1.7,0.7,2.5c0.1,0.1,0.1,0.2,0.1,0.4C151.9,89.2,152.1,89.8,152.3,90.5z M158.5,100l0.1-0.2L158.5,100
		c0.7-0.8,5.6,1.2,5.6,1.2l-6.6,1.3L158.5,100C158.5,100,158.5,100,158.5,100z"/>
	<path class="st4" d="M228.1,105.7c-0.9,0.1-2.8,0.3-4.5,0.7c0,0,0,0,0,0c0.1,0.7-1.2,1-1.4,0.4c-0.7,0.3-1.2,0.6-1.4,1.1
		c-0.4,0.8-0.4,2.2-0.5,3.4c2.9-1.7,7.3-0.6,10.4,0.6c0.2-0.5,0.5-1.1,0.7-1.7c-1.1-0.7-2.3-1.1-3.7-1.1c-1,0-0.1-0.9,0.5-0.9
		c1.3,0.1,2.5,0.4,3.5,0.9C232.3,107,231.9,105.2,228.1,105.7z"/>
	<path class="st5" d="M215.1,146.7c-4.5-0.9-4.9,6.5-0.5,6.7C218.7,153.6,218.7,147.5,215.1,146.7z"/>
	<path class="st5" d="M220,139c1.5-0.4,2.2-2.2,1.7-3.6c-0.3-1-1.2-1.7-2.3-2C215.7,132.7,216,139.9,220,139z"/>
	<path class="st4" d="M216.2,122.7c-1.3,3.5-2.7,7-4,10.5c-5.3,14.1-10.5,28.2-16,42.3c1.7-0.5,3.3-1.1,5-1.7c2.2-0.8,6.5-3.1,9-2.2
		c0.9,0.3,1.8,1.2,2.3,2.3c0.7-2.1,1.4-4.2,2.1-6.2c-0.5,1-1.3,1.9-2.3,2.4c-3.1,1.6-7.3,0.1-8.1-3.4c-0.6-2.4,0.4-5,2.5-6.3
		c0,0,0,0,0.1,0c0,0,0,0,0.1,0c0,0,0,0,0,0c0,0,0.1-0.1,0.1-0.1c3.2-1.4,7.3,0,8.1,3.7c0.2,0.7,0.2,1.5,0,2.3c0.5-1.5,1-3,1.4-4.5
		c4.5-14.2,8.6-28.3,12.1-42.8c0.3-1.4,1.4-3.8,1.3-5.3c-0.1-1.4-1.1-1.2-2.9-1.7c-2.5-0.6-5.7-0.4-7.2,1.4c-0.7,0.9-1,2.5-1.4,3.5
		C217.7,118.9,217,120.8,216.2,122.7z M214,154.5c-2.7-0.3-4.5-2.9-3.9-5.5c0.6-2.5,3-3.9,5.5-3.4c2.2,0.5,3.9,2.3,3.7,4.7
		C219.1,152.9,216.5,154.8,214,154.5z M220.3,132.6c1.9,0.4,3.3,2.2,2.9,4.2c-0.4,2.2-2.7,3.5-4.9,3.2c-2.3-0.4-3.7-2.7-2.9-4.9
		C216.2,133.1,218.3,132.2,220.3,132.6z"/>
	<path class="st3" d="M231.7,112.6c-2.7,11-5.1,21.9-8.5,32.7c-3.2,10.4-6.5,20.7-10,30.9c0,0.5,0,1-0.2,1.4
		c-0.1,0.3-0.3,0.6-0.6,0.9c-0.1,0.4-0.3,0.8-0.4,1.2c0,0.1-0.1,0.2-0.2,0.3c1.2,1.6,3,4.2,2,5.8c-0.6,1.1-2.2,1.8-3.6,2.4
		c1.1,6.5-2.6,8.8-7.7,11.4c2.4,2.4,0.3,6.5,0.4,9.5c0,0,0,0,0,0.1c0.3,1.3,0,3.1-0.1,4.3c-0.2,1.6-0.2,3.8-1.1,5.2
		c0.2,0.1,0,0.2-0.3,0.4c0,0,0,0,0,0c-0.3,0.1-0.6,0.2-0.7,0.2c-0.5,0-1,0-1.5-0.1c-0.1,0.2-0.1,0.3-0.2,0.5c0,0,0,0,0,0
		c-0.4,1.3-1.2,3.4-0.7,4c1.4,2,3.7-5.1,4.2-6.1c1.6-3.7,3.2-7.4,4.9-11c4.1-9,7.5-17.3,7.5-27.1c-0.4-1.6-0.3-3.3,0.6-4.9
		c2.4-4.1,8.1-3.7,13.1-2.4c0,0,0,0,0-0.1c5.1-11.3,8.5-24.1,9.3-36.4c0.4-6.1,0.4-19.6-5.4-24.6C232.1,111.5,231.9,112,231.7,112.6
		C231.7,112.6,231.7,112.6,231.7,112.6z"/>
	<path class="st2" d="M181.8,206.6c0-0.1,0.1-0.2,0.1-0.3c0.1-0.2,0.4-0.3,0.7-0.4c0.2-0.3,1-0.5,1.3-0.3c0,0,0.1-0.1,0.1-0.1
		c-0.1,0.1-0.3,0-0.4-0.5c-0.1-0.7-0.4-1.5-0.6-2.2c0,0,0,0,0,0c0-0.1-0.1-0.3-0.1-0.4c0,0,0,0,0,0c-0.6-2-1.2-4.1-1.7-6.1
		c-0.3-1-0.6-2-0.9-3c-0.4-1.3-0.8-2.4-1-3.4c-0.5-1.7-1-3.4-1.5-5.2c-0.2-0.6-0.3-1.8-0.7-2.3c0,0,0-0.1,0-0.1
		c-0.2,0.1-0.4,0.2-0.7,0.2c0,0,0,0,0,0c-0.5,0.2-2,0.3-2.4,0.7c0,0,0,0,0,0c0,0.6,0.4,1.4,0.5,1.9c0.8,2.7,1.5,5.3,2.3,8
		c1.3,4.6,2.6,9.3,4,13.9c0,0,0,0.1,0,0.1C181.1,206.8,181.4,206.7,181.8,206.6z"/>
	<path class="st4" d="M178.6,218.3c5.3,3.5,11.5,7.1,18.1,4.3c0.2-1.1,0.5-2.1,0.8-2.9c0,0,0,0,0,0c0-0.1,0.1-0.3,0.1-0.4
		c0,0,0,0,0,0c0-0.1,0.1-0.2,0.1-0.2c-2.1-0.1-4.2-0.2-6.2-0.3c-2-0.1-6.4,0.2-8.1-1.3c-1-0.9-1.3-4-0.9-5.2c0.3-0.9,0.6-1,1.6-1.6
		c0.2-0.1,0.3-0.2,0.5-0.3c-1.1-0.4-1.7-1.4-2-2.5c-1.4,3.4-2.9,6.9-4.3,10.4C178.4,218.3,178.5,218.3,178.6,218.3z"/>
	<path class="st5" d="M207.8,161.1c-4,2.6-1.7,10.3,3.5,8.4C216.5,167.5,213,158.8,207.8,161.1z"/>
	<path class="st0" d="M201.3,214.1c0.2-1.4,0.9-4.7-0.4-5.8c-0.2-0.2,0.3-0.4,0.8-0.6c0.4-2.6,1.4-5.6-0.3-7.6
		c-5.4,2.7-10.8,3.3-16.7,3c0.2,0.7,0.4,1.4,0.6,2.2c0.1,0.2-0.3,0.4-0.5,0.4c-0.3,0.1-0.6,0.2-0.8,0.3c-0.1,1.1,0,2.4,0.9,3.2
		c0.2,0.2,0.5,0.4,0.8,0.5c0.1,0,0.6,0.1,0.3,0.1c0,0,0.1,0,0.1,0c2.7-1,5.3-0.6,8.5-0.8c1-0.1-0.2,0.6-0.6,0.6
		c-2,0.2-5.3-0.2-7.6,0.5c0,0.3-0.6,0.6-1,0.6c-0.1,0-0.2,0-0.2-0.1c-0.5,0.3-0.9,0.7-1.1,1.2c-0.4,0.9,0,3.3,0.3,4.2
		c0.6,1.4,1.3,1.4,2.7,1.7c4.4,0.8,9,0.8,13.4,0.9C201.1,217.2,201.2,215.3,201.3,214.1z"/>
	<path class="st2" d="M166.5,148.2c0.9-0.8,1.9-1.5,2.8-2.4c-2-1.3-3.9-2.8-5.6-4.5C164.6,143.6,165.5,145.9,166.5,148.2z"/>
	<path class="st4" d="M198.2,104.6c3.2-0.9,6.6-1.8,9.7-3c3.1-1.2,6.2-3.3,9.7-3.1c5.5,0.3,5.1,3.3,6,7.7c1.4-0.3,2.8-0.7,4.3-0.9
		c1-0.1,2.4-0.3,3.6-0.1c0.7-5.8-1.3-12.7-7.9-14c-4.3-0.9-9.2,0.8-13,2.7c-5.2,2.7-10.7,5.5-16.5,6.8c-0.5,0.1-1.4,0.2-2.4,0.3
		c0.8,1.6,1.6,3.2,2.3,4.9C195.4,105.5,197,104.9,198.2,104.6z"/>
	<path class="st0" d="M185.1,180.2c-0.4,0.1-1.1,0.2-1.6,0.4c0,0.1-0.1,0.1-0.2,0.3c-0.9,1.3-1.4,3.2-2.1,4.7
		c-0.8,1.8-0.8,2.8-0.6,4.1c0.3,1,0.6,2,0.9,3.1c0,0,0,0,0,0c0,0,0,0,0,0c0.9,3,1.7,6.1,2.6,9.1c0.1,0,0.2,0,0.5,0.1
		c1.1,0.5,3,0.1,4.2,0.1c3.2,0,6.2-0.4,9.1-1.6c2.6-1.1,5.2-2.5,7.6-4.1c3.1-2,3.8-3.9,3.2-7.7c-1.5,0.6-3.4,1.5-5,1.3
		c-0.8-0.1,0.5-0.7,0.9-0.7c1.2,0.1,2.8-0.6,4.2-1.3c0.1-0.2,0.4-0.3,0.6-0.3c0.4-0.2,0.7-0.4,1-0.6c1.4-0.8,2.4-1.3,1.9-2.9
		c-0.4-1.4-1.3-2.7-2.1-3.9c-2.6,1.6-6.4,2.6-8.4,2.8c-1,0.1-0.7-1,0.1-1.1c2.5-0.3,13.3-4.8,8.2-8.7c-1.6-1.2-4.1-0.1-5.9,0.5
		c-2.8,0.9-5.4,2-8.2,2.9C192.6,177.8,188.9,179,185.1,180.2z"/>
	<path class="st0" d="M141.9,123.9c0.4-0.9,1.2-1.3,2.7-0.6c4.3,2,7.8,6.5,10.9,10.1c1.5-1.1,3.6-1.4,5.3-0.9c0,0,0.1,0,0.1,0.1
		c0,0,0,0,0,0c0.9,0.4,1.7,1.1,2.2,1.9c2.6-1.8,5.2-3.5,7.9-5.1c1.4-0.8,4.2-2.9,6-2.4c0.5,0.1,0.9,0.5,1.2,1c3.2-2.8,4-4.2,3.8-8.5
		c-0.1-3.4-0.3-6.7-0.4-10.1c-1.6,0.3-3.2,0.4-4.2,0.5c-3.3,0-9.6,0.4-9.6,0.4l-0.1-3.3c0,0,3-0.2,8.1-2.2c1.7-0.6,3.5-1.3,5.2-1.9
		c-0.2-1.1-0.4-2.2-0.7-3.3c0,1,0,2,0,3c0,0.4-0.5,0.6-0.8,0.6c-8.1,1.1-16.1,2.2-24.2,3.3c-0.2,0-0.6-0.1-0.7-0.3
		c-1.5-5.6-2.9-11.2-4.4-16.8c-0.8,0.2-1.5,0.6-2.4,0.6c-0.7,0.6-1.4,1.3-2.1,1.9c0,0.1-0.1,0.2-0.3,0.3c-3.9,3.8-7.6,8.2-9.4,13.4
		C134.1,111.7,137.6,119.1,141.9,123.9z"/>
	<path class="st1" d="M157.2,139.9c1.5,0.7,3.5,0.5,4.6-0.8c0-0.1,0.1-0.2,0.2-0.3c0.2-0.3,0.4-0.6,0.5-1c0.5-1.9-0.9-3.6-2.5-4.3
		c-3.5-1.2-5.8,2.6-4.2,5.1c0.2,0.1,0.4,0.3,0.3,0.5C156.3,139.4,156.7,139.6,157.2,139.9z"/>
	<path class="st3" d="M159,240.8c-0.4,0.7-0.5,1.6-0.1,2.3c0.6,1.1,2.2,1.9,2.9,0.4c0.4-0.9,0.2-1.9-0.5-2.5
		C160.6,240.4,159.6,240,159,240.8z"/>
	<path class="st3" d="M159,228.8c-0.4,0.7-0.5,1.6-0.1,2.3c0.6,1.1,2.2,1.9,2.9,0.4c0.4-0.9,0.2-1.9-0.5-2.5
		C160.6,228.4,159.6,228,159,228.8z"/>
	<path class="st3" d="M167.3,315.8c-0.8,3-1.6,6-2.4,9c-0.1,0.5-0.6,1.5-0.6,2c0.1,0,0.1,0,0.2,0.1c0.8,0.4,2.6,0.2,3.9,0.1
		c-0.1-1.8,0.2-3.6,2.3-3.6c1.7,0,2.4,1.6,3.2,2.6c0.6,0.7,0.3,0.8,0.2,0.9c0.1,0,0.3,0,0.9,0.1c6.5,1,13.6,0.2,20.2,0
		c-4.5-4.6-8.8-8.9-15-11.1C176,315.8,171.6,315.8,167.3,315.8z"/>
	<path class="st3" d="M139.2,315.7c-4.5,0.1-9,0.1-13.5,0.2c-0.7,3-1.4,6-2,9.1c-0.1,0.3-0.5,1.4-0.4,1.8c0.1,0,0.3,0,0.6,0.1
		c1.1,0.2,2.4,0.1,3.6,0c-0.1-1.8,0.2-3.6,2.3-3.6c1.8,0,2.3,1.6,3.2,2.6c0.5,0.6,0.4,0.8,0.2,0.8c0.1,0,0.4,0,0.9,0.1
		c6.5,0.9,13.6,0.1,20.2,0c-4.5-4.6-8.7-8.9-15-11C139.2,315.8,139.2,315.8,139.2,315.7z"/>
	<path class="st1" d="M160.4,213.5c-2.4,3.6-3.3,7.4-3.8,11.4c3.2-5.3,7.8-9.7,12.2-14C166,211.7,163.2,212.6,160.4,213.5z"/>
	<path class="st4" d="M203.6,218.1c-0.2,0.4-0.3,0.7-0.5,1.1c-0.7,1.5-1.6,5.7-2.8,6.7c-0.5,0.4-1.1,0.8-1.8,0.8
		c-1.8,0-2.1-1.6-1.9-3.4c-6.8,2.4-13-0.2-18.8-3.9c-1.3,3.3-2.4,6.6-3.2,10c-1.7,7.5,1.4,14.4,6.6,19c0.1,0,0.2,0.1,0.2,0.1
		c3.3,2.8,7.4,4.8,11.7,5.5c10,1.7,18.5-2.4,22.9-11.4c2.6-5.3,4.5-10.7,6.1-16.4C214.3,227,208.2,224.3,203.6,218.1z"/>
	<path class="st5" d="M216.9,174.3c-0.5,0.8-0.6,1.7-0.7,2.6c0,0.2,0,0.4,0,0.6c0.3,4.2,4.9,8.5,7.7,10.8c3.4,2.8,12.6,8.7,19.5,9
		c0.2-0.1,0.3-0.1,0.5-0.2c0.5-0.2,1.1-0.1,0.9,0.2c2-0.2,3.7-1,4.9-2.6C255.1,182.9,222,164.8,216.9,174.3z"/>
	<path class="st3" d="M127.3,222.5c2.6,7,7.1,12.7,12.4,17.9c0,0,0,0,0,0.1c3.6,3.7,8.4,6.6,13.2,8.2c0.3,0.1,0.7,0.2,1,0.3
		c0.3-6.2,0.6-12.3,0.9-18.5c0.2-4.1,0.5-8.1,1.7-11.9c0,0-0.1,0-0.1,0c-1.3-0.9-2.6-1.8-3.9-2.8
		C144.2,218.3,135.8,220.6,127.3,222.5z"/>
	<path class="st4" d="M216.1,182.3c-0.9,11.4-6.1,21.2-10.8,31.8c-0.4,0.8-0.7,1.7-1.1,2.5c4.4,6.6,10.3,9.7,18.2,9.1
		c0-0.1,0.1-0.3,0.1-0.4c3.2-11.9,8.5-22.4,19.9-27.6c-4-0.3-8.4-2-11.1-3.3C227.8,192.7,219.6,187.8,216.1,182.3z"/>
	<path class="st3" d="M174,227.1c2.3-6.9,5-13.6,7.7-20.4c-0.4,0.1-0.9,0.3-1.3,0.4c-0.2,0.1-0.4,0.1-0.5,0.2c-3.1,1-6.2,2-9.3,3
		c-5.2,5.3-11,10.6-14.2,17.5c-0.1,1.3-0.1,2.7-0.2,4.1c-0.3,5.9-0.6,11.8-0.8,17.7c0,0,0,0,0,0c7.6,2.5,18.7,4.8,24.5-0.6
		C173.9,243.5,171.4,234.9,174,227.1z M163.1,243.6c-0.8,1.5-2.9,2-4.4,1.2c-1.4-0.8-1.9-2.5-1.1-3.9c0,0,0-0.1,0.1-0.1
		c1-1.1,2.5-1.5,3.9-1C163.1,240.4,163.9,242.1,163.1,243.6z M163.1,231.6c-0.8,1.5-2.9,2-4.4,1.2c-1.4-0.8-1.9-2.5-1.1-3.9
		c0,0,0-0.1,0.1-0.1c1-1.1,2.5-1.5,3.9-1C163.1,228.3,163.9,230,163.1,231.6z"/>
	<path class="st1" d="M174.4,252.6c-4.1,0.4-8.5-0.2-12.5-0.9c-2.5-0.4-5-1-7.5-1.7c-0.3,0-0.5,0-0.5-0.1c0,0,0,0,0,0
		c-5.7-1.7-11.1-4.5-15.4-8.9c0,0-0.1,0-0.1,0c-5.3-5.3-10-11.1-12.5-18.2c-0.8,0.2-1.7,0.3-2.5,0.5c-10.1,8.3-14.1,20.3-10.5,33
		c3.1,11,5.3,22.3,7.6,33.6c1.4,7,2.1,15.1,4.5,21.8c1.6,4.3,3.6,3.6,7.7,3.5c0.9,0,4.7,0.4,5.5-0.1c1.6-0.9,1.5-3.4,1.8-4.9
		c2.4-13.3,4.3-26.7,6.7-39.9c-2.4,0-4.9,0.4-7.2,1.4c-0.7,0.3-1.5-0.2-0.6-0.6c3.3-1.4,6.8-1.9,10.2-1.5c0.2,0,0.4,0,0.5,0.1
		c2.7,0.4,5.4,1.3,7.9,2.8c0.6,0.4-0.8,1-1.2,0.7c-1.5-1-3.1-1.7-4.8-2.2c6.2,4.5,12.4,9,18.7,13.5c0.1,0.1,0.1,0.1,0.1,0.2
		c-1,8.3-2,16.6-3,24.9c-0.2,1.5-0.7,3.3-0.6,4.8c0,0.3,0,0.5,0,0.6c0.1,0,0.2,0,0.4,0.1c3.8,1,8.5-0.5,12.5,0c0.2,0,0.4,0,0.6,0
		c0,0,0-0.1,0-0.1c0.2-1.3,0.7-2.7,1-4c1.2-4.7,2.4-9.4,3.6-14.1c1.1-4.4,2.2-8.9,2.9-13.4c0.5-3.5-0.6-6.4-1.9-9.6
		c-2.9-7.3-6.4-14.4-10-21.4C175.4,252.4,174.9,252.5,174.4,252.6z"/>
	<path class="st3" d="M161,159.9c0.9,0.1,1.3-1.2,1.1-1.9c-0.2-0.7-0.7-1.4-1.4-1.5C159.2,156.7,159.4,159.8,161,159.9z"/>
	<path class="st1" d="M158.8,214c-1.6,0.5-3.1,1-4.7,1.4c1,0.7,1.9,1.5,2.9,2.1C157.4,216.3,158,215.1,158.8,214z"/>
	<path class="st1" d="M143.7,142.1c0.1,0.4,0.4,2.6,0.7,2.7c0.2,0.1,2.3-1.3,2.5-1.4c2.5-1.3,4.9-2.8,7.3-4.3
		c-0.8-1.4-0.8-3.1,0.3-4.5c-2.5-2.8-4.8-5.4-7.7-7.7c-0.8-0.6-3.4-2.8-3.5-2.7c-0.2,0.1-0.3,0.5-0.4,1c0,0,0.1,0.1,0.1,0.1
		c0.1,0.1,0,0.2-0.1,0.3c-0.1,1.2,0,2.9,0,3.4C142.8,133.2,142.8,137.8,143.7,142.1z"/>
	<path class="st2" d="M141.5,125.5c-3.1-3.2-6-7.7-7-12.3c-0.4,2.4-0.7,4.8-0.9,7.2c2,5.8,4.7,11.4,8,16.6c-0.2-2.8-0.3-5.6-0.2-8.4
		C141.5,127.6,141.4,126.5,141.5,125.5z"/>
	<path class="st2" d="M155,139.9C155,139.9,155,139.9,155,139.9c-2.5,1.5-4.9,3.1-7.5,4.5c1.5,1.4,3.1,2.8,4.9,3.8
		C153.3,145.4,154.1,142.7,155,139.9z"/>
	<path class="st3" d="M162.4,173.8c0.8-1.7-1.4-4-2.8-2.5c-0.5,0.8-0.4,1.7,0.1,2.4C160.4,174.7,161.8,175.1,162.4,173.8z"/>
	<path class="st3" d="M160.7,183.4c-1.4,0.2-1.3,2.8-0.1,3.3c0.3,0,0.6,0,0.9-0.1c0.5-0.4,0.7-1.2,0.6-1.8
		C162,184.2,161.4,183.5,160.7,183.4z"/>
	<polygon class="st6" points="158.5,100 158.5,100 158.6,99.7 	"/>
	<path class="st6" d="M164.1,101.2c0,0-4.9-2-5.6-1.2l-1.1,2.5L164.1,101.2z"/>
	<path class="st6" d="M160.7,160.9c1.4,0,2.7-1,2.9-2.4c0.2-1.4-0.9-2.7-2.3-2.9c0,0,0,0-0.1,0c0,0-0.1,0-0.1,0c0,0,0,0-0.1,0
		c0,0-0.1,0-0.1,0c-1.4,0.1-2.6,1.2-2.7,2.6C158,159.6,159.2,160.9,160.7,160.9z M160.7,156.5c0.7,0.1,1.3,0.8,1.4,1.5
		c0.2,0.7-0.2,2-1.1,1.9C159.4,159.8,159.2,156.7,160.7,156.5z"/>
	<path class="st6" d="M159.2,175.1c1.4,1,3.5,0.5,4.4-1c0.9-1.5,0.2-3.2-1.3-3.9c-1.4-0.6-3-0.3-4,0.8c0,0,0,0,0,0.1c0,0,0,0,0,0
		C157.3,172.5,157.9,174.2,159.2,175.1z M159.6,171.2c1.4-1.5,3.6,0.9,2.8,2.5c-0.6,1.3-2,0.9-2.7-0.1
		C159.1,172.9,159.1,172,159.6,171.2z"/>
	<path class="st6" d="M161.5,227.7c-1.4-0.5-2.9-0.1-3.9,1c0,0-0.1,0.1-0.1,0.1c-0.8,1.4-0.3,3.1,1.1,3.9c1.5,0.9,3.6,0.3,4.4-1.2
		C163.9,230,163.1,228.3,161.5,227.7z M161.7,231.5c-0.7,1.5-2.3,0.7-2.9-0.4c-0.4-0.7-0.4-1.6,0.1-2.3c0.7-0.8,1.6-0.4,2.3,0.2
		C162,229.6,162.1,230.6,161.7,231.5z"/>
	<path class="st6" d="M161.5,239.8c-1.4-0.5-2.9-0.1-3.9,1c0,0-0.1,0.1-0.1,0.1c-0.8,1.4-0.3,3.1,1.1,3.9c1.5,0.8,3.6,0.3,4.4-1.2
		C163.9,242.1,163.1,240.4,161.5,239.8z M161.7,243.5c-0.7,1.5-2.3,0.7-2.9-0.4c-0.4-0.7-0.4-1.6,0.1-2.3c0.7-0.8,1.6-0.4,2.3,0.2
		C162,241.7,162.1,242.7,161.7,243.5z"/>
	<path class="st6" d="M235.1,174.6c-1.3-0.6-3.3-1.5-5.6-2.1c0.2-0.1,0.3-0.2,0.4-0.3c5.7-12.7,9.9-27.9,9.5-41.9
		c-0.2-6-0.9-16.3-6.4-20.4c0.3-0.6,0.5-1.2,0.6-1.8c0.2-1.2-0.2-1.9-0.8-2.3c1.9-12.9-8.8-18.5-19.8-14.2
		c-7.5,2.9-13.9,6.8-21.7,8.7l-1.5,0.3c0,0-0.1,0-0.1,0c-0.6,0.1-1.2,0.3-1.6,0.4l-0.1-0.4c0,0-2.1,0.6-4.8,1.6
		c-0.1-0.3-0.3-0.5-0.4-0.8c-0.5-2.4-1.6-4.8-2.4-7.2c0-3.1,0-6.3-0.1-9.4c2.4-0.3,4.7-1.9,5.2-4.3c0.7-3.2-2.7-4.4-5.2-4.1
		c0,0-0.1,0-0.1,0c0-2.7,0-5.4,0-8.1c3.2-4.2,3.2-10.5,1-15.1c0-0.1-0.1-0.1-0.2-0.2c0.8-6.1,1.8-12.2,1.4-18.4
		c-0.4-6.3-2.8-8.7-9.1-10.1c-3-5.6-9-12.9-15.2-12.1c-0.9,0.1-1.6,0.3-2.3,0.7c-2.4-2.8-7.2-7.2-11.3-6.6c-1.4,0.2-2.4,0.9-3.2,1.8
		c-5.5,1.7-10.1,5.7-12.1,11.2c-2.2,6.4-0.1,13.4,1.9,19.5c1.8,5.5,3.5,10.9,6.3,16c0.4,0.7,0.8,1.3,1.2,1.9c0,0,0,0,0,0
		c-0.8,6.2,2.6,13.1,7.2,17.1c0.1,0.1,0.3,0.1,0.5,0.1c0.6,2.3,1.2,4.6,1.8,6.9c-1.2,0.3-2.4,0.9-3.1,2c-0.8,1.2-0.5,2.7-0.1,3.9
		c0.4,1.2,0.8,2.3,2,2.8c-0.7,0.6-1.4,1.3-2,1.9c-4.6,1.7-9.2,3.5-13.7,5.2c-0.3,0.1-0.4,0.2-0.4,0.3c-0.7,1.3-1.5,2.5-2.2,3.8
		c-15.4,4.5-30.4,10.3-45.8,14.7c-1.3-1-2.7-1.8-4.2-2.3c-7.1-2.1-10,7-10.4,12.5c-0.7,9.7,1.3,19.7,3.3,29.2
		c2.3,11.1,5.2,22,8.4,32.9c1.7,5.9,3.6,11.9,5.5,17.7c0,0,0,0,0,0c0.9,6.9,5.4,13.5,11.3,17c6,3.6,11.8,3.2,18.5,2.2
		c2.2-0.3,4.3-0.7,6.5-1.1c-11.1,9.4-13.8,22.2-9.4,36c2.7,8.3,3.9,17.4,5.7,26c2.1,10.1,4.2,20.1,6.3,30.2l-2.6,11.6
		c-0.1,0.2,0.3,0.4,0.5,0.4h5.7c0.4,0,1-0.2,1-0.6c-0.3-3.8,2.6-2.4,2.9,0.4c0,0.2,0.3,0.3,0.5,0.3h23.2c0.2,0,1.4-0.3,0.9-0.7
		c-4.9-4.9-9.2-9.5-15.8-11.9c2.8-14.9,4.9-29.9,7.6-44.8c0.2,0,0.3,0,0.5,0.1c4.1,3,8.2,6,12.4,8.9c1.9,1.4,7.2,4,7.8,5.9
		c0.7,2.2-0.9,7-1.1,9.2c-0.9,7-1.7,14-2.6,21.1c0,0.2,0.2,0.3,0.4,0.3h0.3c-1.1,3.9-2.1,7.7-3.2,11.6c-0.1,0.2,0.3,0.3,0.4,0.3h5.7
		c0.3,0,1-0.2,1-0.6c-0.3-3.6,2.6-2.2,2.9,0.4c0,0.2,0.3,0.2,0.4,0.2h23.2c0.2,0,1.3-0.3,1-0.7c-4.9-4.9-9.2-9.5-15.8-11.9
		c1.2-4.6,2.4-9.2,3.6-13.9c1.6-6.3,4-13.2,4.3-19.7c0.2-5.1-3.1-10.7-5.2-15.2c-2.2-4.9-4.6-9.7-7-14.5c0,0,0,0,0,0
		c1.2-0.6,2.2-1.4,3.2-2.4c0.9,0.8,1.9,1.4,2.9,2c5.6,3.2,12.6,4.3,19,3.1c11.1-2.2,15.7-11.6,19.3-21.4c5-13.9,6.9-29.1,22.1-35.4
		c2.9,0,5.6-0.8,7.3-3.2c0,0,0,0,0,0c0,0,0,0,0-0.1C255,186,240.8,177.3,235.1,174.6z M237.8,135.6c-0.8,12.3-4.2,25.2-9.3,36.4
		c0,0,0,0,0,0.1c-5-1.3-10.7-1.7-13.1,2.4c-0.9,1.6-1,3.2-0.6,4.9c0,9.8-3.4,18.1-7.5,27.1c-1.7,3.7-3.3,7.3-4.9,11
		c-0.4,0.9-2.7,8.1-4.2,6.1c-0.4-0.6,0.3-2.8,0.7-4c0,0,0,0,0,0c0.1-0.2,0.1-0.3,0.2-0.5c0.5,0,1,0,1.5,0.1c0.1,0,0.4-0.1,0.7-0.2
		c0,0,0,0,0,0c0.3-0.1,0.5-0.3,0.3-0.4c0.9-1.4,1-3.6,1.1-5.2c0.1-1.2,0.5-2.9,0.1-4.3c0,0,0,0,0-0.1c-0.1-2.9,2-7.1-0.4-9.5
		c5.1-2.6,8.8-4.9,7.7-11.4c1.4-0.6,2.9-1.3,3.6-2.4c1-1.6-0.8-4.2-2-5.8c0.1-0.1,0.2-0.2,0.2-0.3c0.1-0.4,0.3-0.8,0.4-1.2
		c0.2-0.3,0.4-0.6,0.6-0.9c0.2-0.4,0.2-0.9,0.2-1.4c3.5-10.3,6.7-20.6,10-30.9c3.3-10.8,5.8-21.7,8.5-32.7c0,0,0,0,0-0.1
		c0.2-0.5,0.5-1,0.7-1.5C238.2,116,238.2,129.5,237.8,135.6z M176.7,192.9l-2.3-8c-0.1-0.5-0.5-1.3-0.5-1.9c0,0,0,0,0,0
		c0.4-0.4,1.9-0.5,2.4-0.7c0,0,0,0,0,0c0.2,0,0.5-0.1,0.7-0.2c0,0,0,0.1,0,0.1c0.4,0.5,0.5,1.7,0.7,2.3c0.5,1.7,1,3.4,1.5,5.2
		c0.2,1.1,0.6,2.2,1,3.4c0.3,1,0.6,2,0.9,3c0.6,2,1.2,4.1,1.7,6.1l0,0l0.1,0.4c0,0,0,0,0,0c0.2,0.7,0.5,1.5,0.6,2.2
		c0.1,0.5,0.2,0.6,0.4,0.5c0,0-0.1,0.1-0.1,0.1c-0.3-0.2-1.1,0-1.3,0.3c-0.3,0.1-0.6,0.2-0.7,0.4c0,0.1-0.1,0.2-0.1,0.3
		c-0.3,0.1-0.7,0.2-1.1,0.3c0,0,0-0.1,0-0.1L176.7,192.9z M215.2,163.9c-0.8-3.6-4.9-5.1-8.1-3.7c-0.1,0-0.1,0.1-0.1,0.1
		c0,0,0,0,0,0c0,0,0,0-0.1,0c0,0,0,0-0.1,0c-2.1,1.3-3.1,3.9-2.5,6.3c0.9,3.5,5.1,5,8.1,3.4c1-0.5,1.8-1.4,2.3-2.4
		c-0.7,2.1-1.4,4.2-2.1,6.2c-0.5-1.1-1.4-2-2.3-2.3c-2.5-0.9-6.8,1.3-9,2.2c-1.7,0.6-3.3,1.2-5,1.7c5.4-14.1,10.6-28.2,16-42.3
		c1.3-3.5,2.7-7,4-10.5c0.7-1.9,1.5-3.9,2.2-5.8c0.4-1.1,0.7-2.6,1.4-3.5c1.5-1.9,4.8-2,7.2-1.4c1.9,0.5,2.8,0.3,2.9,1.7
		c0.1,1.5-0.9,3.8-1.3,5.3c-3.5,14.5-7.6,28.6-12.1,42.8c-0.5,1.5-1,3-1.4,4.5C215.4,165.5,215.4,164.7,215.2,163.9z M211.2,169.5
		c-5.2,1.9-7.5-5.8-3.5-8.4C213,158.8,216.5,167.5,211.2,169.5z M204.5,173.8c1.8-0.6,4.2-1.7,5.9-0.5c5.1,3.9-5.8,8.4-8.2,8.7
		c-0.8,0.1-1.1,1.2-0.1,1.1c2-0.3,5.7-1.3,8.4-2.8c0.9,1.2,1.7,2.5,2.1,3.9c0.5,1.7-0.5,2.2-1.9,2.9c-0.3,0.2-0.6,0.4-1,0.6
		c-0.2,0-0.5,0.2-0.6,0.3c-1.4,0.7-3,1.4-4.2,1.3c-0.4,0-1.7,0.6-0.9,0.7c1.7,0.2,3.6-0.7,5-1.3c0.6,3.8-0.2,5.7-3.2,7.7
		c-2.4,1.6-5,3-7.6,4.1c-2.9,1.2-6,1.5-9.1,1.6c-1.2,0-3.1,0.4-4.2-0.1c-0.3-0.1-0.4-0.1-0.5-0.1c-0.9-3-1.7-6.1-2.6-9.1v0
		c-0.3-1-0.6-2-0.9-3.1c-0.3-1.3-0.2-2.3,0.6-4.1c0.6-1.5,1.1-3.4,2.1-4.7c0.1-0.1,0.2-0.2,0.2-0.3c0.5-0.2,1.1-0.3,1.6-0.4
		c3.7-1.2,7.4-2.3,11.1-3.5C199.1,175.8,201.7,174.7,204.5,173.8z M182.6,207.9c0.2,1.1,0.9,2.1,2,2.5c-0.2,0.1-0.3,0.2-0.5,0.3
		c-0.9,0.6-1.3,0.7-1.6,1.6c-0.4,1.2-0.1,4.3,0.9,5.2c1.6,1.5,6.1,1.2,8.1,1.3c2.1,0.1,4.2,0.2,6.2,0.3c0,0.1-0.1,0.1-0.1,0.2
		c0,0,0,0,0,0c0,0.1-0.1,0.3-0.1,0.4c0,0,0,0,0,0c-0.3,0.8-0.6,1.9-0.8,2.9c-6.7,2.9-12.8-0.7-18.1-4.3c-0.1,0-0.2-0.1-0.3,0
		C179.7,214.8,181.2,211.3,182.6,207.9z M187,217.5c-1.4-0.2-2.1-0.3-2.7-1.7c-0.4-0.9-0.8-3.3-0.3-4.2c0.2-0.5,0.6-0.9,1.1-1.2
		c0.1,0,0.2,0,0.2,0.1c0.4,0,0.9-0.3,1-0.6c2.3-0.7,5.6-0.3,7.6-0.5c0.4,0,1.6-0.7,0.6-0.6c-3.2,0.3-5.8-0.1-8.5,0.8c0,0,0,0-0.1,0
		c0.3,0-0.2-0.1-0.3-0.1c-0.3-0.1-0.6-0.3-0.8-0.5c-0.9-0.8-1-2-0.9-3.2c0.3-0.1,0.6-0.2,0.8-0.3c0.1,0,0.5-0.2,0.5-0.4
		c-0.2-0.7-0.4-1.4-0.6-2.2c5.9,0.4,11.4-0.3,16.7-3c1.7,1.9,0.7,5,0.3,7.6c-0.5,0.1-1,0.4-0.8,0.6c1.3,1.1,0.6,4.4,0.4,5.8
		c-0.1,1.3-0.2,3.2-0.9,4.4C196,218.4,191.4,218.3,187,217.5z M231.7,109.1c-1-0.5-2.2-0.8-3.5-0.9c-0.6,0-1.5,0.9-0.5,0.9
		c1.4,0.1,2.6,0.5,3.7,1.1c-0.2,0.6-0.5,1.2-0.7,1.7c-3.1-1.2-7.4-2.3-10.4-0.6c0-1.2,0-2.6,0.5-3.4c0.2-0.4,0.8-0.8,1.4-1.1
		c0.2,0.6,1.6,0.2,1.4-0.4c0,0,0,0,0,0c1.7-0.4,3.6-0.6,4.5-0.7C231.9,105.2,232.3,107,231.7,109.1z M190.1,101.1
		C190.1,101.1,190.1,101.1,190.1,101.1c0.1,0,0.2-0.1,0.3-0.1c0.5,0,0.9-0.2,1.3-0.1c0,0,0,0,0,0c1-0.1,1.9-0.2,2.4-0.3
		c5.8-1.3,11.3-4.1,16.5-6.8c3.8-1.9,8.7-3.6,13-2.7c6.6,1.3,8.6,8.2,7.9,14c-1.2-0.2-2.6,0-3.6,0.1c-1.4,0.2-2.9,0.6-4.3,0.9
		c-0.8-4.4-0.5-7.3-6-7.7c-3.5-0.2-6.6,1.9-9.7,3.1c-3.1,1.2-6.5,2.1-9.7,3c-1.2,0.3-2.8,0.9-4.3,1.3c0,0,0,0,0,0
		c-0.1,0.1-0.3,0.1-0.5,0.2c-0.4,0.1-0.7,0.3-1.1,0.2c-1,0.2-1.9,0.3-2.7,0.1c-0.1,0-0.2,0-0.3,0c0-0.1-0.2-0.4-0.4-0.7
		c-0.1-0.1-0.1-0.1-0.2-0.2l-0.6-3.8C188.6,101.4,189.3,101.3,190.1,101.1z M189.1,108c0.3-0.1,0.3-0.3,0.1-0.5
		c1.2-0.2,3.4-0.6,3.4-0.6c0,0,0.1,0,0.1,0c0,0,0,0,0,0c0.4-0.2,1.4-0.3,1.4-0.3c3.3-0.7,6.6-1.6,9.9-2.6c1.9-0.6,3.7-1.1,5.5-1.9
		c2.4-1,4.9-2.5,7.6-2.4c4.4,0.2,4.4,3.7,5,6.9c-0.8,0.1-1.6,0.3-2.1,0.7c-1,0.7-1.1,2.4-1.2,3.8c-4,1.3-8.2,3.4-12.3,4
		c-3.4,0.5-7-0.5-10.6-2c0,0,0,0,0,0c-0.1,0-0.2,0-0.2-0.1c0,0-0.1,0-0.1,0c-0.2,0-0.3-0.1-0.3-0.2c0,0,0,0,0,0c0,0-0.1,0-0.1,0
		c-0.3-0.1-0.6-0.2-0.9-0.4c0,0,0,0-0.1,0c-2.5-1.2-4.9-2.6-7-3.8C188.2,108.2,188.9,108,189.1,108z M194.6,113.4
		c0.1,0.1,0.2,0.2,0.4,0.2c3.5,1.4,7.1,2.4,10.5,2.1c4.5-0.3,9-2.8,13.3-4.2c0,0.4,0,0.9-0.1,1.2c-0.2,0.4-0.4,0.9-0.7,1.8
		c-1.8,4.6-3.6,9.2-5.3,13.9c-6,15.9-11.9,31.9-18,47.7c-1,0.3-2.1,0.7-3.1,1c-0.2,0.1-0.4,0.1-0.6,0.2c2.4-4.1,4.1-8.8,5.8-13.1
		c0-0.1-0.1-0.2-0.2-0.3c-1.7-0.7-3.4-1.5-5-2.2c-1.1-0.5-2.1-0.9-3.2-1.4c-0.3-0.1-0.5-0.2-0.6-0.2c0.9-1,4.4-2.3,5.4-2.8
		c1.4-0.8,2.8-1.5,4.2-2.3c0.2-0.1,0.3-0.2,0.3-0.4c-0.3-10.1-1.6-20.3-4.9-29.8c-1.8-5.3-4-10.4-6.3-15.4
		C189,110.7,191.7,112.2,194.6,113.4z M183.7,122.6C183.7,122.6,183.7,122.6,183.7,122.6c0-0.2,0.1-0.4,0.1-0.6
		c0.3-4-0.4-8.3-0.5-12.3c0-0.2,0-0.4,0-0.5c0.5-0.1,1-0.2,1.5-0.3c4.3,9.3,8.1,18.8,9.9,28.9c0.6,3.6,1.1,7.3,1.4,11
		c0.1,1,0.9,5,0.5,5.8c-0.2,0.3-0.9,0.4-1.2,0.6c-2.3,2.1-6.1,3.3-8.8,4.8c-0.2,0.1-0.4,0.5-0.1,0.6c1.9,0.8,8.5,2.9,8.8,4
		c0.4,1.2-2.5,6.1-3,7.1c-0.9,2-1.7,4-2.9,5.9c-2.4,0.5-5.2,1-6.6,2.2c-1.3,1.1-2.4,3.8-3.1,5.9c-0.4-1.4-0.8-2.9-1.2-4.3
		c-0.1-0.3-0.6-0.1-0.8-0.1c-0.1,0-0.2,0-0.2,0.1C182.6,162.3,183.5,142.3,183.7,122.6z M182.1,130.7c-0.6,1.4-1.5,2.6-2.4,3.7
		c-0.1-1.9-0.3-3.9-0.8-5.4c1.2-1,2.4-2.1,3.3-3.3C182.2,127.4,182.2,129,182.1,130.7C182.1,130.7,182.1,130.7,182.1,130.7z
		 M184.2,79.5c0.3,2.1-1.7,4.6-3.8,4.7c0,0,0,0-0.1,0c0-2.4,0-4.9,0-7.3C182,76.9,183.9,77.6,184.2,79.5z M180.3,65.8
		c0-1.2,0-2.4,0-3.6c0-2.1,0.2-4.2,0.4-6.3C181.6,59.1,181.6,62.8,180.3,65.8z M140.1,58.6c1.7,2.2,3.4,4.4,4.1,7.1
		c0.5,2,1.1,4,1.6,6.1C142.6,68.5,140.2,63.4,140.1,58.6z M146.9,69.9c-0.5-2-0.8-4.5-1.7-6.4c-0.6-1.3-1.7-2.3-2.6-3.5
		c-2.3-3-4.2-6.3-5.8-9.7c-5.6-12.3-13.4-34.5,3.6-40.7c-1.3,2.6-1.4,6.2-1.5,8.6c-0.4,13,5,27.1,11.7,38c0.2,0.4,1.6-0.1,1.3-0.6
		c-5-8.2-8.2-17.1-10.3-26.5c-1.2-5.4-1.8-11.1-0.7-16.6c0.5-2.6,0.4-2.7,3.1-4c2.9-1.4,2.9-1.1,5.5,0.6c1.9,1.2,3.5,2.7,4.9,4.4
		c0,0,0.1,0.1,0.1,0.1c-3.2,2.7-3.6,8.5-3,12.4c1.7,10.2,5.7,20.4,9.6,30c0.2,0.5,1.7,0.1,1.4-0.4c-2.9-7.1-5.4-14.3-7.5-21.7
		c-0.8-2.9-1.8-6-2.2-9c-0.6-4.9,1-14.7,8.7-10.8c4.8,2.4,8.2,6.2,10.3,10.8c0,0.1,0,0.3,0.2,0.4c3.8,8.3,3.7,18.7,1,26.9
		c-0.2,0.5,1.3,0.4,1.5-0.2c2.6-7.9,3-17.3-0.2-25.2c-0.1-0.4-0.3-0.7-0.5-1.1c7.3,2.1,7.3,7.2,6.9,14.6c-0.3,7.5-2.1,15-2.1,22.5
		l0,11.9c0,0-0.1-0.1-0.1-0.2c-0.6-0.7-3.6-0.8-4.7-0.8c-1.9,0-6-0.1-7.6,2.3c-0.1,0.1-0.1,0.2-0.2,0.3c-1.9-0.5-3.9-0.2-5.6,0.8
		c0,0-0.1-0.1-0.1-0.1c-2.2-1.9-5.7-0.9-7.5-0.4c-0.9,0.3-3.2,1-4,1.7C148.3,75.5,147.6,72.7,146.9,69.9z M151.7,88.2l-0.7-2.5
		c0.9,0.8,1.9,1.4,3.1,1.6c0.4,0.1,2.9,0.6,5.2-0.9c2.4-1.6,3.6-4.7,2.8-7.3c-0.1-0.3-0.3-0.9-0.8-1.6c1.4-1,3.2-1.1,4.8-0.4
		c0,0,0.1,0,0.1,0c-0.1,0.5,0,1,0,1.3c0.1,2.7,2.1,5.5,4.8,6.3c2.6,0.8,4.8-0.3,5.2-0.5c1.3-0.7,2.2-1.7,2.8-2.9c0,0.2,0,0.4,0,0.6
		c0,6.1-0.7,12.7,0,18.8c0,0.4,0.1,0.9,0,1.3c0,0,0,0,0,0c-3,0.2-5.9,0.8-8.9,1.2c-3.4,0.5-6.8,0.9-10.2,1.4
		c-1.2,0.2-2.4,0.5-3.6,0.5c-0.1,0-0.2,0-0.3,0c-0.8-1.3-0.9-3.6-1.3-5c-0.8-3.2-1.7-6.5-2.5-9.7c-0.2-0.7-0.3-1.3-0.5-2
		C151.8,88.4,151.8,88.3,151.7,88.2z M146.7,87.1c-0.9-2.2-0.8-4.7,1.8-5.3c0.6,2.2,1.1,4.4,1.7,6.5c-0.3,0.1-0.5,0.2-0.8,0.3
		C147.8,89.1,147.1,88.3,146.7,87.1z M145.6,92.1c0.2-0.1,0.3-0.2,0.3-0.3c0.7-0.7,1.4-1.3,2.1-1.9c0.8,0,1.6-0.3,2.4-0.6
		c1.5,5.6,2.9,11.2,4.4,16.8c0.1,0.3,0.4,0.4,0.7,0.3c8.1-1.1,16.1-2.2,24.2-3.3c0.3,0,0.8-0.2,0.8-0.6c0-1,0-2,0-3
		c0.3,1.1,0.5,2.2,0.7,3.3c-1.7,0.6-3.6,1.3-5.2,1.9c-5.1,2-8.1,2.2-8.1,2.2l0.1,3.3c0,0,6.3-0.4,9.6-0.4c1.1,0,2.6-0.2,4.2-0.5
		c0.1,3.4,0.3,6.7,0.4,10.1c0.2,4.2-0.6,5.7-3.8,8.5c-0.3-0.5-0.7-0.9-1.2-1c-1.8-0.5-4.6,1.6-6,2.4c-2.7,1.6-5.3,3.3-7.9,5.1
		c-0.5-0.8-1.3-1.5-2.2-1.9c0,0,0,0,0,0c0,0,0,0-0.1-0.1c-1.7-0.6-3.8-0.3-5.3,0.9c-3.1-3.6-6.7-8.1-10.9-10.1
		c-1.5-0.7-2.3-0.3-2.7,0.6c-4.3-4.8-7.8-12.2-5.7-18.5C138.1,100.2,141.7,95.9,145.6,92.1z M163.3,139c0.8-1.1,0.8-2.3,0.4-3.5
		c1.7-1.2,3.4-2.4,5.2-3.5c1.5-1,4.7-3.7,6.6-3.7c0.8,0,1.3,0.3,1.6,0.9c0,0.1,0,0.2,0.1,0.2c0.4,0.9,0.3,2.1,0.5,3.2
		c0.3,2.1,0.4,4.3,0.5,6.4c0.1,2.1,0.3,4.5-0.3,6.6c-1.3,4.2-4.8,1.1-7.3-0.5C167.9,143.3,165.5,141.4,163.3,139z M169.3,145.8
		c-0.9,0.8-1.8,1.6-2.8,2.4c-0.9-2.3-1.9-4.6-2.8-6.8C165.4,143,167.3,144.5,169.3,145.8z M155.7,138.6c-1.5-2.4,0.8-6.2,4.2-5.1
		c1.6,0.8,3,2.5,2.5,4.3c-0.1,0.4-0.3,0.7-0.5,1c-0.1,0.1-0.2,0.2-0.2,0.3c-1.1,1.2-3.1,1.5-4.6,0.8c-0.5-0.2-0.8-0.5-1.1-0.8
		C156.1,138.8,156,138.7,155.7,138.6z M142.9,125.4c0.2-0.1,0.2-0.2,0.1-0.3c0,0-0.1-0.1-0.1-0.1c0.1-0.5,0.2-0.8,0.4-1
		c0.1-0.1,2.8,2,3.5,2.7c2.9,2.4,5.2,4.9,7.7,7.7c-1.1,1.5-1.1,3.2-0.3,4.5c-2.4,1.5-4.8,3-7.3,4.3c-0.1,0.1-2.3,1.5-2.5,1.4
		c-0.4-0.1-0.6-2.3-0.7-2.7c-0.9-4.3-0.9-8.9-0.8-13.3C142.9,128.3,142.8,126.6,142.9,125.4z M155,139.9
		C155,139.9,155,139.9,155,139.9c-0.8,2.8-1.7,5.5-2.6,8.3c-1.8-1-3.4-2.4-4.9-3.8C150,143.1,152.5,141.5,155,139.9z M141.6,136.9
		c-3.3-5.2-6-10.8-8-16.6c0.2-2.4,0.5-4.8,0.9-7.2c1,4.6,3.9,9.2,7,12.3c-0.1,1-0.1,2.1-0.1,3C141.3,131.3,141.4,134.1,141.6,136.9z
		 M115.1,224.1c-7.4,1.1-13.7,0.9-19.8-4.2c-4.2-3.4-7.3-8.7-8.2-14.1c0-0.1,0.1-0.2,0-0.3c-4.2-12.3-7.8-24.9-11-37.5
		c-2.4-9.5-4.6-19.1-5.8-28.9c-0.9-6.9-2.5-17.6,2.8-23.3c6-6.6,14.7,7.4,17.3,12c0.3,0.6,1.7,0,1.3-0.6c-1.9-3.4-4.6-7.9-7.9-10.9
		c14.9-4.3,29.4-9.9,44.2-14.2c-8.2,15.7-12.5,33.6-12.1,51.2c0,0.1,0.1,0.1,0.2,0.2c2.1,1,8.7,2.8,8.5,5.5
		c-0.1,1.6-6.1,6.2-7.3,7.5c-0.1,0.1-0.2,0.2-0.1,0.3c3.3,7.8,7.2,14.7,11.7,22c0.3,0.4,1.7,0,1.3-0.6c-2.9-4.7-6.1-9.3-8.4-14.3
		c-1.1-2.4-3.3-5.8-2.1-8.4c1.2-2.6,5.3-5.5,7.3-7.5c0.1-0.2,0.2-0.4,0-0.5c-2.2-1.1-6.4-2.2-8.1-4c-2.1-2.2-1.5-6-1.3-8.7
		c0.3-5.7,1.2-11.4,2.5-17c2.5-10.6,6.5-21.2,12.1-30.6c3.8-1.5,7.6-2.9,11.5-4.4c-3.7,3.7-7,7.9-8.7,12.8c-0.1,0.2-0.1,0.4-0.2,0.6
		c0,0-0.1,0.1-0.1,0.1c-1.2,4.7-2,9.4-2.4,14.1c0,0.1-0.1,0.2,0,0.3c0,0,0,0,0,0c-0.9,9.9-0.3,19.9,0.9,29.7
		c1.6,12.9,4.2,25.7,10,37.4c0.2,0.4,1.6-0.1,1.4-0.4c-5.6-11.2-8.2-23.4-9.8-35.7c-1.2-9.2-1.9-18.5-1.4-27.8
		c2.2,5.5,5,10.9,8.4,15.7c0,0,0,0,0.1,0.1c0.1,2.1,0.4,4.9,1.5,5.8c0.9,0.7,1.5,0.3,2.4-0.2c0.2-0.1,0.4-0.2,0.6-0.3
		c1.8,1.7,3.7,3.3,6,4.3c0.3,0.2,1.2,0,1.3-0.4c0.9-2.7,1.7-5.5,2.6-8.2c0,0,0,0,0,0c1.8,0.9,3.9,0.7,5.5-0.3
		c1.2,2.9,2.4,5.8,3.6,8.8c0.2,0.4,1.1,0,1.3-0.1c1.2-0.9,2.3-1.9,3.4-2.8c0.4,0.3,0.9,0.6,1.3,0.8c1.5,0.9,4.1,2.6,6,1.8
		c3-1.3,2.6-6.9,2.4-9.7c0-0.7,0-1.8,0-3c0.8-1,1.6-1.9,2.4-3c-0.5,16.4-1.8,32.8-6.2,48.6c-0.9,0.3-1.9,0.6-2.8,0.8
		c-0.2,0-0.7,0.2-0.6,0.5c0.2,0.9,0.5,1.7,0.7,2.6c-3.3,0.3-6.7,0.5-10,0.8c0.2-0.3,0.4-0.7,0.5-1.2c0.2-1.4-0.9-2.7-2.3-2.9
		c0,0,0,0-0.1,0c0,0-0.1,0-0.1,0c0,0,0,0-0.1,0c0,0-0.1,0-0.1,0c-1.4,0.1-2.6,1.2-2.7,2.6c-0.1,0.7,0.2,1.3,0.6,1.8
		c-4.4,0.3-8.8,0.7-13.3,1c-10.6,0.8-21.4,1.1-31.8,2.7c-0.8,0.1-1.1,1.2-0.1,1c10.5-1.6,21.3-1.9,31.8-2.7c5-0.4,10-0.8,14.9-1.1
		c0.1,0,0.3,0,0.4,0c0.3,0,0.6-0.1,0.9-0.1c3.9-0.3,7.9-0.6,11.8-0.9c1.9,6.8,3.9,13.6,5.8,20.4c0,0,0,0.1,0.1,0.1
		c-1.7,0.4-3.5,0.7-4.2,1c-1.6,0.5-3.1,1-4.7,1.5c-0.3,0-0.5,0.1-0.7,0.2c-2.9,0.9-5.9,1.8-8.8,2.7c0-0.3-1.2-0.1-1.4,0.2
		c-0.1,0.1-0.1,0.2-0.2,0.3c-0.8,0.2-1.6,0.5-2.4,0.7c-1.2,0.4-2.4,0.7-3.7,1.1c0,0,0,0,0,0c-0.3-0.3-1.4,0.2-1.4,0.5
		c-8.2,2.4-16.5,4.7-24.9,6.6c-0.2-0.5-1.4-0.2-1.4,0.3c-0.6,0.1-1.3,0.3-1.9,0.4c-0.3,0-0.8,0.1-1,0.2
		C120.2,223.2,117.6,223.7,115.1,224.1z M161.6,186.6c-0.3,0-0.6,0-0.9,0.1c-1.2-0.5-1.3-3.1,0.1-3.3c0.7,0.1,1.3,0.8,1.4,1.5
		C162.2,185.4,162,186.3,161.6,186.6z M154,215.4c1.6-0.5,3.1-1,4.7-1.4c-0.7,1.2-1.3,2.3-1.8,3.6C156,216.8,155,216.1,154,215.4z
		 M156.5,218.7c-1.3,3.8-1.6,7.7-1.7,11.9c-0.3,6.2-0.6,12.3-0.9,18.5c-0.3-0.1-0.7-0.2-1-0.3c-4.8-1.7-9.6-4.6-13.2-8.2
		c0,0,0,0,0-0.1c-5.3-5.3-9.8-10.9-12.4-17.9c8.5-1.8,16.9-4.1,25.3-6.6C153.8,216.8,155.1,217.8,156.5,218.7
		C156.5,218.6,156.5,218.6,156.5,218.7z M160.4,213.5c2.8-0.9,5.6-1.7,8.4-2.6c-4.3,4.4-9,8.8-12.2,14
		C157.1,220.9,158,217,160.4,213.5z M154.3,326.9c-6.6,0.1-13.7,0.9-20.2,0c-0.6-0.1-0.8-0.1-0.9-0.1c0.1,0,0.3-0.2-0.2-0.8
		c-0.9-1.1-1.4-2.6-3.2-2.6c-2.1,0-2.4,1.8-2.3,3.6c-1.2,0.1-2.5,0.2-3.6,0c-0.3-0.1-0.5-0.1-0.6-0.1c-0.1-0.4,0.3-1.5,0.4-1.8
		c0.7-3,1.4-6,2-9.1c4.5-0.1,9-0.1,13.5-0.2c0,0,0.1,0.1,0.2,0.1C145.6,318,149.8,322.3,154.3,326.9z M195.4,326.9
		c-6.6,0.1-13.8,0.9-20.2,0c-0.6-0.1-0.8-0.1-0.9-0.1c0.1,0,0.3-0.2-0.2-0.9c-0.9-1-1.5-2.6-3.2-2.6c-2.1,0-2.4,1.9-2.3,3.6
		c-1.3,0.1-3.1,0.3-3.9-0.1c-0.1,0-0.1-0.1-0.2-0.1c-0.1-0.5,0.4-1.5,0.6-2c0.8-3,1.6-6,2.4-9h13C186.6,318,190.8,322.3,195.4,326.9
		z M185.9,273.7c1.3,3.3,2.5,6.1,1.9,9.6c-0.7,4.5-1.9,9-2.9,13.4c-1.1,4.7-2.3,9.4-3.6,14.1c-0.3,1.3-0.8,2.6-1,4c0,0,0,0.1,0,0.1
		c-0.2,0-0.4,0.1-0.6,0c-4-0.5-8.6,1-12.5,0c-0.2-0.1-0.3-0.1-0.4-0.1c0-0.1,0.1-0.3,0-0.6c-0.1-1.5,0.4-3.3,0.6-4.8l3-24.9
		c0-0.1,0-0.1-0.1-0.2c-6.2-4.5-12.4-9-18.7-13.5c1.7,0.5,3.3,1.2,4.8,2.2c0.4,0.3,1.7-0.3,1.2-0.7c-2.4-1.5-5.1-2.5-7.9-2.8
		c-0.1-0.1-0.3-0.1-0.5-0.1c-3.4-0.4-6.9,0.1-10.2,1.5c-0.9,0.4-0.1,0.9,0.6,0.6c2.3-1,4.8-1.4,7.2-1.4c-2.5,13.3-4.4,26.6-6.7,39.9
		c-0.3,1.5-0.2,4-1.8,4.9c-0.8,0.5-4.6,0.1-5.5,0.1c-4.1,0.1-6.1,0.7-7.7-3.5c-2.5-6.7-3.1-14.8-4.5-21.8
		c-2.3-11.3-4.5-22.6-7.6-33.6c-3.6-12.7,0.4-24.8,10.5-33c0.8-0.2,1.7-0.3,2.5-0.5c2.6,7.1,7.2,12.9,12.5,18.2c0,0,0.1,0,0.1,0
		c4.3,4.4,9.7,7.1,15.4,8.9c0,0,0,0,0,0c0,0.1,0.2,0.2,0.5,0.1c2.4,0.7,5,1.3,7.5,1.7c4.1,0.7,8.4,1.2,12.5,0.9c0.5,0,1-0.1,1.5-0.3
		C179.4,259.3,182.9,266.4,185.9,273.7z M155.3,249.5C155.3,249.5,155.3,249.5,155.3,249.5l0.8-17.7c0.1-1.4,0.1-2.7,0.2-4.1
		c3.1-6.9,8.9-12.2,14.2-17.5c3.1-1,6.2-2,9.3-3c0.2,0,0.4-0.1,0.5-0.2c0.4-0.1,0.9-0.3,1.3-0.4c-2.6,6.8-5.4,13.5-7.7,20.4
		c-2.6,7.8-0.2,16.4,5.8,21.8C174,254.3,162.9,252,155.3,249.5z M216.2,242.6c-4.5,9-12.9,13.1-22.9,11.4c-4.4-0.7-8.5-2.7-11.7-5.5
		c0.1-0.1,0-0.1-0.2-0.1c-5.3-4.6-8.3-11.5-6.6-19c0.8-3.4,1.9-6.7,3.2-10c5.7,3.7,12,6.4,18.8,3.9c-0.2,1.8,0,3.4,1.9,3.4
		c0.6,0,1.3-0.4,1.8-0.8c1.2-1,2.2-5.2,2.8-6.7c0.2-0.4,0.3-0.7,0.5-1.1c4.6,6.3,10.7,8.9,18.7,8.1
		C220.7,231.8,218.8,237.2,216.2,242.6z M222.5,225.2c0,0.1-0.1,0.3-0.1,0.4c-7.9,0.7-13.8-2.4-18.2-9.1c0.4-0.8,0.7-1.7,1.1-2.5
		c4.7-10.6,9.9-20.4,10.8-31.8c3.5,5.5,11.7,10.4,15.2,12.1c2.8,1.3,7.1,3,11.1,3.3C231,202.8,225.8,213.3,222.5,225.2z
		 M249.7,194.6c-1.2,1.6-2.9,2.4-4.9,2.6c0.2-0.2-0.5-0.4-0.9-0.2c-0.2,0.1-0.3,0.1-0.5,0.2c-6.9-0.2-16-6.1-19.5-9
		c-2.8-2.3-7.3-6.6-7.7-10.8c0-0.2,0-0.4,0-0.6c0-0.9,0.2-1.7,0.7-2.6C222,164.8,255.1,182.9,249.7,194.6z"/>
	<path class="st6" d="M189.5,99.9"/>
	<path class="st6" d="M215.6,145.6c-2.5-0.5-4.9,0.9-5.5,3.4c-0.6,2.6,1.2,5.3,3.9,5.5c2.6,0.3,5.1-1.6,5.3-4.2
		C219.5,147.9,217.8,146.1,215.6,145.6z M214.6,153.4c-4.4-0.2-4-7.6,0.5-6.7C218.7,147.5,218.7,153.6,214.6,153.4z"/>
	<path class="st6" d="M215.5,135.1c-0.7,2.2,0.7,4.5,2.9,4.9c2.1,0.3,4.4-1,4.9-3.2c0.4-2-1-3.8-2.9-4.2
		C218.3,132.2,216.2,133.1,215.5,135.1z M219.5,133.5c1,0.2,1.9,0.9,2.3,2c0.5,1.4-0.2,3.3-1.7,3.6
		C216,139.9,215.7,132.7,219.5,133.5z"/>
</g>
<g>
	<path class="st0" d="M145.2,63.5c0.9,1.9,1.1,4.4,1.7,6.4c0.7,2.8,1.5,5.6,2.2,8.4c0.8-0.7,3.1-1.5,4-1.7c1.8-0.5,5.3-1.5,7.5,0.4
		c0,0,0.1,0.1,0.1,0.1c1.7-1,3.7-1.3,5.6-0.8c0-0.1,0.1-0.2,0.2-0.3c1.6-2.4,5.8-2.3,7.6-2.3c1.1,0,4.1,0.1,4.7,0.8
		c0,0,0.1,0.1,0.1,0.2c0-4,0-7.9,0-11.9c0-1.7,0.1-3.4,0.2-5.1l-34.3,5.1C145,63,145.1,63.2,145.2,63.5z"/>
	<path class="st4" d="M174,25.7c0.2,0.4,0.3,0.7,0.5,1.1c3.2,7.9,2.8,17.3,0.2,25.2c-0.2,0.5-1.6,0.7-1.5,0.2
		c2.7-8.2,2.8-18.7-1-26.9c-0.2-0.1-0.2-0.2-0.2-0.4c-2.2-4.5-5.5-8.4-10.3-10.8c-7.7-3.8-9.3,5.9-8.7,10.8c0.4,3.1,1.3,6.1,2.2,9
		c2.1,7.4,4.7,14.6,7.5,21.7c0.2,0.5-1.2,0.9-1.4,0.4c-3.8-9.5-7.9-19.8-9.6-30c-0.6-3.9-0.3-9.7,3-12.4c-0.1,0-0.1,0-0.1-0.1
		c-1.5-1.7-3.1-3.2-4.9-4.4c-2.7-1.8-2.7-2.1-5.5-0.6c-2.6,1.3-2.5,1.4-3.1,4c-1.1,5.5-0.5,11.2,0.7,16.6
		c2.1,9.3,5.3,18.3,10.3,26.5c0.3,0.5-1.1,0.9-1.3,0.6c-6.7-10.9-12-25.1-11.7-38c0.1-2.4,0.2-6,1.5-8.6c-17,6.3-9.2,28.4-3.6,40.7
		c1.6,3.4,3.5,6.7,5.8,9.7c0.7,1,1.6,1.8,2.2,2.9l34.3-5.1c0.5-5.8,1.6-11.5,1.9-17.3C181.3,32.9,181.3,27.8,174,25.7z"/>
</g>
<g>
	<path class="st7" d="M159.2,175.1c1.4,1,3.5,0.5,4.4-1c0.9-1.5,0.2-3.2-1.3-3.9c-1.4-0.6-3-0.3-4,0.8c0,0,0,0,0,0.1c0,0,0,0,0,0
		C157.3,172.5,157.9,174.2,159.2,175.1z"/>
	<path class="st7" d="M160.7,160.9c1.4,0,2.7-1,2.9-2.4c0.2-1.4-0.9-2.7-2.3-2.9c0,0,0,0-0.1,0c0,0-0.1,0-0.1,0c0,0,0,0-0.1,0
		c0,0-0.1,0-0.1,0c-1.4,0.1-2.6,1.2-2.7,2.6C158,159.6,159.2,160.9,160.7,160.9z"/>
	<path class="st2" d="M145.5,187.9c4.4-0.3,8.8-0.7,13.3-1c-0.4-0.5-0.6-1.1-0.6-1.8c0.1-1.4,1.4-2.5,2.7-2.6c0,0,0.1,0,0.1,0
		c0,0,0,0,0.1,0c0,0,0.1,0,0.1,0c0,0,0,0,0.1,0c1.4,0.2,2.5,1.4,2.3,2.9c-0.1,0.4-0.2,0.8-0.5,1.2c3.3-0.3,6.7-0.5,10-0.8
		c-0.2-0.9-0.5-1.7-0.7-2.6c-0.1-0.3,0.5-0.4,0.6-0.5c0.9-0.3,1.9-0.6,2.8-0.8c4.4-15.8,5.7-32.2,6.2-48.6c-0.7,1-1.5,2-2.4,3
		c0,1.3,0,2.4,0,3c0.1,2.8,0.6,8.3-2.4,9.7c-1.9,0.8-4.5-0.9-6-1.8c-0.4-0.3-0.9-0.6-1.3-0.8c-1.1,1-2.3,1.9-3.4,2.8
		c-0.2,0.2-1.1,0.5-1.3,0.1c-1.2-2.9-2.4-5.8-3.6-8.8c-1.6,1-3.8,1.1-5.5,0.3c0,0,0,0,0,0c-0.9,2.7-1.7,5.5-2.6,8.2
		c-0.1,0.4-1,0.6-1.3,0.4c-2.3-1-4.2-2.6-6-4.3c-0.2,0.1-0.4,0.2-0.6,0.3c-0.9,0.4-1.5,0.9-2.4,0.2c-1.1-0.8-1.3-3.7-1.5-5.8
		c0,0,0,0-0.1-0.1c-3.3-4.9-6.2-10.2-8.4-15.7c-0.5,9.3,0.2,18.6,1.4,27.8c1.6,12.3,4.2,24.5,9.8,35.7c0,0.1,0,0.1-0.1,0.2l0.2,0.3
		C144.9,187.9,145.2,187.9,145.5,187.9z M160.9,155.5c0,0,0.1,0,0.1,0c0,0,0,0,0.1,0c0,0,0.1,0,0.1,0c0,0,0,0,0.1,0
		c1.4,0.2,2.5,1.4,2.3,2.9c-0.2,1.4-1.5,2.5-2.9,2.4c-1.4,0-2.6-1.3-2.5-2.7C158.3,156.7,159.6,155.6,160.9,155.5z M158.2,171.1
		C158.2,171.1,158.3,171.1,158.2,171.1c0.1-0.1,0.1-0.1,0.1-0.1c1-1.1,2.7-1.5,4-0.8c1.5,0.7,2.2,2.5,1.3,3.9c-0.9,1.5-3,2-4.4,1
		C157.9,174.2,157.3,172.5,158.2,171.1z"/>
</g>
<g>
	<path class="st1" d="M144.5,187.9l-0.2-0.3c-0.3,0.2-1.2,0.5-1.3,0.2c-5.8-11.7-8.4-24.5-10-37.4c-1.2-9.8-1.8-19.8-0.9-29.7
		c0,0,0,0,0,0c0-0.1,0-0.2,0-0.3c0.4-4.8,1.2-9.5,2.4-14.1c0,0,0-0.1,0.1-0.1c0.1-0.2,0.1-0.4,0.2-0.6c1.7-4.9,5-9.1,8.7-12.8
		c-3.8,1.5-7.6,2.9-11.5,4.4c-5.6,9.4-9.6,19.9-12.1,30.6c-1.3,5.6-2.2,11.3-2.5,17c-0.2,2.7-0.8,6.5,1.3,8.7c1.7,1.7,5.9,2.9,8.1,4
		c0.2,0.1,0.2,0.4,0,0.5c-2,2.1-6.1,4.9-7.3,7.5c-1.2,2.6,1,6,2.1,8.4c2.3,5,5.5,9.6,8.4,14.3c0.1,0.2,0,0.4-0.2,0.5l0.1,0.2
		C134.8,188.6,139.7,188.3,144.5,187.9z"/>
	<path class="st3" d="M179.2,207.2c-1.9-6.8-3.9-13.6-5.8-20.4c-3.9,0.3-7.9,0.6-11.8,0.9c-0.3,0.1-0.6,0.1-0.9,0.1
		c-0.1,0-0.3,0-0.4,0c-5,0.4-10,0.8-14.9,1.1c-10.6,0.8-21.4,1.1-31.8,2.7c-1,0.2-0.6-0.9,0.1-1c5.4-0.8,10.8-1.3,16.3-1.7l-0.1-0.2
		c-0.4,0.2-1,0.3-1.1,0c-4.5-7.2-8.4-14.1-11.7-22c0-0.1,0.1-0.3,0.1-0.3c1.3-1.3,7.2-5.9,7.3-7.5c0.2-2.7-6.4-4.5-8.5-5.5
		c-0.1,0-0.1-0.1-0.2-0.2c-0.3-17.6,3.9-35.5,12.1-51.2c-14.9,4.4-29.3,9.9-44.2,14.2c3.4,3,6,7.5,7.9,10.9c0.4,0.7-1,1.2-1.3,0.6
		c-2.6-4.6-11.3-18.6-17.3-12c-5.3,5.7-3.6,16.4-2.8,23.3c1.2,9.7,3.4,19.4,5.8,28.9c3.2,12.6,6.8,25.2,11,37.5c0,0.1,0,0.2,0,0.3
		c0.9,5.4,4.1,10.7,8.2,14.1c6.1,5.1,12.5,5.3,19.8,4.2c2.6-0.4,5.1-0.8,7.7-1.3c0.2-0.1,0.6-0.2,1-0.2c0.6-0.1,1.3-0.2,1.9-0.4
		c0-0.5,1.2-0.8,1.4-0.3c8.4-1.8,16.7-4.2,24.9-6.6c0-0.3,1.1-0.7,1.4-0.5c0,0,0,0,0,0c1.2-0.4,2.4-0.7,3.7-1.1
		c0.8-0.2,1.6-0.5,2.4-0.7c0.1-0.1,0.1-0.2,0.2-0.3c0.2-0.3,1.3-0.4,1.4-0.2c2.9-0.9,5.9-1.8,8.8-2.7c0.1-0.1,0.4-0.2,0.7-0.2
		c1.6-0.5,3.1-1,4.7-1.5C175.8,208,177.6,207.7,179.2,207.2C179.3,207.2,179.3,207.2,179.2,207.2z"/>
</g>
</svg>
