<?xml version="1.0" encoding="utf-8"?>
<!-- Generator: Adobe Illustrator 22.1.0, SVG Export Plug-In . SVG Version: 6.00 Build 0)  -->
<svg version="1.1" xmlns="http://www.w3.org/2000/svg" xmlns:xlink="http://www.w3.org/1999/xlink" x="0px" y="0px"
	 viewBox="0 0 277.6 327.9" style="enable-background:new 0 0 277.6 327.9;" xml:space="preserve">
<style type="text/css">
	.st0{fill:#EBF2F1;stroke:#000000;stroke-miterlimit:10;}
	.st1{fill:#009EFF;}
	.st2{fill:#EBF2F1;}
	.st3{stroke:#000000;stroke-miterlimit:10;}
	.st4{fill:#B90000;}
	.st5{fill:#FFFFFF;}
	.st6{fill:#BAC9E3;}
	.st7{fill:#BAC9E3;stroke:#000000;stroke-miterlimit:10;}
	.st8{fill:none;stroke:#000000;stroke-width:1.5;stroke-miterlimit:10;}
	.st9{fill:none;stroke:#000000;stroke-miterlimit:10;}
	.st10{fill:#F9C7F9;}
</style>
<g id="Layer_3">
</g>
<g id="Layer_4">
	<g>
		<path class="st0" d="M119.8,87.4l4,40c0,0,11,9,23,1l5-40"/>
		<g>
			<polygon class="st1" points="172.2,288.1 157.7,253.1 120.8,253.1 106.2,288.1 137.1,288.1 137.1,273.5 138.8,273.5 139.7,273.5 
				141.4,273.5 141.4,288.1 			"/>
			<g>
				<path d="M172.6,288.1c-4.9-11.7-9.7-23.3-14.6-35c-0.1-0.2-0.3-0.4-0.5-0.4c-12.3,0-24.6,0-36.9,0c-0.1,0-0.2,0.1-0.2,0.2
					c-4.9,11.7-9.7,23.3-14.6,35c-0.1,0.3,0.2,0.7,0.5,0.7c10.3,0,20.6,0,30.9,0c0.1,0,0.2-0.2,0.2-0.3c0-3.6,0-7.1,0-10.7
					c0-0.7-0.4-3.4,0-3.9c-0.3,0.4,1.4,0.2,1.7,0.2c0.8,0,1.6,0,2.3,0c-0.2-0.2-0.4-0.4-0.6-0.6c0,4.9,0,9.7,0,14.6
					c0,0.3,0.2,0.6,0.6,0.6c10.3,0,20.6,0,30.9,0c0.4,0,0-0.9-0.4-0.9c-10.3,0-20.6,0-30.9,0c0.2,0.2,0.4,0.4,0.6,0.6
					c0-4.9,0-9.7,0-14.6c0-0.3-0.2-0.6-0.6-0.6c-1.4,0-2.9,0-4.3,0c-0.1,0-0.2,0.2-0.2,0.3c0,3.2,0,6.3,0,9.5c0,1.5,0.2,3.2,0,4.7
					c-0.1,0.6,0.1,0.1,0.1,0.2c-0.2,0.1-0.7,0-0.9,0c-7.4-0.4-14.9,0-22.3,0c-2.5,0-5,0-7.6,0c0.2,0.2,0.4,0.5,0.5,0.7
					c3-7.2,6-14.4,9-21.6c1.6-3.9,3.3-7.8,4.9-11.7c0.2-0.4,0.3-0.9,0.5-1.2c0.2-0.3,0.2-0.4,0-0.3c0.6-0.3,2.1,0,2.7,0
					c9.5,0,19.1,0,28.6,0c1.5,0,3.1,0.1,4.6,0c0.3,0,0.6,0,0.9,0c-0.6,0.1-0.3-0.8-0.3,0c0.1,1,1.1,2.5,1.4,3.5c0.8,2,1.7,4,2.5,6.1
					c3.5,8.4,7,16.7,10.4,25.1C172.1,288.7,172.8,288.7,172.6,288.1z"/>
			</g>
		</g>
		<g>
			<path class="st2" d="M116,288.6l-7.3,15.5c0,0-15.4,1.2-23.4,3.6c-3.1,0.9-3.8,5-1.1,6.8c1.8,1.2,4.5,2.1,8.5,1.7
				c13-1.3,21-4,21-4l10.5-23.5H116z"/>
			<g>
				<path d="M115.7,288.3c-1.2,2.5-2.4,5-3.5,7.5c-0.8,1.7-1.6,3.5-2.4,5.2c-0.3,0.7-0.7,2.3-1.3,2.7c-0.1,0.1-2.2,0.2-2.7,0.2
					c-2.3,0.2-4.5,0.5-6.8,0.8c-2.7,0.3-5.5,0.7-8.2,1.3c-2.1,0.4-5.1,0.6-6.9,2c-3.1,2.3-1.3,6.2,1.6,7.6c2.5,1.2,5.3,1.3,8,1
					c3.5-0.3,7-0.9,10.5-1.5c2.4-0.4,4.7-1,7-1.6c0.8-0.2,2.3-0.3,3-0.9c1-0.8,1.5-3.1,2-4.2c2.9-6.5,5.8-13,8.7-19.5
					c0.1-0.3-0.2-0.7-0.5-0.7c-2.7,0-5.5,0-8.2,0c-0.4,0,0,0.9,0.4,0.9c2.7,0,5.5,0,8.2,0c-0.2-0.2-0.4-0.5-0.5-0.7
					c-3.4,7.6-6.7,15.3-10.2,22.9c-0.2,0.3-0.4,0.6-0.2,0.5c-0.4,0.3-1.2,0.4-1.7,0.5c-3.2,0.9-6.5,1.6-9.7,2.2
					c-4.8,0.8-10.6,2.3-15.4,0.8c-2.6-0.8-5.2-3.3-2.9-5.9c1.3-1.5,3.9-1.7,5.7-2.1c6.4-1.3,12.9-2.1,19.4-2.6c0.1,0,0.1,0,0.1-0.1
					c2.4-5.2,4.9-10.3,7.3-15.5C116.5,288.6,115.9,287.9,115.7,288.3z"/>
			</g>
		</g>
		<g>
			<path class="st2" d="M155,288.6l14.7,19.5c0,0,4,14.8,4,17c0,3,10,2,14-2l-13-16l-11-18.5H155z"/>
			<g>
				<path d="M154.8,288.9c4.6,6.1,9.2,12.2,13.7,18.2c0.3,0.4,0.6,0.7,0.8,1.1c0.2,0.3-0.1-0.5,0.1,0.3c0.5,2,1,3.9,1.5,5.9
					c0.6,2.5,1.3,5.1,1.8,7.7c0.2,1.2,0.2,3,0.9,4c1.1,1.5,3.8,1.3,5.4,1.2c3.2-0.3,6.5-1.5,8.9-3.7c0.2-0.2,0.1-0.5-0.1-0.7
					c-4.3-5.2-9.2-10.6-13-15.9c-1.8-2.6-3.5-5.9-5.2-8.8c-1.2-2.1-2.5-4.1-3.7-6.2c-0.6-1-1.2-2.6-2-3.4c-0.7-0.7-1.8-0.4-2.8-0.4
					c-2.2,0-4.3,0-6.5,0c-0.4,0,0,0.9,0.4,0.9c1.7,0,3.4,0,5.1,0c0.9,0,1.9,0.1,2.8,0c0.2,0,0.6,0,0.8,0c-0.2,0-0.6-0.5-0.3-0.1
					c2.2,3,3.9,6.5,5.7,9.7c1.7,2.8,3.2,5.9,5.1,8.6c1.7,2.4,3.8,4.7,5.6,7c2.5,3.1,5,6.1,7.4,9.2c0-0.2,0-0.5-0.1-0.7
					c-2.1,2-5,3.1-7.9,3.5c-1.3,0.2-2.6,0.3-3.9,0.1c-1.2-0.2-1.5-0.9-1.7-1.9c-1-4.3-1.9-8.7-3.1-13c-0.5-2.1-0.9-3.3-2.1-5
					c-2.5-3.3-4.9-6.6-7.4-9.8c-2.1-2.7-4.1-5.5-6.2-8.2C154.8,287.8,154.5,288.5,154.8,288.9z"/>
			</g>
		</g>
		<g>
			<path d="M121.6,111.3c0,0,10.5,8.6,11.9-4.9c-6.1-3.7-12.3-0.4-12.3-0.4L121.6,111.3z"/>
			<path d="M149.5,111.1c0,0-9,9.5-13-4.7c6.1-3.7,9.4-1.9,13.4-0.6L149.5,111.1z"/>
			<g>
				<g>
					<path d="M133.7,107c0.8-1,2-1,2.9-0.1c0.4,0.5,0.7-0.2,0.4-0.5c-0.7-0.7-1.6-1.3-2.6-1c-0.5,0.2-1,0.5-1.3,0.9
						C132.8,106.5,133.4,107.3,133.7,107L133.7,107z"/>
				</g>
			</g>
		</g>
		<g>
			<g>
				<path d="M135.2,113.1c0-1,0-2,0-3c0-0.4-0.8-1-0.8-0.4c0,1,0,2,0,3C134.4,113.1,135.2,113.7,135.2,113.1L135.2,113.1z"/>
			</g>
		</g>
		<g>
			<g>
				<path d="M132.1,115.2c0.6,0,1.9,0.1,2.1,0.7c0.1,0.2,0.5,0.7,0.7,0.2c0.3-0.8,1.8-0.9,2.6-1c0.4,0,0-0.9-0.4-0.9
					c-1,0-2.5,0.2-2.9,1.3c0.2,0.1,0.5,0.2,0.7,0.2c-0.6-1.2-1.9-1.5-3.2-1.6C131.3,114.2,131.7,115.2,132.1,115.2L132.1,115.2z"/>
			</g>
		</g>
		<g>
			<path class="st3" d="M136.7,122.7c-5-1.6-8-5.8-9-0.5C127.7,128,132.7,122.7,136.7,122.7z"/>
			<path class="st4" d="M133.2,123.5c0,0-2-0.5-3,0c-1-0.5-2.4,0-2.4,0S128.2,126.1,133.2,123.5z"/>
			<path class="st5" d="M132.2,120.9h-4.1C128.1,120.9,129.2,118.2,132.2,120.9z"/>
			<path class="st5" d="M132.4,124l-4.4-0.1C127.9,123.9,128.6,126,132.4,124z"/>
		</g>
		<g>
			<path class="st6" d="M119.6,87.3l31.1,1.2c0,0,24.3-30.3,1.1-43.9c-3.4-6.5-12.9-14.4-15.5-12c-3.2-10.7-14.4-19.4-17.2-5.1
				C105,26.6,97.2,45.4,119.6,87.3"/>
			<path class="st7" d="M149.7,104.9c0,0,5.7-3.4,7.6-15.9l-6.4-0.3L149.7,104.9z"/>
			<path class="st7" d="M121,104.5c0,0-5.7-3.4-7.7-15.9l6.4-0.3L121,104.5z"/>
			<g>
				<path d="M119.3,87.5c-2.8-5.1-5.3-10.5-7.5-15.9c-2.2-5.4-4-11-5.3-16.8c-0.6-2.9-1.1-5.8-1.2-8.7c-0.2-2.9-0.1-5.9,0.7-8.8
					c0.8-2.9,2.3-5.6,4.8-7.4c2.5-1.7,5.5-2.4,8.4-2.4c-2.9,0.3-5.8,1-8.1,2.8c-2.3,1.7-3.7,4.4-4.3,7.2c-0.6,2.8-0.7,5.7-0.5,8.6
					c0.2,2.9,0.7,5.8,1.3,8.6c1.2,5.7,3,11.2,5,16.7c1,2.7,2.1,5.5,3.2,8.1C116.8,82.1,118,84.8,119.3,87.5z"/>
			</g>
			<g>
				<path d="M134.3,27.9c-0.5-1-1.2-2-1.8-3c-0.7-0.9-1.5-1.8-2.3-2.5c-0.9-0.7-1.9-1.4-2.9-1.7c-1.1-0.3-2.2-0.3-3.3,0l0,0l0,0
					c-1.3,0.3-2.3,1.2-3,2.3c-0.7,1.1-1.1,2.5-1.4,3.8c-0.5,2.7-0.7,5.5-0.6,8.2c0.1,5.5,0.8,11.1,1.6,16.6c0.8,5.5,1.9,11,3,16.4
					c1.2,5.4,2.4,10.9,3.7,16.3c-1.7-5.3-3.1-10.7-4.4-16.1c-1.3-5.4-2.4-10.9-3.3-16.4c-0.9-5.5-1.6-11.1-1.6-16.7
					c0-2.8,0.1-5.6,0.7-8.4c0.3-1.4,0.8-2.8,1.6-4c0.7-1.2,2-2.3,3.5-2.6l0,0c1.2-0.3,2.4-0.3,3.6,0.1c1.2,0.4,2.1,1.1,3,1.9
					c0.9,0.8,1.6,1.7,2.3,2.7C133.3,25.8,133.9,26.8,134.3,27.9z"/>
			</g>
			<g>
				<path d="M134.2,73.8c-0.8-3.6-1.4-7.1-1.8-10.7c-0.5-3.6-0.9-7.2-1.1-10.8c-0.2-3.6-0.3-7.3,0-10.9c0.2-1.8,0.4-3.7,1-5.4
					c0.3-0.9,0.7-1.8,1.4-2.5c0.6-0.8,1.7-1.2,2.7-1.1l0,0c0.8,0,1.7,0.1,2.5,0.3c0.8,0.2,1.6,0.5,2.4,0.9c1.5,0.8,2.8,1.9,3.7,3.3
					c-0.5-0.7-1.1-1.2-1.7-1.7c-0.6-0.5-1.3-0.9-2.1-1.3c-0.7-0.3-1.5-0.6-2.3-0.7c-0.8-0.2-1.6-0.2-2.4-0.2l0,0l0,0
					c-0.8,0-1.6,0.3-2.1,1c-0.5,0.6-0.9,1.5-1.1,2.3c-0.5,1.7-0.8,3.5-0.9,5.2c-0.3,3.6-0.2,7.2,0,10.8c0.2,3.6,0.5,7.2,0.8,10.8
					C133.4,66.6,133.7,70.2,134.2,73.8z"/>
			</g>
			<g>
				<path d="M147.9,81.1c0.4-1.7,0.7-3.3,1.1-5c0.4-1.7,0.7-3.3,1-5c0.6-3.3,1.2-6.7,1.6-10c0.2-1.7,0.4-3.4,0.5-5
					c0.1-1.7,0.2-3.4,0.1-5c-0.1-1.7-0.2-3.4-0.6-5c-0.4-1.6-1.1-3.2-2.3-4.4c1.4,1,2.3,2.6,2.8,4.2c0.5,1.6,0.8,3.4,0.9,5.1
					c0.3,3.4,0,6.9-0.4,10.3c-0.4,3.4-1,6.8-1.8,10.1C149.9,74.6,149,77.9,147.9,81.1z"/>
			</g>
			<g>
				<path d="M159.9,52.3c1,1.3,1.6,2.9,2.1,4.5c0.5,1.6,0.6,3.3,0.6,5c0,3.4-0.7,6.6-1.8,9.8c-1.1,3.1-2.5,6.1-4.2,9
					c-1.7,2.9-3.5,5.6-5.7,8.1c0.9-1.4,1.8-2.8,2.6-4.2c0.8-1.4,1.6-2.8,2.4-4.3c1.5-2.9,2.9-5.9,3.9-9c1-3.1,1.8-6.3,2-9.5
					c0.1-1.6,0-3.2-0.4-4.8C161.2,55.3,160.6,53.8,159.9,52.3z"/>
			</g>
		</g>
		<g>
			<path class="st1" d="M131.8,273.6c0,0,12.6-0.7,15.5-2.4"/>
			<path d="M131.8,273.6c1.3-0.2,2.6-0.4,3.9-0.6l3.9-0.5l3.9-0.5c0.6-0.1,1.3-0.2,1.9-0.3c0.6-0.1,1.3-0.3,1.9-0.5
				c-1.1,0.7-2.4,1.1-3.7,1.4c-1.3,0.3-2.6,0.5-3.9,0.7c-1.3,0.1-2.6,0.3-3.9,0.3C134.4,273.7,133.1,273.7,131.8,273.6z"/>
		</g>
		<g id="XMLID_1_">
			<g>
				<path class="st2" d="M89.6,169.4c-1.8,4.3-2.1,9.3-1.5,14.7c0.1,0.6,0.1,1.1,0.2,1.7c0,0-2.1-5.7-6.7-16c2-0.6,3.5-3.7,3.5-3.7
					C86.6,167.2,88.1,168.3,89.6,169.4z M197.3,170.3c-4.5,7.5-8.5,14.8-8.5,14.8c-0.1-3-0.8-5.6-2.2-7.8c3.5-2.4,4.6-5.4,4.3-8.6
					L197.3,170.3z M141.5,245.5l-1.7-0.2c-0.2,0.7-1,1.1-1.7,0.8c-0.9-0.3-1.4-1.3-1.1-2.1c0.4-1.1,1.6-1.7,2.6-1.3
					C141,243.1,141.7,244.3,141.5,245.5z M158.6,131.5c-2.6-0.3-5.2-0.5-7-0.1c-1-3-3-4-4-5c-5,5-17,6-23,1c-0.9-1-2.1-1-3.1-0.8
					l0,0c-0.9-0.8-2.2-1.5-3.4-1.9c0,0,1.2-15.8-13.5-29.9c-3.5-3.4-8.1-5.4-12.9-5.5c-22.2-0.3-27.7,27.4-28.2,29.9l-23.6,18.1
					c-1,0.8-1.7,1.8-2.2,2.9c-1,2.7-2.9,7.8-3.3,10.4c-5.1,4.5-12.4,11.2-13.1,13.8c-0.9,3.5-1.8,8.5,8,13.1l0,0
					c1,1.3,17.1,23,54,25.9c-4.6,3.9,0.7,10,4.8,13.7l-0.1,0.1c0,0-6.8,7.2,3.2,9.2c8.1,1.6,9.6-3.3,9.9-5.3
					c9.4,17.3,20.1,31.3,20.1,31.3h36c0,0,13.7-18.6,22.9-38.1l0.1,0.1c0,0,0,9,10,7s3.2-9.2,3.2-9.2l-0.1-0.1
					c4.2-3.7,9.4-9.8,4.8-13.7c38-3,53-26,53-26l0-0.2c7.2-1.5,5.8-3.5,5-9.8c-0.4-3.5-3.2-5.9-6.1-7.4l0.2-0.4
					c0,0-5.1-14.3-7.1-15.3c-1.1-0.5-24.3-7.1-36.9-10.7c-35.9-52.7-48.1,2.7-48.1,2.7L158.6,131.5z M89,161.1
					c-2.8-2.6-4.8-5.1-4.4-5.5c0.4-0.4,3,1.4,5.8,4c2.8,2.6,4.8,5.1,4.4,5.5C94.4,165.5,91.8,163.7,89,161.1z M177.2,174.7
					c-0.6-1.1,1-3,3.4-4.3c2.5-1.3,4.9-1.4,5.5-0.3c0.6,1.1-1,3-3.4,4.3C180.2,175.6,177.8,175.8,177.2,174.7z"/>
				<path class="st2" d="M137.1,244.1c-0.3,0.9,0.2,1.8,1.1,2.1c0.7,0.2,1.5-0.1,1.7-0.8l1.7,0.2c0.1-1.2-0.6-2.3-1.8-2.8
					C138.7,242.4,137.5,243,137.1,244.1z"/>
			</g>
			<g>
			</g>
		</g>
		<g>
			<g>
				<g>
					<path d="M186.2,177.6c3.3,5.4,2.1,12.5,0.6,18.3c-2,7.8-5.4,15.3-9.1,22.5c-5.7,11.2-12.4,21.9-19.7,32.1
						c-0.2,0.3-0.5,0.8-0.8,1.1c-0.4,0.4,0.3,0-0.2,0.1c-1.7,0.4-4,0-5.8,0c-7.2,0-14.4,0-21.5,0c-2.5,0-4.9,0-7.4,0
						c-1,0-1-0.3-0.5,0.3c-0.2-0.3-0.4-0.6-0.6-0.9c-3.6-4.8-6.9-9.7-10.1-14.8c-6.1-9.5-11.7-19.4-16.1-29.9
						c-4.6-10.9-9.5-24.9-5-36.5c0.2-0.6-0.8-1.6-1.1-0.9c-3.9,10.2-0.7,22.1,2.9,31.9c3.7,10,8.7,19.6,14.1,28.7
						c4,6.8,8.4,13.4,13,19.8c0.7,0.9,1.4,2.5,2.4,3.2c0.9,0.6,2.5,0.3,3.5,0.3c7.3,0,14.6,0,21.9,0c3,0,6,0,9,0
						c0.8,0,1.8,0.2,2.5-0.3c0.9-0.6,1.7-2.4,2.3-3.3c1.5-2.2,3-4.3,4.4-6.5c4.3-6.6,8.4-13.3,12.1-20.2c4.4-8.2,8.5-16.8,10.9-25.8
						c1.7-6.3,2.8-13.9-0.8-19.8C186.6,176.3,185.7,176.8,186.2,177.6L186.2,177.6z"/>
				</g>
			</g>
			<g>
				<g>
					<path d="M172.5,144.9c8.4,6.5,28.2,25.5,11.1,33.3c-9.6,4.4-21.8,3.9-32.1,3.5c-0.8,0-0.3,1.3,0.3,1.4
						c10,0.4,20.9,0.7,30.5-2.7c4.2-1.5,8.5-4.2,9.2-9.1c1.2-8.5-7.1-16.8-12.6-22.1c-2-1.9-4-3.7-6.1-5.4
						C172,143.2,172,144.5,172.5,144.9L172.5,144.9z"/>
				</g>
			</g>
			<g>
				<g>
					<path d="M182.3,135c-2.3,4.3-4.8,10.1-3.6,15.1c0.1,0.4,0.9,0.8,0.7,0.1c-1.2-4.7,1.3-10.4,3.5-14.5
						C183.1,135.4,182.5,134.6,182.3,135L182.3,135z"/>
				</g>
			</g>
			<g>
				<g>
					<path d="M226.4,148.7c-3.6,0-7.3,0.6-10.7,1.6c-5.7,1.7-9.4,4.7-12.7,9.5c-5.4,7.9-10.1,16.3-14.7,24.7c-0.3,0.5,0.7,1.7,1,1.1
						c4.4-8.1,9-16.1,14.1-23.8c1.5-2.3,3-4.7,5.1-6.4c2.3-1.9,5.2-3.1,8-3.9c3.3-1,6.9-1.5,10.4-1.5
						C227.6,150.1,227,148.7,226.4,148.7L226.4,148.7z"/>
				</g>
			</g>
			<g>
				<g>
					<path d="M242.8,153.1c2.2,0.4,4.4,1,6.5,2c1.8,0.8,3.7,1.9,5,3.4c1.5,1.7,1.8,3.6,2.1,5.7c0.3,2,1,4.5-0.9,5.9
						c-3.1,2.2-8.5,2.2-12.1,2.7c-0.7,0.1-0.1,1.4,0.5,1.4c3.1-0.4,6.2-0.7,9.1-1.5c1.3-0.3,2.8-0.7,3.8-1.7
						c1.7-1.8,0.9-4.7,0.5-6.9c-0.6-4.3-2.5-7.2-6.4-9.3c-2.6-1.5-5.6-2.5-8.5-2.9C241.7,151.6,242.2,153,242.8,153.1L242.8,153.1z"
						/>
				</g>
			</g>
			<g>
				<g>
					<g>
						<path d="M29.2,177.6c2.1,3.1,5,5.7,7.8,8.2c7.1,6.1,15.5,10.7,24.4,13.7c7.2,2.5,14.7,3.9,22.4,4.6c-0.2-0.4-0.4-0.9-0.5-1.3
							c-3.7,3.4-1.2,8.1,1.5,11.3c1.6,1.9,3.4,3.5,5.3,5c0.6,0.5,1.3,1.2,2,1.5c0.1,0.1,0.3,0.2,0.4,0.3c-0.4-0.6-0.9,0.1-1.9-0.2
							c-0.7-0.2-0.3,1.2,0.3,1.4c1.4,0.4,3.4,0.2,2.4-1.7c-0.5-1-2-1.7-2.8-2.3c-3.4-2.8-11.2-9.4-6.3-14c0.4-0.4,0-1.3-0.5-1.3
							c-18.8-1.6-38.1-8.6-51.1-22.8c-0.8-0.9-1.8-2.1-2.4-2.8C29.5,176.4,28.7,176.9,29.2,177.6L29.2,177.6z"/>
					</g>
				</g>
				<g>
					<g>
						<path d="M101.2,220.7c0,4.4-4.4,5.9-8.1,5.5c-3.1-0.3-7.5-1.6-6.2-5.5c0.4-1.1,1.1-2.3,1.9-3.1c0.3-0.3-0.3-1.1-0.6-0.7
							c-3.4,3.6-2.8,8.1,2.2,9.7c4.5,1.4,11.6,0.7,11.6-5.4C101.9,220.7,101.2,220.1,101.2,220.7L101.2,220.7z"/>
					</g>
				</g>
			</g>
			<g>
				<g>
					<g>
						<path d="M251.1,171.8c-2,3-4.6,5.6-7.3,7.9c-6.9,6-15,10.5-23.7,13.5c-7.1,2.4-14.4,3.8-21.8,4.4c-0.6,0.1-0.1,1,0.1,1.2
							c4.7,4.4-3.8,11.5-6.9,14.1c-0.7,0.6-2.1,1.2-2.5,2.1c-1,2,1.6,2.4,2.9,2c0.7-0.2,0-1.5-0.5-1.4c-0.8,0.2-1.6,0.8-0.9,0
							c0.5-0.6,1.3-1,1.9-1.5c1.9-1.5,3.8-3.2,5.4-5.1c2.8-3.4,4.8-7.8,1.1-11.3c0,0.4,0.1,0.8,0.1,1.2c18.8-1.6,38.2-8.6,50.9-23.2
							c0.8-0.9,1.7-1.9,2.3-3C252.5,172.4,251.5,171.2,251.1,171.8L251.1,171.8z"/>
					</g>
				</g>
				<g>
					<g>
						<path d="M180.3,214.2c0,5.3,4.4,8.5,9.5,7.8c2.9-0.4,7-1.6,6.7-5.3c-0.1-1.8-1.2-3.6-2.4-4.9c-0.4-0.5-0.7,0.2-0.4,0.5
							c0.9,1,1.7,2.2,2,3.5c0.7,3.6-3.5,4.8-6.2,5.2c-4.4,0.6-8.3-1.8-8.4-6.5C181,214.2,180.3,213.6,180.3,214.2L180.3,214.2z"/>
					</g>
				</g>
			</g>
			<g>
				<g>
					<path d="M251.2,154.6c-1.6-4.4-3.2-8.9-5.4-13c-1.5-2.8-3-3.1-5.9-4c-10.6-3.2-21.2-6.1-31.8-9.1c-3.2-0.9-6.3-1.8-9.5-2.7
						c-0.7-0.2-0.3,1.2,0.3,1.4c7.5,2.1,15,4.2,22.4,6.4c5.2,1.5,10.3,2.9,15.5,4.5c1.7,0.5,3.5,1,5.2,1.5c1,0.3,1.6,0.4,2.3,1.2
						c1.8,2.3,2.8,5.6,3.9,8.2c0.8,1.9,1.5,3.9,2.2,5.8C250.5,155.4,251.5,155.5,251.2,154.6L251.2,154.6z"/>
				</g>
			</g>
			<path class="st8" d="M158.6,131.4c0,0,12.1-55.4,48.1-2.7"/>
			<g>
				<g>
					<path d="M167.5,132.7c-5-1.4-10.9-2.9-16.1-2c0.3,0.2,0.5,0.4,0.8,0.6c-0.9-2.4-2.5-3.7-4.3-5.5c-0.1-0.1-0.4-0.2-0.5-0.1
						c-3.9,3.7-10,4.8-15.2,4c-3-0.4-5.1-1.6-7.5-3.2c-1.2-0.7-2.6-0.9-4-0.9c-0.1,0-0.2,0.1-0.3,0.3c-0.5,2.3-1.1,4.7-1.2,7.2
						c0,0.6,1.1,1.4,1.1,0.5c0.1-1.7,0.4-3.5,0.8-5.2c0.1-0.4,0.1-1.2,0.3-1.5c0.3-0.4-0.5,0.2,0.1,0c0.2-0.1,0.7,0,0.9,0.1
						c1.9,0.3,3,1.5,4.6,2.3c1.6,0.8,3.3,1.3,5,1.6c3.6,0.6,7.5,0.3,10.9-1c1.4-0.5,2.9-1.2,4.1-2.2c0.9-0.7,0.7-0.8,1.5-0.2
						c1.3,0.9,2.1,2.2,2.7,3.7c0.1,0.3,0.4,0.7,0.8,0.6c5.1-0.9,10.9,0.7,15.9,2C168.5,134.3,168.1,132.9,167.5,132.7L167.5,132.7z"
						/>
				</g>
			</g>
			<g>
				<g>
					<path d="M112.7,123.8c3,0.2,6.2,1.1,8.5,3c0.5,0.4,0.5-0.4,0.2-0.7c-2.4-2-5.8-3-8.9-3.2C112,122.9,112.3,123.8,112.7,123.8
						L112.7,123.8z"/>
				</g>
			</g>
			<g>
				<g>
					<path d="M64.2,119.8c1.3-7.6,4.6-15.5,9.6-21.4c4.3-5,10.2-8.2,16.8-8.5c11.3-0.5,19.5,9.6,23.7,19.1
						c2.1,4.6,3.7,10.2,3.3,15.3c0,0.6,1.1,1.5,1.1,0.5c0.3-4.6-0.9-9.4-2.5-13.6c-3.2-8.7-9.9-18.7-19-21.7
						c-14.2-4.8-25.9,6.7-31,18.7c-1.4,3.4-2.6,7-3.2,10.7C63,119.5,64.1,120.6,64.2,119.8L64.2,119.8z"/>
				</g>
			</g>
			<g>
				<g>
					<path d="M34.3,150.5c0,0.1,0,0.1,0,0.2c0.1,0.2,0.6,0.8,0.7,0.4c0-0.1,0-0.1,0-0.2c0-0.2,0.1-0.1,0-0.1
						c-0.2-0.2-0.4-0.4-0.6-0.6c0,0,0,0,0,0c0,0.2,0.1,0.5,0.4,0.6c0.2,0.1,0.4,0,0.4-0.2c0,0,0,0,0,0c0-0.3-0.3-0.8-0.6-0.6
						C34.4,150,34.4,150.3,34.3,150.5c0.3,0.1,0.5,0.2,0.7,0.3c0,0,0,0,0,0.1C35.1,150.5,34.4,149.9,34.3,150.5L34.3,150.5z"/>
				</g>
			</g>
			<g>
				<g>
					<path d="M68.4,114.9c-9.4,7.2-19,14.3-28.3,21.7c-1.5,1.2-2.2,2.5-2.9,4.3c-1.1,3.1-2.4,6.2-2.9,9.5c-0.1,0.4,0.6,1.1,0.7,0.6
						c0.5-3.4,1.8-6.9,3.1-10.1c0.7-1.8,1.8-2.9,3.2-4c3.1-2.4,6.2-4.8,9.4-7.2c6.1-4.6,12.1-9.3,18.2-13.9
						C69.2,115.5,68.7,114.7,68.4,114.9L68.4,114.9z"/>
				</g>
			</g>
			<g>
				<g>
					<path d="M39.2,145.7c-2.7,2.3-5.4,4.6-8,7c-3.3,3-7.4,6.2-9.6,10.1c-1.3,2.3-1.4,5.6-0.4,8c2.2,5.2,8.6,7.6,13.5,9.3
						c0.7,0.2,0.3-1.2-0.3-1.4c-4.5-1.6-12-4.1-12.7-9.8c-0.4-2.9,0.7-5.2,2.5-7.3c4.6-5.4,10.3-10.1,15.8-14.6
						C40.5,146.6,39.7,145.3,39.2,145.7L39.2,145.7z"/>
				</g>
			</g>
			<g>
				<g>
					<path d="M197.2,169.8c-2.1-0.5-4.2-1-6.3-1.5c-0.5-0.1-0.2,0.8,0.2,0.9c2.1,0.5,4.2,1,6.3,1.5
						C197.9,170.9,197.6,169.9,197.2,169.8L197.2,169.8z"/>
				</g>
			</g>
			<g>
				<g>
					<path d="M108.5,129.7c-10.6-0.4-22.2-0.8-32.4,2.6c-4.3,1.4-9.1,4.1-9.6,9.1c-0.5,4.6,2.3,9,5,12.4c3.9,5,8.9,9.3,13.9,13.2
						c8.1,6.2,17.4,11.4,27.3,14.1c0.7,0.2,0.3-1.2-0.3-1.4c-14.4-3.9-28.3-13.1-38.3-24.2c-3-3.3-6.4-7.6-6.6-12.2
						c-0.2-4.7,3.7-7.6,7.7-9.1c10.3-4.1,22.7-3.5,33.5-3.1C109.6,131.1,109.1,129.7,108.5,129.7L108.5,129.7z"/>
				</g>
			</g>
			<g>
				<g>
					<path d="M45.9,151.1c7-2.1,15.4,0.9,21.3,4.4c3.7,2.2,7.1,5.1,10.2,8.2c3.1,3.2,4.6,7.9,6.3,12c1.4,3.4,2.9,6.7,4.1,10.2
						c0.3,0.7,1.3,0.8,1-0.1c-0.9-2.5-1.9-5-3-7.4c-1.2-2.9-2.5-5.8-3.8-8.7c-0.6-1.4-1.2-3.2-2-4.5c-0.9-1.4-2.5-2.7-3.8-3.9
						c-6.9-6.5-15.7-11.8-25.4-12.1c-1.8,0-3.8,0-5.5,0.5C44.7,149.9,45.3,151.2,45.9,151.1L45.9,151.1z"/>
				</g>
			</g>
			<g>
				<g>
					<path d="M84.6,165.9C84.7,165.8,84.6,165.9,84.6,165.9c-0.1,0.2-0.1,0.3-0.2,0.4c-0.2,0.4-0.4,0.7-0.6,1
						c-0.6,0.8-1.3,1.7-2.3,2c-0.5,0.2,0,1,0.4,0.9c1.7-0.6,2.8-2.2,3.5-3.8C85.5,166.1,84.8,165.4,84.6,165.9L84.6,165.9z"/>
				</g>
			</g>
			<g>
				<g>
					<path d="M91.4,123.9c-1.2,0.8-2.3,1.7-3.3,2.7c-1.2,1.1-2.9,2.5-3.3,4.2c-0.1,0.4,0.6,1.1,0.7,0.6c0.4-1.7,2.3-3.2,3.6-4.3
						c0.9-0.8,1.9-1.6,2.9-2.3C92.2,124.5,91.7,123.7,91.4,123.9L91.4,123.9z"/>
				</g>
			</g>
			<path class="st9" d="M51.6,141.4c0,0-0.9,4.7,3.6,8.9"/>
			<g>
				<path d="M161.6,140.4l-4.8,0.2c-1.6,0.1-3.2,0.2-4.8,0.3c-1.6,0.1-3.2,0.3-4.7,0.5c-1.6,0.2-3.1,0.5-4.7,1
					c2.8-1.6,6.1-2.2,9.3-2.5C155.2,139.7,158.5,139.8,161.6,140.4z"/>
			</g>
			<g>
				<path d="M137.6,172.4c-1-1.8-1.5-3.8-1.9-5.8c-0.3-2-0.4-4.1-0.4-6.1c0-2.1,0.3-4.1,0.7-6.1c0.2-1,0.4-2,0.7-3
					c0.3-1,0.6-2,0.9-2.9c-0.1,1-0.3,2-0.4,3l-0.4,3c-0.1,1-0.2,2-0.3,3l-0.1,1.5l0,1.5c-0.1,2,0,4,0.2,6c0.1,1,0.2,2,0.4,3
					C137.1,170.4,137.3,171.4,137.6,172.4z"/>
			</g>
			<g>
				<path d="M129.6,145.4c1.3,2.3,2.3,4.7,3.2,7.1c0.9,2.4,1.7,4.9,2.2,7.5c0.5,2.5,1,5.1,0.9,7.8c0,2.6-0.3,5.3-1.4,7.7
					c0.1-0.6,0.3-1.3,0.4-1.9c0.1-0.6,0.1-1.3,0.2-1.9c0.1-0.6,0.1-1.3,0.1-1.9c0-0.6,0-1.3-0.1-1.9c-0.1-2.5-0.6-5.1-1.1-7.6
					c-0.5-2.5-1.2-5-2-7.4c-0.4-1.2-0.8-2.5-1.2-3.7C130.5,147.8,130.1,146.6,129.6,145.4z"/>
			</g>
			<g>
				<path d="M128.6,153.4c-0.6-1.2-1.3-2.3-2-3.4c-0.7-1.1-1.5-2.1-2.4-3.1c-0.8-1-1.7-1.9-2.7-2.8c-0.9-0.9-1.9-1.8-2.9-2.7
					c1.2,0.6,2.4,1.2,3.5,2.1c1.1,0.8,2,1.8,2.9,2.8c0.9,1,1.6,2.2,2.3,3.4C127.9,150.8,128.4,152,128.6,153.4z"/>
			</g>
			<g>
				<path d="M123.6,151.4c-2.1-1.5-4-3.1-6-4.6c-1-0.8-2-1.5-3-2.3c-1-0.7-2-1.5-3.1-2.1c1.2,0.3,2.4,0.8,3.5,1.5
					c1.1,0.6,2.1,1.4,3.1,2.1C120.3,147.6,122.1,149.3,123.6,151.4z"/>
			</g>
			<g>
				<path d="M109.6,195.4c-1.3-0.4-2.4-1.3-3.3-2.2c-0.9-1-1.7-2.1-2.3-3.2c-0.6-1.2-1.1-2.4-1.6-3.6c-0.2-0.6-0.4-1.3-0.5-1.9
					c-0.1-0.7-0.2-1.3-0.3-1.9c0.3,0.6,0.5,1.2,0.8,1.8c0.3,0.6,0.5,1.2,0.8,1.8c0.6,1.2,1.1,2.3,1.7,3.4c0.6,1.1,1.3,2.2,2,3.2
					c0.4,0.5,0.8,1,1.2,1.5C108.6,194.6,109.1,195,109.6,195.4z"/>
			</g>
			<g>
				<path d="M99.6,192.4c-1.3-0.9-2.4-2.1-3.3-3.4c-0.9-1.3-1.7-2.7-2.3-4.2c-0.6-1.5-1.1-3-1.3-4.6c-0.3-1.6-0.2-3.2-0.1-4.8
					c0.2,1.6,0.5,3.1,0.8,4.6c0.3,1.5,0.8,3,1.4,4.4c0.6,1.4,1.3,2.8,2.1,4.1C97.7,189.9,98.6,191.2,99.6,192.4z"/>
			</g>
			<g>
				<path d="M153.6,238.4c0.6-2,0.9-4,1.1-6l0.1-1.5l0-1.5c0.1-1-0.1-2-0.1-3.1c-0.3-4.1-1.1-8.1-2.3-12l-0.9-2.9
					c-0.3-1-0.8-1.9-1.1-2.8c-0.7-1.9-1.7-3.7-2.6-5.6c-0.9-1.8-2-3.6-3-5.4c-1.1-1.7-2.2-3.4-3.3-5.2c1.3,1.6,2.5,3.3,3.7,4.9
					c1.1,1.8,2.2,3.5,3.2,5.3c0.5,0.9,1,1.8,1.4,2.7c0.5,0.9,0.9,1.9,1.3,2.8c0.4,1,0.8,1.9,1.2,2.9l1,2.9c1.1,4,2,8.1,2.1,12.2
					C155.6,230.3,155.2,234.5,153.6,238.4z"/>
			</g>
			<g>
				<path d="M119.6,238.4c-0.5-4-0.7-8-0.6-12c0.1-4,0.4-8.1,1.1-12c0.7-4,1.7-7.9,3.2-11.7c0.8-1.9,1.6-3.7,2.7-5.4
					c1.1-1.7,2.3-3.4,3.6-4.8c-2.4,3.2-4.3,6.8-5.6,10.5c-1.3,3.7-2.3,7.6-2.9,11.6c-0.7,3.9-1.1,7.9-1.3,11.9c-0.1,2-0.2,4-0.2,6
					C119.5,234.4,119.6,236.4,119.6,238.4z"/>
			</g>
			<g>
				<path d="M137.6,236.4c-0.2-3.3-0.3-6.7-0.4-10c-0.1-3.3-0.1-6.7-0.1-10c0-3.3,0-6.7,0.1-10l0.1-5c0.1-1.7,0.1-3.3,0.2-5
					c0.1,1.7,0.2,3.3,0.2,5l0.1,5c0.1,3.3,0.1,6.7,0.1,10c0,3.3,0,6.7-0.1,10C137.9,229.7,137.8,233,137.6,236.4z"/>
			</g>
			<g>
				<path d="M141.2,239.7c-2.6-0.8-5.4,0.8-6.2,3.2c-0.4,1.2-0.2,2.5,0.5,3.5c0.7,1,1.9,1.6,3.1,1.5c1.2-0.1,2.2-1,2.5-2.1
					c0.3-1.1-0.4-2.4-1.5-2.7c-0.5-0.2-1.2-0.1-1.6,0.3c-0.5,0.3-0.8,0.9-0.7,1.5c0,0.6,0.5,1.1,1.1,1.3c0.6,0.2,1.3-0.2,1.6-0.8
					c-0.2,0.7-0.9,1.1-1.6,1c-0.7-0.1-1.3-0.7-1.4-1.5c-0.1-0.7,0.2-1.5,0.8-1.9c0.6-0.5,1.4-0.7,2.1-0.5c1.5,0.3,2.4,2,2,3.5
					c-0.3,1.4-1.6,2.6-3.1,2.7c-1.5,0.1-2.9-0.7-3.7-1.8c-0.8-1.2-1-2.7-0.5-4.1c0.5-1.3,1.5-2.4,2.8-2.9
					C138.5,239.3,139.9,239.2,141.2,239.7z"/>
			</g>
			<g>
				<path class="st10" d="M186.1,170.1c-0.6-1.1-3-1-5.5,0.3c-2.4,1.3-4,3.2-3.4,4.3c0.6,1.1,3,1,5.5-0.3
					C185.1,173.1,186.6,171.2,186.1,170.1z"/>
				<g>
					<path d="M186.3,169.9c-1.4-2-4.5-0.7-6.3,0.2c-1.4,0.8-4.2,2.7-3.2,4.7c1.1,2.1,4.6,0.8,6,0c1.6-0.8,4.2-2.6,3.5-4.8
						c-0.2-0.5-0.9-0.5-0.7,0.1c0.9,2.5-6.6,6.3-7.8,4.3c-0.5-0.8-0.1-1.1,0.5-1.8c0.6-0.6,1.3-1.1,2-1.5c1-0.6,4.4-2.3,5.4-0.9
						C186.2,170.7,186.7,170.4,186.3,169.9z"/>
				</g>
			</g>
			<g>
				<path class="st10" d="M84.5,155.6c-0.4,0.4,1.6,2.9,4.4,5.5c2.8,2.6,5.4,4.4,5.8,4c0.4-0.4-1.6-2.9-4.4-5.5
					S84.9,155.2,84.5,155.6z"/>
				<g>
					<path d="M84.1,155.3c-0.2,0.6,0.4,1.3,0.7,1.8c1,1.5,2.4,2.8,3.8,4.1c0.6,0.6,5.4,5.5,6.5,4.3c1.1-1.1-3.5-5.1-4-5.6
						c-1.5-1.4-3.1-2.9-4.9-4c-0.5-0.3-1.3-1-1.9-0.7c-0.4,0.2,0.1,1,0.5,0.9c1-0.5,4.3,2.9,4.9,3.4c0.5,0.4,5,4.6,4.5,5.1
						c-0.4,0.5-4.5-3.3-4.8-3.6c-0.5-0.5-4.9-4.1-4.5-5.1C85,155.5,84.3,154.8,84.1,155.3z"/>
				</g>
			</g>
		</g>
	</g>
</g>
</svg>
