<?xml version="1.0" encoding="utf-8"?>
<!-- Generator: Adobe Illustrator 22.1.0, SVG Export Plug-In . SVG Version: 6.00 Build 0)  -->
<svg version="1.1" xmlns="http://www.w3.org/2000/svg" xmlns:xlink="http://www.w3.org/1999/xlink" x="0px" y="0px"
	 viewBox="0 0 280.7 328.3" style="enable-background:new 0 0 280.7 328.3;" xml:space="preserve">
<style type="text/css">
	.st0{fill:#6280C0;}
	.st1{fill:#111415;}
	.st2{fill:#0F1214;}
	.st3{fill:#EBF2F1;}
	.st4{fill:#B8CDDF;}
	.st5{fill:none;stroke:#2C274C;stroke-width:1.0123;stroke-miterlimit:10;}
	.st6{fill:none;stroke:#111415;stroke-width:1.0123;stroke-miterlimit:10;}
</style>
<g id="Layer_13">
</g>
<g id="Layer_3">
</g>
<g id="Layer_34">
</g>
<g id="Layer_4">
</g>
<g id="Layer_5">
</g>
<g id="Layer_14">
</g>
<g id="Layer_6">
</g>
<g id="Layer_7">
</g>
<g id="Layer_29">
</g>
<g id="Layer_8">
</g>
<g id="Layer_11">
</g>
<g id="Layer_12">
</g>
<g id="Layer_10">
</g>
<g id="Layer_1">
</g>
<g id="Layer_24">
	<path class="st0" d="M83.2,238.8l-34.3,30.7l1,34.4l-8.6-2.9l3.5,8.9l14.8,5.9l4.4-4.2l-3.9-3.7l3.5-13.2l19.4-20.6v24l30,11.6
		l-1.7,1.5l11.1-0.3l7.4-10.5l-8.6-8.4c0,0-2.5,3.9-2.5,4.6c0,0.7-12.3-2.4-15-5.2c-2.7-2.9,7.4-14.1,7.4-14.1l18.7-16.1L83.2,238.8
		z"/>
</g>
<g id="Layer_24_copy">
	<g>
		<g>
			<path class="st1" d="M82.7,238.4c-11,9.9-22.8,19.2-33.2,29.7c-2.9,2.9-1.1,9.3-1,13.2c0.2,7.5,0.4,15.1,0.7,22.6
				c0.4-0.2,0.8-0.4,1.2-0.6c-2.9-1-5.7-1.9-8.6-2.9c-0.4-0.1-1.4,0.1-1.2,0.7c1.2,3,2,7.6,4.5,9.5c2,1.5,5.4,2.2,7.7,3.1
				c2.2,0.9,4.3,1.7,6.5,2.6c0.4,0.1,0.8,0,1-0.3c1.5-1.4,2.9-2.8,4.4-4.2c0.2-0.2,0.1-0.5-0.1-0.7c-0.8-0.8-3.5-2.9-3.7-3.4
				c-0.4-1.3,1.2-4.3,1.5-5.6c1-3.6,1.2-6.5,3.5-8.9c5.9-6.3,11.9-12.6,17.8-18.9c-0.5-0.1-0.9-0.1-1.4-0.2c0,8,0,16,0,24
				c0,0.2,0.1,0.4,0.3,0.4c5.5,2.1,10.9,4.2,16.4,6.4c3.5,1.3,6.9,2.7,10.4,4c0.9,0.3,1.9,0.6,2.7,1c0.1,0,0.5,0.1,0.5,0.2
				c-0.5-1.1-1.1,0.1-1.7,0.7c-0.5,0.4-0.2,0.9,0.4,0.9c2.3-0.1,4.7-0.1,7-0.2c1.3,0,3.5,0.4,4.7-0.4c1.3-0.8,2.6-3.6,3.5-4.9
				c1.3-1.9,2.7-3.7,4-5.6c0.1-0.1,0.2-0.4,0.1-0.6c-2.9-2.8-5.7-5.6-8.6-8.4c-0.3-0.3-1-0.3-1.3,0.1c-0.6,0.9-1.1,1.7-1.6,2.6
				c-1.1,1.7-0.3,1.4-2,1.5c-2.9,0.2-7.6-2-10.2-3.3c-4.3-2.2-2.3-5.5-0.1-8.7c1.4-2.1,3-4.3,4.8-6.1c5.6-5.7,12.6-10.9,18.8-16.2
				c0.3-0.3,0.3-0.7-0.1-0.8c-15.6-7.5-31.3-15-46.9-22.4c-0.6-0.3-1.7,0.6-0.8,1c6.6,3.2,13.2,6.3,19.9,9.5c5,2.4,9.9,4.7,14.9,7.1
				c3.4,1.6,7,4,10.6,5.1c1.5,0.5,1,1.1,1.4-0.1c-0.4,1-2.4,2.1-3.2,2.7c-3.9,3.4-7.8,6.7-11.7,10.1c-1.9,1.6-3.8,3.1-5.4,5.1
				c-2.2,2.6-7.3,8-6.6,11.8c0.8,3.8,9.1,5.4,12.2,6.1c5.2,1.2,4.4-0.1,7.2-4.3c-0.4,0-0.9,0.1-1.3,0.1c2.4,2.3,4.6,4.9,7.1,7
				c1.4,1.2,1.2,0.9,1.1,1.5c-0.3,1.5-2.6,3.7-3.5,5c-0.9,1.3-1.9,3.3-3.1,4.4c-0.9,0.8,0.8-0.1-0.1,0.2c-0.6,0.2-1.6,0-2.3,0.1
				c-2.1,0.1-4.4-0.1-6.4,0.2c-2.6,0.4-1.3,0.8,0.2-0.6c0.3-0.3,0.4-0.7-0.1-0.8c-9.4-3.6-18.8-7.9-28.4-11
				c-0.3-0.1-1.3-0.3-1.5-0.6c0.1,0.1,0.4,0.5,0.2-0.4c-0.5-2.4,0-5.3,0-7.7c0-5.1,0-10.3,0-15.4c0-0.7-1-0.5-1.4-0.2
				c-5.6,5.9-11.2,11.8-16.7,17.8c-1.5,1.6-2.4,2.4-3.1,4.4c-1.4,3.8-2.1,8-3.2,11.9c0,0.2,0.1,0.3,0.2,0.4c0.9,0.8,3,2.1,3.4,3.2
				c0.3,0.9,0.5-0.7-0.3,0.5c-0.5,0.8-1.5,1.3-2.1,2.1c-0.2,0.3-1,1.2-1.4,1.4c1.3-0.4,0.6-0.2-0.2-0.6c-1.6-0.8-3.3-1.3-4.9-2
				c-1.9-0.7-7.7-2.4-8.5-3.3c-1.8-2-2.5-6.3-3.5-8.8c-0.4,0.2-0.8,0.5-1.2,0.7c2.9,1,5.7,1.9,8.6,2.9c0.4,0.1,1.2,0,1.2-0.6
				c-0.2-7-0.4-14.1-0.6-21.1c-0.1-3.8,0.1-7.8-0.3-11.6c-0.2-2-0.3-1.3,1.4-2.9c10.8-9.7,21.7-19.4,32.5-29.2
				C84.4,238.5,83.2,237.9,82.7,238.4z"/>
		</g>
	</g>
	<g>
		<g>
			<path class="st1" d="M79.4,269c1.3,1.5,2.9,3.4,3,5.5c0,0.2,1.5,0,1.5-0.4c-0.1-2.1-1.8-4.1-3.1-5.6
				C80.5,268.2,79.2,268.7,79.4,269L79.4,269z"/>
		</g>
	</g>
</g>
<g id="Layer_25">
	<polygon class="st2" points="130.1,300.5 136.8,300.5 136.8,322.1 135.5,324 121.3,324 126.4,320.1 122.6,311 	"/>
	<path class="st2" d="M30,328.1l32.4-8.3l-0.6-5.9c-1.6-0.7-16.9-3.9-16.9-3.9l-15.7,18.1H30z"/>
</g>
<g id="Layer_15">
	<path class="st2" d="M99.2,91.9c-3.5,2.7,7,18.3,10.3,44.4c1.7,12.9,2.8,28.9,2,36.7c-1.4,15.1-1.9,25.3-10.3,40
		c-5.8,10.2-14.3,22-20.1,26.7c1.6,3.9,4.3,7.8,8.6,12.3c13.8,14.2,31.1,14,35.1,13.7c6.1-2.7,17.9-7.3,29.7-11.7
		c17.3-6.4,20.1-6.2,28.9-10.6c8.9-4.5,21.7-9.6,30-23c5.7-9.1,9.8-21.4,10.5-27.1c-2.4,0.2-21.6-3.4-29.4-12.8
		c-3.3-4-7.5-11.2-7.6-19.6c-0.3-16.3,9.7-29.9,14.2-37.2c-0.2-3.3-3.9-7.8-5.6-12.8c-1.5-4.4-2.3-7.7-4-10.4
		c-3.9,0.6-11.3,3.6-15.3,9.7c-7.9,11.8-5.2,28.1-11.1,32.1c-5.6,3.8-17.1,8.4-29.4-2.4C120.8,126.6,111.6,82.6,99.2,91.9z"/>
</g>
<g id="Layer_16">
	<path class="st3" d="M200.9,122.4c-1.5,0.9-7,6.2-9.4,11.4c-0.3,0.7-3.8,4.5-3.8,10.7c0.1,9.5-0.9,10.6-0.8,16.4
		c0.1,5.7,3.1,12.1,5,16c5.7,12,19.9,15,21.1,15.2c11.8,1.4,19.9-1.6,22.3-2.9c11.4-6.3,15.6-18.3,16.4-21.1
		c0.4-1.3,2.9-14.7-4-27.4C238,122.8,213.2,115,200.9,122.4z"/>
</g>
<g id="Layer_23">
	<path class="st3" d="M184.4,48.1l12.5-8.4c0,0,2.8,21.8,4,27.9c1.1,6.1,3.5,15,6.4,19.8s4.5,6.9,4.5,6.9l26.5-60.7l8.9,5.6
		c0,0,1.3,5.5,1.1,9.8s-1,8.8-1,8.8l-16.1,37.5c0,0,9,0.8,11.2-0.5c2.3-1.3,32.8-29.9,32.8-29.9s3.6,6.8,3.2,10.8
		c-0.4,4-1.1,7.3-3.2,10.2c-2.1,2.9-6.8,9.3-13.7,12.8c-6.9,3.5-11.2,7.3-11.2,7.3s16.9,22.5,16.5,23.2s-12.6,7.1-12.6,7.1
		l-22.7,9.6l-3.9,5c0,0-26-0.7-28.3,0.2c-2.3,0.9-10.5,5.8-11.8,6.9c-1.3,1.1-2.5,4-7.7,2c-5.2-2-7.2-4-6.5-5.2
		c0.7-1.2,6.2-12.2,11.9-14.2c5.7-2,7.6-1.3,10.3-0.9c2.6,0.3,10.2,0,10.1-1.7s-2.5-12.3-5.4-19.1c-2.9-6.8-9.4-21.8-9.4-21.8
		s-6.3-14.1-7-21.4c-0.7-7.3-0.2-18.6-0.2-18.6L184.4,48.1z"/>
</g>
<g id="Layer_27">
	<path class="st3" d="M77,75.4l26.8-8.9c0,0-38.6-39-40.8-41.3C61.1,23.4,46,8.7,46,8.7s-7.6,2.2-9.4,2.2l-11.5-0.3l-8-2.9l-8.2-7
		v4.8L7.2,4.5l-4-2.2c0,0-0.9,4.6,0.2,5.1c0.4,0.2,1.8,3.1,1.8,3.1s0.7,2.6,1,3.2c0.3,0.6,6.1,3,6.1,3l8.7,3h14.4
		c0,0,0.1,4.6-0.5,5.6c-0.6,1-3.4,5.1-3.3,6.6c0.1,1.5,2.3,3.5,2.3,3.5s6.1-5.7,6.6-6.5c0.5-0.9,5-4,5-4l0.3-0.8
		c0.9,1.1,0.9,1.4,0.9,1.4s5.6,16.2,5.7,18.1c0.2,1.9,3,12.3,5.6,15.9C60.6,63,70.4,73,73.7,74C77,74.9,77,75.4,77,75.4z"/>
</g>
<g id="Layer_28">
	<path class="st4" d="M150.3,121l3.9-7.3c0,0-2.9-2.8-2.7-5.1c0.1-2.2,0.6-4.4,1.6-4.7c1.1-0.3,1.1-0.3,1.1-0.3l-0.7-18.3
		l-31.8-12.6l-19.7-7.3c0,0-9.7-4.8-11.4-4S87,60.5,86,60.1c-1-0.4-6.6-2.2-10.8-1.3c-4.2,0.9-4.2,3.6-3.5,5.6
		c0.6,2,8,15.5,12.6,19.5c4.6,4,24.7,19.2,24.7,19.2s24.8-8.1,27.3-7.3"/>
</g>
<g id="Layer_17">
	<g>
		<g>
			<path class="st1" d="M126.2,95.6c-4.8-3.7-9.1-7.9-12.8-12.7c-1.2-1.6-6.4-7.7-5.9-9.7c1.3-4.6,6.1-2.3,9.1-1.3
				c0.5,0.2,1.7-0.5,0.9-0.8c-3-1-12.6-4.7-11.6,1.8c0.7,4.5,5,9.3,7.7,12.6c3.3,4,7.1,7.5,11.2,10.7
				C125.3,96.5,126.6,95.9,126.2,95.6L126.2,95.6z"/>
		</g>
	</g>
	<g>
		<g>
			<path class="st1" d="M115.7,98.9c-6.2-6.5-13-12.4-19.1-19c-2.9-3.2-5.8-6.4-7.1-10.6c-0.2-0.7-0.4-1.3-0.5-2
				c-0.5-2.5,1.1-4.9,3.9-5.4c3.3-0.6,8.6,3.4,10.9,5c0.5,0.4,1.8-0.4,1.1-0.8c-3.7-2.5-10.2-6.9-15.1-5c-4,1.5-2.6,6.8-1.4,9.8
				c1.9,4.9,5.7,8.8,9.4,12.3c5.6,5.4,11.2,10.7,16.5,16.4C114.8,100.1,116.2,99.5,115.7,98.9L115.7,98.9z"/>
		</g>
	</g>
	<g>
		<g>
			<path class="st1" d="M84.6,59.2c-3.1-0.5-10.4-1.4-13,1c-4.1,3.9,4.5,14.8,6.8,17.9c2.9,3.9,6.4,7.4,10.3,10.2
				c6.7,4.9,13.1,10.1,19.5,15.4c0.3,0.2,1.6-0.3,1.4-0.5c-7.6-6.3-16-11.8-23.2-18.4C81.8,80.7,78,75.7,75,70.2
				c-1.2-2.1-2.4-4.5-2.7-6.8c-0.3-2.4,0.3-3.1,2.7-3.6c2.6-0.6,5.8-0.5,8.4,0C83.7,59.8,85,59.3,84.6,59.2L84.6,59.2z"/>
		</g>
	</g>
	<g>
		<g>
			<path class="st1" d="M128.9,76c3.1,1.2,6.2,2.5,9.2,3.7c4.2,1.7,9.5,3,13.4,5.3c1.2,0.8,0.8,0.1,1.2,1.2c0.6,1.7,0.2,4.5,0.3,6.3
				c0.2,4,0.3,7.9,0.5,11.9c0,0.3,1.5,0.1,1.5-0.4c-0.3-6.3-0.5-12.7-0.8-19c0-0.1-0.1-0.1-0.1-0.1c-8-3.2-16-6.4-24-9.5
				C129.7,75.3,128.4,75.8,128.9,76L128.9,76z"/>
		</g>
	</g>
</g>
<g id="Layer_26">
	<path class="st3" d="M141,158.3c0,0-2.5,2.2-2.8,3.3c-0.3,1.1,0.8,2.1,3.7,0.9c2.9-1.2,10.5-4.9,14-8.6c3.5-3.7,8.8-10.5,10.6-12.8
		c1.9-2.4,4-5.6,4.2-8.4c0.2-2.9,2.5-11.4,2.5-11.4l-14.8-9.1c0,0,3.6-4.3-0.7-7.2c-4.3-2.8-5.7,0-5.7,0s-1.8,4,0.2,6.6
		s2.3,2.6,2.3,2.6l-4.6,7.7c0,0,0.6-9.4-2.6-11.7s-4.5-1.5-4.5-1.5l-0.1-9.4c0,0-6.6-3.4-7.7-3.7c-1-0.3-26.2,7-26.2,7l21.7,43.7
		l8.7-2.8L141,158.3z"/>
</g>
<g id="Layer_18">
	<g>
		<g>
			<path class="st1" d="M130.7,108.1c0.1-0.6,0.4-1.4,1-1.6c0.5-0.2,1.2,0.1,1.7,0.2c1.5,0.4,2.9,1.1,4.1,2.2
				c0.3,0.2,1.6-0.3,1.4-0.5c-2.2-1.9-8.6-4.6-9.6,0C129.2,108.6,130.6,108.4,130.7,108.1L130.7,108.1z"/>
		</g>
	</g>
	<g>
		<g>
			<path class="st1" d="M135.5,96.4c2.9,1.2,6.6,1.9,6.7,5.4c0,2.3-0.5,4.8,0,7.1c0.1,0.3,0.4,0.4,0.7,0.4c5.8-0.1,6.1,7.6,6.8,11.9
				c0.1,0.7,1.2,0.3,1.4-0.1c1.3-2.3,2.6-4.6,3.9-6.8c0.1-0.1,0.1-0.3,0-0.4c-1.6-1.6-2.6-3.5-2.7-5.8c0-0.7,0-2,0.4-2.5
				c3-1.7,4.7-1.1,5.2,1.7c1.3,1.6,1.3,3.2,0,4.9c-0.1,0.2,0,0.4,0.1,0.5c4.9,3,9.9,6.1,14.8,9.1c0.6,0.3,1.8-0.4,1.1-0.9
				c-3.8-2.3-8.1-4.4-11.5-7.1c-3.5-2.7-1-4.2-2.6-7.5c-1.1-2.3-4.6-4.2-7-2.7c-2.8,1.8-2.2,6.7-0.6,9.1c1.4,2.1,1.4,1.6,0,4
				c-0.8,1.4-1.6,2.8-2.4,4.3c0.5,0,1-0.1,1.4-0.1c-0.5-3.3-0.6-8.7-3.3-11.1c-1.1-1-2.3-1-3.6-1.5c-1.3-0.5-0.8,1-0.7-1
				c0.1-2,1.1-6.5-0.1-8.3c-1.2-1.8-5.1-2.7-7.1-3.6C135.7,95.1,134.6,96.1,135.5,96.4L135.5,96.4z"/>
		</g>
	</g>
</g>
<g id="Layer_19">
	<g>
		<g>
			<path class="st1" d="M105.5,66.6C94.9,56,84.3,45.4,73.6,34.9C66.8,28.1,59.9,21.3,53,14.6c-2.5-2.4-5.3-6.8-8.8-6.2
				c-6.8,1.1-13,3.2-20,1.5c-3.9-1-7.3-2.8-10.2-5.6c-1.3-1.2-3-3.6-4.8-4.1c-0.3-0.1-1.2,0-1.3,0.4C6.8,3.6,8,6.1,9.6,8.3
				c2.7,3.7,5.6,7.5,8.8,10.9c1.8,1.9,2.5,1.5,5.2,1.4c3.8-0.1,7.6-0.3,11.4-0.4c0.4,0,1.6-0.7,0.6-0.7c-3,0.1-6.1,0.2-9.1,0.4
				c-3,0.1-4.9,0.9-7-1.4c-2.7-3-5.1-6.1-7.6-9.3c-2-2.6-4-5.2-2.8-8.7C8.8,0.6,8.4,0.7,7.9,0.9c1.7,0.4,3.6,3,4.8,4.2
				c2.3,2.1,4.8,3.7,7.7,4.7c4.4,1.6,8.9,1.7,13.4,1.2c2-0.2,4.1-0.4,6.1-0.8c1-0.2,1.9-0.5,2.9-0.8c0.5-0.1,1.2-0.5,1.8-0.6
				c1.7-0.2-0.3-0.3,0-0.1c1.5,0.7,2.9,2.6,4.1,3.7C63.1,26,77.1,40.1,91.1,54.1c4.3,4.3,8.7,8.7,13,13
				C104.4,67.4,105.7,66.9,105.5,66.6L105.5,66.6z"/>
		</g>
	</g>
	<g>
		<g>
			<path class="st1" d="M34.7,17.7c0.1,1.9,0.6,4.5,0.1,6.4c-0.6,2.1-3.1,3.5-3.7,5.7c-0.6,2.4,0.3,7.8,3.6,5.5c1-0.7,1.8-2.1,2.7-3
				c1.9-1.8,3.7-3.7,5.7-5.3c1.3-1,2.9-1.2,3.4-2.8c0.6-1.8,0.3-4.3,0.3-6.2c0-0.3-1.5-0.1-1.5,0.4c-0.1,1.7-0.1,3.3-0.2,5
				c-0.2,1.9-1.6,2.2-2.9,3.3c-2.6,2-5.2,4.4-7.4,6.8c-0.3,0.4-0.8,1.4-1.3,1.4c-0.7-0.1-0.8-2.4-0.9-2.9c-0.4-2.7,0.8-4.1,2.4-6.2
				c1.9-2.4,1.2-5.4,1-8.4C36.2,17,34.7,17.2,34.7,17.7L34.7,17.7z"/>
		</g>
	</g>
	<g>
		<g>
			<path class="st1" d="M19.4,18.3c-3.1-2.1-6.3-4-9.3-6.4c-1.7-1.3-3.6-2.6-5.1-4.2C3.8,6.5,3.6,3.9,3.9,2.2
				C3.5,2.4,3.1,2.5,2.7,2.7C4.5,3,6.3,5.1,8,5.9c0.5,0.2,1.8-0.5,1.2-0.7c-1.8-0.8-3.7-3-5.5-3.3c-0.4-0.1-1.1,0-1.2,0.5
				C2.2,3.7,2.3,6.3,2.9,7.5c0.9,1.9,4.1,3.5,5.7,4.9c3,2.4,6.4,4.5,9.6,6.7C18.7,19.3,20,18.7,19.4,18.3L19.4,18.3z"/>
		</g>
	</g>
	<g>
		<g>
			<path class="st1" d="M19.1,18.6c-2.7-1.2-5.3-2.4-8-3.5c-1.3-0.6-3-1-4.1-1.8c-1.1-0.7-1.4-2.8-0.6-4C6.8,8.6,5.3,8.7,5,9.1
				c-0.8,1-0.8,3.5,0.1,4.5c0.6,0.7,2.2,1,3.1,1.4c3.3,1.4,6.5,2.9,9.8,4.3C18.4,19.5,19.7,18.9,19.1,18.6L19.1,18.6z"/>
		</g>
	</g>
	<g>
		<g>
			<path class="st1" d="M45.1,25.1c2.7,4.7,4.9,9.6,6.2,14.9c1.3,5.3,1.4,10.8,3.7,15.8c4,8.8,11.7,17.3,21.4,19.3
				c0.4,0.1,1.7-0.5,1.2-0.6c-10.2-2.1-19.2-12.3-22.3-22c-1.4-4.4-1.5-9-2.7-13.4c-1.3-5.1-3.4-9.8-6-14.3
				C46.4,24.3,45,24.8,45.1,25.1L45.1,25.1z"/>
		</g>
	</g>
	<g>
		<g>
			<path class="st1" d="M152.4,136.5c-2.7,1.4-5.4,2.7-8.1,4.1c-3.5,1.7-8,4.7-12,5.2c-0.7,0.1-3.2,1.3-1.3,1.1
				c4.3-0.6,8.5-3,12.4-4.8c3.8-1.8,7.5-3.6,11.2-5.5C155.8,135.8,152.9,136.2,152.4,136.5L152.4,136.5z"/>
		</g>
	</g>
	<g>
		<g>
			<path class="st1" d="M126.2,121.4c0.1,2.6,1.3,5.4,2,8c0.1,0.4,1.6,0,1.5-0.4c-0.8-2.5-1.9-5.3-2-8
				C127.7,120.7,126.2,120.9,126.2,121.4L126.2,121.4z"/>
		</g>
	</g>
</g>
<g id="Layer_20">
	<path class="st2" d="M141.8,114.2L141.8,114.2c0.3,0.5,0.8,1.9,0.5,3.5c-0.2,1.6-1,2.6-1.3,3.1c-0.4,0.6-1.7,2.3-4,2.7
		c-3.6,0.7-6.1-2.6-6.4-3c-0.5-0.7-1.2-1.6-1.1-2.7c0.2-1.9,2.5-2.9,3.3-3.3c1.8-0.8,3.8-1.9,6.8-1.4
		C140.5,113.3,141.5,114.2,141.8,114.2"/>
	<path class="st5" d="M150.8,109.6c-3,1.5-7.2,3.7-10.2,5.2"/>
	<path class="st6" d="M126.1,120.6c0.7-0.6,1.5-1.8,3.5-1.8"/>
	<path class="st2" d="M121.2,129c0.9-0.3,2.3-0.8,3.5-2c0.6-0.6,1.4-1.3,1.8-2.7c0.1-0.4,0.4-1.3,0.1-2.5c-0.3-1.1-0.6-2.1-1.6-2.4
		c-1-0.1-2.6-0.2-4.7,0.4c-1.2,0.4-2.1,1-2.6,1.9C116.9,123.3,118.3,126.3,121.2,129z"/>
</g>
<g id="Layer_21">
	<g>
		<g>
			<path class="st1" d="M224.9,124.5c2.5,1.7,5.1,3.5,7.5,5.3c1.1,0.8,4.4,2.6,5,4c0.4,1.1-0.5,2.2-1.2,3.2c-2.2,3.5-4.8,6.8-7.3,10
				c-0.8,1.1-1.7,2.1-2.5,3.2c0.5-0.6,1.8-0.2-0.2-0.5c-7.4-0.9-15.4-0.2-22.9-0.1c-3.2,0-5.6,0.6-8.5,2.1c-2,1-4.1,2.2-6,3.5
				c-2.4,1.8-5.2,5.8-8.6,4.9c-1.5-0.4-2.9,1.8-1,2.3c5.3,1.4,9-4.1,13-6.6c4.3-2.7,7.8-3.8,12.8-3.9c4.9,0,9.8,0,14.7,0
				c2.2,0,6,0.8,8.1,0c2.1-0.8,4-4.4,5.3-6.1c2.4-3.2,5.8-6.8,7.2-10.6c1-2.7-1.2-3.9-3.2-5.5c-3.2-2.5-6.5-4.8-9.9-7.1
				C226,122,223.4,123.6,224.9,124.5L224.9,124.5z"/>
		</g>
	</g>
	<g>
		<g>
			<path class="st1" d="M206.3,134.8c-0.5,3.5-5.6,4.7-8.5,4.5c-2.3-0.2-4.6-0.7-7-0.6c-4,0.2-6.8,2-10.3,3.7
				c-1.7,0.9,1,0.9,1.7,0.5c4.1-2,7.5-3.2,12.4-2.6c2,0.3,3.7,0.6,5.7,0.2c3.2-0.6,8.3-2.4,8.9-6.2
				C209.3,133.5,206.4,134,206.3,134.8L206.3,134.8z"/>
		</g>
	</g>
	<g>
		<g>
			<path class="st1" d="M207.6,117.5c11.7-1.7,25.6-1.9,35.8-8.4c1.7-1.1-0.9-1.6-1.8-0.9c-9.4,6-22.8,6.1-33.6,7.7
				C206.5,116,205.5,117.8,207.6,117.5L207.6,117.5z"/>
		</g>
	</g>
	<g>
		<g>
			<path class="st1" d="M231.8,146.8c7.2-2.9,14.4-6,21.4-9.2c2.6-1.2,15.2-5.4,14.9-9c-0.1-0.8-1.6-2.2-2-2.8
				c-1.4-2-2.8-3.9-4.2-5.9c-2.8-3.9-5.6-7.8-8.4-11.8c-0.6-0.8-1.4-1.7-1.8-2.6c0.4,0.7-1,1.1,0.3,0.4c0.8-0.4,1.6-1,2.4-1.5
				c5-3.1,9.8-6.4,14.3-10.1c5-4.2,10-9.4,11.1-16.1c0.8-4.9-1.2-9.4-3-13.7c-0.4-1-2.4-0.1-2.8,0.4c-5,5.1-10.1,10.1-15.2,15.1
				c-3.6,3.5-7.3,6.9-11.1,10.2c-2.7,2.3-4.3,3.8-7.5,4.2c-1.2,0.1-7.3,0.7-7.3,0.7c-0.1-0.2,1.1-2.3,1.2-2.5c1.9-4,3.7-8,5.5-12.1
				c3.5-7.9,8.3-16.4,9.8-25c0.6-3.4,0.5-7.2,0.5-10.6c0-1.4,0.5-4.2-0.2-5.5c-0.8-1.2-3.8-2.4-4.9-3.1c-1.7-1-3.3-2.1-5-3.1
				c-0.8-0.5-2.4-0.1-2.8,0.8c-8.8,20.2-17.7,40.5-26.5,60.7c0.9-0.3,1.9-0.5,2.8-0.8c-11.9-15-12.5-36.2-14.7-54.5
				c-0.1-0.8-2-0.2-2.4,0c-2.4,1.6-4.7,3.2-7.1,4.8c-1.5,1-4.9,2.4-5.9,4c-1.1,1.9-0.8,6.1-0.9,8.3c-0.4,4.8-0.8,9.7-0.5,14.5
				c0.9,16.7,10.7,33.5,17.1,48.6c2.5,5.9,5.5,12.4,5.4,18.9c0,0.8,2.9,0.3,2.9-0.8c0.1-7.3-3.5-14.7-6.3-21.2
				c-3.5-8.2-7.4-16.3-10.5-24.6c-2.4-6.2-4.7-12.9-5.4-19.5c-0.7-6.3,0-12.8,0.6-19c0.1-1.5,0-3.8,0.6-5.2c-0.3,0.6-0.5,0.6,0,0.1
				c0.5-0.6,1.5-1,2.2-1.5c3.2-2.2,6.5-4.4,9.7-6.6c-0.8,0-1.6,0-2.4,0c2.2,18.4,3,39.7,14.9,54.8c0.6,0.7,2.5-0.1,2.8-0.8
				c8.8-20.2,17.7-40.5,26.5-60.7c-0.9,0.3-1.9,0.5-2.8,0.8c2.2,1.4,4.4,2.8,6.6,4.1c2.5,1.6,3.3,1.4,3.3,4.3
				c0.1,7.6-0.3,13.9-2.9,20.9c-4.2,10.9-9.1,21.5-14.1,32c-0.2,0.3,0.3,0.5,0.6,0.5c3.9,0.7,9.7,0.6,13.4-1
				c4.1-1.7,7.7-5.8,10.9-8.7c7.5-6.9,14.8-14.1,22-21.4c-0.9,0.1-1.9,0.3-2.8,0.4c1.3,3.2,2.6,6.2,3,9.7c0.7,6-2.8,11.7-7,15.8
				c-5.9,5.9-13.2,10.6-20.4,14.8c-0.3,0.2-0.8,0.5-0.5,0.9c3.2,4.5,6.4,9.1,9.7,13.6c1.9,2.6,3.7,5.3,5.6,7.9
				c1.3,1.8,1.3,1.4-0.7,2.7c-10,6.4-22,10.5-32.9,14.9C228.7,146.5,230.5,147.3,231.8,146.8L231.8,146.8z"/>
		</g>
	</g>
</g>
<g id="Layer_22">
	<g>
		<g>
			<path class="st1" d="M245.8,139.7c6.5,10.5,7.8,25.1,1.6,36c-5.7,10-15.8,16.4-27.5,16.8c-1.1,0-3.1,1.8-1.1,1.7
				c11.5-0.4,21.9-5.5,28.9-14.7c8.9-11.8,8.6-28.7,0.9-41C248,137.7,245.1,138.7,245.8,139.7L245.8,139.7z"/>
		</g>
	</g>
</g>
<g id="johnny_with_sax">
</g>
<g id="Layer_31">
</g>
</svg>
