<?xml version="1.0" encoding="utf-8"?>
<!-- Generator: Adobe Illustrator 22.1.0, SVG Export Plug-In . SVG Version: 6.00 Build 0)  -->
<svg version="1.1" id="Layer_1" xmlns="http://www.w3.org/2000/svg" xmlns:xlink="http://www.w3.org/1999/xlink" x="0px" y="0px"
	 viewBox="0 0 117.5 320.7" style="enable-background:new 0 0 117.5 320.7;" xml:space="preserve">
<style type="text/css">
	.st0{display:none;}
	.st1{fill:none;stroke:#000000;stroke-miterlimit:10;}
	.st2{fill:#EAF1F1;}
	.st3{fill:#97B3C8;}
	.st4{fill:#202F51;}
	.st5{fill:#7CA5B6;}
	.st6{fill:#658C9F;}
	.st7{fill:#B7CCDE;}
</style>
<g id="Layer_1_1_" class="st0">
	
		<image style="display:inline;overflow:visible;enable-background:new    ;" width="275" height="183" xlink:href="7C25127EE6D6CA37.jpeg"  transform="matrix(1 0 0 1 -369.5 -153.2611)">
	</image>
	
		<image style="display:inline;overflow:visible;enable-background:new    ;" width="168" height="300" xlink:href="7C25127EE6D6CA35.png"  transform="matrix(1 0 0 1 -194.5 20.7401)">
	</image>
	
		<image style="display:inline;overflow:visible;enable-background:new    ;" width="1024" height="768" xlink:href="7C25127EE6D6CA3B.jpeg"  transform="matrix(0.5635 0 0 0.5635 1.5 -112.0099)">
	</image>
	
		<image style="display:inline;overflow:visible;enable-background:new    ;" width="1090" height="614" xlink:href="7C25127EE6D6CA3D.jpeg"  transform="matrix(-0.3744 0 0 0.3744 -298.2583 64.3151)">
	</image>
</g>
<path class="st1" d="M61.6,66.1c-0.7,2.1-2.8,5.4-4.8,8.3c-1.6,2.4-1.8,2.3-3.2,3.6"/>
<path class="st1" d="M59.7,54.7c0.5,0.4,3.7-0.2,3.3,5.7c-0.1,0.8-1,4.9-1.4,5.9"/>
<path class="st1" d="M65.7,56c0.4,3.4,1.3,10.2,2.3,16.2c1.6,9.5,3,15,5.3,23.3c3.5,13.1,4.9,15,6.5,15.3c2.7,0.4,6.4-3.1,8-7"/>
<g>
	<g>
		<g>
			<path class="st2" d="M71.9,53.2c1.8-2.3,2.7-5.8,4.5-8.1c1.2-1.9,2.3-4.9,2.8-9.1c0.2-1.2-0.1-2.1-0.1-4.5c0-0.4,0.1-2.8,0-4
				c-0.2-2.5,0.6-6-1.2-8.7c-2-3.1-3.6-3.9-5.1-4.5c-5.3-2-10-0.5-11.5,0c-1.7,0.6-4.5,1.5-6.6,4.1c-2.3,2.8-2.5,5.8-2.8,11.9
				c-0.2,4.6-0.3,7,1.1,9.4c1,1.8,1.9,2,3.3,4.6c1.3,2.5,1.2,3.5,2.4,5.3c0.7,1,1.9,2.8,4.2,3.8c2.5,1.1,4.9,0.6,5.9,0.4"/>
			<g>
				<path d="M66.1,29.4c0.2-1.1,0.8-1.8,1.6-2.3c0.8-0.5,1.8-0.5,2.6-0.6c0.9-0.1,1.9,0,2.7,0.2c0.4,0.1,0.8,0.2,1.2,0.3
					c0.4,0.1,0.8,0.2,1.2,0.4l-0.1,0.2c-0.7-0.1-1.6,0.2-2.4,0.2c-0.8,0.1-1.5,0.2-2.2,0.5c-0.8,0.3-1.3,0.8-2,1s-1.4,0.4-2.5,0.3
					L66.1,29.4z"/>
			</g>
			<g>
				<path d="M59,29.1c-1.1,0-1.7-0.1-2.4-0.3c-0.7-0.1-1.2-0.6-1.9-0.9c-0.6-0.3-1.3-0.5-2-0.6c-0.2,0-0.3,0-0.5-0.1h0.1h-0.1H52
					h-0.1c0,0-0.1,0-0.3-0.2c-0.2-0.3-0.1-0.6,0-0.6c0-0.1,0.1-0.1,0.1-0.1l0.1-0.1l0,0l0,0h0.4c0.1,0.5,0.1,0.5,0.3,0.6
					c0.1,0.1,0.3,0.2,0.2,0.5c-0.1,0.2-0.1-0.1-0.1-0.1h-0.1l-0.1,1h-0.1H52h-0.6l-0.1-0.8l0.5-0.3c0.1,0,0.2-0.1,0.2-0.1l0,0l0,0
					l0,0c0,0,0,0-0.1,0.1c0,0.3,0.1,0.4,0.2,0.5c0.2,0.1,0,0,0,0.1c-0.1,0-0.2,0.1-0.2,0.1l0,0l0,0c0,0,0.1,0,0.1-0.1
					c0,0,0.1,0,0.1-0.1c0,0,0.2-0.3,0-0.6c-0.2-0.2-0.3-0.8-0.3-0.8h-0.3c-0.1,0,0,0,0,0l0,0h0.1C51.8,26,52,26,52.2,26
					c0.9-0.2,1.8-0.1,2.7,0c0.9,0.1,1.8,0.2,2.5,0.8c0.6,0.5,1.3,1.3,1.5,2.4H59z"/>
			</g>
			<g>
				<path d="M60,38c0.2-0.3,0.7-0.4,1.1-0.3c0.1,0,0.2,0.1,0.3,0.1s0.2,0.1,0.2,0.2c0.1,0.2,0.2,0.3,0.2,0.6l0,0
					c-0.2,0-0.4-0.1-0.5-0.2c-0.1,0-0.1-0.1-0.2-0.1c0,0-0.1-0.1-0.2-0.1C60.7,38,60.3,37.9,60,38L60,38z"/>
			</g>
			<g>
				<path d="M65.2,38.1c-0.5-0.1-0.9-0.1-1.3,0.1c-0.1,0-0.2,0.1-0.3,0.1s0,0-0.1,0.1l-0.1,0.1c-0.2,0.1-0.4,0.1-0.7,0.2l0,0
					c0-0.3,0.2-0.5,0.4-0.7l0.2-0.1c0,0,0.1-0.1,0.2-0.1c0.1,0,0.3-0.1,0.4-0.1C64.3,37.6,64.9,37.7,65.2,38.1L65.2,38.1z"/>
			</g>
			<path d="M55.5,29c-0.1,0.4,0,1.1,0.2,1.5c0.3,0.4,1.1,0.5,1.6,0.2c0.6-0.3,0.9-1.1,0.6-1.7c-0.3-0.5-0.9-0.9-1.4-0.7
				C56.1,28.3,55.7,28.5,55.5,29z"/>
			<path d="M70.1,28.8c-0.1,0.4,0,1.1,0.2,1.5c0.3,0.4,1.1,0.5,1.6,0.2c0.6-0.3,0.9-1.1,0.6-1.7c-0.3-0.5-0.9-0.9-1.4-0.7
				C70.7,28.1,70.2,28.3,70.1,28.8z"/>
		</g>
		<g>
			<g>
				<path class="st3" d="M98.2,48.7c-1.8-10.2-5.5-19.8-8.5-29.6c-1-3.2-2.1-6-4-8.6C83.4,7.4,81,6,77.1,5.7c-2.1-0.2-4.2-0.3-6.4,0
					c-3.4,0.4-6.1,1-8.3,2.2c-3.2,0.5-6.8,1.1-7,3.8c-1.1,13.2,20.1,9.8,21.8,14c0.1,0.3,0.7,2.2,0.8,2.6c0.2,0.2-0.5,1.2-0.5,1.4
					c-0.3,5.3-3,18.9-3.1,19c-2.2,4.1-1.7,11-0.9,13.4c1.4,4.5,3.1,7.6,5,12c3.5,8.1,6.9,11.5,9.9,18.1c0.1,0.3,1.6,2.1,1.6,2.4
					c0.2,0.9,0.3,3.7,0.5,4.5c0,0.1,0,2.9,0,3c0.3,5.2-0.5,6.8-1,12c4.7-7.6,9.6-16.5,10.3-25.5C100.7,75.3,100.6,62,98.2,48.7z"/>
				<path class="st4" d="M101.1,93.9c0.8-5.6,0.3-11.5,0.4-17.2c-0.4,4.4-1.3,10-2,14.4c-1.6,9.5-4,14-9.8,23.7
					c-0.2,0.2-1.3,0.6-1.2-0.1c0.6-4.7,1.1-9.9,1-14.6c-0.4,1.1-0.9,1.5-1.3,2.5c0.5,0.3-1.4,1.9-1.6,2.6c-1.2,3.5,0,0.9-3.2,4.1
					c-1.9,1.9-1.8,1.4-3.9,0.8c-2.8-0.9-7.2-17.8-7.3-18.1c-1.1-3.5-3.4-13.5-3.8-15.8c0-0.2-0.1-0.4-0.1-0.6
					c-0.6,0-2.3-17.9-2.5-18.7c-1.1-4.1-1.1-1.5-3.1-0.8c-1.4,1.5,4.5,4.6-7.9,20.5c-0.1,1-0.2,2.8-0.3,3.8c0,0.1,0,0.1,0,0.3
					c-0.2,1.6-0.6,3.1-0.2,4.7c0.3,1.6,1.5,3,2.2,4.5c1.2,2.9,2.8,5.6,3.2,8.8c1.1,8.9,0.5,16.9-3.3,25c-2.6,5.4-6.8,8.6-10.7,12.7
					c-5,5.2-8.7,10.5-10.1,17.5c-0.8,4.4-0.7,8.9,1.4,12.8c2.8,5.3,7.2,7.8,12.8,9.4c6.4,1.8,13,3.3,19.6,3
					c9.1-0.4,17.9-2.8,23.5-10c6.1-7.8,2.7-14.9,0.6-23.4c-1.3-4.9-3.1-10-3.7-14.9c-0.4-3-0.5-3.9,0.9-6.6
					C95.5,114.5,99.6,104.8,101.1,93.9z"/>
				<path class="st2" d="M52.3,78.5c-0.4,1.2-0.8,2.4-1.4,3.5c0.8-0.9,1.7-2.4,2.3-3.4c0.2-0.2,0.3-0.5,0.4-0.9
					C53.3,78.2,52.8,78.5,52.3,78.5z"/>
				<path class="st2" d="M89.4,95.7c0-0.6-0.1-1.3-0.4-1.8c-1-1.6-1.9-3.5-2.8-4.9c-1.6-2.8-10.7-18.5-11.8-24
					c-0.8-2.7-1.2-5.9-1.3-8.8c-0.1-2.3,1.5-7-0.6-6.1c-1.5,0.7-7,4.3-8.1,4.3l1.5,0.9c0,0.1-0.5-0.8-0.5-0.7
					c-0.1,1.8,1,4.1,1.1,6.5c0.2,0.2,0.1,2.7,0,3.1c0,0.4,0.9,2.3,1,2.8c0,0.1,0,0.1,0,0.2c0.6,3.6,0.5,5.2,0.9,8.9
					c0.1,0.1,0.2,0.3,0.2,0.5c1.4,5.9,2.1,12.2,4.1,18c0.9,2.7,1.9,5.4,2.6,8.3c0.1,0.5,0.2,1,0.3,1.5c0.1,0.4,0.2,0.7,0.4,1.1
					c0.2,0.3,0.3,0.7,0.5,1c0.2,0.5,0.5,1,0.7,1.5c0.2,0.7,0.7,1.4,1.3,1.8c1.3,0.8,2.6,1.2,3.5-0.1c0.2-0.3,0.5-0.5,0.8-0.5
					c1.2-1.5,3-2.3,3.6-4.2c0.1-0.3,0.3-0.7,0.6-1c0.2-0.2,0.3-0.5,0.4-0.8c0.7-2,1-4.1,1.8-6.1C89.3,96.9,89.3,96.3,89.4,95.7z"/>
				<path class="st2" d="M33.8,98C40,92.7,48.6,84.2,54,77.1h-0.1c-0.9,0.1,2.2-1.2,2.5-2c0.1-0.4,0.8-1.6,1-2
					c0.6-1.6-2.1-1.5-0.4-1c0.2,0.1,1.4,0.1,1.4,0c3-5,3.5-8.1,4-12c0.2-1.3,1,0,0-4c0.3-0.2-3.5-1.6-3.2-1.7
					c0.2-0.2-0.1,0.7,0.2,0.7c-1-1-0.9,0.1-1,0c-0.4,0.1,0.6-0.5-1,0c0-0.4-1.6,0.2-1,0c1.2-0.3-4.7,1.5-4,1c0.6,0.3-2,1.1-2,1
					c-5.9,2.4-8,6-9.6,9.7C38.4,72.6,37,77.3,34,83.6c-2.2,4.5-9,11.3-7.6,17.5c0.2,0.8,11.5,22.7,12,23.1c0.2,0.6,4.5,9.3,5,9.7
					c0.3,0.3-5.2,2.5-8,8.9c-4.2,9.6,0.7,5.9,1,5.3c1-1.9,11-15,11.1-15.5c0.1-0.3-3.5-7.6-3.8-8.1C43.5,123.9,33.5,98.2,33.8,98z"
					/>
				<path d="M75.7,263.6c-0.3,0.2-0.4,0.5-0.4,0.8c-0.3,2.2-0.6,4.7-0.4,6.9c0.1,2.2,0.1,4.6-0.3,6.6c-0.6,2.7-0.7,2.9,2.1,3.6
					c0.9,0.2,3.7,1.5,4.6,0.3c2.3-3.2-0.1-7.4-0.8-10.5c-0.5-2.1-0.2-2.8-0.3-4.6c-0.1-1.2,0.1-2.2-0.1-3.3
					c-0.1-0.4-0.3-0.5-0.4-0.7s-0.1-0.1-0.1-0.1C78,262.3,76.9,262.8,75.7,263.6z"/>
				<path class="st2" d="M76.5,196.8c-2,0.1-4.1,0.2-6.1,0.3c-0.3,14.3-0.6,28.7-0.8,43c2.5,7.4,4.2,14.9,5.5,22.7
					c0.7-0.6,1.4-1.1,2.2-1.5c0.1,0,0.1,0,0.3-0.1c0.1,0,0.1,0,0.3-0.1c0.2,0,0.9,0,1.1,0c0.2,0.1,0.3,0.1,0.5,0.1
					c-0.2-10.1,0.7-20.3,0.2-30.4c-0.6-11.3-2.1-22.6-3.2-33.9C76.4,196.9,76.4,196.8,76.5,196.8z"/>
				<path class="st5" d="M41.5,185.1c17.4,4.7,32.9,5,50.4,1c0.1-4.3,0.2-8.7,0.2-13c-4.6,2.9-9.5,6.1-14.8,6.7
					c-10,1.2-19.1-0.4-28.6-2.5c-2.7-0.6-4.5-1.9-6.9-2.9c-0.2,3.6-0.5,7.2-0.6,10.7C41.4,185.1,41.5,185.1,41.5,185.1z"/>
				<path class="st2" d="M49.3,221.6c0.2-8.8,0.7-17.6,1.6-26.3c-0.4-0.1-0.6-0.1-1.1-0.2c-2.9-0.6-5.6-1.4-8.2-2.9
					c0.2,10.5,1.7,20.5,4,30.7C46.7,221.8,47.8,221.5,49.3,221.6z"/>
				<path class="st5" d="M92.6,287.2c-8-3.3-15.6-4.1-23.9-5.3c-0.1,4.8-0.2,9.4-0.3,14.2c0,0.9,0.4,2.5-0.2,3.4
					c-1.3,1.8-4.1,2.5-5.8,1.5c-3.3-1.9-2-5.2-1.9-8.1c0.1-3.9,0.2-7.4,0.2-11.2c-8.8,1-17,1.6-25.4,5.1c-5.2,2.1-11,5.8-9.4,12.3
					c1.5,5.9,7.9,8.7,13.1,10.4c8.4,2.7,16.4,4,25.1,4.1s16.7-0.9,25.3-3.3c5.5-1.6,12.6-4.5,13.4-11.1
					C103.9,292.7,97.7,289.3,92.6,287.2z M96.3,304.5c-0.5,0.6-1.1,1.1-1.8,1.5c-1.3,0.8-2.7,1.6-4.1,2.2c-2.9,1.1-5.8,1.9-8.8,2.5
					s-5.9,0.9-9,1.1s-6,0.2-9,0.1c-3-0.1-6-0.3-8.9-0.6c-1.5-0.1-3-0.3-4.5-0.5s-3-0.5-4.5-0.8c-2.9-0.8-5.8-1.7-8.6-2.9
					c-1.4-0.6-2.7-1.4-4-2.2c-0.6-0.4-1.2-0.9-1.8-1.4c-0.3-0.2-0.5-0.5-0.8-0.8s-0.4-0.6-0.6-1c0.5,0.5,1.1,0.9,1.8,1.2
					c0.7,0.3,1.3,0.6,2,0.8c1.4,0.4,2.7,0.8,4.2,1.1c2.8,0.5,5.6,1.1,8.5,1.4c5.7,0.6,11.4,0.9,17.3,1c2.9,0.1,5.7,0,8.8-0.1
					c2.3-0.1,5.8-0.3,8.2-0.5c3.1-0.2,5.8-0.5,8.7-1c1.5-0.2,2.8-0.5,4.2-0.9c1.4-0.4,2.6-1.1,3.8-2
					C97.2,303.3,96.9,303.9,96.3,304.5z"/>
				<path class="st6" d="M69.8,196.1c0.1,0,0.1,0,0.2,0s0.2,0,0.3,0c5.9-0.3,12.3-0.7,17.7-2.6c3.3-1.1,3-2.8,3.8-5.6
					c0.1-0.4-0.1-0.9,0-1.3c-17.6,4-33.2,3.8-50.7-0.6c0.2,1,0,2.2,0.4,3.1c1.6,3.1,4.4,4.3,7.6,4.9
					C56.2,195.5,62.9,195.9,69.8,196.1z"/>
				<path class="st5" d="M61.9,299.7c1.4,1.5,3.5,1.7,4.8,0c0.8-1,0.2-2.7,0.2-3.8c0.1-2.9,0.1-5.7,0.2-8.5
					c0.6-30.2,1.2-60.4,1.8-90.6c-1.7,0-3.4,0-5-0.1c-0.3,13.9-0.5,27.9-0.8,41.8c-0.3,17.8-0.7,35.6-1,53.4c0,2.1-0.2,4.2-0.1,6.4
					C61.9,298.7,61.6,299.3,61.9,299.7z"/>
				<path d="M48.9,222.7c-0.7-0.1-2.9,0.4-2.8,1.9l-0.1,0.1c-0.5,6.6-1.9,15.1,4.1,19.3c3.9,2.7,7.3-1,6.1-5
					c-0.7-2.1-3.5-3.9-4.5-6.1c-0.6-1.4-0.5-3-0.7-4.7s-0.8-3.7-1.5-5.4C49.5,222.9,49.6,222.8,48.9,222.7z"/>
				<path class="st7" d="M89.6,305.5c-2.9,0.4-5.6,0.7-8.7,1c-2.3,0.2-5.8,0.4-8.2,0.5c-3.1,0.1-5.9,0.2-8.8,0.1
					c-5.8-0.1-11.5-0.4-17.3-1c-2.9-0.3-5.7-0.8-8.5-1.4c-1.4-0.3-2.8-0.7-4.2-1.1c-0.7-0.2-1.3-0.5-2-0.8c-0.7-0.3-1.3-0.7-1.8-1.2
					c0.1,0.4,0.3,0.7,0.6,1c0.3,0.3,0.5,0.6,0.8,0.8c0.6,0.5,1.2,1,1.8,1.4c1.3,0.8,2.6,1.6,4,2.2c2.8,1.2,5.6,2.1,8.6,2.9
					c1.5,0.4,3,0.6,4.5,0.8c1.5,0.2,3,0.4,4.5,0.5c3,0.3,5.9,0.5,8.9,0.6c3,0.1,6,0.1,9-0.1s6-0.5,9-1.1s5.9-1.4,8.8-2.5
					c1.4-0.5,2.8-1.4,4.1-2.2c0.6-0.4,1.2-1,1.8-1.5s0.9-1.2,1.3-1.9c-1.2,0.8-2.4,1.6-3.8,2S91.1,305.3,89.6,305.5z"/>
			</g>
			<g>
				<g>
					<path d="M33.5,99c2.4,6.8,5.6,13.1,7.9,20c0.8,2.3,1.5,4.6,2.3,6.8c0.7,2,2.1,3.6,2.8,5.5c1.1,3.2-3.6,7.3-5.6,9.7
						c-1.4,1.7-4,7.8-6.1,8.2c-1.8,0.3-0.6-1.7,0-3.2c0.5-1.3,1-2.7,1.6-4c1.6-3.4,4.2-5.8,7.3-7.9c0.2-0.2-0.3-0.1-0.4,0
						c-2.7,1.8-5.5,4.1-7,7c-0.7,1.4-3.9,7.1-2.9,8.5c2,2.7,6.8-7.3,7.6-8.3c1.5-1.7,5.8-5.4,6.4-7.4c0.4-1.4,0.3-1.9-0.5-3.4
						c-1.2-2.3-2.2-4.1-3.1-6.6c-1.4-4.2-2.6-8.4-4.2-12.5c-1.7-4.3-3.9-8.4-5.5-12.7C34,98.8,33.4,98.9,33.5,99L33.5,99z"/>
				</g>
			</g>
			<path d="M43.4,135.1c-0.4-1-1.2-2.3-2-3.5s-1.5-2.5-2-3.5c-2-5.1-5.3-11.8-8.2-17.7c-1.4-2.8-3.8-6.1-4.8-8.3v-3
				c1,2.2,3.9,8.3,5.3,11.1c2.9,5.9,6.1,12.7,8.2,17.8c0.4,1,1.2,2.2,1.9,3.4c0.8,1.3,1.6,2.5,2,3.6L43.4,135.1z"/>
		</g>
		<path d="M87.5,90.5c-1.6-3.1-3.2-5.5-4.1-7c-0.4-0.7-0.8-1.2-0.9-1.5c-4.6-8.9-10.5-21.1-8.7-30.4c0-0.1,0.1-0.7,0.1-0.9
			c0.3-2.2-0.3-0.8-0.3-1.4c0-0.1,0-0.1-0.1-0.1c0-0.1,0-0.2,0-0.3c-0.1,0.3-0.2,0.6-0.3,0.9c-2.9,9.9,3.4,23.1,8.4,32.6
			c0.2,0.3,0.5,0.8,0.9,1.5c0.9,1.5,2.5,3.9,4.1,7c1,1.8,2.6,5.7,3,6.6l1.1-1.5C90.4,95.2,88.5,92.4,87.5,90.5z"/>
		<path d="M76.8,24.8c-0.4-0.3-0.9-0.6-1.6-0.9c-2-0.8-3.2-1.5-5.1-1.7c-1.8-0.2-4-0.4-7.2-1.7c-2.7-1.1-6.2-3-7.4-5.9
			c-0.6-1.5-0.4-2.6-0.3-3c0.5-1.6,4-2.9,5.6-3.3C61.5,8.1,61.6,8,62.1,8l-0.2-0.9c-0.1,0.1-0.8,0.2-1.6,0.3
			c-1.9,0.5-5.5,1.8-6.1,3.9c-0.1,0.5-0.4,1.8,0.4,3.7c1,2.6,3.7,4.8,7.9,6.4c3.3,1.3,5.6,1.6,7.4,1.8c1.8,0.2,3.2,0.3,4.6,1.5
			c1.6,1.3,2,3.1,2.5,4.8c0.1-0.6,0.4-0.6,0.4-1.2C77.8,26.9,77.2,25.7,76.8,24.8z"/>
		<g>
			<path d="M77.2,27.4c-1.7-1-1.5,8.3-1.7,9.5c-0.2,1.3-1.8,4.1-3.1,5.3c-0.4,0.4-0.7,1.4-1.2,1.8c-0.8-1.7-2.5-2.8-4.2-3.1
				s-2.9,0.4-4.3,0.5c-1.4,0-1.8-1-3.2-0.6s-2.1,1.7-2.3,3.2c-0.4-0.7-0.6-1.2-1-2c-1.1-2.2-2.6-3.7-2.9-6.5c-0.3-2.7,0.1-6-1-8.7
				c0.2-1.3,0.1-2.7,0.6-3.9c0.9-2.4,2.1-4,3.6-6.1c0,0,0.2,0,0-0.1c-0.1-0.1-0.5-0.4-0.6-0.5c-0.1-0.2-0.1,0-0.1,0
				c-1.5,1.6-2.8,4.2-3.6,5.9c-0.9,1.7-0.6,4.4-0.7,5.4c0,1,0,0.9,0,1.1c-0.1,3.1-0.5,6.5-0.1,9.3c0.6,3.7,1.7,5.9,2.6,9.6
				c0.7,2.5,2.4,5.9,4.9,7.3c1.6,1,2.8,1.4,3.7,3.1c-0.1-0.6-0.5-1.1-0.6-1.7c0.7,0.3,1.8,0.3,2.5,0.1c4.3-1.1,6.9-3.6,9-6.9
				c0.4-2.7,2.3-6.8,2.7-9.4c0.3-1.9,0.5-3.9,0.7-5.9C77,32,77.1,29.7,77.2,27.4z M69.5,46.8c-0.3,0.9-1.6,1.2-2.2,1.6
				c-1.1,0.8-2.6,0.8-3.2-0.2c-0.6-1-0.6-1.6-1.8-1.6s-1.3,0.7-1.5,1.7s-0.6,1.5-1.6,0.8c-0.5-0.4-1-1.1-1.1-1.8
				c-0.2-1-0.4-1.9,0.9-2.3c1.2-0.3,2.3,0.1,3.8,0c1.4-0.1,3.7-0.3,5.2-0.1C69.5,44.9,69.9,45.5,69.5,46.8z"/>
		</g>
		<path d="M27.5,103.3c0.1-0.1,0.1-0.1,0.2-0.2c0.2-0.1-0.4,0.1-0.2,0c-0.5-0.4-0.2-1-0.3-1.8C25.8,95.2,31.9,88.4,34,84
			c3-6.2,4.4-11,6.7-16.5c2.5-6.1,4.9-8.2,10.7-10.6c0,0.1,4.2-1,5.1-1.2c0.5-0.2,1-0.3,1.5-0.4c0.3-0.1,1.1-0.2,1.5-0.3
			c0,0,0,0,0-0.1c0.2,0,0.3-0.1,0.5-0.1c-0.2-0.1-0.1-0.3-0.3-0.4c-1.2,0.2-1.4,0.3-2.6,0.6c-0.2,0-1.5,0.4-1.6,0.4
			c-1.2,0.3-2.4,0.6-3.6,0.9c-0.2,0-0.3,0.1-0.4,0.1c-6.4,3.1-8.8,5-11.7,12c-3.7,9-7.8,19-13.2,27.6
			C25.1,98.4,25.1,101.3,27.5,103.3z"/>
		<path d="M94.1,286.1c-4.2-2.2-8.7-3-13-4.3c0.9-0.5,1.9-0.6,2.1-1.8c0.5-2.6-0.8-5.6-1.4-7.9c-0.6-2.3-0.6-4-0.7-6.2
			c-0.1-1.6-0.1-3-0.6-4.6c-0.2-10.5,0.7-21.1,0.1-31.7c-0.6-11.2-2.1-22.4-3.1-33.6c3.5-0.6,6.8-0.9,10.1-2.1
			c2.3-0.8,4.4-1.5,5.1-4.1c0.9-3.2,0.3-6.5,0.4-9.9c0.1-2.6,0.1-6,0.2-8.7c2.1-3.1,4.5-5.9,4.9-9.7c0.5-4.9-1.2-9-2.6-13.5
			c-1.2-3.8-2.5-7.4-3.5-11.2c-0.7-2.9-2-6.3-1.6-9.3c0.3-3.1,2.8-5.3,4-7.7c2.1-4.3,4.1-8.3,5.3-12.7c1.6-5.9,2.5-11.6,2.7-17.7
			c0.2-9-1.5-27.3-1.6-27.4c-0.6-4.4-0.9-8.9-2-13.1C96.3,38.5,93.1,28,89.8,18c-1.2-3.5-2.8-7.3-5.4-9.3c-4.3-3.5-8.6-3-13.5-3.2
			C66.3,5.4,62.7,6.7,60,8.9c0.6-0.3,1.2-0.4,1.8-0.2c2.2-1.1,4.9-2,8.2-2.4c2.3-0.3,4.4-0.1,6.4,0c3.9,0.3,6.3,1.7,8.6,4.8
			c1.9,2.6,3.1,5.5,4,8.6c3,9.7,6.7,19.3,8.5,29.4c2.3,13.1,2.5,26.4,1.4,39.7c-0.7,9-4,16.4-8.7,24c0.6-5.2,0.7-10.2,0.4-15.4
			c0-0.2,0-0.3,0-0.4c-0.2-0.9,0-0.3-0.5-1.2c-0.4-0.7-0.6-0.9-0.5,0c-0.1,0.8-0.1,0.7-0.4,1.4c-0.9,2.2-1.7,5.8-2.6,8
			c0.5-0.3,0.9-1.5,1.4-1.2c0.4-1,1.1-2.2,1.5-3.3c0.1,4.7-0.4,9.3-1,14c-0.1,0.6,0.9,0.7,1.1,0.5c6-7.7,9.2-15.6,10.7-25.2
			c0.7-4.4,0.7-8.8,1.1-13.1c-0.1,5.7,0.4,11.5-0.4,17.1c-1.5,10.9-5.5,20.5-10.4,30.1c-1.4,2.7-1.3,3.6-0.9,6.6
			c0.6,4.9,2.5,9.9,3.7,14.8c2.1,8.5,5.5,15.5-0.6,23.3c-5.6,7.2-14.4,9.5-23.4,9.9c-6.6,0.3-13.2-1.2-19.5-3
			c-5.6-1.6-9.9-4.1-12.7-9.3c-2.1-3.9-2.3-8.4-1.4-12.7c1.4-7.1,5.1-12.3,10-17.4c4-4.1,8.2-7.3,10.6-12.6c3.8-8,4.4-16,3.3-24.9
			c-0.4-3.1-2-5.9-3.2-8.8c-0.6-1.5-1.8-2.9-2.2-4.5s0.1-3.1,0.2-4.7c0-0.1,0-0.2,0-0.3c0.1-0.8,0.3-1.9,0.5-3.1
			c-0.4,0.1-0.9,0.2-1.3,0.3c-0.3,0,0.1-0.4-0.2-0.6c-0.3,0.5-1.5,2.6-2,3c-6,6-11.3,12.6-17.8,18.2c-0.3,0.2-1.1,0.7-0.4,0.9
			c5.1-3.7,14-13.9,17.5-17.1c1.5-1.4,2.4-2.7,3-3.6c-0.1,0.6-0.2,1.1-0.4,1.7c0,0.1-0.1,0.5-0.1,0.6c-0.4,1.5-1.1,3-0.8,4.7
			c0.5,3.3,3.5,5.9,4.2,9c3.4,15.4,0.2,27-9.5,38.8c-5.9,7.1-11,11.6-12.7,20.5c-1.6,8.1,1.7,13.1,6.3,19.3c0,0.1-0.2,0.2-0.2,0.4
			c-0.1,3.1-0.1,6.3-0.2,9.3c-0.1,2.6-0.4,4.9,0,7.4c-0.1,11.6,1.6,22.8,4.2,34.1c0.1,4.8-0.2,9.9,0.8,14.5c0.9,4,2,5.9,6.4,6.1
			c3.2,0.1,7.5-1.5,6.5-5.7c-0.8-3.2-4.6-5.3-5.5-8.7c-0.8-2.9-0.9-6-1.9-8.9c0.1-8.9,0.7-17.6,1.5-26.4c3.4,0.5,6.8,0.9,10.1,1.1
			c-0.7,27.8-0.9,55.8-1.8,83.6c-11.9,1.2-26.3,1.7-33.7,12c-6.5,9,3.5,14.9,11,17c16.4,4.7,30.2,5.2,47.3,2.3
			c7.8-1.3,18.6-5.2,18.9-15.2C104,291,98.2,288.2,94.1,286.1z M80.1,266.7c0.1,1.7-0.2,2.5,0.3,4.6c0.7,3,3.2,7.3,0.8,10.5
			c-0.9,1.2-3.7-0.1-4.6-0.3c-2.8-0.7-2.7-0.9-2.1-3.6c0.4-2,0.5-4.4,0.3-6.6c-0.1-2.2,0.1-4.6,0.4-6.9c0-0.3,0.1-0.6,0.4-0.8
			c1.2-0.8,2.3-1.3,3.8-1.1c0,0,0-0.1,0.1,0.1s0.3,0.4,0.4,0.7C80.3,264.5,80.1,265.5,80.1,266.7z M79.6,230.5
			c0.6,10.1-0.3,20.3-0.2,30.4c-0.2,0-0.3-0.1-0.5-0.1c-0.2-0.1-0.9,0-1.1,0s-0.2,0-0.3,0.1c-0.1,0-0.2,0-0.3,0.1
			c-0.9,0.4-1.6,0.8-2.2,1.5c-1.3-7.7-3.1-15.2-5.5-22.7c0.3-14.3,0.6-28.7,0.8-43c2-0.1,4.1-0.1,6.1-0.3c0,0-0.1,0.1-0.1,0.2
			C77.4,208,78.9,219.2,79.6,230.5z M73.6,274.2c0,1.2,0,2.4-0.3,3.6c-0.3,0.8-1,1.6-1.1,2.5c-0.1,0.4,0,0.6,0,0.9
			c-1.1-0.1-2.3-0.2-3.4-0.3c0.2-12.3,0.5-24.7,0.7-37c1.9,6.7,3.3,13.5,4.4,20.4c0,0.1,0.1,0.1,0.1,0.1c0,0.1-0.1,0.2-0.1,0.2
			C73.5,267.8,73.5,271,73.6,274.2z M41.9,174.4c2.4,1.1,4.2,2.4,6.9,2.9c9.6,2,18.7,3.7,28.6,2.5c5.4-0.7,10.3-3.8,14.8-6.7
			c0,4.3-0.1,8.7-0.2,13c-17.5,4-33.1,3.7-50.4-1c-0.1,0-0.2,0-0.3,0C41.4,181.6,41.7,178,41.9,174.4z M51,228.3
			c0.2,1.7,0,3.2,0.7,4.7c1,2.2,3.8,4,4.5,6.1c1.3,4-2.2,7.7-6.1,5c-6-4.2-4.6-12.6-4.1-19.3c0-0.1,0-0.1,0.1-0.2
			c0.8-1.6,1.7-2.2,3.5-1.7l0,0C50.2,224.6,50.8,226.6,51,228.3z M49.3,221.6c-1.5-0.1-2.6,0.2-3.7,1.2c-2.3-10.2-3.9-20.2-4-30.7
			c2.6,1.5,5.4,2.3,8.2,2.9c0.4,0.1,0.7,0.1,1.1,0.2C50,204.1,49.5,212.8,49.3,221.6z M49.3,194.1c-3.2-0.7-6.1-1.8-7.6-4.9
			c-0.5-0.9-0.2-2.1-0.4-3.1c17.5,4.4,33.1,4.6,50.7,0.6c-0.1,0.3,0.1,0.9,0,1.2c-0.8,2.8-0.6,4.5-3.8,5.6
			c-5.5,1.9-11.8,2.3-17.7,2.6c-0.1,0-0.3,0-0.3,0c-0.1,0-0.2,0-0.2,0C62.9,195.9,56.2,195.5,49.3,194.1z M62,292
			c0.6-31.4,1.2-63.3,1.9-94.9c1.7,0,3.4,0,5,0c-0.7,33-1.3,66-1.9,98.9c0,1.4,0.6,2.8-0.2,3.9c-1.3,1.8-3.4,1.5-4.8,0
			c-0.3-0.4,0-0.9,0-1.4C61.8,296.2,62,294.8,62,292z M89.6,310.3c-8.6,2.4-16.6,3.5-25.3,3.3c-8.7-0.1-16.7-1.4-25.1-4.1
			c-5.3-1.7-11.7-4.5-13.1-10.4c-1.6-6.6,4.2-10.2,9.4-12.3c8.4-3.4,16.6-4.1,25.4-5c-0.1,3.5-0.2,7.4-0.2,10.8s-1.4,6.2,1.9,8.4
			c1.7,1.2,4.6,0.3,5.8-1.6c0.6-0.9,0.2-2.3,0.2-3.5c0.1-4.6,0.2-9.4,0.2-14c8.3,1.2,16,2,23.9,5.3c5,2.1,11.2,5.4,10.4,12
			S95.1,308.7,89.6,310.3z"/>
	</g>
	<path class="st1" d="M61.6,65.9c-0.7,2.1-2.8,5.4-4.8,8.3c-1.6,2.4-1.8,2.3-3.2,3.6"/>
	<path class="st1" d="M59.7,54.5c0.5,0.4,3.7-0.2,3.3,5.7c-0.1,0.8-1,4.9-1.4,5.9"/>
	<path class="st1" d="M65.7,55.8C66.1,59.2,67,66,68,72c1.6,9.5,3,15,5.3,23.3c3.5,13.1,4.9,15,6.5,15.3c2.7,0.4,6.5-4.1,8.1-8"/>
</g>
</svg>
