<?xml version="1.0" encoding="utf-8"?>
<!-- Generator: Adobe Illustrator 22.1.0, SVG Export Plug-In . SVG Version: 6.00 Build 0)  -->
<svg version="1.1" xmlns="http://www.w3.org/2000/svg" xmlns:xlink="http://www.w3.org/1999/xlink" x="0px" y="0px"
	 viewBox="0 0 117.5 320.7" style="enable-background:new 0 0 117.5 320.7;" xml:space="preserve">
<style type="text/css">
	.st0{display:none;}
	.st1{fill:#EBF2F1;}
	.st2{fill:#98B4C9;}
	.st3{fill:#212F51;}
	.st4{fill:#7DA6B7;}
	.st5{fill:#668DA0;}
	.st6{fill:#B8CDDF;}
</style>
<g id="Layer_1" class="st0">
	
		<image style="display:inline;overflow:visible;" width="275" height="183" xlink:href="images.jpg"  transform="matrix(1 0 0 1 -232.5 -153.2611)">
	</image>
	
		<image style="display:inline;overflow:visible;" width="168" height="300" xlink:href="images.png"  transform="matrix(1 0 0 1 -57.5 20.7401)">
	</image>
	
		<image style="display:inline;overflow:visible;" width="1024" height="768" xlink:href="johnny_bravo_and_mary_kiss_again_by_crawfordjenny-d8pfoad.jpg"  transform="matrix(0.5635 0 0 0.5635 138.5 -112.0099)">
	</image>
	
		<image style="display:inline;overflow:visible;" width="1090" height="614" xlink:href="johnny-bravo-cartoon.jpg"  transform="matrix(-0.3744 0 0 0.3744 -161.2583 64.3151)">
	</image>
</g>
<g id="Layer_2">
	<g>
		<path class="st1" d="M68.6,116c1.1,4,3.8,6,7.8,4.1c7.6-3.8,11-15.4,13.5-22.7c-1-8-3.6-15.8-7.8-22.3C77,67.4,70.6,61,64.9,53.8
			c-2.5,1-5,1.9-7.5,2.9c2.2,9.2,4.4,18.3,6.2,27.6C65.7,94.7,65.8,105.8,68.6,116z"/>
		<path class="st2" d="M65.8,53.2c0.8,1.1,1.7,2.2,2.6,3.2C75.7,65.3,84,73.1,88,84.2c1.5,4.2,2.6,8.6,3.2,13
			c0.1,0.1,0.1,0.2,0.1,0.4c0.6,5.1,0.6,10.3-0.3,15.4c6-6.6,7.8-15,8.6-23.9c1.2-13.2,1.5-26.3-1-39.4c-1.9-10.1-5.1-19.8-8.2-29.6
			c-1-3.2-1.9-5.9-3.9-8.7C84.2,8,82.2,6.4,78,6.4c-2.2,0-4.2,0.2-6.4-0.2C56.2,1.3,54.1,26.4,56.4,35.6c1.5,6.2,5.3,12.3,9.3,17.5
			C65.7,53.1,65.8,53.1,65.8,53.2z"/>
		<path class="st3" d="M71,179.6c9.2-0.1,18.3-3,24.1-10.4c6.3-8.1,2.5-15.3-0.6-23.7c-1.8-4.9-3.1-9.9-4-15
			c-0.5-3.1-0.9-3.7,0.8-6.2c6-8.9,9.6-19.4,10.4-30.2c0.4-5.5,0.4-11.2,0.1-16.9c-0.2,4.3-0.5,8.6-0.9,12.9
			c-0.9,9.5-3.2,18-10.4,24.7c-0.2,0.2-1.4,0.6-1.3,0c0.9-4.5,1.2-9.2,0.9-14C87.3,109,82,122.6,72.7,122c-2.2-0.2-3.9-1.2-4.8-3.2
			c-1.5-3.2-1.7-7.2-2.1-10.6c-0.7-5.3-1.3-10.6-2.2-15.9c-1.5-8.8-3.4-17.6-5.5-26.3c-0.4-1.9-0.9-3.8-1.4-5.7
			c-0.1-0.3-0.7-2.9-0.3-3.1c-0.6,0-2.5,0.7-2.9,0.9c0,0,0.1,0.2,0.1,0.8c-0.1,5,0.6,10.2,0.9,15.2c0.1,0.8,0.1,1.7,0.1,2.6
			c0,0.1,0,0.2,0,0.3c0,1.9,0,3.9,0.1,5.8c0.4,0,0.3,0.1,0,0.3c0.1,1.5,0.3,3,0.6,4.4c0.4,1.4,1.5,2.8,2.1,4.1
			c1.3,2.7,2.2,5.5,2.9,8.3c1.8,8.2,0.6,16.9-3.2,24.3c-2.6,5-6.3,9.1-10.7,12.6c-5.5,4.4-9.1,10.8-10,17.8c-0.6,4.4-0.4,8.9,1.6,13
			c2.7,5.5,7.6,7.7,13.2,9.1C57.6,178.4,64.3,179.6,71,179.6z"/>
		<path class="st1" d="M53.2,77.5C40.9,80,28,81.5,15.9,85c-0.9,0.3-1.1-0.7-0.3-1c12.1-3.5,25.1-5,37.4-7.5
			c-0.4-6.2-1-12.3-1.1-18.5c-6.2,0-12.3,3.5-17.7,6.3c-4.9,2.5-9.8,5.1-14.5,8.1c-3.4,2.2-12,7.5-9.9,12.6c1.4,3.2,5.2,1.7,8.1,1.5
			c11.8-1,23.6-2.3,35.4-3.5c0-1.2,0-2.3-0.1-3.4C53.3,78.9,53.3,78.2,53.2,77.5z"/>
		<path d="M78.8,263.9c-0.2,0.3-0.3,0.5-0.4,0.8c-0.3,2.3-0.5,4.6-0.3,6.9c0.2,2.4,0.6,4.4-0.2,6.7c-1.1,3.2-1.2,3.1,1.9,3.4
			c1,0.1,4.3,1,5.2,0.5c2.3-1.3-1.1-9.1-1.5-11.1c-0.2-1.4-0.2-2.8-0.2-4.2c0-1,0.3-2.5-0.1-3.4c-0.1-0.3-0.3-0.6-0.5-0.7
			c0,0,0,0-0.1,0C82.2,262.3,79.7,263.2,78.8,263.9z"/>
		<path class="st1" d="M78.3,196.7c-2.1,0.2-4.1,0.3-6.1,0.4c0,14.4,0,28.7,0,43.1c3.2,7.4,4.6,14.8,6,22.6c0.6-0.7,1.3-1.2,2.2-1.5
			c0.1,0,0.2-0.1,0.2-0.1c0.1,0,0.1,0,0.2,0c0.4-0.1,0.8-0.1,1.2,0c0.1,0,0.3,0.1,0.4,0.1c-0.6-10.1,0.7-20.3-0.3-30.4
			c-1.1-11.3-2.6-22.6-4-33.9C78.2,196.8,78.2,196.7,78.3,196.7z"/>
		<path class="st4" d="M43.1,185.6c16.6,6.4,33.9,6.5,50.5,0.2c0-4.4,0-8.7,0-13.1c-4.2,3.8-9.8,6.3-14.9,7.3
			c-9.5,1.8-19.5,0.1-28.7-2.3c-2.6-0.7-4.8-1.6-6.8-2.9c-0.1,3.4-0.5,7.2-0.4,10.8C42.9,185.6,43,185.6,43.1,185.6z"/>
		<path class="st1" d="M51.6,222.2c-0.3-8.8,0.3-17.6,1-26.4c-0.3-0.1-0.7-0.1-1-0.2c-2.2-0.4-6.2-1.1-8.3-2.8
			c-0.6,10.6,1.9,20.5,4.6,30.7C48.8,222.4,50.1,221.8,51.6,222.2z"/>
		<path class="st4" d="M96.1,287c-7.6-3.1-15.8-4.2-23.9-4.6c0,4.7,0,9.4,0,14.1c0,0.9,0.4,2.8,0,3.6c-0.8,1.8-4.6,2.2-6.2,1.7
			c-3.1-0.9-1.7-5.7-1.7-8.4c0-3.7,0-7.4,0-11c-8.6,0.4-17.3,1.6-25.2,5.1c-4.8,2.2-11.9,6.5-10,12.9c1.8,5.7,9.2,8.7,14.2,10.4
			c8,2.7,16.6,3.6,25.1,3.7c8.4,0,17-0.9,25.1-3.6c5.2-1.7,13.6-5.2,14.2-11.6C108.3,292.8,100.9,288.9,96.1,287z M100.3,304.5
			c-0.5,0.6-1.1,1.1-1.8,1.6c-1.3,0.9-2.6,1.7-4.1,2.3c-2.8,1.2-5.8,2-8.7,2.6c-3,0.6-5.9,1-8.9,1.2c-3,0.2-6,0.3-9,0.2
			c-3-0.1-6-0.2-9-0.4c-1.5-0.1-3-0.3-4.5-0.5c-1.5-0.2-3-0.4-4.5-0.8c-2.9-0.7-5.9-1.5-8.7-2.8c-1.4-0.6-2.8-1.3-4-2.2
			c-0.6-0.4-1.3-0.9-1.8-1.4c-0.3-0.3-0.6-0.5-0.8-0.8c-0.2-0.3-0.5-0.6-0.6-1c0.5,0.6,1.2,0.8,1.8,1.1c0.7,0.3,1.3,0.5,2,0.8
			c1.4,0.4,2.8,0.8,4.2,1.1c2.8,0.6,5.7,1,8.5,1.2c5.7,0.6,11.5,0.7,17.3,0.7c2.9,0,5.8-0.1,8.7-0.2l8.6-0.6
			c2.9-0.3,5.7-0.6,8.5-1.1c1.4-0.3,2.8-0.5,4.1-1c1.3-0.4,2.6-1,3.7-2.1C101.2,303.3,100.8,303.9,100.3,304.5z"/>
		<path class="st5" d="M71.6,196.2c0.1,0,0.2,0,0.2,0c0.1,0,0.2,0,0.3,0c5.9-0.2,12.5-0.5,18-2.8c3.3-1.4,3.4-2.6,3.4-5.7
			c0-0.4,0-0.9,0-1.3c-16.7,6.2-34,6.4-50.8,0.2c0.1,1.1,0.2,2.1,0.4,3.1c0.7,3.4,4.8,4.2,7.9,4.9C57.8,196,64.8,196.4,71.6,196.2z"
			/>
		<path class="st4" d="M65.7,300.2c0.7,1.5,4.4,1.6,5,0c0.4-1,0-3,0-4c0-2.8,0-5.6,0-8.4c0-30.2,0-60.5,0-90.7c-1.7,0-3.4,0-5,0
			c0,14,0,27.9,0,41.9c0,17.8,0,35.6,0,53.4c0,2.1-0.2,4.3,0,6.4C65.7,299.2,65.5,299.9,65.7,300.2z"/>
		<path d="M51.8,223.5c-1.9-1.1-2.9,0.3-3.4,1.8c0,0,0,0.1-0.1,0.1c-0.1,4.8-1,18.9,4.4,20.1c3.5,0.8,8.6-1.5,6.3-5.9
			c-1.2-2.3-3.8-3.7-5-6c-0.8-1.5-0.5-2.9-0.6-4.6C53.2,227.1,52.6,225.3,51.8,223.5C51.8,223.5,51.8,223.5,51.8,223.5z"/>
		<path d="M98.2,286.6c-4.2-1.9-8.6-3.1-13.2-3.9c0.9-0.3,1.9-0.8,2.2-1.7c0.7-2-1.3-6.3-1.7-8.2c-0.5-2-0.7-3.9-0.7-6
			c0-1.5,0-3.4-0.7-4.6c-0.8-10.6,0.6-21.3-0.4-31.9c-1.1-11.3-2.6-22.5-4-33.8c3.5-0.4,6.9-1,10.2-2.2c2.2-0.8,4.7-1.7,5.2-4.2
			c0.7-2.9,0-7,0-10c0-3,0-6,0-9c2.6-2.7,4.4-6,5-9.8c0.7-4.8-1.4-9.2-3.1-13.6c-1.4-3.6-2.7-7.3-3.7-11.1c-0.7-2.8-2.2-6.7-1.9-9.6
			c0.3-2.6,3-5.4,4.3-7.7c2.2-4,3.9-8.2,5.2-12.6c1.6-5.7,2.5-11.6,2.4-17.5c-0.1-8.8-0.1-17.9-1.3-26.7c0-0.2-0.2-0.3-0.4-0.4
			c-0.3-4.4-0.8-8.7-1.7-13.1c-2-10.6-5.6-20.7-8.7-31.1c-1.1-3.6-2.7-7-5.4-9.7c-4.3-4.5-7.9-2-13.6-3.1c-9.6-3.1-15.6,6-17.4,14.2
			c-1.9,8.7-0.9,16.9,3.4,24.6c1.8,3.2,3.8,6.1,6,9c-2.5,1-5,1.9-7.6,2.9c-0.1,0-0.2,0-0.3,0c-1.3,0.4-2.6,0.8-3.8,1.2
			c-0.1,0-0.3,0.1-0.5,0.3c-6.8,0.3-13,3.8-19,6.8c-7.6,3.8-17.7,8.1-23,15.1c-1.6,2.1-3.4,6.4,0.1,7.9C12.2,88,15,87.2,17,87
			c5.2-0.4,10.4-1,15.6-1.5c6.9-0.7,13.9-1.4,20.8-2.1c0,1.6,0.1,3.2,0.5,4.6c0.8,2.7,2.8,5.3,3.8,8.1c4.7,13.6,0.6,28.7-10.1,38.3
			c-6.4,5.7-11.5,11.3-12.7,20.4c-1.1,8.3,1.4,15.1,7.1,19.3c-0.2,0.1-0.3,0.2-0.3,0.4c0,3.2,0,6.3,0,9.5c0,2-0.6,5.3,0.2,7.3
			c-1.2,11.8,1.9,22.9,4.9,34.2c0,4.9-0.1,10,0.9,14.8c0.9,4.2,2.3,6.5,6.4,6c3-0.3,8.6-1.6,7-6c-1.2-3.3-5.5-5-6.2-8.6
			c-0.6-3.2-0.5-5.8-2-8.9c-0.4-8.9,0.2-17.7,1-26.6c3.4,0.5,6.8,0.8,10.2,1c0,28.1,0,56.2,0,84.3c-11.1,0.5-28.6,2.2-35.4,12.3
			c-5.9,8.9,6.1,15.3,13,17.7c14.7,5.1,32,5.3,47.1,1.6c6.8-1.7,21.8-6.3,20.2-16C108.2,291.8,102.5,288.5,98.2,286.6z M18,86.4
			c-2.9,0.3-6.7,1.8-8.1-1.5c-2.2-5.1,6.5-10.4,9.9-12.6c4.6-3,9.6-5.6,14.5-8.1c5.4-2.7,11.6-6.3,17.7-6.3
			c0.1,6.2,0.6,12.4,1.1,18.5c-12.4,2.5-25.4,4-37.4,7.5c-0.9,0.3-0.6,1.2,0.3,1c12-3.5,24.9-5,37.3-7.5c0,0.7,0.1,1.4,0.1,2.1
			c0.1,1,0,2.2,0.1,3.4C41.6,84.1,29.8,85.4,18,86.4z M82.7,262.8c0.2,0.2,0.4,0.4,0.5,0.7c0.4,0.9,0.1,2.4,0.1,3.4
			c0,1.4,0,2.8,0.2,4.2c0.3,2,3.7,9.8,1.5,11.1c-0.9,0.5-4.2-0.4-5.2-0.5c-3.1-0.3-3-0.2-1.9-3.4c0.8-2.3,0.4-4.3,0.2-6.7
			c-0.2-2.3,0-4.6,0.3-6.9c0.1-0.3,0.2-0.5,0.4-0.8C79.7,263.2,82.2,262.3,82.7,262.8C82.6,262.8,82.7,262.8,82.7,262.8z
			 M82.2,230.7c1,10.1-0.3,20.3,0.3,30.4c-0.1,0-0.3-0.1-0.4-0.1c-0.4-0.1-0.8-0.1-1.2,0c-0.1,0-0.1,0-0.2,0c-0.1,0-0.2,0-0.2,0.1
			c-0.9,0.3-1.6,0.8-2.2,1.5c-1.4-7.8-2.8-15.2-6-22.6c0-14.4,0-28.7,0-43.1c2-0.1,4.1-0.2,6.1-0.4c0,0.1-0.1,0.1-0.1,0.2
			C79.6,208.1,81.1,219.4,82.2,230.7z M76.9,274.5c0.1,1.3,0.2,2.3-0.2,3.6c-0.3,0.8-1.1,1.7-1.1,2.6c0,0.4,0,0.7,0,0.9
			c-1.1-0.1-2.3-0.1-3.4-0.2c0-12.4,0-24.7,0-37.1c2.4,6.6,3.6,13.3,4.8,20.3c0,0.1,0,0.1,0.1,0.1c0,0.1-0.1,0.2-0.1,0.2
			C76.5,268.2,76.7,271.2,76.9,274.5z M56.4,35.6c-2.2-9.1-0.2-34.2,15.2-29.4c2.2,0.4,4.2,0.2,6.4,0.2c4.2,0,6.2,1.6,8.5,4.9
			c2,2.8,2.9,5.5,3.9,8.7c3.1,9.8,6.3,19.5,8.2,29.6c2.5,13.1,2.2,26.2,1,39.4c-0.8,8.9-2.6,17.3-8.6,23.9
			c0.9-5.1,0.9-10.3,0.3-15.4c0.1-0.2,0-0.3-0.1-0.4c-0.6-4.4-1.7-8.8-3.2-13c-4-11.1-12.3-18.9-19.7-27.8c-0.8-1-1.7-2.1-2.6-3.2
			c0,0-0.1-0.1-0.1-0.1C61.7,47.8,57.9,41.8,56.4,35.6z M64.9,53.8C70.6,61,77,67.4,82,75.1c4.2,6.5,6.8,14.3,7.8,22.3
			c-2.5,7.2-5.9,18.9-13.5,22.7c-3.9,1.9-6.7-0.1-7.8-4.1c-2.8-10.2-2.8-21.3-4.9-31.6c-1.8-9.3-4-18.4-6.2-27.6
			C59.9,55.8,62.4,54.8,64.9,53.8z M38,167.6c-2-4-2.2-8.6-1.6-13c0.9-7,4.5-13.4,10-17.8c4.4-3.5,8.1-7.6,10.7-12.6
			c3.9-7.4,5-16.1,3.2-24.3c-0.6-2.9-1.6-5.7-2.9-8.3c-0.7-1.4-1.8-2.8-2.1-4.1c-0.3-1.4-0.5-2.8-0.6-4.4c0.3-0.1,0.4-0.3,0-0.3
			c-0.1-1.9-0.1-3.9-0.1-5.8c0-0.1,0-0.2,0-0.3c0-0.9,0-1.8-0.1-2.6c-0.3-5-1-10.2-0.9-15.2c0-0.6,0-0.8-0.1-0.8
			c0.4-0.2,2.4-0.9,2.9-0.9c-0.4,0.2,0.3,2.8,0.3,3.1c0.5,1.9,0.9,3.8,1.4,5.7c2.1,8.7,4,17.4,5.5,26.3c0.9,5.3,1.5,10.6,2.2,15.9
			c0.4,3.4,0.6,7.4,2.1,10.6c1,2.1,2.6,3.1,4.8,3.2c9.2,0.6,14.6-12.9,17.4-21.2c0.3,4.8,0,9.5-0.9,14c-0.1,0.6,1.1,0.2,1.3,0
			c7.1-6.6,9.5-15.2,10.4-24.7c0.4-4.3,0.8-8.6,0.9-12.9c0.3,5.7,0.3,11.4-0.1,16.9c-0.8,10.8-4.4,21.2-10.4,30.2
			c-1.7,2.5-1.4,3.1-0.8,6.2c0.9,5.1,2.3,10.1,4,15c3,8.3,6.9,15.6,0.6,23.7c-5.8,7.4-15,10.3-24.1,10.4c-6.6,0.1-13.3-1.2-19.7-2.8
			C45.6,175.3,40.7,173.1,38,167.6z M43.2,174.8c1.9,1.2,4.2,2.2,6.8,2.9c9.3,2.4,19.2,4.1,28.7,2.3c5.1-1,10.7-3.5,14.9-7.3
			c0,4.4,0,8.7,0,13.1c-16.6,6.3-33.9,6.2-50.5-0.2c-0.1,0-0.2,0-0.3,0C42.7,182,43.2,178.2,43.2,174.8z M43.3,192.9
			c2.2,1.7,6.1,2.4,8.3,2.8c0.3,0.1,0.7,0.1,1,0.2c-0.7,8.8-1.4,17.6-1,26.4c-1.5-0.4-2.8,0.1-3.7,1.3
			C45.2,213.4,42.6,203.4,43.3,192.9z M53.4,229c0.2,1.7-0.1,3.1,0.6,4.6c1.2,2.3,3.8,3.8,5,6c2.2,4.3-2.8,6.7-6.3,5.9
			c-5.4-1.2-4.5-15.4-4.4-20.1c0,0,0-0.1,0.1-0.1c0.5-1.5,1.5-2.9,3.4-1.8c0,0,0,0,0,0C52.6,225.3,53.2,227.1,53.4,229z M51.2,194.5
			c-3.1-0.7-7.2-1.5-7.9-4.9c-0.2-1-0.3-2.1-0.4-3.1c16.7,6.2,34.1,6.1,50.8-0.2c0,0.4,0,0.9,0,1.3c0,3-0.1,4.3-3.4,5.7
			c-5.5,2.3-12.1,2.6-18,2.8c-0.1,0-0.2,0-0.3,0c-0.1,0-0.1,0-0.2,0C64.8,196.4,57.8,196,51.2,194.5z M65.7,292.4
			c0-17.8,0-35.6,0-53.4c0-14,0-27.9,0-41.9c1.7,0,3.4,0,5,0c0,30.2,0,60.5,0,90.7c0,2.8,0,5.6,0,8.4c0,1,0.4,3.1,0,4
			c-0.7,1.5-4.4,1.5-5,0c-0.2-0.4,0-1.1,0-1.5C65.5,296.7,65.7,294.5,65.7,292.4z M107.7,299.1c-0.7,6.4-9.1,9.9-14.2,11.6
			c-8,2.7-16.6,3.6-25.1,3.6c-8.4,0-17.1-1-25.1-3.7c-5-1.7-12.5-4.7-14.2-10.4c-2-6.4,5.2-10.7,10-12.9c7.9-3.5,16.7-4.7,25.2-5.1
			c0,3.7,0,7.4,0,11c0,2.7-1.4,7.4,1.7,8.4c1.6,0.5,5.4,0.1,6.2-1.7c0.4-0.8,0-2.7,0-3.6c0-4.7,0-9.4,0-14.1
			c8.1,0.4,16.3,1.6,23.9,4.6C100.9,288.9,108.3,292.8,107.7,299.1z"/>
		<path class="st6" d="M93.6,305.6c-2.8,0.5-5.7,0.8-8.5,1.1l-8.6,0.6c-2.9,0.2-5.8,0.2-8.7,0.2c-5.8,0-11.6-0.1-17.3-0.7
			c-2.9-0.3-5.7-0.7-8.5-1.2c-1.4-0.3-2.8-0.6-4.2-1.1c-0.7-0.2-1.4-0.5-2-0.8c-0.6-0.3-1.3-0.6-1.8-1.1c0.1,0.4,0.4,0.7,0.6,1
			c0.3,0.3,0.5,0.6,0.8,0.8c0.6,0.5,1.2,1,1.8,1.4c1.3,0.8,2.6,1.5,4,2.2c2.8,1.2,5.7,2.1,8.7,2.8c1.5,0.4,3,0.6,4.5,0.8
			c1.5,0.2,3,0.4,4.5,0.5c3,0.3,6,0.4,9,0.4c3,0,6,0,9-0.2c3-0.2,6-0.6,8.9-1.2c3-0.6,5.9-1.4,8.7-2.6c1.4-0.6,2.8-1.3,4.1-2.3
			c0.6-0.4,1.2-1,1.8-1.6c0.5-0.6,0.9-1.3,1.2-2c-1.1,1.1-2.4,1.6-3.7,2.1C96.4,305.1,95,305.4,93.6,305.6z"/>
	</g>
</g>
</svg>
