<?xml version="1.0" encoding="utf-8"?>
<!-- Generator: Adobe Illustrator 22.1.0, SVG Export Plug-In . SVG Version: 6.00 Build 0)  -->
<svg version="1.1" id="Layer_1" xmlns="http://www.w3.org/2000/svg" xmlns:xlink="http://www.w3.org/1999/xlink" x="0px" y="0px"
	 viewBox="0 0 100 96.1" style="enable-background:new 0 0 100 96.1;" xml:space="preserve">
<style type="text/css">
	.st0{fill:#FFFFFF;}
</style>
<path class="st0" d="M21.8,0l9.7,2.1c0,0-1.6,2.1,0.9,3.5S39,4.1,39,4.1L48.2,6l-1,5.9l-8.6,0.3l-6.5,16.2c0,0-5.5-6.2-11.3-8.6
	c-4.4-1.8-10.3-3.1-10.3-3.1L24.2,8l-7.8-3.5L21.8,0z"/>
<polygon class="st0" points="3,34.8 33.7,34.4 41,29.9 43.2,34.4 39.5,38.3 45.3,38.2 51.1,41.8 12.4,61.4 5.3,56.2 28.6,43.8 
	0,42.2 "/>
<path class="st0" d="M46.9,93.8c-0.7,1.4-2,2.4-3.7,2.4c-2.2,0-4.1-1.9-4.1-4.2c0-0.6,0.2-1.4,0.6-1.9l15.5-26.5l5.9,5.8L46.9,93.8z
	"/>
<path class="st0" d="M75.1,33.4c-3.6,0-6.4-3-6.4-6.6s2.8-6.4,6.4-6.4s6.6,2.8,6.6,6.4C81.6,30.5,78.6,33.4,75.1,33.4z"/>
<path class="st0" d="M96.5,35h-25L51,17.4c-1.5-1.3-3.7-1.1-5,0.4s-1.1,3.7,0.4,5L64.1,38l-2.3,3.8l-6.4,11.5
	c-3,5.2,1.4,9.6,1.4,9.6l12.7,11l-6.9,11.8c-0.4,0.5-0.5,1.2-0.5,1.9c0,2.4,1.9,4.2,4.1,4.2c1.7,0,3.1-1,3.8-2.4L77.6,76
	c2-3.9-0.9-7.2-0.9-7.2l-9.9-9.9l9.9-17.2h19.8c1.9,0,3.5-1.5,3.5-3.3C100,36.5,98.4,35,96.5,35z"/>
</svg>
