<?xml version="1.0" encoding="utf-8"?>
<!-- Generator: Adobe Illustrator 22.1.0, SVG Export Plug-In . SVG Version: 6.00 Build 0)  -->
<svg version="1.1" id="Layer_1" xmlns="http://www.w3.org/2000/svg" xmlns:xlink="http://www.w3.org/1999/xlink" x="0px" y="0px"
	 viewBox="0 0 98.3 84.5" style="enable-background:new 0 0 98.3 84.5;" xml:space="preserve">
<style type="text/css">
	.st0{fill:#FFFFFF;}
</style>
<circle class="st0" cx="50.1" cy="34.3" r="5"/>
<circle class="st0" cx="30.3" cy="34.3" r="5"/>
<circle class="st0" cx="69.4" cy="34.3" r="5"/>
<path class="st0" d="M65.2,0H33.1C14.9,0,0,14.8,0,33.1s14.8,33.1,33.1,33.1h8.3l24.7,18.3V66.1C83.9,65.6,98.3,51,98.3,33
	C98.3,14.8,83.4,0,65.2,0z M65.2,61.5h-3.8v13.7L43,61.5h-9.9c-15.7,0-28.4-12.7-28.4-28.4S17.4,4.7,33.1,4.7h32.1
	c15.7,0,28.4,12.7,28.4,28.4S80.9,61.5,65.2,61.5z"/>
</svg>
